<svg xmlns="http://www.w3.org/2000/svg" width="16.858" height="22.305" viewBox="0 0 16.858 22.305"><g transform="translate(-879.642 -459.6)"><g transform="translate(-1 -3)"><g transform="translate(880.642 462.6)" opacity="0.558"><path d="M26.081,10.852,22.644,7.416l-3.437,3.437L18.3,9.944,22.644,5.6l4.344,4.344Z" transform="translate(-14.215 -5.6)" fill="#484848"/><path d="M24,7h1.3V20.616H24Z" transform="translate(-16.219 -6.092)" fill="#484848"/><path d="M26.913,31.562H13.945A1.91,1.91,0,0,1,12,29.616V17.945A1.91,1.91,0,0,1,13.945,16h4.539v1.3H13.945a.613.613,0,0,0-.648.648V29.616a.613.613,0,0,0,.648.648H26.913a.613.613,0,0,0,.648-.648V17.945a.613.613,0,0,0-.648-.648H22.374V16h4.539a1.91,1.91,0,0,1,1.945,1.945V29.616A1.91,1.91,0,0,1,26.913,31.562Z" transform="translate(-12 -9.257)" fill="#484848"/></g></g></g></svg>