<svg xmlns="http://www.w3.org/2000/svg" width="77" height="9" viewBox="0 0 77 9"><g transform="translate(-1542 -5128)"><path d="M809.98,450.413v8.927H813v-3.194h1.03l3.64,3.194H822l-5.152-4.427,4.74-4.5H817.4l-3.366,3.12h-1.168v-3.119H809.98Zm-58.25,0h2.061l4.535,8.927h-3.16l-.756-1.524h-5.289l-.755,1.451H745l4.67-8.854h2.06Zm0,5.153h1.443l-1.442-2.613-1.373,2.613Zm7.076-5.153v8.927h3.023v-3.194h1.03l3.641,3.194h4.328l-5.22-4.427,4.67-4.5h-4.052l-3.435,3.12h-1.167v-3.119h-2.818Zm17.722,0h3.435a2.235,2.235,0,0,1,1.785,1.524,2.935,2.935,0,0,1-.618,2.83,2.123,2.123,0,0,1,.893,1.96v.363a.974.974,0,0,1-.068.435c-.207,1.017-.893,1.742-1.512,1.742h-9.067V450.34C773.025,450.413,774.811,450.413,776.528,450.413Zm0,6.46h2.13a.484.484,0,0,0,.48-.509.425.425,0,0,0-.48-.435h-4.6v.943h2.473Zm0-3.194h1.992a.509.509,0,0,0,0-1.016h-4.465v.943h2.473Zm19.714-3.266v8.854h3.022v-5.951l4.259,5.951h4.67v-8.854h-3.022v6.242l-4.327-6.242Zm-7.144,0h2.06l4.535,8.927h-3.16l-.824-1.524H786.42l-.755,1.451h-3.3l4.67-8.854h2.06Zm0,5.153h1.443l-1.443-2.613-1.374,2.613Z" transform="translate(797 4677.66)" fill="#ee3125" fill-rule="evenodd"/></g></svg>