<svg xmlns="http://www.w3.org/2000/svg" xmlns:xlink="http://www.w3.org/1999/xlink" width="456" height="211" viewBox="0 0 456 211"><defs><clipPath id="a"><rect width="455" height="211" rx="16" transform="translate(495 620)" fill="#1a9afc"/></clipPath></defs><g transform="translate(-969 -620)"><rect width="455" height="211" rx="16" transform="translate(970 620)" fill="#1a9afc"/><g transform="translate(474)" clip-path="url(#a)"><circle cx="134" cy="134" r="134" transform="translate(717 634)" fill="#fff" opacity="0.178"/></g><g transform="translate(-16 7)"><text transform="translate(1004 713)" fill="#fff" font-size="36" font-family="OpenSans-Semibold, Open Sans" font-weight="600"><tspan x="0" y="0">Güvenli Alışveriş</tspan></text><text transform="translate(1004 732)" fill="#fff" font-size="16" font-family="OpenSans, Open Sans"><tspan x="0" y="17">Güvenle Alışveriş Yapabilirsiniz.</tspan></text></g><g transform="translate(1283.888 669)"><path d="M112.308,29.208c-.058-3.063-.114-5.956-.114-8.755a3.97,3.97,0,0,0-3.971-3.971c-16.981,0-29.91-4.88-40.686-15.358a3.97,3.97,0,0,0-5.536,0C51.225,11.6,38.3,16.483,21.319,16.483a3.971,3.971,0,0,0-3.971,3.971c0,2.8-.055,5.694-.114,8.757-.544,28.5-1.29,67.535,46.234,84.008a3.966,3.966,0,0,0,2.6,0C113.6,96.745,112.852,57.71,112.308,29.208ZM64.769,105.254C24.011,90.448,24.627,58.013,25.174,29.362c.033-1.72.065-3.386.087-5.02,15.9-.671,28.621-5.491,39.508-14.974,10.888,9.484,23.608,14.3,39.512,14.974.022,1.633.054,3.3.087,5.017C104.914,58.012,105.53,90.447,64.769,105.254Z" transform="translate(0 0)" fill="#fff"/><path d="M102.629,80.048,83.465,99.212l-8.178-8.178a3.971,3.971,0,0,0-5.615,5.615l10.985,10.985a3.971,3.971,0,0,0,5.615,0l21.971-21.971a3.97,3.97,0,1,0-5.614-5.615Z" transform="translate(-24.187 -37.123)" fill="#fff"/></g></g></svg>