<svg xmlns="http://www.w3.org/2000/svg" width="99.016" height="50" viewBox="0 0 99.016 50"><g transform="translate(-779 -424)"><g transform="translate(24 50)"><g transform="translate(0.016)"><rect width="99.016" height="50" rx="25" transform="translate(754.984 374)"/></g></g><path d="M18.8,26.462c-1.439,1.4-3.027,1.179-4.54.52a5.752,5.752,0,0,0-4.779,0c-2.116.913-3.239.648-4.514-.52C-2.23,19.054-1.168,7.77,7.01,7.346c1.983.106,3.372,1.1,4.54,1.179,1.736-.353,3.4-1.365,5.257-1.232A6.4,6.4,0,0,1,21.825,9.94a5.836,5.836,0,0,0,.714,10.514A14.924,14.924,0,0,1,18.8,26.48Zm-7.408-19.2A6.045,6.045,0,0,1,16.913,1C17.335,4.8,13.461,7.638,11.391,7.266Z" transform="translate(816.836 435)" fill="#fff"/></g></svg>