<svg xmlns="http://www.w3.org/2000/svg" width="42.198" height="12.717" viewBox="0 0 42.198 12.717"><g transform="translate(-1253 -5126)"><g transform="translate(318.6 4587.87)"><path d="M944.885,538.13l4.2,6.071,4.2-6.071Z" fill="#fec10e" fill-rule="evenodd"/><path d="M939.565,541.372l-5.165,9.3h2.552l.907-1.862H942.3l.945,1.862h2.537l-5.212-9.3Zm.5,2.806,1.554,2.992h-3.108l1.554-2.993Z" fill="#231f20" fill-rule="evenodd"/><path d="M951.454,550.675l-2.4-3.035-2.037,3.035h-2.578l3.469-4.766-3.29-4.555h2.495l1.971,2.847,1.971-2.847h2.48l-3.357,4.555,3.9,4.766Z" fill="#231f20" fill-rule="evenodd"/><path d="M962.571,546.681h-6.654a2.34,2.34,0,0,0,.794,1.761,2.786,2.786,0,0,0,1.866.592,3.061,3.061,0,0,0,2.263-.78l.84,1.664a5.353,5.353,0,0,1-3.425.929,4.507,4.507,0,0,1-3.41-1.28,4.781,4.781,0,0,1-1.206-3.448,4.98,4.98,0,0,1,1.274-3.477,4.307,4.307,0,0,1,3.357-1.46,4.528,4.528,0,0,1,3.207,1.153,4.093,4.093,0,0,1,1.274,3.14,6.151,6.151,0,0,1-.18,1.206m-6.58-1.633h4.58A2.045,2.045,0,0,0,958.307,543a2.237,2.237,0,0,0-2.315,2.046m7.174,5.028.772-1.731a3.475,3.475,0,0,0,2.2.772q1.275,0,1.274-.907a1.3,1.3,0,0,0-.66-1.08,7.687,7.687,0,0,0-1.213-.591q-2.414-1-2.413-2.795a2.211,2.211,0,0,1,1.041-1.97,3.968,3.968,0,0,1,2.24-.593,5.956,5.956,0,0,1,2.736.652l-.63,1.694a2.939,2.939,0,0,0-1.985-.615q-1.14,0-1.14.907c0,.32.266.622.795.907a11.758,11.758,0,0,0,1.184.509q2.309.908,2.308,2.833a2.425,2.425,0,0,1-1.124,2.157,4.437,4.437,0,0,1-2.458.622,5.86,5.86,0,0,1-1.521-.165,7.334,7.334,0,0,1-1.409-.606m6.92,0,.772-1.731a3.476,3.476,0,0,0,2.2.772q1.275,0,1.274-.907a1.3,1.3,0,0,0-.66-1.08,7.665,7.665,0,0,0-1.214-.591q-2.412-1-2.413-2.795a2.211,2.211,0,0,1,1.042-1.97,3.966,3.966,0,0,1,2.24-.593,5.959,5.959,0,0,1,2.736.652l-.63,1.694a2.94,2.94,0,0,0-1.986-.615q-1.139,0-1.139.907,0,.48.8.907a11.754,11.754,0,0,0,1.184.509q2.309.908,2.308,2.833a2.425,2.425,0,0,1-1.124,2.157,4.439,4.439,0,0,1-2.458.622,5.85,5.85,0,0,1-1.521-.165,7.336,7.336,0,0,1-1.41-.606" fill="#231f20" fill-rule="evenodd"/></g></g></svg>