<svg xmlns="http://www.w3.org/2000/svg" width="27.851" height="27.859" viewBox="0 0 27.851 27.859"><g transform="translate(0 0.007)"><path d="M10.444,24.321H1.16A1.16,1.16,0,1,1,1.16,22h9.284a1.16,1.16,0,1,1,0,2.321Z" transform="translate(0 3.531)"/><path d="M8.123,20.321H1.16A1.16,1.16,0,0,1,1.16,18H8.123a1.16,1.16,0,0,1,0,2.321Z" transform="translate(0 2.889)"/><path d="M5.8,16.321H1.16A1.16,1.16,0,0,1,1.16,14H5.8a1.16,1.16,0,0,1,0,2.321Z" transform="translate(0 2.247)"/><path d="M15.079,27.8a1.162,1.162,0,1,1-.1-2.321A11.6,11.6,0,1,0,2.361,12.87,1.161,1.161,0,0,1,.05,12.662,13.926,13.926,0,1,1,15.183,27.795C15.148,27.8,15.112,27.8,15.079,27.8Z" transform="translate(0.007 0)"/><path d="M12.16,6A1.16,1.16,0,0,0,11,7.16v5.8a1.16,1.16,0,0,0,.34.82l3.481,3.481a1.16,1.16,0,1,0,1.641-1.641l-3.141-3.141V7.16A1.16,1.16,0,0,0,12.16,6Z" transform="translate(1.765 0.964)"/></g></svg>