<svg xmlns="http://www.w3.org/2000/svg" width="93" height="42" viewBox="0 0 93 42"><g transform="translate(-1509 -329)"><g transform="translate(0 -66)"><rect width="93" height="42" transform="translate(1509 395)" fill="#fff"/><g transform="translate(1523.1 409)"><path d="M-.093,0A12.972,12.972,0,0,0,2.556.719a25.629,25.629,0,0,0,3.852.332A7.9,7.9,0,0,1,8.019,1.2a3.058,3.058,0,0,1,2.524,3.1,2.778,2.778,0,0,1-1.2,2.2c-.09.069-.187.131-.3.207a5.22,5.22,0,0,1,1.148.8,3.172,3.172,0,0,1-.4,4.91,4.364,4.364,0,0,1-2.462.809c-1.369.041-2.746.014-4.108.138a22.425,22.425,0,0,0-3.105.463,1.931,1.931,0,0,1-.221.028C-.093,9.24-.093,4.641-.093,0ZM2.694,11.08a.615.615,0,0,0,.38.055c.934,0,1.867.007,2.794,0,.29,0,.574-.014.858-.041a1.649,1.649,0,0,0,1.522-1.48A1.516,1.516,0,0,0,6.837,7.96,4.476,4.476,0,0,0,5.979,7.9H3.047a.587.587,0,0,0-.353.048Zm0-7.905V5.823a.952.952,0,0,0,.18.028h3.32A2.242,2.242,0,0,0,7.224,5.6a1.182,1.182,0,0,0,.692-1.238A1.311,1.311,0,0,0,6.629,3.223C5.329,3.112,4.029,3.2,2.694,3.174Z"/><path d="M175.2,56.165c.512-.56.851-1.155,1.279-1.681a3.359,3.359,0,0,1,2.047-1.2,9.258,9.258,0,0,1,4.108.124,2.643,2.643,0,0,1,2.165,2.843c.007,1.466,0,2.925,0,4.392a2.21,2.21,0,0,0,.83,1.978H183.25c-.844,0-1-.118-1.252-.92-.021,0-.048-.014-.062-.007a5.7,5.7,0,0,1-5.146.643,2.079,2.079,0,0,1-1.563-1.909,2.313,2.313,0,0,1,1.017-2.365,6.618,6.618,0,0,1,2.656-.92c.712-.124,1.432-.228,2.144-.346a2.2,2.2,0,0,0,.367-.1.7.7,0,0,0,.38-1.183,1.455,1.455,0,0,0-.878-.574,2.971,2.971,0,0,0-1.7.048,1.338,1.338,0,0,0-.788.581,1.145,1.145,0,0,1-1.127.588C176.632,56.151,175.961,56.165,175.2,56.165Zm6.785,1.771a4.2,4.2,0,0,1-1.708.6,7.442,7.442,0,0,0-2.047.456.964.964,0,0,0-.622.982.886.886,0,0,0,.788.761,4.243,4.243,0,0,0,2.386-.1,1.7,1.7,0,0,0,1.2-1.542C182.012,58.738,181.985,58.371,181.985,57.935Z" transform="translate(-163.176 -49.442)"/><path d="M496.993,59.519a3.349,3.349,0,0,0-.892.982,4.182,4.182,0,0,1-3.749,2.013,6.268,6.268,0,0,1-2.663-.47,4.787,4.787,0,0,1-.616-8.32,5.486,5.486,0,0,1,5.491.021,3.981,3.981,0,0,1,1.964,3.451c.021.214.014.436.014.657-.007.484-.111.588-.595.588h-5.5c-.692,0-.809.145-.671.83a1.635,1.635,0,0,0,.851,1.162,2.941,2.941,0,0,0,2.082.256,1.719,1.719,0,0,0,1.093-.844.539.539,0,0,1,.491-.318C495.16,59.526,496.024,59.519,496.993,59.519Zm-5.028-2.635h1.694c.387,0,.526-.166.456-.539a1.763,1.763,0,0,0-.249-.6,2.447,2.447,0,0,0-3.168-.705,1.822,1.822,0,0,0-.906,1.162c-.124.477.035.678.519.678C490.858,56.884,491.411,56.884,491.965,56.884Z" transform="translate(-453.348 -49.331)"/><path d="M789.2,59.931h2.656a.816.816,0,0,1,.671.367,2.68,2.68,0,0,0,3.2.6.828.828,0,0,0,.47-.719.817.817,0,0,0-.526-.747,6.3,6.3,0,0,0-2.268-.539,7.931,7.931,0,0,1-2.2-.415,4.747,4.747,0,0,1-.477-.207,2.226,2.226,0,0,1-.408-3.838,3.737,3.737,0,0,1,1.577-.747,8.066,8.066,0,0,1,3.832-.041,4.607,4.607,0,0,1,2.932,2.2,3.156,3.156,0,0,0,.2.325c.069.1.145.2.214.29-.851,0-1.743.007-2.635,0a.48.48,0,0,1-.463-.353,1.136,1.136,0,0,0-.546-.6,3.063,3.063,0,0,0-2.732-.083.705.705,0,0,0-.5.712.694.694,0,0,0,.526.616,9.991,9.991,0,0,0,2.289.477,9.729,9.729,0,0,1,2.345.553,2.29,2.29,0,0,1,1.563,2.7,2.63,2.63,0,0,1-1.5,1.874,5.1,5.1,0,0,1-1.819.5,8.569,8.569,0,0,1-3.085-.18,4.308,4.308,0,0,1-2.746-2.054A1.879,1.879,0,0,0,789.2,59.931Z" transform="translate(-734.711 -49.737)"/><path d="M328.8,60.281c.913,0,1.833-.007,2.746.007a.8.8,0,0,1,.595.367,2.676,2.676,0,0,0,3.237.567.765.765,0,0,0,.007-1.376,4.741,4.741,0,0,0-1.909-.546,12.075,12.075,0,0,1-2.483-.4c-.173-.062-.346-.124-.512-.2a2.09,2.09,0,0,1-1.445-1.777,2.49,2.49,0,0,1,1.162-2.331,4.83,4.83,0,0,1,2.144-.705,7.7,7.7,0,0,1,3.154.152,4.655,4.655,0,0,1,2.787,2.179,1.931,1.931,0,0,0,.45.6h-.284c-.657,0-1.314-.014-1.971.007-.45.014-.816-.028-.982-.539a.934.934,0,0,0-.533-.477,3.165,3.165,0,0,0-2.58-.069.756.756,0,0,0-.574.74c.007.373.284.533.581.657a9.967,9.967,0,0,0,2.158.443,13.044,13.044,0,0,1,1.992.408,3.735,3.735,0,0,1,.878.4,2.358,2.358,0,0,1,.29,3.894,4.18,4.18,0,0,1-2.407.934,7.58,7.58,0,0,1-3.9-.429,4.084,4.084,0,0,1-1.909-1.639A2.061,2.061,0,0,0,328.8,60.281Z" transform="translate(-306.153 -50.073)"/><path d="M645.8,53.414c0,.118-.069.118-.118.138a1.589,1.589,0,0,0-.9,1.515c.007,1.349-.042,2.7,0,4.046a3.3,3.3,0,0,1-2.192,3.313,5.1,5.1,0,0,1-5.187-.47,2.94,2.94,0,0,1-1.369-2.573c.007-1.349-.021-2.7.007-4.046A2.019,2.019,0,0,0,635.1,53.4h3.126c.456,0,.6.145.6.595q.01,2.8.014,5.6a1.562,1.562,0,0,0,3.119.083c.028-1.867.021-3.735.028-5.6,0-.581.076-.664.65-.664H645.8Z" transform="translate(-591.269 -49.707)"/></g></g></g></svg>