<svg xmlns="http://www.w3.org/2000/svg" width="653" height="499.177" viewBox="0 0 653 499.177"><g transform="translate(-395 -959.823)"><g transform="translate(-478 549)"><circle cx="223" cy="223" r="223" transform="translate(873 464)" fill="blue" opacity="0.015"/><circle cx="223" cy="223" r="223" transform="translate(1080 464)" fill="blue" opacity="0.015"/><g transform="translate(1129.514 545.374)"><path d="M1584.6,155.791h50.59a4.213,4.213,0,0,0,4.2-4.2V101a4.213,4.213,0,0,0-4.2-4.2H1584.6a4.213,4.213,0,0,0-4.2,4.2v50.59A4.194,4.194,0,0,0,1584.6,155.791Z" transform="translate(-1580.4 -96.8)" fill="blue" opacity="0.02"/><path d="M1495.271,267.129h32.286a5.968,5.968,0,0,0,5.971-5.971V228.871a5.968,5.968,0,0,0-5.971-5.971h-32.286a5.967,5.967,0,0,0-5.971,5.971v32.286A5.967,5.967,0,0,0,1495.271,267.129Z" transform="translate(-1447.202 -185.063)" fill="blue" opacity="0.02"/></g><g transform="translate(1385.857 687.065)"><path d="M303.141,1131.066h81.985a4.14,4.14,0,0,0,4.14-4.14V1044.94a4.14,4.14,0,0,0-4.14-4.14H303.141a4.14,4.14,0,0,0-4.14,4.14v81.985A4.125,4.125,0,0,0,303.141,1131.066Z" transform="translate(-299 -1018.655)" fill="blue" opacity="0.03"/><path d="M211.681,992.609h37.647a3.072,3.072,0,0,0,3.081-3.081V951.881a3.072,3.072,0,0,0-3.081-3.081H211.681a3.072,3.072,0,0,0-3.081,3.081v37.647A3.072,3.072,0,0,0,211.681,992.609Z" transform="translate(-140.383 -948.8)" fill="blue" opacity="0.03"/></g><g transform="translate(895.506 674.636)"><path d="M372.841,1118.191H302.55a3.55,3.55,0,0,1-3.55-3.55V1044.35a3.55,3.55,0,0,1,3.55-3.55h70.292a3.55,3.55,0,0,1,3.55,3.55v70.291A3.536,3.536,0,0,1,372.841,1118.191Z" transform="translate(-280.344 -1021.813)" fill="blue" opacity="0.03"/><path d="M243.519,986.36H211.242a2.634,2.634,0,0,1-2.642-2.642V951.442a2.634,2.634,0,0,1,2.642-2.642h32.277a2.634,2.634,0,0,1,2.642,2.642v32.277A2.634,2.634,0,0,1,243.519,986.36Z" transform="translate(-208.6 -948.8)" fill="blue" opacity="0.03"/></g><g transform="translate(1393.621 554.384)"><path d="M306.032,142.957h31.861a7.164,7.164,0,0,0,7.163-7.163v-31.83a7.164,7.164,0,0,0-7.163-7.163h-31.83a7.164,7.164,0,0,0-7.163,7.163v31.83A7.158,7.158,0,0,0,306.032,142.957Z" transform="translate(-270.714 -96.8)" fill="blue" opacity="0.03"/><path d="M407.293,237.588h30.8a5.782,5.782,0,0,0,5.793-5.793v-30.8A5.782,5.782,0,0,0,438.1,195.2h-30.8a5.782,5.782,0,0,0-5.793,5.793v30.8A5.8,5.8,0,0,0,407.293,237.588Z" transform="translate(-401.5 -164.553)" fill="blue" opacity="0.03"/></g></g><g transform="translate(416.668 959.823)"><g transform="translate(52.014)"><g transform="translate(0 125.761)"><path d="M122.425,454.179l-10.55,79.831S89.438,544.631,83.6,611.661l7.385,3.095L179.4,448.2l-47.125.914Z" transform="translate(-76.813 -258.715)" fill="#273455"/><path d="M209.473,436.363l60.77,72.8-13.5,99.6-8.933-.422s-14.771-51.486-.211-85.107L183.8,477.72S188.512,424.406,209.473,436.363Z" transform="translate(-106.536 -254.685)" fill="#273455"/><path d="M134.713,283.621l-3.657-2.321L130,283.973l2.321,5.838,3.024,2.673.352,1.829-1.336,10.621,11.324,9.566,5.908-10.48-1.2-7.456-3.235-2.954-12.1-9.284Z" transform="translate(-90.577 -209.206)" fill="#f6aaac"/><g transform="translate(42.94 62.134)"><path d="M147.942,267.252s8.792,17.725,4.079,23.914c0,0-9.706,2.673-17.021-14.278C135,276.888,139.15,265.916,147.942,267.252Z" transform="translate(-135 -267.14)" fill="#f6aaac"/></g><g transform="translate(35.401 55.93)"><path d="M126.475,264.073s10.9-2.251,17.021-5.346a3.666,3.666,0,0,1,5.346,3.306c-.07,2.743-1.2,5.416-5.275,6.049,0,0-9.073-2.18-9,6.893,0,0,2.18,9.777,15.263,8.581,0,0,.492-2.954.352,6.541,0,0-5.7,8.651-15.474-6.4,0,0,.563-7.385-5.135-5.768,0,0-2.251,3.517,4.009,7.737l.633,2.884C134.212,288.62,118.668,279.617,126.475,264.073Z" transform="translate(-124.282 -258.318)" fill="#273455"/></g><g transform="translate(57.851 71.672)"><path d="M156.2,280.7l4.713,4.079a.511.511,0,0,1-.211.844l-3.728.844Z" transform="translate(-156.2 -280.7)" fill="#f6aaac"/></g><path d="M91.529,680.525l1.125.914,2.532,1.969,5.838.914a6.137,6.137,0,0,1-5.486,2.954l-7.807-1.2.492-2.954-1.407-.211-.492,2.954-3.024-.492.914-5.979,6.19.774" transform="translate(-76.724 -327.298)" fill="#273455"/><path d="M283.229,677.625l1.125.914,2.532,1.969,5.838.914a6.137,6.137,0,0,1-5.486,2.954l-7.807-1.2.492-2.954-1.407-.211-.492,2.954L275,682.479l.914-5.979,6.19.774" transform="translate(-133.59 -326.438)" fill="#273455"/><path d="M125.835,309.3,99.6,325.9l25.11,63.232L117.887,435.9l34.887-13.5,35.871-17.514-18.287-64.709-1.407-28.908-26.939.281-3.165,7.245Z" transform="translate(-81.559 -217.512)" fill="#273455"/><path d="M92.243,332.9,74.8,384.386s9.847,10.058,14.841,6.119c4.994-3.868,26.235-32.5,26.235-32.5S109.827,338.527,92.243,332.9Z" transform="translate(-74.203 -224.512)" fill="#273455"/><path d="M195.412,312.1l66.256,58.309-7.456,4.994-65.272-36.293C189.011,339.109,187.112,313.085,195.412,312.1Z" transform="translate(-108.02 -218.342)" fill="#273455"/><path d="M117.3,372.131l4.853-12.731L133.9,396.115l-7.948,35.449,2.743-30.877Z" transform="translate(-86.81 -232.373)" fill="#273455"/><path d="M155.777,312.5s19.483,25.251,30.737,58.519a44.265,44.265,0,0,1,2.04,9.425l2.11,20.046-23.492,10.55s-9.988-83.77-21.171-96.149l6.682,3.376Z" transform="translate(-95.323 -218.461)" fill="#f8f2f2"/><path d="M160.361,326.468l-.492-2.813-3.587-2.954L156,326.046l2.11.985c4.361,11.816,20.468,64.99,20.468,64.99l6.33,8.229c2.321-9.636.633-14.278-.141-19.835C184.064,374.929,160.361,326.468,160.361,326.468Z" transform="translate(-98.29 -220.893)" fill="#f33d52"/><path d="M163.908,452.6l-.985,20.538L135,475.881l27.29-6.19Z" transform="translate(-92.06 -260.02)" fill="#273455"/><path d="M191.6,484.4l15.755-40.3-10.339,38.685,52.893,43.257Z" transform="translate(-108.85 -257.499)" fill="#273455"/><path d="M162.433,409.587l-22.3-64.5,5.838.281L132.4,322.09l9.566-6.19C141.9,315.9,153.993,322.019,162.433,409.587Z" transform="translate(-91.289 -219.469)" fill="#273455"/><path d="M159.9,312.455s22.507,32.354,30.033,56.62c0,0-12.168-47.688-16.74-52.682C168.622,311.33,159.9,312.455,159.9,312.455Z" transform="translate(-99.447 -218.416)" fill="#273455"/><path d="M202.906,365.642,199.6,361l11.676,51.908,6.682,6.119-14.63-54.088" transform="translate(-111.223 -232.848)" fill="#273455"/><path d="M156.344,319.056l6.26,4.853-.211-11.746-3.446-.563L155.5,318Z" transform="translate(-98.141 -218.194)" fill="#f8f2f2"/><path d="M148.726,318.8l-.352,6.893L132.9,311.058l2.813-1.758,13.082,7.737Z" transform="translate(-91.437 -217.512)" fill="#f8f2f2"/><path d="M127.441,390.5l-47.266.774s-7.878,5.135-5.908,14.138a8.555,8.555,0,0,0,10.691,6.33l41.92-14.63Z" transform="translate(-73.951 -241.599)" fill="#273455"/><path d="M148.3,391.965l6.541-3.165,5.135,1.969-1.055,4.29-9.566.633Z" transform="translate(-96.006 -241.095)" fill="#f6aaac"/><g transform="translate(57.808)"><g transform="translate(4.158)"><rect width="103.253" height="186.109" transform="matrix(0.046, -0.999, 0.999, 0.046, 0, 144.898)" fill="#273455"/><g transform="translate(4.523)"><g transform="translate(0.647)"><path d="M183.749,207.145l-14.349-.7L183.115,178.8l12.449.563Z" transform="translate(-169.4 -178.8)" fill="#fff"/><path d="M224.449,208.886l-14.349-.633,9.917-27.853,12.449.563Z" transform="translate(-181.473 -179.275)" fill="#fff"/><path d="M265.249,210.727l-14.349-.633,6.119-27.994,12.449.563Z" transform="translate(-193.576 -179.779)" fill="#fff"/><path d="M306.049,212.538,291.7,211.9l2.251-28.2,12.449.563Z" transform="translate(-205.679 -180.254)" fill="#fff"/><path d="M346.2,214.349l-14.349-.633L330.3,185.3l12.449.563Z" transform="translate(-217.129 -180.728)" fill="#fff"/><path d="M385.364,216.16l-14.349-.7L365.6,186.9l12.449.633Z" transform="translate(-227.601 -181.203)" fill="#fff"/><path d="M424.563,218l-14.349-.7L401,188.6l12.449.563Z" transform="translate(-238.102 -181.707)" fill="#fff"/></g><g transform="translate(0 27.678)"><rect width="13.927" height="14.349" transform="matrix(0.046, -0.999, 0.999, 0.046, 0, 13.911)" fill="#fff"/><rect width="13.927" height="14.349" transform="matrix(0.046, -0.999, 0.999, 0.046, 28.585, 15.227)" fill="#fff"/><rect width="13.927" height="14.349" transform="matrix(0.046, -0.999, 0.999, 0.046, 57.306, 16.549)" fill="#fff"/><rect width="13.927" height="14.349" transform="matrix(0.046, -0.999, 0.999, 0.046, 86.028, 17.871)" fill="#fff"/><rect width="13.927" height="14.349" transform="matrix(0.046, -0.999, 0.999, 0.046, 114.75, 19.193)" fill="#fff"/><rect width="13.927" height="14.349" transform="matrix(0.046, -0.999, 0.999, 0.046, 143.399, 20.578)" fill="#fff"/><rect width="13.927" height="14.349" transform="matrix(0.046, -0.999, 0.999, 0.046, 172.124, 21.83)" fill="#fff"/></g></g><g transform="translate(74.546 69.028)"><rect width="78.917" height="36.856" transform="translate(0 78.83) rotate(-87.359)" fill="#88a1c4"/></g><g transform="translate(5.78 51.825)"><rect width="86.021" height="58.519" transform="matrix(0.046, -0.999, 0.999, 0.046, 0, 85.926)" fill="#88a1c4"/></g><g transform="translate(121.409 57.104)"><rect width="86.021" height="58.519" transform="matrix(0.046, -0.999, 0.999, 0.046, 0, 85.926)" fill="#88a1c4"/></g></g><rect width="9.144" height="193.986" transform="matrix(0.046, -0.999, 0.999, 0.046, 0, 150.114)" fill="#273455"/></g><path d="M294.073,396.486l3.587-4.431L294.355,391l-4.15,2.813-5.2,2.251,6.119,3.165Z" transform="translate(-136.556 -241.747)" fill="#f6aaac"/></g><g transform="translate(52.154)"><rect width="84.895" height="153.051" transform="matrix(0.046, -0.999, 0.999, 0.046, 39.157, 119.621)" fill="#273455"/><g transform="translate(43.327 0.492)"><path d="M221.516,23.981,209.7,23.419,221.024.7l10.2.422Z" transform="translate(-209.7 -0.7)" fill="#fff"/><path d="M255.016,25.422,243.2,24.93,251.359,2l10.269.492Z" transform="translate(-219.637 -1.086)" fill="#fff"/><path d="M288.546,26.963,276.8,26.4l4.994-23,10.2.422Z" transform="translate(-229.605 -1.501)" fill="#fff"/><path d="M322.116,28.4,310.3,27.841,312.129,4.7l10.269.492Z" transform="translate(-239.542 -1.887)" fill="#fff"/><path d="M355.082,29.914l-11.816-.563L342,6l10.2.492Z" transform="translate(-248.946 -2.272)" fill="#fff"/><path d="M387.277,31.385l-11.746-.563L371.1,7.4l10.2.422Z" transform="translate(-257.578 -2.687)" fill="#fff"/><path d="M419.513,32.9,407.7,32.333,400.1,8.7l10.2.492Z" transform="translate(-266.18 -3.073)" fill="#fff"/></g><rect width="11.465" height="11.816" transform="matrix(0.046, -0.999, 0.999, 0.046, 42.8, 34.612)" fill="#fff"/><rect width="11.465" height="11.816" transform="matrix(0.046, -0.999, 0.999, 0.046, 66.432, 35.782)" fill="#fff"/><rect width="11.465" height="11.816" transform="matrix(0.046, -0.999, 0.999, 0.046, 89.929, 36.875)" fill="#fff"/><rect width="11.465" height="11.816" transform="matrix(0.046, -0.999, 0.999, 0.046, 113.567, 37.907)" fill="#fff"/><rect width="11.465" height="11.816" transform="translate(137.137 39.004) rotate(-87.359)" fill="#fff"/><rect width="11.465" height="11.816" transform="matrix(0.046, -0.999, 0.999, 0.046, 160.77, 40.103)" fill="#fff"/><path d="M189.5,207.383l-.7,13.856,14.349.7.633-13.927,9.917-27.853L201.32,179.6Z" transform="translate(-160.173 -53.277)" fill="#1a9afc"/><path d="M230.233,209.123,229.6,223.05l14.349.633.633-13.856,6.119-27.994-12.449-.633Z" transform="translate(-172.276 -53.751)" fill="#1a9afc"/><path d="M271.033,210.964l-.633,13.927,14.349.633.633-13.856,2.251-28.2-12.379-.563Z" transform="translate(-184.379 -54.256)" fill="#1a9afc"/><path d="M312.185,184.5l-.352,28.275L311.2,226.7l14.349.633.633-13.856-1.547-28.416Z" transform="translate(-196.482 -54.73)" fill="#1a9afc"/><path d="M348,186.1l3.446,28.486-.633,13.856,14.349.7.633-13.927-5.416-28.556Z" transform="translate(-207.398 -55.205)" fill="#1a9afc"/><path d="M383.3,187.8l7.315,28.627-.633,13.856,14.349.7.633-13.927-9.214-28.7Z" transform="translate(-217.87 -55.709)" fill="#1a9afc"/><path d="M431.079,189.963,418.7,189.4l11.113,28.838-.633,13.856,14.349.633.633-13.856Z" transform="translate(-228.371 -56.184)" fill="#1a9afc"/><path d="M163.082,206.2,176.8,178.563,164.348,178l-15.615,27.572-.633,13.856,14.278.7Z" transform="translate(-148.1 -52.802)" fill="#1a9afc"/><path d="M296.739,4l-3.446,23.141L292.8,38.535l11.816.563.492-11.465,1.829-23.141Z" transform="translate(-191.024 -1.187)" fill="#1a9afc"/><path d="M327.144,5.4l-.281,23.211L326.3,40.076l11.816.492.492-11.394L337.343,5.822Z" transform="translate(-200.961 -1.602)" fill="#1a9afc"/><path d="M356.5,6.7l2.884,23.422-.563,11.394,11.816.563.563-11.465L366.769,7.192Z" transform="translate(-209.92 -1.987)" fill="#1a9afc"/><path d="M204.509,23.211,215.833.492,205.564,0,192.692,22.648,192.2,34.113l11.816.492Z" transform="translate(-161.182)" fill="#1a9afc"/><path d="M238.009,24.722l8.159-22.93-10.2-.492-9.706,22.859L225.7,35.554l11.816.563Z" transform="translate(-171.119 -0.386)" fill="#1a9afc"/><path d="M271.609,26.192l4.994-23L266.4,2.7l-6.612,22.93L259.3,37.094l11.746.492Z" transform="translate(-181.086 -0.801)" fill="#1a9afc"/><path d="M391.086,43.027l11.746.492.563-11.394L395.8,8.492,385.6,8l5.979,23.563Z" transform="translate(-218.552 -2.373)" fill="#1a9afc"/><path d="M423.251,44.5l11.816.563L435.56,33.6l-10.691-23.7L414.6,9.4l9.214,23.7Z" transform="translate(-227.155 -2.788)" fill="#1a9afc"/><rect width="11.465" height="11.816" transform="matrix(0.046, -0.999, 0.999, 0.046, 184.34, 41.132)" fill="#fff"/><g transform="translate(100.428 57.221)"><rect width="64.92" height="30.315" transform="translate(0 64.849) rotate(-87.359)" fill="#88a1c4"/></g><g transform="translate(43.863 43.062)"><rect width="70.688" height="48.11" transform="matrix(0.046, -0.999, 0.999, 0.046, 0, 70.61)" fill="#88a1c4"/></g><g transform="translate(138.885 47.423)"><rect width="70.688" height="48.11" transform="matrix(0.046, -0.999, 0.999, 0.046, 0, 70.61)" fill="#88a1c4"/></g><rect width="7.526" height="159.452" transform="matrix(0.046, -0.999, 0.999, 0.046, 35.704, 123.907)" fill="#273455"/></g></g><g transform="translate(280.007 158.045)"><g transform="translate(0 99.103)"><rect width="85.81" height="111.904" fill="#fff"/><g transform="translate(8.089 42.975)"><rect width="42.483" height="0.844" fill="#88a1c4"/><rect width="55.354" height="0.844" transform="translate(0 4.22)" fill="#88a1c4"/><rect width="55.354" height="0.844" transform="translate(0 8.44)" fill="#88a1c4"/><rect width="55.354" height="0.844" transform="translate(0 12.66)" fill="#88a1c4"/></g><g transform="translate(8.089 63.302)"><rect width="42.483" height="0.844" fill="#88a1c4"/><rect width="55.354" height="0.844" transform="translate(0 4.22)" fill="#88a1c4"/><rect width="55.354" height="0.844" transform="translate(0 8.44)" fill="#88a1c4"/><rect width="55.354" height="0.844" transform="translate(0 12.66)" fill="#88a1c4"/></g><g transform="translate(8.089 83.559)"><rect width="42.483" height="0.844" fill="#88a1c4"/><rect width="55.354" height="0.844" transform="translate(0 4.22)" fill="#88a1c4"/><rect width="55.354" height="0.844" transform="translate(0 8.44)" fill="#88a1c4"/><rect width="55.354" height="0.844" transform="translate(0 12.731)" fill="#88a1c4"/></g><g transform="translate(67.481 47.025)"><path d="M503.085,435.09c.141.563.352,1.055.422,1.547a4.8,4.8,0,0,1-3.587,5.275,4.69,4.69,0,0,1-5.557-3.024,4.55,4.55,0,0,1,.985-4.923,4.739,4.739,0,0,1,4.994-1.266c.211.07.633.07.492.492a.6.6,0,0,1-.774.352,3.874,3.874,0,0,0-5.135,3.376,3.9,3.9,0,0,0,7.174,2.462,3.625,3.625,0,0,0,.492-3.165C502.452,435.793,502.663,435.512,503.085,435.09Z" transform="translate(-494.041 -432.457)" fill="#f33d52"/><path d="M499.735,438.28c.422-.7.7-1.407,1.125-2.11a16.362,16.362,0,0,1,1.2-1.829,1.214,1.214,0,0,1,1.407-.563c.352.07.492.211.211.563a21.527,21.527,0,0,0-2.884,4.924,2.19,2.19,0,0,1-.492.633.793.793,0,0,1-1.125-.141c-.7-.7-1.407-1.407-2.18-2.04-.352-.281-.352-.422.07-.633a1.179,1.179,0,0,1,1.407.211A3.879,3.879,0,0,1,499.735,438.28Z" transform="translate(-494.84 -432.834)" fill="#f33d52"/></g><g transform="translate(67.481 67.774)"><path d="M503.085,464.59c.141.563.352,1.055.422,1.547a4.8,4.8,0,0,1-3.587,5.275,4.69,4.69,0,0,1-5.557-3.024,4.55,4.55,0,0,1,.985-4.924,4.739,4.739,0,0,1,4.994-1.266c.211.07.633.07.492.492a.6.6,0,0,1-.774.352,3.874,3.874,0,0,0-5.135,3.376,3.9,3.9,0,0,0,7.174,2.462,3.625,3.625,0,0,0,.492-3.165C502.452,465.293,502.663,465.012,503.085,464.59Z" transform="translate(-494.041 -461.957)" fill="#f33d52"/><path d="M499.735,467.68c.422-.7.7-1.407,1.125-2.11a16.368,16.368,0,0,1,1.2-1.829,1.214,1.214,0,0,1,1.407-.563c.352.07.492.211.211.563a21.528,21.528,0,0,0-2.884,4.924,2.19,2.19,0,0,1-.492.633.793.793,0,0,1-1.125-.141c-.7-.7-1.407-1.407-2.18-2.04-.352-.281-.352-.422.07-.633a1.179,1.179,0,0,1,1.407.211A5.161,5.161,0,0,1,499.735,467.68Z" transform="translate(-494.84 -462.304)" fill="#f33d52"/></g><g transform="translate(67.481 88.452)"><path d="M503.085,493.99c.141.563.352,1.055.422,1.547a4.8,4.8,0,0,1-3.587,5.275,4.69,4.69,0,0,1-5.557-3.024,4.55,4.55,0,0,1,.985-4.923,4.739,4.739,0,0,1,4.994-1.266c.211.07.633.07.492.492a.6.6,0,0,1-.774.352,3.874,3.874,0,0,0-5.135,3.376,3.9,3.9,0,0,0,7.174,2.462,3.625,3.625,0,0,0,.492-3.165C502.452,494.763,502.663,494.412,503.085,493.99Z" transform="translate(-494.041 -491.357)" fill="#f33d52"/><path d="M499.735,497.18c.422-.7.7-1.407,1.125-2.11a16.373,16.373,0,0,1,1.2-1.829,1.214,1.214,0,0,1,1.407-.563c.352.07.492.211.211.563a21.528,21.528,0,0,0-2.884,4.924,2.189,2.189,0,0,1-.492.633.793.793,0,0,1-1.125-.141c-.7-.7-1.407-1.407-2.18-2.04-.352-.281-.352-.422.07-.633a1.179,1.179,0,0,1,1.407.211A3.878,3.878,0,0,1,499.735,497.18Z" transform="translate(-494.84 -491.734)" fill="#f33d52"/></g><g transform="translate(45.507 13.434)"><rect width="22.789" height="2.18" transform="translate(6.893)" fill="#88a1c4"/><rect width="29.752" height="2.18" transform="translate(0 6.752)" fill="#88a1c4"/><rect width="29.752" height="2.18" transform="translate(0 13.434)" fill="#88a1c4"/><rect width="29.752" height="2.18" transform="translate(0 20.116)" fill="#88a1c4"/></g></g><g transform="translate(52.668)"><g transform="translate(0 57.042)"><path d="M472.994,362.3l.141-.985a2.242,2.242,0,0,1,1.829-1.969l4.713-.844.774,3.095L477,363l-1.477,2.321h-.211A2.83,2.83,0,0,1,472.994,362.3Z" transform="translate(-472.981 -321.433)" fill="#f6aaac"/><path d="M555.419,305.8l-36.153,22.93L480.3,342.164l1.829,7.667L533.9,342.8,549.37,322.47,555,315.084Z" transform="translate(-475.152 -305.8)" fill="#1a9afc"/></g><path d="M564.364,264.285,579.556,248.6l2.6.141s5.486.352,1.829,6.119l-4.431,6.893,11.394,18.569-25.321,5.416,2.532-17.936C568.162,267.731,562.676,267.591,564.364,264.285Z" transform="translate(-499.993 -231.79)" fill="#f6aaac"/><g transform="translate(62.328 9.593)"><path d="M564.553,238.523s-6.049,19.061-.844,25.321c0,0,10.269,2.321,17.092-15.615C580.871,248.229,573.626,236.764,564.553,238.523Z" transform="translate(-561.596 -238.339)" fill="#f6aaac"/></g><g transform="translate(60.84 19.483)"><path d="M563.5,252.4l-3.939,5.2a.488.488,0,0,0,.352.774l4.009.07Z" transform="translate(-559.48 -252.4)" fill="#f6aaac"/></g><path d="M563.775,240.718s4.994-2.11,6.612-.281c1.618,1.758.844,11.043.844,11.043l1.829,1.2.985-5.2a2.532,2.532,0,0,1,4.29,0,2.311,2.311,0,0,1,.141,2.18l-1.829,2.743,3.446,2.743,6.682-8.862a9.7,9.7,0,0,0,.352-5.979l-2.251-5.135a6.818,6.818,0,0,0-4.783-3.868C573.341,229.745,560.469,228.479,563.775,240.718Z" transform="translate(-499.756 -226.369)" fill="#273455"/><path d="M570.47,258.679v4.15l-7.174,3.235h-2.04s-1.688,5.416.7,5.908l2.391.563,8.159-6.963.774-10.972Z" transform="translate(-498.995 -233.57)" fill="#273455"/><path d="M563.486,239.049s-3.868-12.168,2.18-14.349c0,0,1.758,4.853,8.018,3.939s9.5,1.9,10.832,4.783c0,0,5.275,3.235,2.04,8.792L581,239.189C581.07,239.189,562.712,233.984,563.486,239.049Z" transform="translate(-499.467 -224.7)" fill="#273455"/><path d="M541.107,295.326l-1.407,14.7.985,6.119,6.893-.422,3.165-7.878,1.125,2.251,11.605-13.645V279.5l-16.81,8.089A9.451,9.451,0,0,0,541.107,295.326Z" transform="translate(-492.773 -240.956)" fill="#1a9afc"/><path d="M550.226,381.264l-10.55-60.137a23.388,23.388,0,0,1,3.657-14.349l16.037-24.9,12.449-1.547,5.557-2.532,16.951.492,3.024,47.688v58.871Z" transform="translate(-492.748 -240.452)" fill="#fff"/><path d="M621.8,471.317l6.752-14.349a27.193,27.193,0,0,0-3.095-20.89L621.8,430.1v41.217Z" transform="translate(-517.127 -285.63)" fill="#273455"/><path d="M574.181,504.52l13.856-78.495L553.573,424.9,550.9,504.52Z" transform="translate(-496.095 -284.087)" fill="#273455"/><path d="M606.723,503.779l3.657-49.165L606.09,422.4l-35.59,2.11,11.816,79.269Z" transform="translate(-501.909 -283.346)" fill="#273455"/><path d="M580.7,301.786l6.119,53.877,17.654,31.792,30.033-6.26-22.719-43.116,11.605-43.96-8.722-10.48-1.266-5.2-25.18-5.135Z" transform="translate(-504.935 -239.117)" fill="#1a9afc"/><path d="M611.232,535.46a8.426,8.426,0,0,1,2.462,2.6c4.431,6.471,12.45,27.712,1.125,92.07h-5.627L585.7,529.2" transform="translate(-506.418 -315.027)" fill="#273455"/><path d="M546.717,537.536l-9.917,91.3h6.612s30.174-59.645,26.235-92.632Z" transform="translate(-491.912 -317.104)" fill="#273455"/><path d="M614.118,670.153l3.165-4.853.422,12.1-5.627,1.829-.633-1.829-2.462,2.884-11.183.492.774-1.266,6.963-2.321,3.657-2.673Z" transform="translate(-510.007 -355.4)" fill="#273455"/><path d="M532.148,664.7l3.165,2.18.492,5.064-5.627,1.829-.633-1.829-2.462,2.813-11.183.492.7-1.2,6.963-2.321,3.658-2.673Z" transform="translate(-485.713 -355.222)" fill="#273455"/><g transform="translate(19.707 38.4)"><path d="M508.948,305.9l-6.049-4.5-1.9,4.853,1.758,3.446,4.15-.633Z" transform="translate(-501 -285.853)" fill="#1a9afc"/><path d="M581.9,283.167a9.44,9.44,0,0,1,11.816-2.884c5.064,2.532,10.41,7.807,9.284,19.061-2.04,20.4-49.657,41.217-49.657,41.217L507.7,304.268l3.235-4.923,44.945,18.991Z" transform="translate(-502.987 -279.296)" fill="#1a9afc"/></g></g><path d="M509.492,305.515l-1.125-4.15s-1.547-.844-.844,2.884Z" transform="translate(-430.505 -247.418)" fill="#f6aaac"/></g><g transform="translate(427.881 166.497)"><g transform="translate(0 123.432)"><rect width="85.81" height="111.904" transform="translate(0 9.568) rotate(-6.402)" fill="#fff"/><g transform="translate(12.809 46.664)"><rect width="42.483" height="0.844" transform="translate(0 4.737) rotate(-6.402)" fill="#88a1c4"/><rect width="55.354" height="0.844" transform="translate(0.462 8.972) rotate(-6.402)" fill="#88a1c4"/><rect width="55.354" height="0.844" transform="translate(0.955 13.192) rotate(-6.402)" fill="#88a1c4"/><rect width="55.354" height="0.844" transform="translate(1.44 17.272) rotate(-6.402)" fill="#88a1c4"/></g><g transform="translate(15.06 66.851)"><rect width="42.483" height="0.844" transform="translate(0 4.737) rotate(-6.402)" fill="#88a1c4"/><rect width="55.354" height="0.844" transform="translate(0.526 8.902) rotate(-6.402)" fill="#88a1c4"/><rect width="55.354" height="0.844" transform="translate(0.955 13.121) rotate(-6.402)" fill="#88a1c4"/><rect width="55.354" height="0.844" transform="translate(1.447 17.341) rotate(-6.402)" fill="#88a1c4"/></g><g transform="translate(17.374 86.968)"><rect width="42.483" height="0.844" transform="translate(0 4.737) rotate(-6.402)" fill="#88a1c4"/><rect width="55.354" height="0.844" transform="translate(0.462 8.901) rotate(-6.402)" fill="#88a1c4"/><rect width="55.354" height="0.844" transform="translate(0.891 13.191) rotate(-6.402)" fill="#88a1c4"/><rect width="55.354" height="0.844" transform="translate(1.384 17.411) rotate(-6.402)" fill="#88a1c4"/></g><g transform="translate(72.726 48.209)"><path d="M720.573,482.894c.211.563.492.985.633,1.477a4.778,4.778,0,0,1-8.933,3.235,4.478,4.478,0,0,1,.492-4.994,4.531,4.531,0,0,1,4.783-1.758c.211.07.633,0,.563.422-.07.352-.352.492-.774.422a3.911,3.911,0,1,0-1.547,7.667,3.917,3.917,0,0,0,4.29-2.11,3.585,3.585,0,0,0,.141-3.165C720.01,483.668,720.221,483.387,720.573,482.894Z" transform="translate(-711.736 -480.747)" fill="#f33d52"/><path d="M717.632,486.219a20.257,20.257,0,0,1,.914-2.18,17.142,17.142,0,0,1,.985-1.969,1.392,1.392,0,0,1,1.336-.774c.352.07.492.211.281.492a23.058,23.058,0,0,0-2.321,5.2,2.341,2.341,0,0,1-.422.7c-.422.352-.7.281-1.125-.07-.774-.633-1.547-1.2-2.391-1.829-.352-.281-.352-.422,0-.633a1.16,1.16,0,0,1,1.407,0A9.793,9.793,0,0,0,717.632,486.219Z" transform="translate(-712.593 -480.907)" fill="#f33d52"/></g><g transform="translate(75.047 68.817)"><path d="M723.873,512.194c.211.563.492.985.633,1.477a4.778,4.778,0,0,1-8.933,3.235,4.478,4.478,0,0,1,.492-4.994,4.531,4.531,0,0,1,4.783-1.758c.211.07.633,0,.563.422-.07.352-.352.492-.774.422a3.911,3.911,0,1,0-1.547,7.667,3.917,3.917,0,0,0,4.29-2.11,3.585,3.585,0,0,0,.141-3.165C723.31,512.968,723.451,512.616,723.873,512.194Z" transform="translate(-715.036 -510.047)" fill="#f33d52"/><path d="M720.932,515.519a20.266,20.266,0,0,1,.914-2.18,17.132,17.132,0,0,1,.985-1.969,1.392,1.392,0,0,1,1.336-.774c.352.07.492.211.281.492a23.051,23.051,0,0,0-2.321,5.2,2.341,2.341,0,0,1-.422.7c-.422.352-.7.281-1.125-.07-.774-.633-1.547-1.2-2.391-1.829-.352-.281-.352-.422,0-.633a1.16,1.16,0,0,1,1.407,0A11.058,11.058,0,0,0,720.932,515.519Z" transform="translate(-715.893 -510.207)" fill="#f33d52"/></g><g transform="translate(77.368 89.355)"><path d="M727.173,541.394c.211.563.492.985.633,1.477a4.778,4.778,0,0,1-8.933,3.235,4.478,4.478,0,0,1,.492-4.994,4.531,4.531,0,0,1,4.783-1.758c.211.07.633,0,.563.422-.07.352-.352.492-.774.422a3.911,3.911,0,1,0-1.547,7.667,3.917,3.917,0,0,0,4.29-2.11,3.585,3.585,0,0,0,.141-3.165C726.61,542.238,726.751,541.887,727.173,541.394Z" transform="translate(-718.336 -539.247)" fill="#f33d52"/><path d="M724.232,544.819a20.262,20.262,0,0,1,.914-2.18,17.142,17.142,0,0,1,.985-1.969,1.392,1.392,0,0,1,1.336-.774c.352.07.492.211.281.492a23.053,23.053,0,0,0-2.321,5.2,2.341,2.341,0,0,1-.422.7c-.422.352-.7.281-1.125-.07-.774-.633-1.547-1.2-2.391-1.829-.352-.281-.352-.422,0-.633a1.159,1.159,0,0,1,1.407,0A11.075,11.075,0,0,0,724.232,544.819Z" transform="translate(-719.193 -539.436)" fill="#f33d52"/></g><g transform="translate(47.442 14.566)"><rect width="22.789" height="2.18" transform="translate(6.168 2.541) rotate(-6.402)" fill="#88a1c4"/><rect width="29.752" height="2.18" transform="translate(0 9.963) rotate(-6.402)" fill="#88a1c4"/><rect width="29.752" height="2.18" transform="translate(0.774 16.645) rotate(-6.402)" fill="#88a1c4"/><rect width="29.752" height="2.18" transform="translate(1.54 23.257) rotate(-6.402)" fill="#88a1c4"/></g></g><g transform="translate(76.78 118.223)"><path d="M719.4,407l-1.9,4.29.633,3.8h2.954v-3.8s1.758,2.673,1.125-3.165Z" transform="translate(-717.5 -405.453)" fill="#f6aaac"/><path d="M723.154,406.347l-.141,1.125-2.813-1.125.492-1.547Z" transform="translate(-718.301 -404.8)" fill="#f6aaac"/></g><path d="M779.785,260.185l2.673-1.336,3.024,1.547a29.543,29.543,0,0,0-2.884-2.6c-.281-.141-1.618.7-2.6,1.407-.7.492-1.2.914-1.2.914S779.785,260.888,779.785,260.185Z" transform="translate(-658.904 -242.965)" fill="#273455"/><path d="M782.125,263.264c0,.7-.281,1.266-.563,1.266-.352,0-.563-.563-.563-1.266s.281-1.266.563-1.266C781.844,261.927,782.125,262.49,782.125,263.264Z" transform="translate(-659.557 -244.215)" fill="#273455"/><g transform="translate(78.679)"><path d="M817.728,663,814,675.449l2.251-1.336,3.728-5.275Z" transform="translate(-748.025 -363.17)" fill="#f6aaac"/><path d="M787.385,660.4l-5.275,11.183L780,673.342l2.743-.844,5.767-7.878Z" transform="translate(-737.939 -362.399)" fill="#f6aaac"/><path d="M821.272,456.284l2.321-6.963a23.831,23.831,0,0,0-1.407-18.5L816.7,424Z" transform="translate(-748.826 -292.273)" fill="#fcee21"/><path d="M780,426.9l5.838,173.73,3.024-1.969s16.388-57.957,2.532-96.712l2.391-74.556Z" transform="translate(-737.939 -293.133)" fill="#f6aaac"/><path d="M806.965,411.6l1.547,182.592-3.235-.211s-9.917-48.391-16.037-81.519L772.5,420.884Z" transform="translate(-735.714 -288.595)" fill="#f6aaac"/><path d="M772.4,423.97l3.658,71.6h33.761l-1.688-39.318s10.621-16.388-1.829-32.355H772.4Z" transform="translate(-735.685 -292.243)" fill="#273455"/><path d="M819.658,658.2l-2.18,3.728-4.5,10.48-4.5,2.04A2.668,2.668,0,0,0,807,676.98h0l7.948-.352,3.095-9.284.7,7.315.281,1.829,1.477-.07.281-9.144.844-5.979Z" transform="translate(-745.946 -361.746)" fill="#f33d52"/><path d="M789.622,657.9l-2.673,3.587-5.768,10.2-4.853,1.547A2.665,2.665,0,0,0,774.5,675.7h0l8.159.633,4.15-9.144-.07,7.6.07,1.9,1.547.141,1.266-9.355,1.477-6.049Z" transform="translate(-736.308 -361.657)" fill="#f33d52"/><path d="M824.52,431.454l-7.245,3.306L812,420.974l1.547-6.33,1.758-.844Z" transform="translate(-747.432 -289.247)" fill="#f33d52"/><path d="M815.542,609.048s5.064-39.88-.563-52.189V525.77l-18.78-.07Z" transform="translate(-742.745 -322.441)" fill="#f6aaac"/><path d="M799.644,286.018l-8.792,10.972.492-8.018.281-1.336-1.125-2.11a18.623,18.623,0,0,1,2.391-.633c.422,0,5.838-.492,5.838-.492Z" transform="translate(-741.054 -250.862)" fill="#f6aaac"/><path d="M786.468,290.8l-9.5,17.232-2.673,2.532,4.713-9.214Z" transform="translate(-736.248 -252.76)" fill="#e6e6e6"/><path d="M800.474,286.7l2.18,1.055-6.19,10.972-.563,24.758-2.6,3.8.985-29.611Z" transform="translate(-741.884 -251.544)" fill="#f33d52"/><path d="M795.606,369.244l-2.673,8.511L792.3,368.4A6.82,6.82,0,0,0,795.606,369.244Z" transform="translate(-741.588 -275.78)" fill="#f33d52"/><g transform="translate(0 38.04)"><path d="M720.2,377.276l4.079,2.462,30.878-32.777-.492-33.761L738.7,349Z" transform="translate(-720.2 -297.445)" fill="#1a9afc"/><path d="M768.072,357.9,763.5,384.487l10.2,6.049,3.939-39.529,1.969-28.908-2.532-7.737,2.321-13.645,3.869-9.917-9.214,6.26-6.541,9.5" transform="translate(-733.045 -290.8)" fill="#1a9afc"/></g><path d="M778.735,246.5s-9.144,16.248,4.5,33.128l4.15,7.878,6.119-7.878-.7-8.722Z" transform="translate(-736.674 -239.619)" fill="#273455"/><path d="M779.421,248.944s-2.18-9.214,8.37-11.465c10.55-2.321,18.991.211,18.78,13.927-.211,13.786,3.868,10.2,10.058,14.982s8.792,6.049,8.159,11.535c-.7,5.486,1.407,4.783,6.049,9.988,4.713,5.135,5.346,19.694.774,22.226s-7.385-.563-9.355,8.229-21.8-6.612-21.8-6.612L791.1,262.87l-5.768-4.924Z" transform="translate(-737.712 -236.717)" fill="#273455"/><path d="M793.646,276.085l.7,1.9-8.792,3.868c.422-1.969.563-3.235.563-3.235h.141a10.012,10.012,0,0,0-1.688-2.813c-.844-.774-4.009-1.407-6.823-.352-2.813,1.125-2.251-1.9-2.04-2.673s-.07-.985-.633-1.266c-.563-.211-.844-.563-.141-.774s.844-1.266.211-1.125-1.618-.422-.985-.633c.492-.141.422-2.673-.211-2.813s-2.813-1.336-.492-1.9,3.446-3.8,3.446-3.8A10.034,10.034,0,0,1,777.4,254s7.174-.07,9.284,3.024l2.462,6.4s1.969-6.963,3.517-4.15.563,7.174-1.407,7.315l-.281,4.853,2.462,3.868Z" transform="translate(-735.689 -241.844)" fill="#f6aaac"/><path d="M798.407,270l3.446,5.275L797,277.948Z" transform="translate(-742.982 -246.59)" fill="#f33d52"/><path d="M770.712,383.242l3.517-23.281-3.306-33.269c-10.269-12.168,1.125-16.318,3.8-19.905l9.566-17.232h4.079l4.22-2.954,14.771,6.893.774,39.458-3.587,51.556Z" transform="translate(-733.997 -251.514)" fill="#fff"/><path d="M793.677,302.888,792.2,349.732c.07,2.673,2.321,10.128,3.8,12.379l13.434,35.8,23.422-10.761-16.107-34.324,7.245-34.746c2.321-8.229,4.15-11.324.352-18.569l-.422-.633a8.305,8.305,0,0,0-3.024-2.6l-13.153-6.4-7.526-3.376-5.627,10.972h0Z" transform="translate(-741.558 -251.485)" fill="#1a9afc"/><path d="M732.465,321.5l-3.728-5.275-2.11-3.024s-1.055.492,1.618,5.064L721,317.209l2.954,4.15,5.064,1.2,2.743,1.477Z" transform="translate(-720.437 -259.405)" fill="#f6aaac"/><path d="M789.793,307.22c2.462-3.657,5.486-7.1,9.917-7.526,2.6-.211,4.642,2.11,6.33,3.728,7.6,7.667-12.379,32.565-22.015,42.624a8.894,8.894,0,0,1-11.535,1.125L730.5,321.006l3.868-5.135c7.667,2.6,15.474,6.612,23,9.917,3.728,1.618,7.456,3.376,11.183,5.134,2.954,1.407,5.135,1.829,7.1-1.336,3.8-6.049,7.6-12.027,11.465-18.076C787.894,310.245,788.738,308.7,789.793,307.22Z" transform="translate(-723.255 -255.395)" fill="#1a9afc"/><path d="M780.354,242.655s-5.135,4.712-4.572,10.48l13.153-1.266C788.935,251.8,789.5,241.389,780.354,242.655Z" transform="translate(-736.675 -238.447)" fill="#273455"/></g></g></g></g></svg>