<svg xmlns="http://www.w3.org/2000/svg" xmlns:xlink="http://www.w3.org/1999/xlink" width="455" height="211" viewBox="0 0 455 211"><defs><clipPath id="a"><rect width="455" height="211" rx="16" transform="translate(495 620)" fill="#1a9afc"/></clipPath></defs><g transform="translate(-495 -620)"><rect width="455" height="211" rx="16" transform="translate(495 620)" fill="#1a9afc"/><g transform="translate(-14 -7)"><text transform="translate(529 713)" fill="#fff" font-size="36" font-family="OpenSans-Semibold, Open Sans" font-weight="600"><tspan x="0" y="0">Bayimiz </tspan><tspan y="0" font-family="OpenSans, Open Sans" font-weight="400">Olun</tspan></text><text transform="translate(529 733)" fill="#fff" font-size="16" font-family="OpenSans, Open Sans"><tspan x="0" y="17">Bize Kat覺larak Ayr覺cal覺klardan</tspan><tspan x="0" y="44">Yararlan覺n.</tspan></text></g><path d="M100.442,51.765a34.671,34.671,0,0,0-5.22-37.97A34.606,34.606,0,0,0,53.193,6.677a34.235,34.235,0,0,0-47.172,45.2l-.436.436A10.42,10.42,0,0,0,12.953,70.1a8.275,8.275,0,0,0,.93-.057,10.429,10.429,0,0,0,2.981,8.274,10.058,10.058,0,0,0,8.3,3A10.378,10.378,0,0,0,35.506,92.656a7.973,7.973,0,0,0,.919-.059,10.352,10.352,0,0,0,16.8,9.043,1.03,1.03,0,0,0,.131.072,10.352,10.352,0,0,0,13.717-.886,10.47,10.47,0,0,0,3.01-8.265A10.413,10.413,0,0,0,81.381,81.289,10.413,10.413,0,0,0,92.66,70.01a10.42,10.42,0,0,0,8.274-17.75Zm-43.3-41.637a29.332,29.332,0,0,1,39.59,37.934L67.526,18.848a2.447,2.447,0,0,0-3.459,0L47.642,35.283a5.53,5.53,0,1,1-7.819-7.823ZM12.955,65.152a5.474,5.474,0,0,1-3.911-9.378L15.1,49.715a5.531,5.531,0,1,1,7.822,7.822L16.864,63.59A5.546,5.546,0,0,1,12.955,65.152ZM24.234,76.431a5.474,5.474,0,0,1-3.909-9.378L26.373,61A5.532,5.532,0,1,1,34.2,68.824l-6.046,6.046a5.549,5.549,0,0,1-3.918,1.561Zm7.37,9.718a5.535,5.535,0,0,1,0-7.822l6.051-6.048A5.531,5.531,0,1,1,45.476,80.1l-6.054,6.047a5.677,5.677,0,0,1-7.82,0ZM50.7,97.427A5.53,5.53,0,1,1,42.882,89.6l6.047-6.052a5.531,5.531,0,1,1,7.821,7.823Zm12.938-.057a5.531,5.531,0,0,1-6.765.8l3.339-3.339a10.323,10.323,0,0,0,2.951-5.948,2.422,2.422,0,0,0,.474.662,5.538,5.538,0,0,1,0,7.822ZM97.472,63.537A5.544,5.544,0,0,1,93.563,65.1h0a5.54,5.54,0,0,1-3.909-1.563,2.5,2.5,0,0,0-3.459,0,2.444,2.444,0,0,0,0,3.457,5.474,5.474,0,0,1-3.909,9.378h0a5.535,5.535,0,0,1-3.909-1.563,2.5,2.5,0,0,0-3.457,0,2.44,2.44,0,0,0,0,3.457,5.535,5.535,0,0,1,0,7.822,5.68,5.68,0,0,1-7.822,0,2.453,2.453,0,0,0-3.861.542,10.365,10.365,0,0,0-11.3-9.519,8.365,8.365,0,0,0,.057-.929,10.356,10.356,0,0,0-3.065-7.366,10.464,10.464,0,0,0-8.274-2.973,8.33,8.33,0,0,0,.057-.929A10.374,10.374,0,0,0,29.375,54.566a8.276,8.276,0,0,0,.057-.929,10.426,10.426,0,0,0-17.79-7.368L9.7,48.191a29.344,29.344,0,0,1,40.19-37.72L36.355,24A10.42,10.42,0,1,0,51.093,38.738L65.8,24.028,97.472,55.709a5.537,5.537,0,0,1,0,7.822Z" transform="translate(808.506 672.503)" fill="#fff"/><g clip-path="url(#a)"><circle cx="134" cy="134" r="134" transform="translate(717 634)" fill="#fff" opacity="0.178"/></g></g></svg>