<svg xmlns="http://www.w3.org/2000/svg" width="90" height="25" viewBox="0 0 90 25"><g transform="translate(-872 -5120)"><g transform="translate(-32 4701.66)"><path d="M904,418.34h90v25H904Z" fill="none"/><path d="M975.2,429.61a7.343,7.343,0,0,1,1.166-2.88l-.764-.77a1.3,1.3,0,0,1,1.826-1.84l.756.757a7.135,7.135,0,0,1,2.9-1.222v-1.02a1.295,1.295,0,1,1,2.59,0v1.024a7.138,7.138,0,0,1,2.937,1.235l.682-.691a1.3,1.3,0,0,1,1.843,1.831l-.012.012-.7.7a7.275,7.275,0,0,1,1.166,2.876h.8a1.295,1.295,0,0,1,0,2.59h-.812a7.217,7.217,0,0,1-1.218,2.92l.614.617a1.3,1.3,0,0,1,.013,1.831l-.013.013a1.3,1.3,0,0,1-1.831,0l-.627-.63a7.23,7.23,0,0,1-2.854,1.179v.907a1.3,1.3,0,0,1-2.59,0V438.1a7.181,7.181,0,0,1-2.816-1.17l-.7.7a1.3,1.3,0,0,1-1.84-1.831l.009-.009.686-.69a7.3,7.3,0,0,1-1.222-2.92H974.06a1.3,1.3,0,0,1,0-2.59h1.14l0,.012Z" fill="#fff"/><path d="M921.165,434.5c.143-3-1.485-4.832-3.55-4.832-1.843,0-3.328,1.658-3.328,4.318,0,2.76,1.67,4.055,3.493,4.055a3.338,3.338,0,0,0,3.265-2.82H918.3c-.052.38-.273.665-.566.665-.592,0-.665-.726-.665-1.373Zm-4.093-1.654c0-.557.207-1.04.63-1.04s.691.5.691,1.04Z" fill="#00539b" fill-rule="evenodd"/><path d="M924.853,429.851H922.1v8h2.815v-3.886c0-.466,0-1.127.47-1.127s.476.643.476,1.11v3.886h2.82v-4.91c0-1.761-.57-3.251-2.009-3.251-.906,0-1.32.587-1.87,1.46h-.064l.108-1.3Z" fill="#00539b"/><path d="M939.375,430.3v-.449H933.4v2.522h1.365l.643-.108v.06l-2.293,4.98v.543h6.115V435.3h-1.6l-.579.086V435.3l.6-1.477,1.723-3.528Z" fill="#00539b" fill-rule="evenodd"/><path d="M959.545,429.851H956.57v8h3.023v-3.886c0-.466,0-1.127.47-1.127s.48.66.48,1.127v3.886h2.82v-4.927c0-1.761-.57-3.251-2.013-3.251-.906,0-1.32.587-1.865,1.46h-.065l.108-1.3Zm4.643,8h2.88l0-4.015,1.352,4.015h3.4l-2.133-4.447,2.082-3.55h-3.3l-1.287,3.377-.186-.41v-6.253h-2.82v11.283Z" fill="#00539b"/><path d="M943.3,430.84v-1.606h.207c.432,0,1-.06,1,.768s-.5.838-.933.838Zm-3.023,7h4.69a2.855,2.855,0,0,0,3.023-3.135,2.731,2.731,0,0,0-1.637-2.694,2.2,2.2,0,0,0,1.373-2.272,3.365,3.365,0,0,0-3.342-3.256h-4.115v11.357Zm3.023-4.607h.3c.48,0,1.244,0,1.244.932s-.713.99-1.2.99H943.3Zm9.384,4.611H955.7v-8H952.68l.086.95H952.7a1.847,1.847,0,0,0-1.693-1.131c-1.835,0-2.521,2.2-2.521,4.219,0,1.939.863,4.14,2.444,4.14.8,0,1.256-.483,1.77-1.234h.065l-.086,1.053Zm-1.4-4.037c0-.587.285-1.555.735-1.555s.75.907.75,1.525-.142,1.692-.673,1.692S951.28,434.446,951.28,433.811ZM906,437.848h3.787c2.414,0,4.141-2.137,4.141-5.514,0-4.171-2.12-5.842-4.884-5.842H906Zm2.993-8.593h.185c1.093,0,1.758,1.468,1.758,3.066,0,1.49-.765,2.72-1.758,2.72h-.185v-5.785Zm20.857-.142h2.49v-2.449h-2.49Zm-.156,8.727h2.82v-7.99h-2.82v7.989Z" fill="#00539b" fill-rule="evenodd"/><path d="M975.79,431.617h-1.54a.735.735,0,1,1,0-1.446h1.537a6.669,6.669,0,0,1,1.39-3.433l-1.044-1.05a.812.812,0,0,1-.1-1.127.8.8,0,0,1,1.123.1l1.036,1.045a6.549,6.549,0,0,1,3.455-1.46v-1.4a.734.734,0,1,1,1.442-.275.749.749,0,0,1,0,.275v1.408a6.568,6.568,0,0,1,3.485,1.464l.963-.976a.8.8,0,0,1,1.122-.1.812.812,0,0,1-.1,1.127l-.976.985a6.673,6.673,0,0,1,1.39,3.428h1.3a.735.735,0,1,1,0,1.447h-1.3a6.7,6.7,0,0,1-1.446,3.454l.958.968a.807.807,0,0,1,.1,1.127.8.8,0,0,1-1.123-.1l-.954-.963a6.515,6.515,0,0,1-3.4,1.4v1.424a.734.734,0,1,1-1.442.275.749.749,0,0,1,0-.275V437.5a6.541,6.541,0,0,1-3.36-1.39l-1.049,1.032a.735.735,0,1,1-1.015-1.028l1.015-1.024a6.693,6.693,0,0,1-1.447-3.454l-.013-.022Zm2.3-1.209h2.185a2.145,2.145,0,0,1,.224-.609l-1.546-1.55a4.322,4.322,0,0,0-.863,2.16Zm1.606-2.915,1.537,1.547a2.354,2.354,0,0,1,.527-.237V426.6A4.284,4.284,0,0,0,979.694,427.493Zm3.106-.923v2.18a2.213,2.213,0,0,1,.773.315l1.533-1.541a4.255,4.255,0,0,0-2.306-.955Zm3.023,1.706.025.017-1.545,1.555a2.282,2.282,0,0,1,.224.587h2.16A4.317,4.317,0,0,0,985.823,428.276Zm.842,3.187-2.185.017a2.152,2.152,0,0,1-.25.6l1.536,1.546a4.383,4.383,0,0,0,.9-2.16Zm-1.641,2.854-1.542-1.529a2.063,2.063,0,0,1-.686.264v2.159A4.279,4.279,0,0,0,985.024,434.317Zm-3.27.864h-.02v-2.207a2.213,2.213,0,0,1-.433-.194l-1.55,1.559a4.314,4.314,0,0,0,2,.842Zm-2.746-1.572.01,0,1.536-1.541a2.229,2.229,0,0,1-.28-.64h-2.16A4.317,4.317,0,0,0,979.008,433.609Z" fill="#d11242" fill-rule="evenodd"/></g></g></svg>