<svg xmlns="http://www.w3.org/2000/svg" width="7.037" height="13.016" viewBox="0 0 7.037 13.016"><g transform="translate(-22.077)"><path d="M28.849,0,27.161,0a2.964,2.964,0,0,0-3.122,3.2V4.68h-1.7a.265.265,0,0,0-.265.266v2.14a.265.265,0,0,0,.265.265h1.7v5.4a.265.265,0,0,0,.265.265h2.214a.265.265,0,0,0,.265-.265v-5.4h1.984a.265.265,0,0,0,.265-.265V4.946a.266.266,0,0,0-.266-.266H26.784V3.428c0-.6.143-.907.927-.907h1.137a.265.265,0,0,0,.265-.265V.268A.265.265,0,0,0,28.849,0Z" fill="#848484"/></g></svg>