<svg xmlns="http://www.w3.org/2000/svg" width="28.646" height="25.251" viewBox="0 0 28.646 25.251"><g transform="translate(-1263.133 -70.374)"><g transform="translate(1263.133 70.374)"><g transform="translate(0)"><g transform="translate(0 0)"><path d="M20.636,28.762a7.984,7.984,0,0,0-5.678,2.355l-.626.626-.637-.637A8.018,8.018,0,1,0,2.355,42.444L13.6,53.689l.024.024a1.012,1.012,0,0,0,1.423-.006L26.29,42.462a8.025,8.025,0,0,0-5.655-13.7Zm4.226,12.266L14.337,51.558,3.789,41.01a5.989,5.989,0,1,1,8.47-8.47l1.352,1.352a1.049,1.049,0,0,0,1.434,0l1.346-1.346a5.994,5.994,0,1,1,8.47,8.482Z" transform="translate(0 -28.75)" fill="#b1b6b8"/></g></g></g></g></svg>