<svg xmlns="http://www.w3.org/2000/svg" xmlns:xlink="http://www.w3.org/1999/xlink" width="653" height="595" viewBox="0 0 653 595"><defs><clipPath id="a"><rect width="595" height="595"/></clipPath><linearGradient id="b" x1="6.956" y1="2.807" x2="7.825" y2="3.308" gradientUnits="objectBoundingBox"><stop offset="0" stop-color="#25954a"/><stop offset="1" stop-color="#2ea65c"/></linearGradient><linearGradient id="c" x1="15.572" y1="1.911" x2="16.563" y2="1.911" xlink:href="#b"/><linearGradient id="d" x1="19.183" y1="11.313" x2="20.17" y2="11.227" gradientUnits="objectBoundingBox"><stop offset="0" stop-color="#25954a"/><stop offset="1" stop-color="#2ea65c"/></linearGradient><linearGradient id="f" x1="13.883" y1="14.956" x2="14.756" y2="15.46" xlink:href="#b"/><linearGradient id="g" x1="33.123" y1="33.652" x2="34.112" y2="33.652" xlink:href="#b"/><linearGradient id="h" x1="36.729" y1="41.734" x2="37.714" y2="41.648" xlink:href="#d"/><linearGradient id="j" x1="42.693" y1="30.846" x2="43.559" y2="31.346" gradientUnits="objectBoundingBox"><stop offset="0" stop-color="#a0ccb1"/><stop offset="1" stop-color="#abdabd"/></linearGradient><linearGradient id="k" x1="104.207" y1="74.696" x2="105.178" y2="74.696" xlink:href="#j"/><linearGradient id="l" x1="108.959" y1="79.326" x2="109.925" y2="79.241" xlink:href="#j"/><linearGradient id="n" x1="46.921" y1="15.966" x2="47.787" y2="16.466" xlink:href="#j"/><linearGradient id="o" x1="116.306" y1="39.633" x2="117.277" y2="39.633" xlink:href="#j"/><linearGradient id="p" x1="117.974" y1="39.976" x2="118.941" y2="39.892" xlink:href="#j"/><linearGradient id="r" x1="-47.865" y1="-128.479" x2="-47.865" y2="-125.273" gradientUnits="objectBoundingBox"><stop offset="0" stop-color="#d05234"/><stop offset="1" stop-color="#9f3824"/></linearGradient><linearGradient id="s" x1="-45.139" y1="-132.669" x2="-45.139" y2="-129.37" xlink:href="#r"/><linearGradient id="t" x1="-45.086" y1="-133.068" x2="-45.086" y2="-129.769" xlink:href="#r"/><linearGradient id="u" x1="-45.032" y1="-133.478" x2="-45.032" y2="-130.179" xlink:href="#r"/><linearGradient id="v" x1="-34.461" y1="34.762" x2="-34.461" y2="35.661" xlink:href="#r"/><clipPath id="w"><path d="M212.673,300.1,111.422,288.186a13.289,13.289,0,0,1-11.581-14.559L124.658,62.522a13.289,13.289,0,0,1,14.559-11.581L240.468,62.853a13.289,13.289,0,0,1,11.581,14.559L227.232,288.517A13.289,13.289,0,0,1,212.673,300.1Z" transform="translate(-99.782 -50.882)"/></clipPath><linearGradient id="bo" x1="-45.649" y1="-60.449" x2="-46.141" y2="-59.581" gradientUnits="objectBoundingBox"><stop offset="0" stop-color="#0b4ba9"/><stop offset="1" stop-color="#256ced"/></linearGradient><linearGradient id="bp" x1="-49.76" y1="-71.88" x2="-50.873" y2="-70.971" xlink:href="#bo"/><linearGradient id="bq" x1="-50.133" y1="-90.888" x2="-50.133" y2="-88.666" xlink:href="#r"/><linearGradient id="bs" x1="-60.014" y1="-5.269" x2="-60.014" y2="-2.078" gradientUnits="objectBoundingBox"><stop offset="0" stop-color="#ff9171"/><stop offset="1" stop-color="#ff638c"/></linearGradient><linearGradient id="bt" x1="-56.712" y1="-5.878" x2="-56.712" y2="-2.592" xlink:href="#bs"/><linearGradient id="bu" x1="-57.146" y1="-6.272" x2="-57.146" y2="-2.986" xlink:href="#bs"/><linearGradient id="bv" x1="-56.931" y1="-6.684" x2="-56.931" y2="-3.398" xlink:href="#bs"/><linearGradient id="bw" x1="-29.267" y1="-0.768" x2="-29.267" y2="0.133" xlink:href="#bs"/><linearGradient id="bx" x1="-27.941" y1="-2.53" x2="-28.43" y2="-1.686" gradientUnits="objectBoundingBox"><stop offset="0" stop-color="#1d83e5"/><stop offset="1" stop-color="#1d92e3"/></linearGradient><linearGradient id="by" x1="-28.964" y1="-3.282" x2="-27.878" y2="-2.207" gradientUnits="objectBoundingBox"><stop offset="0" stop-color="#1e74e7"/><stop offset="1" stop-color="#2261ea"/></linearGradient><linearGradient id="bz" x1="-59.363" y1="-5.201" x2="-59.363" y2="-2.598" xlink:href="#bs"/><linearGradient id="cb" x1="-5.782" y1="13.567" x2="-4.913" y2="14.068" xlink:href="#b"/><linearGradient id="cc" x1="-13.587" y1="29.937" x2="-12.596" y2="29.937" xlink:href="#b"/><linearGradient id="cd" x1="-16.152" y1="38.985" x2="-15.165" y2="38.899" xlink:href="#d"/></defs><g transform="translate(-873 -2679)"><g transform="translate(0 2364)"><circle cx="223" cy="223" r="223" transform="translate(873 464)" fill="blue" opacity="0.015"/><circle cx="223" cy="223" r="223" transform="translate(1080 464)" fill="blue" opacity="0.015"/><g transform="translate(1129.514 545.374)"><path d="M1584.6,155.791h50.59a4.213,4.213,0,0,0,4.2-4.2V101a4.213,4.213,0,0,0-4.2-4.2H1584.6a4.213,4.213,0,0,0-4.2,4.2v50.59A4.194,4.194,0,0,0,1584.6,155.791Z" transform="translate(-1580.4 -96.8)" fill="blue" opacity="0.02"/><path d="M1495.271,267.129h32.286a5.968,5.968,0,0,0,5.971-5.971V228.871a5.968,5.968,0,0,0-5.971-5.971h-32.286a5.967,5.967,0,0,0-5.971,5.971v32.286A5.967,5.967,0,0,0,1495.271,267.129Z" transform="translate(-1447.202 -185.063)" fill="blue" opacity="0.02"/></g><g transform="translate(1385.857 687.065)"><path d="M303.141,1131.066h81.985a4.14,4.14,0,0,0,4.14-4.14V1044.94a4.14,4.14,0,0,0-4.14-4.14H303.141a4.14,4.14,0,0,0-4.14,4.14v81.985A4.125,4.125,0,0,0,303.141,1131.066Z" transform="translate(-299 -1018.655)" fill="blue" opacity="0.03"/><path d="M211.681,992.609h37.647a3.072,3.072,0,0,0,3.081-3.081V951.881a3.072,3.072,0,0,0-3.081-3.081H211.681a3.072,3.072,0,0,0-3.081,3.081v37.647A3.072,3.072,0,0,0,211.681,992.609Z" transform="translate(-140.383 -948.8)" fill="blue" opacity="0.03"/></g><g transform="translate(895.506 674.636)"><path d="M372.841,1118.191H302.55a3.55,3.55,0,0,1-3.55-3.55V1044.35a3.55,3.55,0,0,1,3.55-3.55h70.292a3.55,3.55,0,0,1,3.55,3.55v70.291A3.536,3.536,0,0,1,372.841,1118.191Z" transform="translate(-280.344 -1021.813)" fill="blue" opacity="0.03"/><path d="M243.519,986.36H211.242a2.634,2.634,0,0,1-2.642-2.642V951.442a2.634,2.634,0,0,1,2.642-2.642h32.277a2.634,2.634,0,0,1,2.642,2.642v32.277A2.634,2.634,0,0,1,243.519,986.36Z" transform="translate(-208.6 -948.8)" fill="blue" opacity="0.03"/></g><g transform="translate(1393.621 554.384)"><path d="M306.032,142.957h31.861a7.164,7.164,0,0,0,7.163-7.163v-31.83a7.164,7.164,0,0,0-7.163-7.163h-31.83a7.164,7.164,0,0,0-7.163,7.163v31.83A7.158,7.158,0,0,0,306.032,142.957Z" transform="translate(-270.714 -96.8)" fill="blue" opacity="0.03"/><path d="M407.293,237.588h30.8a5.782,5.782,0,0,0,5.793-5.793v-30.8A5.782,5.782,0,0,0,438.1,195.2h-30.8a5.782,5.782,0,0,0-5.793,5.793v30.8A5.8,5.8,0,0,0,407.293,237.588Z" transform="translate(-401.5 -164.553)" fill="blue" opacity="0.03"/></g></g><g transform="translate(901.785 2678.785)"><g transform="translate(0.215 0.215)"><g clip-path="url(#a)"><rect width="60.221" height="139.303" transform="translate(326.899 484.512) rotate(-42.26)" fill="#47c684"/><circle cx="18.53" cy="18.53" r="18.53" transform="translate(377.574 497.686)" fill="url(#b)"/><circle cx="7.279" cy="7.279" r="7.279" transform="translate(412.648 542.356)" fill="url(#c)"/><circle cx="7.279" cy="7.279" r="7.279" transform="translate(365.001 482.465)" fill="url(#d)"/></g><g clip-path="url(#a)"><rect width="51.949" height="120.112" transform="matrix(0.665, -0.747, 0.747, 0.665, 434.777, 235.977)" fill="#47c684"/><circle cx="15.883" cy="15.883" r="15.883" transform="translate(481.142 240.919)" fill="url(#f)"/><circle cx="6.287" cy="6.287" r="6.287" transform="translate(513.238 270.698)" fill="url(#g)"/><circle cx="6.287" cy="6.287" r="6.287" transform="translate(467.906 230.33)" fill="url(#h)"/></g><g clip-path="url(#a)"><rect width="74.449" height="32.096" transform="translate(436.527 77.949) rotate(-2.271)" fill="#b2e7cc"/><circle cx="9.927" cy="9.927" r="9.927" transform="translate(464.266 82.424)" fill="url(#j)"/><circle cx="3.971" cy="3.971" r="3.971" transform="translate(489.083 87.718)" fill="url(#k)"/><circle cx="3.971" cy="3.971" r="3.971" transform="translate(451.362 89.042)" fill="url(#l)"/></g><g clip-path="url(#a)"><rect width="74.449" height="32.096" transform="matrix(0.35, -0.937, 0.937, 0.35, 35.58, 452.496)" fill="#b2e7cc"/><circle cx="9.927" cy="9.927" r="9.927" transform="translate(53.637 413.31)" fill="url(#n)"/><circle cx="3.971" cy="3.971" r="3.971" transform="translate(66.211 401.729)" fill="url(#o)"/><circle cx="3.971" cy="3.971" r="3.971" transform="translate(52.975 437.134)" fill="url(#p)"/></g><g clip-path="url(#a)"><path d="M142.2,132.357l-41.03-73.126a10.932,10.932,0,0,1,4.3-14.89c4.963-2.647,11.25-1.324,14.228,3.309l48.64,68.162a15.424,15.424,0,0,1-25.147,17.868C142.861,133.35,142.53,132.688,142.2,132.357Z" transform="translate(230.081 98.966)" fill="url(#r)"/><path d="M144.233,143.625,98.9,72.815c-3.309-4.963-1.654-11.912,3.309-15.221a11.239,11.239,0,0,1,14.559,2.316l52.611,65.515a15.3,15.3,0,0,1-23.824,19.191A4.569,4.569,0,0,1,144.233,143.625Z" transform="translate(224.077 128.728)" fill="url(#s)"/><path d="M142.433,154.694,97.1,84.215c-3.309-4.963-1.654-11.912,3.309-15.221a11.24,11.24,0,0,1,14.559,2.316l52.611,65.515a15.3,15.3,0,0,1-23.824,19.191Z" transform="translate(219.921 155.049)" fill="url(#t)"/><path d="M140.533,166.394,95.2,95.915C91.892,90.952,93.547,84,98.51,80.694a11.24,11.24,0,0,1,14.559,2.316l52.611,65.515a15.3,15.3,0,0,1-23.824,19.191A2.584,2.584,0,0,1,140.533,166.394Z" transform="translate(215.534 182.063)" fill="url(#u)"/><path d="M157.677,330.932c2.647-11.581,4.963-23.162,6.618-35.074,1.324-11.912,2.316-23.824,2.647-35.736,1.324-47.978-7.941-96.95-25.147-143.274L209.957,87.4c23.162,53.273,37.39,112.17,39.045,172.392a414.867,414.867,0,0,1-1.324,45.331,408.907,408.907,0,0,1-6.287,45c-.331,1.985-9.927,41.692-10.257,43.677C196.722,430.2,162.64,419.609,114,433.838c6.949-11.581,13.566-23.493,19.522-35.736A354.218,354.218,0,0,0,157.677,330.932Z" transform="translate(262.913 201.497)" fill="url(#v)"/><g transform="translate(329.868 168.065)"><g clip-path="url(#w)"><path d="M239.234,50.7l3.971,4.963L99.6,169.488V50.7Z" transform="translate(-100.203 -51.303)" fill="#50c2d4"/></g><g clip-path="url(#w)"><path d="M243.2,52.2l2.978,3.64L99.6,171.981v-5.956Z" transform="translate(-100.203 -47.839)" fill="#50c2d4"/></g><g clip-path="url(#w)"><path d="M246.182,53.3l2.978,3.64L99.6,175.4v-5.956Z" transform="translate(-100.203 -45.3)" fill="#4fc1d4"/></g><g clip-path="url(#w)"><path d="M249.16,54.4l2.647,3.64L99.6,178.813v-5.956Z" transform="translate(-100.203 -42.76)" fill="#4fc0d5"/></g><g clip-path="url(#w)"><path d="M251.808,55.5l1.324,1.324v3.971L99.6,181.9v-5.625Z" transform="translate(-100.203 -40.22)" fill="#4ebfd5"/></g><g clip-path="url(#w)"><path d="M253.131,62.725,99.6,184.16V178.2L253.131,57.1Z" transform="translate(-100.203 -36.526)" fill="#4ebed5"/></g><g clip-path="url(#w)"><path d="M253.131,64.756,99.6,186.191v-5.956L253.131,58.8Z" transform="translate(-100.203 -32.601)" fill="#4dbdd5"/></g><g clip-path="url(#w)"><path d="M253.131,66.556,99.6,187.991v-5.956L253.131,60.6Z" transform="translate(-100.203 -28.445)" fill="#4dbcd6"/></g><g clip-path="url(#w)"><path d="M253.131,68.356,99.6,189.791v-5.956L253.131,62.4Z" transform="translate(-100.203 -24.289)" fill="#4cbbd6"/></g><g clip-path="url(#w)"><path d="M253.131,70.156,99.6,191.591v-5.956L253.131,64.2Z" transform="translate(-100.203 -20.133)" fill="#4cbad6"/></g><g clip-path="url(#w)"><path d="M253.131,71.956,99.6,193.391v-5.956L253.131,66Z" transform="translate(-100.203 -15.977)" fill="#4bb9d7"/></g><g clip-path="url(#w)"><path d="M253.131,73.756,99.6,195.191v-5.956L253.131,67.8Z" transform="translate(-100.203 -11.821)" fill="#4bb8d7"/></g><g clip-path="url(#w)"><path d="M253.131,75.225,99.6,196.66v-5.625L253.131,69.6Z" transform="translate(-100.203 -7.665)" fill="#4ab7d7"/></g><g clip-path="url(#w)"><path d="M253.131,77.256,99.6,198.691v-5.956L253.131,71.3Z" transform="translate(-100.203 -3.74)" fill="#4ab6d8"/></g><g clip-path="url(#w)"><path d="M253.131,79.056,99.6,200.491v-5.956L253.131,73.1Z" transform="translate(-100.203 0.416)" fill="#49b5d8"/></g><g clip-path="url(#w)"><path d="M253.131,80.856,99.6,202.291v-5.956L253.131,74.9Z" transform="translate(-100.203 4.572)" fill="#49b4d8"/></g><g clip-path="url(#w)"><path d="M253.131,82.656,99.6,204.091v-5.956L253.131,76.7Z" transform="translate(-100.203 8.728)" fill="#48b3d8"/></g><g clip-path="url(#w)"><path d="M253.131,84.456,99.6,205.891v-5.956L253.131,78.5Z" transform="translate(-100.203 12.884)" fill="#48b2d9"/></g><g clip-path="url(#w)"><path d="M253.131,86.256,99.6,207.691v-5.956L253.131,80.3Z" transform="translate(-100.203 17.04)" fill="#47b1d9"/></g><g clip-path="url(#w)"><path d="M253.131,88.056,99.6,209.16v-5.625L253.131,82.1Z" transform="translate(-100.203 21.195)" fill="#47b0d9"/></g><g clip-path="url(#w)"><path d="M253.131,89.525,101.254,209.637,99.6,207.32V205L253.131,83.9Z" transform="translate(-100.203 25.351)" fill="#46afda"/></g><g clip-path="url(#w)"><path d="M251.977,91.556l-148.9,117.8-2.978-3.64L251.977,85.6Z" transform="translate(-99.048 29.276)" fill="#46aeda"/></g><g clip-path="url(#w)"><path d="M249.9,93.356,103.978,208.835,101,205.2,249.9,87.4Z" transform="translate(-96.97 33.432)" fill="#45adda"/></g><g clip-path="url(#w)"><path d="M247.821,95.156,104.547,208.319l-2.647-3.64L247.821,89.2Z" transform="translate(-94.892 37.588)" fill="#45acda"/></g><g clip-path="url(#w)"><path d="M245.974,96.956,105.678,207.8l-2.978-3.64L245.974,91Z" transform="translate(-93.045 41.744)" fill="#44abdb"/></g><g clip-path="url(#w)"><path d="M243.9,98.756,110.549,203.978h-6.618l-.331-.331L243.9,92.8Z" transform="translate(-90.967 45.9)" fill="#44aadb"/></g><g clip-path="url(#w)"><path d="M239.047,100.556,113.31,199.822H105.7L239.047,94.6Z" transform="translate(-86.119 50.056)" fill="#43a9db"/></g><g clip-path="url(#w)"><path d="M233.737,102.025,115.279,195.666H108L233.737,96.4Z" transform="translate(-80.808 54.212)" fill="#43a8dc"/></g><g clip-path="url(#w)"><path d="M228.657,104.056,117.81,191.741H110.2L228.657,98.1Z" transform="translate(-75.729 58.137)" fill="#42a7dc"/></g><g clip-path="url(#w)"><path d="M223.347,105.856,119.779,187.585H112.5L223.347,99.9Z" transform="translate(-70.418 62.293)" fill="#42a6dc"/></g><g clip-path="url(#w)"><path d="M218.267,107.656,122.31,183.429H114.7L218.267,101.7Z" transform="translate(-65.339 66.449)" fill="#41a5dd"/></g><g clip-path="url(#w)"><path d="M212.957,109.456,124.61,179.273H117L212.957,103.5Z" transform="translate(-60.029 70.605)" fill="#41a4dd"/></g><g clip-path="url(#w)"><path d="M207.647,111.256l-81.067,63.861H119.3L207.647,105.3Z" transform="translate(-54.718 74.761)" fill="#40a3dd"/></g><g clip-path="url(#w)"><path d="M202.567,113.056,129.11,170.961H121.5L202.567,107.1Z" transform="translate(-49.639 78.917)" fill="#40a2dd"/></g><g clip-path="url(#w)"><path d="M197.257,114.856l-66.177,51.949H123.8L197.257,108.9Z" transform="translate(-44.328 83.073)" fill="#3fa1de"/></g><g clip-path="url(#w)"><path d="M192.177,116.325,133.61,162.649H126L192.177,110.7Z" transform="translate(-39.249 87.229)" fill="#3fa0de"/></g><g clip-path="url(#w)"><path d="M186.867,118.356,135.91,158.724H128.3L186.867,112.4Z" transform="translate(-33.938 91.154)" fill="#3e9fde"/></g><g clip-path="url(#w)"><path d="M181.556,120.156l-43.677,34.412H130.6L181.556,114.2Z" transform="translate(-28.628 95.31)" fill="#3e9edf"/></g><g clip-path="url(#w)"><path d="M176.477,121.956,140.41,150.412H132.8L176.477,116Z" transform="translate(-23.549 99.466)" fill="#3d9ddf"/></g><g clip-path="url(#w)"><path d="M171.167,123.756l-28.787,22.5H135.1L171.167,117.8Z" transform="translate(-18.238 103.622)" fill="#3d9cdf"/></g><g clip-path="url(#w)"><path d="M166.087,125.556,144.91,142.1H137.3l28.787-22.5Z" transform="translate(-13.159 107.778)" fill="#3c9bdf"/></g><g clip-path="url(#w)"><path d="M160.777,127.356,147.21,137.944H139.6L160.777,121.4Z" transform="translate(-7.848 111.934)" fill="#3c9ae0"/></g><g clip-path="url(#w)"><path d="M155.466,128.825l-6.287,4.963H141.9L155.466,123.2Z" transform="translate(-2.538 116.09)" fill="#3b99e0"/></g><g clip-path="url(#w)"><path d="M144.1,129.863l6.287-4.963v4.963Z" transform="translate(2.542 120.015)" fill="#3b98e0"/></g><path d="M227.36,257.993,100.3,243.1,121.808,58.8l127.06,14.89Z" transform="translate(-98.586 -32.601)" fill="url(#bo)"/><circle cx="8.603" cy="8.603" r="8.603" transform="translate(54.986 222.084)" fill="#a1def3"/><g transform="translate(73.847 17.265)"><path d="M149.564,61.394h0l-26.471-2.978c-.662,0-.993-.662-.993-1.324s.662-.993,1.324-.993l26.14,2.978c.662,0,.993.662.993,1.324C150.887,61.063,150.225,61.394,149.564,61.394Z" transform="translate(-122.1 -56.1)" fill="#a1def3"/></g><path d="M100.3,221.169l127.06,14.89,9.927-85.038L118.168,68.3Z" transform="translate(-98.586 -10.667)" fill="url(#bp)"/><g transform="matrix(0.996, 0.087, -0.087, 0.996, 23.748, 108.069)"><path d="M234.469,305.517H192.941a3.192,3.192,0,0,1-3.129-3.825l4.644-22.931a3.192,3.192,0,0,1,3.128-2.558h41.723a3.192,3.192,0,0,1,3.123,3.851l-4.841,22.932A3.192,3.192,0,0,1,234.469,305.517Z" transform="translate(-189.749 -276.202)" fill="#fff" style="isolation:isolate"/><g transform="translate(7.631 8.346)" style="isolation:isolate"><path d="M242.89,238.1h2.42v8.962h-2.421v-.916a3.75,3.75,0,0,1-2.763,1.145,4.154,4.154,0,0,1-3.173-1.358,4.848,4.848,0,0,1-1.243-3.4,4.671,4.671,0,0,1,1.26-3.337,4.173,4.173,0,0,1,3.156-1.324,3.72,3.72,0,0,1,2.763,1.178Zm-3.974,6.165a2.182,2.182,0,0,0,1.652.688,2.14,2.14,0,0,0,1.651-.7,2.389,2.389,0,0,0,.67-1.685,2.325,2.325,0,0,0-3.974-1.668,2.365,2.365,0,0,0-.638,1.668A2.44,2.44,0,0,0,238.916,244.262Z" transform="translate(-235.708 -234.614)" fill="#256ced"/><path d="M255.777,246.332l-2.831-3.712-.506.474v3.236h-2.567V233.889h2.567v6.345l3.009-2.861h3.173l-3.925,3.647,4.189,5.313Z" transform="translate(-238.295 -233.889)" fill="#256ced"/><path d="M264.381,247.112h-2.568V238.15h2.568Z" transform="translate(-240.474 -234.667)" fill="#256ced"/><path d="M269.941,246.332h-2.568V233.889h2.568Z" transform="translate(-241.488 -233.889)" fill="#256ced"/><path d="M275.481,246.332h-2.568V233.889h2.568Z" transform="translate(-242.499 -233.889)" fill="#256ced"/><path d="M281.02,247.112h-2.567V238.15h2.567Z" transform="translate(-243.511 -234.667)" fill="#256ced"/></g><path d="M2.81-25.577,1.726-28.286h-.2l-1.1,2.708h.4l.275-.7H2.135l.275.7Zm-.8-1.048H1.231l.392-1.022ZM4.87-25.577l-.953-1.141.92-.825H4.359l-.879.8v-1.605H3.127v2.774h.354v-.748l.187-.168.742.916Zm.607-1.964H5.122v1.964h.354Zm.9-.809H6.02v2.774h.354Zm.9,0H6.918v2.774h.354Zm.9.809H7.816v1.964H8.17Zm3.5,1.964-1.083-2.708h-.2l-1.1,2.708h.4l.275-.7h1.029l.275.7Zm-.8-1.048h-.779l.392-1.022Zm2.858,1.048-.951-1.141.92-.825h-.476l-.88.8v-1.605h-.354v2.774h.354v-.748l.187-.168.74.916Zm.758.044a.752.752,0,0,0,.511-.174.54.54,0,0,0,.2-.425.533.533,0,0,0-.334-.494,2.471,2.471,0,0,0-.264-.121l-.216-.1a.247.247,0,0,1-.165-.231.253.253,0,0,1,.089-.18.253.253,0,0,1,.193-.058.493.493,0,0,1,.422.227l.223-.212a.73.73,0,0,0-.623-.311.663.663,0,0,0-.465.158.5.5,0,0,0-.176.392.515.515,0,0,0,.3.476q.061.033.242.11c.121.051.205.088.246.11a.28.28,0,0,1,.179.249c0,.152-.139.271-.348.271a.564.564,0,0,1-.487-.311l-.253.194a.809.809,0,0,0,.73.427ZM17.422-26.6a.979.979,0,0,0-.267-.726.91.91,0,0,0-.682-.267.95.95,0,0,0-.718.29,1.022,1.022,0,0,0-.273.732.98.98,0,0,0,.29.754.98.98,0,0,0,.758.28,1.454,1.454,0,0,0,.843-.275l-.152-.267a1.239,1.239,0,0,1-.685.22.636.636,0,0,1-.688-.559h1.565c.007-.1.011-.155.011-.181Zm-1.574-.123a.638.638,0,0,1,.626-.556.563.563,0,0,1,.411.154.563.563,0,0,1,.176.4Zm2.54,1.187a.752.752,0,0,0,.509-.176.54.54,0,0,0,.2-.425.533.533,0,0,0-.334-.494,2.469,2.469,0,0,0-.264-.121l-.216-.1a.247.247,0,0,1-.165-.231.253.253,0,0,1,.089-.18.253.253,0,0,1,.193-.058.493.493,0,0,1,.422.227l.223-.212a.73.73,0,0,0-.623-.311.663.663,0,0,0-.465.158.5.5,0,0,0-.176.392.515.515,0,0,0,.3.476q.061.033.242.11c.121.051.205.088.246.11a.28.28,0,0,1,.179.249c0,.152-.139.271-.348.271a.564.564,0,0,1-.489-.31l-.253.194a.809.809,0,0,0,.732.425Zm1.931,0a.775.775,0,0,0,.618-.223.775.775,0,0,0,.225-.617V-27.54h-.348v1.163a.47.47,0,0,1-.125.377.47.47,0,0,1-.369.147.47.47,0,0,1-.367-.15.47.47,0,0,1-.122-.377v-1.163h-.354v1.172a.786.786,0,0,0,.229.613.786.786,0,0,0,.614.227Zm2.917-1.726a.86.86,0,0,0-.693-.334.934.934,0,0,0-.7.29.992.992,0,0,0-.279.726,1.048,1.048,0,0,0,.279.744.918.918,0,0,0,.7.3.851.851,0,0,0,.693-.326v.279h.336V-27.54h-.337Zm.022.693a.719.719,0,0,1-.187.506.631.631,0,0,1-.487.205.618.618,0,0,1-.484-.205.731.731,0,0,1-.183-.5.731.731,0,0,1,.183-.5.618.618,0,0,1,.484-.205.631.631,0,0,1,.487.205.713.713,0,0,1,.187.5Zm1.213.986v-1.042c0-.422.227-.638.538-.638a.685.685,0,0,1,.205.033l.033-.341a1,1,0,0,0-.231-.029.586.586,0,0,0-.564.341v-.29h-.334v1.964Zm2.3,0v-1.831l.931,1.365h.1l.931-1.365v1.829H29.1v-2.708H28.92l-1.163,1.719-1.169-1.719h-.176v2.708Zm4.47-1.679a.86.86,0,0,0-.693-.334.934.934,0,0,0-.7.29.992.992,0,0,0-.279.726,1.048,1.048,0,0,0,.279.744.918.918,0,0,0,.7.3.851.851,0,0,0,.693-.326v.279h.337V-27.54h-.337Zm.022.693a.719.719,0,0,1-.187.506.631.631,0,0,1-.487.205.618.618,0,0,1-.484-.205.731.731,0,0,1-.183-.5.731.731,0,0,1,.183-.5.618.618,0,0,1,.484-.205.631.631,0,0,1,.487.205.714.714,0,0,1,.187.5Zm1.1-1.915a.607.607,0,0,0,.178.458.607.607,0,0,0,.459.176.634.634,0,0,0,.458-.172.618.618,0,0,0,.183-.462h-.3a.325.325,0,0,1-.085.259.325.325,0,0,1-.253.1.325.325,0,0,1-.253-.1.325.325,0,0,1-.085-.259Zm1.315,1.191a.852.852,0,0,0-.67-.3.97.97,0,0,0-.714.29.961.961,0,0,0-.29.714,1,1,0,0,0,.282.722.934.934,0,0,0,.7.29.866.866,0,0,0,.689-.308v.161a.619.619,0,0,1-.191.473.708.708,0,0,1-.517.187,1.154,1.154,0,0,1-.7-.238l-.165.279a1.453,1.453,0,0,0,.869.279,1.05,1.05,0,0,0,.766-.282,1.006,1.006,0,0,0,.286-.755V-27.54h-.349Zm-1.128,1.2a.68.68,0,0,1-.191-.494.665.665,0,0,1,.191-.491.639.639,0,0,1,.48-.2.639.639,0,0,1,.48.2.665.665,0,0,1,.191.491.68.68,0,0,1-.191.494.639.639,0,0,1-.48.2.639.639,0,0,1-.48-.2Zm3.573-1.169a.859.859,0,0,0-.693-.334.934.934,0,0,0-.7.29.992.992,0,0,0-.279.726,1.048,1.048,0,0,0,.279.744.918.918,0,0,0,.7.3.851.851,0,0,0,.693-.326v.279h.336v-1.964h-.337Zm.022.693a.719.719,0,0,1-.187.506.631.631,0,0,1-.487.205.618.618,0,0,1-.484-.205.73.73,0,0,1-.183-.5.73.73,0,0,1,.183-.5.618.618,0,0,1,.484-.205.631.631,0,0,1,.487.205.714.714,0,0,1,.187.5Zm2.294-.77v-.205H36.915v.3H37.97L36.849-25.8v.223h1.627v-.3H37.324Zm1.942.077a.859.859,0,0,0-.693-.334.934.934,0,0,0-.7.29.992.992,0,0,0-.279.726,1.048,1.048,0,0,0,.279.744.918.918,0,0,0,.7.3.851.851,0,0,0,.693-.326v.279h.337v-1.964h-.337Zm.022.693a.719.719,0,0,1-.187.506.631.631,0,0,1-.487.205.618.618,0,0,1-.484-.205.731.731,0,0,1-.183-.5.731.731,0,0,1,.183-.5.618.618,0,0,1,.484-.205.631.631,0,0,1,.487.205.713.713,0,0,1,.188.5Zm1.213.986v-1.091a.633.633,0,0,1,.152-.432.506.506,0,0,1,.392-.168c.3,0,.5.216.5.6v1.092h.348v-1.19a.8.8,0,0,0-.223-.612.769.769,0,0,0-.553-.212.66.66,0,0,0-.623.33v-.279h-.348v1.964Zm2.265-1.964h-.354v1.964h.354Zm1.979.209v-.205H44.336v.3h1.055L44.269-25.8v.223H45.9v-.3h-1.15Z" transform="translate(59.155 50.118)" fill="#fff"/><path d="M6.768-21.229a3.782,3.782,0,0,0-2.459.874L4.39-21H1.573L-.32-8.4H2.544l.663-4.595a3.118,3.118,0,0,0,2.556,1.149,4.466,4.466,0,0,0,3.252-1.294A5.533,5.533,0,0,0,10.6-16.488a4.221,4.221,0,0,0-.859-3.4A3.684,3.684,0,0,0,6.768-21.229Zm.906,4.773a2.313,2.313,0,0,1-2.265,1.99A1.746,1.746,0,0,1,3.662-16.65a2.3,2.3,0,0,1,2.265-1.972,1.61,1.61,0,0,1,1.408.663,1.889,1.889,0,0,1,.338,1.5Zm6.518,4.384.631-4.336c.21-1.424,1.052-2.233,2.136-2.233.955,0,1.44.615,1.264,1.763l-.714,4.805h2.864l.793-5.274a3.422,3.422,0,0,0-.582-2.9,2.886,2.886,0,0,0-2.3-1,3.752,3.752,0,0,0-3.042,1.472l.728-4.643h-2.8L11.345-12.072Zm12.361.243a5.464,5.464,0,0,0,3.43-1.163,5.13,5.13,0,0,0,1.925-3.074,4.178,4.178,0,0,0-.7-3.673,4.057,4.057,0,0,0-3.446-1.521,5.387,5.387,0,0,0-3.576,1.278,5.318,5.318,0,0,0-1.877,3.252,4.118,4.118,0,0,0,.841,3.478A4.162,4.162,0,0,0,26.553-11.829Zm.259-2.686a1.626,1.626,0,0,1-1.375-.631,1.782,1.782,0,0,1-.275-1.553,2.38,2.38,0,0,1,2.3-1.895,1.648,1.648,0,0,1,1.359.615,1.709,1.709,0,0,1,.307,1.472,2.253,2.253,0,0,1-.809,1.408,2.2,2.2,0,0,1-1.5.584Zm8.769,2.443.631-4.336c.21-1.424,1.052-2.233,2.136-2.233.955,0,1.44.615,1.264,1.763L38.9-12.072h2.864l.793-5.274a3.422,3.422,0,0,0-.582-2.9,2.886,2.886,0,0,0-2.3-1,3.644,3.644,0,0,0-3.009,1.472L36.859-21h-2.8l-1.327,8.931Zm13.493-9.157A5.377,5.377,0,0,0,45.5-19.983a5.1,5.1,0,0,0-1.745,3.3c-.421,2.508,1.052,4.8,4.352,4.8a7.28,7.28,0,0,0,4.029-1.181l-.938-2a5.328,5.328,0,0,1-2.864.859c-1.116,0-1.747-.469-1.909-1.408H52.86a5.923,5.923,0,0,0,.243-1.019,3.855,3.855,0,0,0-.841-3.349A4.131,4.131,0,0,0,49.074-21.229Zm-.113,2.281a1.434,1.434,0,0,1,1.08.35,1.434,1.434,0,0,1,.487,1.025H46.76a2.247,2.247,0,0,1,2.2-1.375Z" transform="translate(51.727 32.982)" fill="#fff"/></g></g><path d="M152.346,79.82a309.608,309.608,0,0,1,41.361,113.825h0c1.324,9.927-4.963,19.191-14.559,20.846s-18.2-4.963-19.853-14.559a4.2,4.2,0,0,0-.331-1.985A278.21,278.21,0,0,0,132.162,91.4h0a12.277,12.277,0,0,1,5.294-15.883C143.082,73.2,149.368,74.857,152.346,79.82Z" transform="translate(302.324 171.686)" fill="url(#bq)"/></g><g clip-path="url(#a)"><path d="M80.181,148.826l32.1-57.243A8.37,8.37,0,0,0,108.968,80a8.788,8.788,0,0,0-11.25,2.647L60,135.921a12.117,12.117,0,1,0,19.853,13.9C79.519,149.487,79.85,149.157,80.181,148.826Z" transform="translate(132.943 182.094)" fill="url(#bs)"/><path d="M80.919,157.282l35.4-54.927a8.621,8.621,0,0,0-2.647-11.912,8.337,8.337,0,0,0-11.25,1.985L61.4,143.385a11.99,11.99,0,0,0,18.53,15.221C80.588,157.943,80.588,157.613,80.919,157.282Z" transform="translate(135.184 205.403)" fill="url(#bt)"/><path d="M82.088,166.082l35.4-54.927a8.621,8.621,0,0,0-2.647-11.912,8.337,8.337,0,0,0-11.25,1.985L62.9,152.185a11.99,11.99,0,1,0,18.53,15.221C81.757,166.743,82.088,166.413,82.088,166.082Z" transform="translate(138.647 225.721)" fill="url(#bu)"/><path d="M83.819,175.282l35.4-54.927a8.621,8.621,0,0,0-2.647-11.912,8.337,8.337,0,0,0-11.25,1.985L64.3,161.385a11.99,11.99,0,1,0,18.53,15.221C83.488,175.943,83.488,175.613,83.819,175.282Z" transform="translate(141.879 246.962)" fill="url(#bv)"/><path d="M105.474,303.3a253.573,253.573,0,0,1-7.61-54.927c-.993-37.39,6.287-75.442,20.184-111.839L63.121,113.7c-18.53,41.692-30.111,87.354-31.434,134.34a318.524,318.524,0,0,0,.993,35.4,308.521,308.521,0,0,0,4.963,35.074c.331,1.324,4.3,15.882,4.632,17.206,27.794,28.456,58.9,36.728,98.273,47.648-5.625-9.265-10.919-18.53-15.552-27.794A256.006,256.006,0,0,1,105.474,303.3Z" transform="translate(72.576 262.22)" fill="url(#bw)"/><g transform="translate(127.684 281.546)"><path d="M69.192,279.149l79.082-9.265a10.09,10.09,0,0,0,8.934-11.25L138.016,94.184a10.09,10.09,0,0,0-11.25-8.934L47.684,94.515a10.09,10.09,0,0,0-8.934,11.25l19.191,164.45A10.09,10.09,0,0,0,69.192,279.149Z" transform="translate(-38.678 -85.178)" fill="#0e42a0"/><path d="M56.106,249.487l99.266-11.581L138.166,90,38.9,101.581Z" transform="translate(-38.166 -74.046)" fill="url(#bx)"/><path d="M50.6,90.2" transform="translate(-11.153 -73.584)" fill="none" stroke="#a1def3" stroke-miterlimit="10" stroke-width="0.702"/><path d="M56.8,89.5" transform="translate(3.162 -75.2)" fill="none" stroke="#a1def3" stroke-miterlimit="10" stroke-width="0.702"/><path d="M154.448,222.668,55.183,234.249,39.3,96.6l109.192,74.118Z" transform="translate(-37.243 -58.807)" opacity="0.58" fill="url(#by)"/><g transform="translate(13.625 87.54) rotate(-8)"><path d="M226.8,300.492H192.394a2.645,2.645,0,0,1-2.592-3.17l3.848-19a2.645,2.645,0,0,1,2.592-2.12h34.571a2.645,2.645,0,0,1,2.588,3.191l-4.011,19A2.645,2.645,0,0,1,226.8,300.492Z" transform="translate(-189.749 -276.202)" fill="#fff" style="isolation:isolate"/><g transform="translate(6.323 6.916)" style="isolation:isolate"><path d="M241.659,238.058h2.005v7.425h-2.006v-.759a3.108,3.108,0,0,1-2.289.949,3.442,3.442,0,0,1-2.629-1.125,4.017,4.017,0,0,1-1.03-2.818,3.87,3.87,0,0,1,1.044-2.765,3.457,3.457,0,0,1,2.615-1.1,3.082,3.082,0,0,1,2.289.976Zm-3.293,5.108a1.808,1.808,0,0,0,1.369.57,1.773,1.773,0,0,0,1.368-.583,1.98,1.98,0,0,0,.555-1.4,1.926,1.926,0,0,0-3.293-1.382,1.96,1.96,0,0,0-.528,1.382A2.022,2.022,0,0,0,238.366,243.166Z" transform="translate(-235.708 -235.171)" fill="#256ced"/><path d="M254.765,244.2l-2.346-3.076-.419.393V244.2h-2.127V233.889H252v5.257l2.493-2.371h2.629L253.87,239.8l3.471,4.4Z" transform="translate(-240.279 -233.889)" fill="#256ced"/><path d="M263.941,245.575h-2.128V238.15h2.128Z" transform="translate(-244.132 -235.264)" fill="#256ced"/><path d="M269.5,244.2h-2.128v-10.31H269.5Z" transform="translate(-245.925 -233.889)" fill="#256ced"/><path d="M275.041,244.2h-2.128v-10.31h2.128Z" transform="translate(-247.713 -233.889)" fill="#256ced"/><path d="M280.58,245.575h-2.127V238.15h2.127Z" transform="translate(-249.5 -235.264)" fill="#256ced"/></g><path d="M2.4-26.074l-.9-2.244H1.34L.432-26.074H.763l.228-.583h.852l.228.583Zm-.662-.868H1.094l.325-.847Zm2.368.868L3.32-27.02l.762-.683h-.4l-.728.66v-1.33H2.665v2.3h.293v-.62l.155-.139.615.759Zm.5-1.628H4.318v1.628h.293Zm.744-.67H5.062v2.3h.293Zm.744,0H5.806v2.3H6.1Zm.744.67H6.55v1.628h.293Zm2.9,1.628-.9-2.244H8.679l-.908,2.244H8.1l.228-.583h.853l.228.583Zm-.662-.868H8.433l.325-.847Zm2.368.868-.788-.946.762-.683h-.395l-.729.66v-1.33H10v2.3H10.3v-.62l.155-.139.613.759Zm.628.036a.623.623,0,0,0,.424-.144.447.447,0,0,0,.164-.352.442.442,0,0,0-.276-.41,2.047,2.047,0,0,0-.219-.1l-.179-.079a.2.2,0,0,1-.137-.191.209.209,0,0,1,.074-.149.209.209,0,0,1,.16-.048.408.408,0,0,1,.349.188l.185-.176a.6.6,0,0,0-.516-.258.55.55,0,0,0-.385.131.414.414,0,0,0-.146.325.427.427,0,0,0,.249.395q.05.027.2.091c.1.042.17.073.2.091a.232.232,0,0,1,.149.207c0,.126-.115.225-.289.225a.468.468,0,0,1-.4-.258l-.209.161a.67.67,0,0,0,.6.354Zm2.435-.88a.811.811,0,0,0-.222-.6.754.754,0,0,0-.565-.222.787.787,0,0,0-.6.24.847.847,0,0,0-.226.606.812.812,0,0,0,.241.625.812.812,0,0,0,.628.232,1.2,1.2,0,0,0,.7-.228l-.126-.222a1.026,1.026,0,0,1-.568.182.527.527,0,0,1-.57-.463h1.3c.006-.08.009-.129.009-.15Zm-1.3-.1a.528.528,0,0,1,.519-.461.467.467,0,0,1,.34.128.467.467,0,0,1,.146.333Zm2.1.984a.623.623,0,0,0,.422-.146.447.447,0,0,0,.164-.352.442.442,0,0,0-.276-.41,2.047,2.047,0,0,0-.219-.1l-.179-.079a.2.2,0,0,1-.137-.191.209.209,0,0,1,.074-.149.209.209,0,0,1,.16-.048.408.408,0,0,1,.349.188l.185-.176a.6.6,0,0,0-.516-.258.55.55,0,0,0-.385.131.414.414,0,0,0-.146.325.427.427,0,0,0,.249.395q.05.027.2.091c.1.042.17.073.2.091a.232.232,0,0,1,.149.207c0,.126-.115.225-.289.225a.468.468,0,0,1-.405-.257l-.209.161a.67.67,0,0,0,.606.352Zm1.6,0a.642.642,0,0,0,.512-.184.642.642,0,0,0,.187-.511V-27.7H17.32v.964a.39.39,0,0,1-.1.313.39.39,0,0,1-.306.121.389.389,0,0,1-.3-.124.389.389,0,0,1-.1-.313V-27.7h-.293v.971a.651.651,0,0,0,.19.508.651.651,0,0,0,.508.188Zm2.417-1.43a.712.712,0,0,0-.574-.276.774.774,0,0,0-.583.24.822.822,0,0,0-.231.6.868.868,0,0,0,.231.616.76.76,0,0,0,.583.249.705.705,0,0,0,.574-.27v.231h.278V-27.7h-.279Zm.018.574a.6.6,0,0,1-.155.419.523.523,0,0,1-.4.17.512.512,0,0,1-.4-.17.605.605,0,0,1-.152-.416.605.605,0,0,1,.152-.416.512.512,0,0,1,.4-.17.523.523,0,0,1,.4.17.591.591,0,0,1,.155.411Zm1.005.817v-.863c0-.349.188-.528.446-.528a.568.568,0,0,1,.17.027l.027-.282a.825.825,0,0,0-.191-.024.486.486,0,0,0-.468.282v-.24h-.276v1.628Zm1.91,0V-27.59l.771,1.131h.079l.771-1.131v1.515h.3v-2.244h-.149l-.964,1.424L22.1-28.318h-.146v2.244Zm3.7-1.391a.712.712,0,0,0-.574-.276.774.774,0,0,0-.583.24.822.822,0,0,0-.231.6.868.868,0,0,0,.231.616.76.76,0,0,0,.583.249.705.705,0,0,0,.574-.27v.231h.279V-27.7h-.279Zm.018.574a.6.6,0,0,1-.155.419.523.523,0,0,1-.4.17.512.512,0,0,1-.4-.17.605.605,0,0,1-.152-.416.605.605,0,0,1,.152-.416.512.512,0,0,1,.4-.17.523.523,0,0,1,.4.17.592.592,0,0,1,.155.411Zm.912-1.586a.5.5,0,0,0,.148.38.5.5,0,0,0,.381.146.525.525,0,0,0,.38-.143.512.512,0,0,0,.152-.382H27.7a.269.269,0,0,1-.07.215.269.269,0,0,1-.209.086.269.269,0,0,1-.209-.086.269.269,0,0,1-.07-.215Zm1.089.987a.706.706,0,0,0-.555-.251.8.8,0,0,0-.592.24.8.8,0,0,0-.24.592.827.827,0,0,0,.234.6.774.774,0,0,0,.583.24.717.717,0,0,0,.571-.255v.134a.513.513,0,0,1-.158.392.586.586,0,0,1-.428.155.956.956,0,0,1-.58-.2l-.137.231a1.2,1.2,0,0,0,.72.231.87.87,0,0,0,.635-.234.833.833,0,0,0,.237-.625V-27.7h-.289Zm-.935.993a.563.563,0,0,1-.158-.41.551.551,0,0,1,.158-.407.529.529,0,0,1,.4-.164.529.529,0,0,1,.4.164.551.551,0,0,1,.158.407.563.563,0,0,1-.158.41.529.529,0,0,1-.4.164.529.529,0,0,1-.4-.164Zm2.961-.969a.712.712,0,0,0-.574-.276.774.774,0,0,0-.583.24.822.822,0,0,0-.231.6.868.868,0,0,0,.231.616.76.76,0,0,0,.583.249.705.705,0,0,0,.574-.27v.231h.279V-27.7h-.279Zm.018.574a.6.6,0,0,1-.155.419.523.523,0,0,1-.4.17.512.512,0,0,1-.4-.17.6.6,0,0,1-.152-.416.6.6,0,0,1,.152-.416.512.512,0,0,1,.4-.17.523.523,0,0,1,.4.17.592.592,0,0,1,.155.413Zm1.9-.638v-.17H30.661v.249h.874l-.929,1.19v.185h1.348v-.249H31Zm1.609.064a.712.712,0,0,0-.574-.276.774.774,0,0,0-.583.24.822.822,0,0,0-.231.6.868.868,0,0,0,.231.616.76.76,0,0,0,.583.249.705.705,0,0,0,.574-.27v.231h.279V-27.7h-.279Zm.018.574a.6.6,0,0,1-.155.419.523.523,0,0,1-.4.17.512.512,0,0,1-.4-.17.605.605,0,0,1-.152-.416A.605.605,0,0,1,32.6-27.3a.512.512,0,0,1,.4-.17.523.523,0,0,1,.4.17.591.591,0,0,1,.155.413Zm1.005.817v-.9a.525.525,0,0,1,.126-.358.419.419,0,0,1,.325-.14c.246,0,.416.179.416.495v.9h.289v-.986a.663.663,0,0,0-.185-.507.637.637,0,0,0-.458-.176.547.547,0,0,0-.516.273V-27.7h-.289v1.628ZM36.437-27.7h-.293v1.628h.293Zm1.64.173v-.17H36.81v.249h.874l-.929,1.19v.185H38.1v-.249H37.15Z" transform="translate(48.941 46.408)" fill="#fff"/><path d="M5.553-21.775a3.134,3.134,0,0,0-2.038.724l.067-.536H1.248L-.32-11.145H2.053l.55-3.807A2.584,2.584,0,0,0,4.72-14a3.7,3.7,0,0,0,2.695-1.072,4.585,4.585,0,0,0,1.314-2.775,3.5,3.5,0,0,0-.712-2.815A3.052,3.052,0,0,0,5.553-21.775ZM6.3-17.82a1.917,1.917,0,0,1-1.877,1.649,1.447,1.447,0,0,1-1.448-1.81,1.9,1.9,0,0,1,1.877-1.634,1.334,1.334,0,0,1,1.166.55A1.566,1.566,0,0,1,6.3-17.82Zm5.4,3.633.523-3.593c.174-1.18.871-1.85,1.77-1.85.791,0,1.193.509,1.047,1.461l-.592,3.981h2.373l.657-4.37a2.836,2.836,0,0,0-.483-2.4,2.391,2.391,0,0,0-1.9-.831,3.109,3.109,0,0,0-2.52,1.22l.6-3.847H10.86L9.345-14.188Zm10.242.2a4.527,4.527,0,0,0,2.842-.964,4.251,4.251,0,0,0,1.6-2.547,3.462,3.462,0,0,0-.576-3.043,3.362,3.362,0,0,0-2.855-1.26,4.463,4.463,0,0,0-2.963,1.059,4.406,4.406,0,0,0-1.555,2.695,3.412,3.412,0,0,0,.7,2.882A3.449,3.449,0,0,0,21.947-13.987Zm.214-2.225a1.348,1.348,0,0,1-1.139-.523,1.476,1.476,0,0,1-.228-1.287,1.972,1.972,0,0,1,1.9-1.57,1.366,1.366,0,0,1,1.126.509,1.416,1.416,0,0,1,.255,1.22,1.867,1.867,0,0,1-.67,1.166,1.822,1.822,0,0,1-1.247.484Zm7.266,2.024.523-3.593c.174-1.18.871-1.85,1.77-1.85.791,0,1.193.509,1.047,1.461l-.592,3.981h2.373l.657-4.37a2.836,2.836,0,0,0-.483-2.4,2.391,2.391,0,0,0-1.9-.831,3.02,3.02,0,0,0-2.493,1.22l.161-1.019H28.167l-1.1,7.4Zm11.18-7.588a4.455,4.455,0,0,0-2.964,1.032A4.226,4.226,0,0,0,36.2-18.008c-.349,2.078.871,3.98,3.606,3.98a6.032,6.032,0,0,0,3.338-.979l-.778-1.661a4.415,4.415,0,0,1-2.373.712c-.925,0-1.448-.389-1.582-1.166h5.335a4.908,4.908,0,0,0,.2-.845,3.194,3.194,0,0,0-.7-2.775A3.423,3.423,0,0,0,40.607-21.775Zm-.094,1.89a1.188,1.188,0,0,1,.895.29,1.188,1.188,0,0,1,.4.85H38.69a1.862,1.862,0,0,1,1.823-1.139Z" transform="translate(42.915 31.513)" fill="#fff"/></g></g><path d="M75.171,107.565a210.527,210.527,0,0,0-38.714,74.449h0c-1.985,6.618,1.985,13.235,8.6,15.221s13.235-1.985,15.221-8.6c0-.331.331-.993.331-1.324a185.069,185.069,0,0,1,27.794-70.479h0a8.352,8.352,0,0,0-2.316-11.25A8.632,8.632,0,0,0,75.171,107.565Z" transform="translate(82.695 240.892)" fill="url(#bz)"/></g><g clip-path="url(#a)"><rect width="139.303" height="60.221" transform="matrix(0.526, -0.85, 0.85, 0.526, 124.625, 201.425)" fill="#47c684"/><circle cx="18.53" cy="18.53" r="18.53" transform="translate(168.124 139.998)" fill="url(#cb)"/><circle cx="7.279" cy="7.279" r="7.279" transform="translate(160.513 181.028)" fill="url(#cc)"/><circle cx="7.279" cy="7.279" r="7.279" transform="translate(197.903 120.807)" fill="url(#cd)"/></g></g></g></g></svg>