<svg xmlns="http://www.w3.org/2000/svg" width="49" height="49" viewBox="0 0 49 49"><g transform="translate(-1122 -58)"><g transform="translate(-54)"><rect width="49" height="49" rx="24.5" transform="translate(1176 58)" fill="#1a9afc"/><path d="M23.96.806a6.006,6.006,0,0,0-2.2,8.2,6,6,0,0,0,7.189,2.664l2.7,4.679,1.926-1.112-2.7-4.679A6.007,6.007,0,0,0,32.165,3a6,6,0,0,0-8.2-2.2Zm6.278,3.31a3.783,3.783,0,0,1-3.27,5.673A3.8,3.8,0,0,1,23.689,7.9a3.783,3.783,0,0,1,3.27-5.673A3.8,3.8,0,0,1,30.238,4.116Z" transform="translate(1173.233 74.323)" fill="#fff"/></g></g></svg>