<svg xmlns="http://www.w3.org/2000/svg" width="17" height="17" viewBox="0 0 17 17"><g transform="translate(-245.737 -49)"><g transform="translate(245.737 49)"><path d="M13.458,0H3.542A3.546,3.546,0,0,0,0,3.542V4.25A2.125,2.125,0,0,0,.708,5.832v7.626A3.546,3.546,0,0,0,4.25,17h8.5a3.546,3.546,0,0,0,3.542-3.542V5.832A2.125,2.125,0,0,0,17,4.25V3.542A3.546,3.546,0,0,0,13.458,0ZM1.417,3.542A2.125,2.125,0,0,1,3.542,1.417h9.917a2.125,2.125,0,0,1,2.125,2.125V4.25a.708.708,0,0,1-.708.708H2.125a.708.708,0,0,1-.708-.708Zm13.458,9.917a2.125,2.125,0,0,1-2.125,2.125H4.25a2.125,2.125,0,0,1-2.125-2.125V6.375h12.75Z" fill="#c3c3c3"/></g></g></svg>