<svg xmlns="http://www.w3.org/2000/svg" width="11" height="11" viewBox="0 0 11 11"><g transform="translate(-1577 -4672)"><g transform="translate(1577 4672)"><path d="M7.563,0H3.438A3.438,3.438,0,0,0,0,3.438V7.563A3.438,3.438,0,0,0,3.438,11H7.563A3.438,3.438,0,0,0,11,7.563V3.438A3.438,3.438,0,0,0,7.563,0ZM9.969,7.563A2.409,2.409,0,0,1,7.563,9.969H3.438A2.409,2.409,0,0,1,1.031,7.563V3.438A2.409,2.409,0,0,1,3.438,1.031H7.563A2.409,2.409,0,0,1,9.969,3.438Z" fill="#848484"/><g transform="translate(2.75 2.75)"><path d="M130.75,128a2.75,2.75,0,1,0,2.75,2.75A2.75,2.75,0,0,0,130.75,128Zm0,4.469a1.719,1.719,0,1,1,1.719-1.719A1.721,1.721,0,0,1,130.75,132.469Z" transform="translate(-128 -128)" fill="#848484"/></g><g transform="translate(8.09 2.177)"><circle cx="0.366" cy="0.366" r="0.366" fill="#848484"/></g></g></g></svg>