<svg xmlns="http://www.w3.org/2000/svg" width="89.877" height="23.792" viewBox="0 0 89.877 23.792"><g transform="translate(-758 -5121)"><g transform="translate(-148 4771.66)"><path d="M906,358.443v1.207h1.873v4.564h1.4v-4.572h1.92v-1.2Z" fill="#00428a"/><circle cx="1" cy="1" r="1" transform="translate(912.359 356.526)" fill="#00428a"/><circle cx="1" cy="1" r="1" transform="translate(914.842 356.526)" fill="#00428a"/><path d="M925.034,358.443v5.779h1.326v-1.73l1.048-1.048,1.8,2.778H930.8l-2.421-3.786,1.92-1.993h-1.6l-2.333,2.477v-2.477Zm5.794,0h1.357V364.2h-1.357Z" fill="#00428a"/><circle cx="1" cy="1" r="1" transform="translate(930.566 356.526)" fill="#00428a"/><path d="M949.034,352.65v.326s.866.04.866.817v5.39l2.214,1.246v-6.667a.761.761,0,0,1,.85-.786v-.326Z" fill="#00428a"/><path d="M952.345,354.306v.523a3.753,3.753,0,0,1,2.135,3.215h.341v-3.73h-.3a.825.825,0,0,1-.73.507A4.166,4.166,0,0,1,952.345,354.306Zm-2.46,0v.46s-2,.31-2,2.1c0,0-.159,1.429,2.262,2.66l3,1.65a5.96,5.96,0,0,1,2.826,2.722,4.072,4.072,0,0,1-1.968,5.183,5.437,5.437,0,0,1-1.985.54,1.43,1.43,0,0,1,.73,1.246c0,.89-.984,2.254-1.412,2.262h-.254s-.04-.047.1-.2.738-.873.587-1.294a1.955,1.955,0,0,1-.706.159,1.132,1.132,0,0,1-.206-2.215,8.194,8.194,0,0,1-1.413-.42c-1.072-.39-1.9-.762-2.453.166H946.7v-3.952h.349a4.825,4.825,0,0,0,4.69,3.762,2.783,2.783,0,0,0,3.025-2.651c0-.413,0-1.667-2.016-2.81s-3.945-2.2-3.945-2.2a4.091,4.091,0,0,1-2.254-3.532A3.7,3.7,0,0,1,949.885,354.306Z" fill="#00428a"/><path d="M949.908,362.581l2.206,1.247v2.555a.76.76,0,0,0,.857.77v.341h-3.937v-.373s.866.016.866-.793S949.908,362.581,949.908,362.581Zm-16.6-4.138h1.58l1.611,2.43,1.659-2.414h1.532l-2.548,3.46v2.3h-1.31v-2.3Zm6.629,0h4.62v1.175h-3.287v.992h1.881v1.1h-1.88v1.373h3.42v1.143h-4.762Z" fill="#00428a"/><circle cx="1.222" cy="1.222" r="1.222" transform="translate(949.862 349.34)" fill="#00428a"/><path d="M962.527,361.1a1.243,1.243,0,0,0,.746-1.2c0-.953-.905-1.453-2.04-1.453s-3.095-.008-3.095-.008v5.763h3.222s2.16-.008,2.16-1.858A1.252,1.252,0,0,0,962.527,361.1Zm-3.095-1.562h1.928c.627,0,.58.524.58.524a.531.531,0,0,1-.54.547h-1.968Zm1.96,3.58H959.44v-1.493h1.928s.762.056.762.762a.752.752,0,0,1-.738.73Zm6.4-4.677h-1.317l-2.54,5.755h1.413l.532-1.262h2.4l.54,1.278H970.3l-2.509-5.77Zm-1.476,3.374.778-1.969.786,1.969Zm4.24-3.374v5.8h1.3v-3.722l2.866,3.715h1.2v-5.779h-1.35v3.675l-2.785-3.683Zm15.661,0h-1.286l-2.31,5.223-2.1-3.207,1.992-2.008H980.88l-2.365,2.516v-2.524h-1.342v5.77h1.342v-1.682l1.047-1.071,1.794,2.754h2.421l.524-1.27h2.42l.509,1.27h1.476l-2.492-5.77Zm-1.445,3.43.778-1.97.778,1.97ZM992.8,360.2l.976-.834a3.636,3.636,0,0,0-2.365-.92c-1.43,0-2.413.722-2.413,1.73s.786,1.428,2.1,1.682,1.572.508,1.46.953-1.023.484-1.3.468a2.128,2.128,0,0,1-1.524-.675l-.976.786a3.587,3.587,0,0,0,2.54,1.024c1.619,0,2.6-.627,2.627-1.825s-.937-1.508-1.985-1.762l-1.071-.223s-.476-.119-.476-.5.38-.524,1.008-.524A1.961,1.961,0,0,1,992.8,360.2Zm1.753-1.755h1.325V364.2h-1.325Zm-82.759,0h1.35v3.413a1.333,1.333,0,0,0,1.325,1.326,1.4,1.4,0,0,0,1.373-1.334v-3.4h1.333v3.263a2.693,2.693,0,0,1-5.381.007Zm10.708,3.548a1.7,1.7,0,0,0,1.254-1.666,1.883,1.883,0,0,0-2.016-1.882h-3.325v5.763h1.3v-2.064h1.35l1.2,2.064h1.516Zm-.857-.9h-1.92v-1.531h1.888s.794.008.794.754A.775.775,0,0,1,921.644,361.086Z" fill="#00428a"/></g></g></svg>