<svg xmlns="http://www.w3.org/2000/svg" xmlns:xlink="http://www.w3.org/1999/xlink" width="653" height="446" viewBox="0 0 653 446"><defs><clipPath id="a"><rect width="503.474" height="385.456" fill="none"/></clipPath><clipPath id="b"><path d="M36.647,31.318V69.837L374.694,182.611V144.092c0-9.355-10.453-20.5-23.245-24.773L59.892,22.054a30.565,30.565,0,0,0-9.574-1.674c-8.044,0-13.671,4.067-13.671,10.938" transform="translate(-36.647 -20.38)" fill="#1a9afc"/></clipPath><clipPath id="d"><path d="M82.652,244.292c-2.795,3.031-3.894,8.388-2.455,11.982s4.861,4.037,7.657,1.006,3.881-8.4,2.456-11.982c-.8-1.987-2.209-3.013-3.784-3.013a5.437,5.437,0,0,0-3.874,2.007" transform="translate(-79.564 -242.285)" fill="none"/></clipPath><linearGradient id="e" x1="-7.95" y1="3.825" x2="-7.849" y2="3.825" gradientUnits="objectBoundingBox"><stop offset="0" stop-color="#5287c6"/><stop offset="0.075" stop-color="#5287c6"/><stop offset="1" stop-color="#4875ba"/></linearGradient><clipPath id="f"><path d="M82.488,259.219l105.456,35.867,4.416-16.7L86.211,242.311Z" transform="translate(-82.488 -242.311)" fill="none"/></clipPath></defs><g transform="translate(-395 -2233)"><g transform="translate(-478 1769)"><circle cx="223" cy="223" r="223" transform="translate(873 464)" fill="blue" opacity="0.015"/><circle cx="223" cy="223" r="223" transform="translate(1080 464)" fill="blue" opacity="0.015"/><g transform="translate(1129.514 545.374)"><path d="M1584.6,155.791h50.59a4.213,4.213,0,0,0,4.2-4.2V101a4.213,4.213,0,0,0-4.2-4.2H1584.6a4.213,4.213,0,0,0-4.2,4.2v50.59A4.194,4.194,0,0,0,1584.6,155.791Z" transform="translate(-1580.4 -96.8)" fill="blue" opacity="0.02"/><path d="M1495.271,267.129h32.286a5.968,5.968,0,0,0,5.971-5.971V228.871a5.968,5.968,0,0,0-5.971-5.971h-32.286a5.967,5.967,0,0,0-5.971,5.971v32.286A5.967,5.967,0,0,0,1495.271,267.129Z" transform="translate(-1447.202 -185.063)" fill="blue" opacity="0.02"/></g><g transform="translate(1385.857 687.065)"><path d="M303.141,1131.066h81.985a4.14,4.14,0,0,0,4.14-4.14V1044.94a4.14,4.14,0,0,0-4.14-4.14H303.141a4.14,4.14,0,0,0-4.14,4.14v81.985A4.125,4.125,0,0,0,303.141,1131.066Z" transform="translate(-299 -1018.655)" fill="blue" opacity="0.03"/><path d="M211.681,992.609h37.647a3.072,3.072,0,0,0,3.081-3.081V951.881a3.072,3.072,0,0,0-3.081-3.081H211.681a3.072,3.072,0,0,0-3.081,3.081v37.647A3.072,3.072,0,0,0,211.681,992.609Z" transform="translate(-140.383 -948.8)" fill="blue" opacity="0.03"/></g><g transform="translate(895.506 674.636)"><path d="M372.841,1118.191H302.55a3.55,3.55,0,0,1-3.55-3.55V1044.35a3.55,3.55,0,0,1,3.55-3.55h70.292a3.55,3.55,0,0,1,3.55,3.55v70.291A3.536,3.536,0,0,1,372.841,1118.191Z" transform="translate(-280.344 -1021.813)" fill="blue" opacity="0.03"/><path d="M243.519,986.36H211.242a2.634,2.634,0,0,1-2.642-2.642V951.442a2.634,2.634,0,0,1,2.642-2.642h32.277a2.634,2.634,0,0,1,2.642,2.642v32.277A2.634,2.634,0,0,1,243.519,986.36Z" transform="translate(-208.6 -948.8)" fill="blue" opacity="0.03"/></g><g transform="translate(1393.621 554.384)"><path d="M306.032,142.957h31.861a7.164,7.164,0,0,0,7.163-7.163v-31.83a7.164,7.164,0,0,0-7.163-7.163h-31.83a7.164,7.164,0,0,0-7.163,7.163v31.83A7.158,7.158,0,0,0,306.032,142.957Z" transform="translate(-270.714 -96.8)" fill="blue" opacity="0.03"/><path d="M407.293,237.588h30.8a5.782,5.782,0,0,0,5.793-5.793v-30.8A5.782,5.782,0,0,0,438.1,195.2h-30.8a5.782,5.782,0,0,0-5.793,5.793v30.8A5.8,5.8,0,0,0,407.293,237.588Z" transform="translate(-401.5 -164.553)" fill="blue" opacity="0.03"/></g></g><g transform="translate(492.725 2263.272)"><g clip-path="url(#a)"><path d="M406.562,256.7,175.814,182.091c-10.113-3.267-18.4-12.635-18.4-20.8V10.049c0-8.166,8.284-12.178,18.4-8.911L406.562,75.746c10.113,3.267,18.4,12.635,18.4,20.8V247.788c0,8.179-8.284,12.191-18.4,8.911" transform="translate(48.266 0)" fill="#c2d9f1"/><path d="M384.5,339.3,91.868,233.11c-12.753-4.129-23.192-15.928-23.192-26.224L57.047,20.655S70.27,8.973,72.975,6.778c4.22-3.41,11.119-4.3,18.894-1.79l290.9,94.05c12.753,4.129,23.192,15.928,23.192,26.224V315.544c0,4.978-2.47,7.97-6.389,11.2C395.865,329.773,384.5,339.3,384.5,339.3" transform="translate(17.491 1.089)" fill="#d6e7f7"/><path d="M368.294,336.891l-290.9-94.05C64.637,238.712,54.2,226.913,54.2,216.617V25.943c0-10.3,10.44-15.353,23.192-11.224l290.9,94.05c12.753,4.129,23.192,15.928,23.192,26.224V325.667c0,10.3-10.44,15.353-23.192,11.224" transform="translate(16.618 4.071)" fill="#fff"/><path d="M92.9,104.973l6.363,18.881a2.344,2.344,0,0,0,1.424,1.49l14.5,4.8a2.5,2.5,0,0,1,.353,4.469l-9.473,4.808a2.428,2.428,0,0,0-1.176,2.626l3.28,17.378c.431,2.247-1.947,3.763-3.489,2.221l-13.04-12.949a1.96,1.96,0,0,0-2.221-.444l-13.5,6.01c-1.62.719-3.319-.941-2.9-2.822l3.789-17.5a2.606,2.606,0,0,0-.653-2.352L65.745,120.9c-1.607-1.646-.3-4.573,1.816-4.09l12.178,2.8A2.028,2.028,0,0,0,82,118.47l7.017-13.889a2.068,2.068,0,0,1,3.881.392" transform="translate(19.939 31.701)" fill="#c2d9f1"/><path d="M143.406,119.179l5.893,17.482a2.344,2.344,0,0,0,1.424,1.49l14.5,4.8a2.5,2.5,0,0,1,.353,4.469l-5.958,3.567-3.515,1.241a2.428,2.428,0,0,0-1.176,2.626l3.28,17.378a2.4,2.4,0,0,1-1.176,2.626c-.706.366-5.71,3.423-5.71,3.423l-9.643-16.764a1.96,1.96,0,0,0-2.221-.444l-13.5,6.01c-1.62.719-3.319-.941-2.9-2.822l3.789-17.5a2.606,2.606,0,0,0-.653-2.352l-16.111-10.9,5.331-2.875a4.81,4.81,0,0,1,3.5-.706l10.858,2.483a2.028,2.028,0,0,0,2.26-1.137l1.829-11.185,5.187-2.7c2.025-1.2,3.711-.118,4.351,1.79" transform="translate(33.754 35.839)" fill="#f18532"/><path d="M137.207,120.673l6.363,18.881a2.344,2.344,0,0,0,1.424,1.49l14.5,4.8a2.5,2.5,0,0,1,.353,4.469l-9.473,4.808a2.428,2.428,0,0,0-1.176,2.626l3.28,17.378c.431,2.247-1.947,3.763-3.489,2.221l-13.04-12.949a1.96,1.96,0,0,0-2.221-.444l-13.5,6.01c-1.62.719-3.319-.941-2.9-2.822l3.789-17.5a2.606,2.606,0,0,0-.653-2.352L110.055,136.6c-1.607-1.646-.3-4.573,1.816-4.09l12.178,2.8a2.028,2.028,0,0,0,2.26-1.137l7.017-13.889a2.068,2.068,0,0,1,3.881.392" transform="translate(33.525 36.514)" fill="#ffc749"/><path d="M190.716,134.39l5.893,17.482a2.344,2.344,0,0,0,1.424,1.49l14.5,4.8a2.5,2.5,0,0,1,.353,4.469l-5.958,3.567-3.515,1.241a2.428,2.428,0,0,0-1.176,2.626l3.28,17.378a2.4,2.4,0,0,1-1.176,2.626c-.706.366-5.71,3.423-5.71,3.423l-9.643-16.764a1.96,1.96,0,0,0-2.221-.444l-13.5,6.01c-1.62.719-3.319-.941-2.9-2.822l3.789-17.5a2.606,2.606,0,0,0-.653-2.352l-16.111-10.9,5.331-2.875a4.81,4.81,0,0,1,3.5-.706l10.858,2.483a2.028,2.028,0,0,0,2.26-1.137l1.829-11.185,5.187-2.7c2.038-1.2,3.711-.131,4.351,1.79" transform="translate(48.26 40.502)" fill="#f18532"/><path d="M184.517,135.883l6.363,18.881a2.344,2.344,0,0,0,1.424,1.49l14.5,4.8a2.5,2.5,0,0,1,.353,4.469l-9.473,4.808a2.428,2.428,0,0,0-1.176,2.626l3.28,17.378c.431,2.247-1.947,3.763-3.489,2.221L183.262,179.6a1.96,1.96,0,0,0-2.221-.444l-13.5,6.01c-1.62.719-3.319-.941-2.9-2.822l3.789-17.5a2.606,2.606,0,0,0-.653-2.352L157.365,151.81c-1.607-1.646-.3-4.573,1.816-4.09l12.178,2.8a2.028,2.028,0,0,0,2.26-1.137l7.017-13.889a2.068,2.068,0,0,1,3.881.392" transform="translate(48.031 41.178)" fill="#ffc749"/><path d="M240.156,148.95l5.893,17.483a2.344,2.344,0,0,0,1.424,1.49l14.5,4.8a2.5,2.5,0,0,1,.353,4.469l-5.958,3.567-3.515,1.241a2.428,2.428,0,0,0-1.176,2.626L254.96,202a2.4,2.4,0,0,1-1.176,2.626c-.706.366-5.71,3.423-5.71,3.423l-9.643-16.764a1.96,1.96,0,0,0-2.221-.444l-13.5,6.01c-1.62.719-3.319-.941-2.9-2.822l3.789-17.5a2.606,2.606,0,0,0-.653-2.352l-16.111-10.9,5.331-2.875a4.81,4.81,0,0,1,3.5-.706l10.858,2.483a2.028,2.028,0,0,0,2.26-1.137l1.829-11.185,5.187-2.7c2.038-1.2,3.711-.131,4.351,1.79" transform="translate(63.419 44.966)" fill="#f18532"/><path d="M233.957,150.443l6.363,18.881a2.344,2.344,0,0,0,1.424,1.49l14.5,4.8a2.5,2.5,0,0,1,.353,4.469l-9.473,4.808a2.428,2.428,0,0,0-1.176,2.626l3.28,17.378c.431,2.247-1.947,3.763-3.489,2.221L232.7,194.162a1.96,1.96,0,0,0-2.221-.444l-13.5,6.01c-1.62.719-3.319-.941-2.9-2.822l3.789-17.5a2.606,2.606,0,0,0-.653-2.352L206.805,166.37c-1.607-1.646-.3-4.573,1.816-4.09l12.178,2.8a2.028,2.028,0,0,0,2.26-1.137l7.017-13.889a2.068,2.068,0,0,1,3.881.392" transform="translate(63.19 45.642)" fill="#ffc749"/><path d="M288.546,163.319l5.893,17.482a2.344,2.344,0,0,0,1.424,1.49l14.5,4.8a2.5,2.5,0,0,1,.353,4.469l-5.958,3.567-3.515,1.241a2.428,2.428,0,0,0-1.176,2.626l3.28,17.378a2.4,2.4,0,0,1-1.176,2.626c-.706.366-5.71,3.423-5.71,3.423l-9.643-16.764a1.96,1.96,0,0,0-2.221-.444l-13.5,6.01c-1.62.719-3.319-.941-2.9-2.822l3.789-17.5a2.606,2.606,0,0,0-.653-2.352l-16.111-10.9,5.331-2.875a4.81,4.81,0,0,1,3.5-.706l10.858,2.483a2.028,2.028,0,0,0,2.26-1.137l1.829-11.185,5.187-2.7c2.038-1.2,3.711-.118,4.351,1.79" transform="translate(78.256 49.373)" fill="#f18532"/><path d="M282.347,164.813l6.363,18.881a2.344,2.344,0,0,0,1.424,1.49l14.5,4.8a2.5,2.5,0,0,1,.353,4.469l-9.473,4.808a2.428,2.428,0,0,0-1.176,2.626l3.28,17.378c.431,2.247-1.947,3.763-3.489,2.221l-13.04-12.949a1.96,1.96,0,0,0-2.221-.444l-13.5,6.01c-1.62.719-3.319-.941-2.9-2.822l3.789-17.5a2.606,2.606,0,0,0-.653-2.352L255.2,180.74c-1.607-1.646-.3-4.573,1.816-4.09l12.178,2.8a2.028,2.028,0,0,0,2.26-1.137l7.017-13.889a2.068,2.068,0,0,1,3.881.392" transform="translate(78.027 50.048)" fill="#ffc749"/><path d="M66.63,134.2l5.893,17.482a2.344,2.344,0,0,0,1.424,1.49l14.5,4.8a2.5,2.5,0,0,1,.353,4.469l-5.958,3.567-3.515,1.241a2.428,2.428,0,0,0-1.176,2.626l3.28,17.378a2.4,2.4,0,0,1-1.176,2.626c-.706.366-5.71,3.423-5.71,3.423L64.9,176.537a1.96,1.96,0,0,0-2.221-.444l-13.5,6.01c-1.62.719-3.319-.941-2.9-2.822l3.789-17.5a2.606,2.606,0,0,0-.653-2.352L33.337,148.51l5.331-2.875a4.81,4.81,0,0,1,3.5-.706l10.858,2.483a2.028,2.028,0,0,0,2.26-1.137l1.829-11.185,5.187-2.7c2.012-1.176,3.685-.1,4.325,1.816" transform="translate(10.222 40.441)" fill="#f18532"/><path d="M60.437,135.693,66.8,154.573a2.344,2.344,0,0,0,1.424,1.49l14.5,4.8a2.5,2.5,0,0,1,.353,4.469l-9.473,4.808a2.428,2.428,0,0,0-1.176,2.626l3.28,17.378c.431,2.247-1.947,3.763-3.489,2.221l-13.04-12.949a1.96,1.96,0,0,0-2.221-.444l-13.5,6.01c-1.62.719-3.319-.941-2.9-2.822l3.789-17.5a2.606,2.606,0,0,0-.653-2.352L33.285,151.62c-1.607-1.646-.3-4.573,1.816-4.09l12.178,2.8a2.028,2.028,0,0,0,2.26-1.137L56.556,135.3a2.068,2.068,0,0,1,3.881.392" transform="translate(9.986 41.12)" fill="#ffc749"/><path d="M53.68,232.378c-6.311-2.365-17.038-2.43-23.963-.17-3.345,1.1-5.187,2.535-5.5,4a9.463,9.463,0,0,0-.941-.366,21.329,21.329,0,0,0-12.047.078c-3.175,1.189-2.914,3.071.562,4.207a21.329,21.329,0,0,0,12.047-.078,5.082,5.082,0,0,0,1.777-1.032,11.286,11.286,0,0,0,2.966,1.568c6.311,2.365,17.038,2.43,23.963.17s7.448-6.023,1.137-8.375" transform="translate(2.761 70.692)" fill="#c2d9f1"/><path d="M17.692,243.612c-.314,2.744-3.855.183-3.855-1.908,4.4-14.164,9.107-25.649,14.569-30.392l1.32-30.091,16.79-4.73-8.245,39.146Z" transform="translate(4.243 54.115)" fill="#ed5554"/><path d="M38.6,232.511l3.985,1.385c3.084.1,4.678-.17,5.475,1.032l.222.34c.8,1.2.209,1.829-1.568,2.378l-8.023,1.816c-2.339.523-2.94-.248-3.528-1.672a5.2,5.2,0,0,1,1.241-3.894c.928-1.215.875-1.307,2.2-1.385" transform="translate(10.771 71.291)" fill="#27437b"/><path d="M42.578,248.716c-.875,2.221-4.717,1.738-4.652-.091-4.051-27.988-1.28-29.686-1.385-35.788-.118-6.821-1.437-14.19-6.285-27.125l4.351.693A14.394,14.394,0,0,1,46.72,200.489c.157,17.391-.693,31.15-4.142,48.227" transform="translate(9.277 56.942)" fill="#ed5554"/><path d="M47.829,177.475l2.6,36.664s-12.962,11.106-28.9-2.692c3.489-4.991,3.92-11.354,3.449-18.123-1.424-6.363.183-11.59,2.012-16.163Z" transform="translate(6.6 54.32)" fill="#27437b"/><path d="M42.856,151.407c-.327,3.972-4.077,6.128-6.938,4.155s-4.9-6.794-4.573-10.766,2.9-5.579,5.762-3.606,6.076,6.246,5.749,10.218" transform="translate(9.6 43.032)" fill="#ed5554"/><path d="M34.015,161.816l-.431-.091a2.713,2.713,0,0,1-2.051-3.227l1.829-8.179a2.713,2.713,0,0,1,3.227-2.051l.431.091a2.713,2.713,0,0,1,2.051,3.227l-.6,8.127c-.327,1.437-3.005,2.417-4.456,2.1" transform="translate(9.648 45.441)" fill="#ed5554"/><path d="M31.656,154.709s.052,2.692,4.638,2.038c3.672-.523,1.28-6.886,4.769-8.192,3.828-1.437,3.58-6.481,1.633-8.049s-6.494-1.672-9.381.353-9.316,4.377-1.659,13.85" transform="translate(8.597 42.722)" fill="#27437b"/><path d="M39.15,148.407a1.757,1.757,0,1,1-1.607-1.895,1.757,1.757,0,0,1,1.607,1.895" transform="translate(10.929 44.921)" fill="#ed5554"/><path d="M26.036,184.507c0-6.442.209-7.814-.9-15.131-.366-2.456-.2-3.188-.444-5.658-.431-4.338,1.5-12.243,8.663-10.179l.64.444a14.118,14.118,0,0,1,3.044,1.176c10.466,5.4,14.412,6.037,12.792,12.674-.444,4.978-4.521,6.4-2.966,16.973-2.13,7.108-18.449,4.782-20.827-.3" transform="translate(7.553 46.974)" fill="#1a9afc"/><path d="M37.388,152.693l-.6-.862a2.68,2.68,0,0,0,2.221.131,3.379,3.379,0,0,1-1.62.732" transform="translate(11.279 46.554)" fill="#bc4242"/><path d="M18.364,228.692l-.9,4.155c.261,3.1.732,4.665-.366,5.605l-.314.261c-1.111.941-2.26.366-2.574-1.28l-2.587-7.5a3.62,3.62,0,0,1,1.947-3.828s1.176-.679,3.136.562c1.307.836,1.424.706,1.659,2.025" transform="translate(3.544 69.27)" fill="#27437b"/><path d="M34.081,144.3s-3.972-4.939-7.526,1.163-1.581,13.314-6.638,16.829c0,0,8.859.118,9.852-5.5s.457-10.348,3.632-10.505.679-1.986.679-1.986" transform="translate(6.107 43.667)" fill="#27437b"/><path d="M37.937,235.856l5.109-.3a.6.6,0,0,0,.209-1.137l-3.2-1.908Z" transform="translate(11.632 71.291)" fill="#ed5554"/><path d="M14.587,226.347s1.294,6,1.947,6.781l1.254-5.122L16.9,225Z" transform="translate(4.473 68.989)" fill="#ed5554"/><path d="M23.927,188.291s1.816,3.267,3.149,3.371a5.054,5.054,0,0,1-2.783-.549Z" transform="translate(7.336 57.733)" fill="#223b6c"/><path d="M45.364,214.065l-2.6-36.664-4.717,2.77s3.868,32.522.915,37.186a17.483,17.483,0,0,0,6.4-3.293" transform="translate(11.666 54.394)" fill="#223b6c"/><path d="M42.773,182.249s-.536-6.429.327-8.31,4.286-9.865,4.286-9.865l-2.025-2.483c-2.221,3.881-6.834,4.181-7.343,24.617.013-.013,4.233-.954,4.756-3.959" transform="translate(11.657 49.546)" fill="#5991cd"/><path d="M45.959,160.548l10.989,11.08,14.647-8.65,4.181,2.718S57.745,183.688,52.061,181.7c-5.292-1.855-15.954-21.651-15.954-21.651Z" transform="translate(11.071 49.074)" fill="#1a9afc"/><path d="M69.635,162.924h0a2.662,2.662,0,0,0-3.306-1.777L64.5,161.7a2.654,2.654,0,0,0,1.529,5.083l1.829-.549a2.652,2.652,0,0,0,1.777-3.306" transform="translate(19.198 49.376)" fill="#ed5554"/><path d="M382.873,176.823V138.3c0-9.355-10.453-20.5-23.245-24.773L68.083,16.254C60.139,13.6,53.1,14.215,48.9,17.3c-2.561,1.882-10.074,8.624-10.074,8.624l6.023,38.114L374.04,184.4Z" transform="translate(11.905 4.471)" fill="#3d74ba"/></g><g transform="translate(47.883 26.629)"><g clip-path="url(#b)"><rect width="338.047" height="162.231" transform="translate(0 0)" fill="#1a9afc"/></g></g><g clip-path="url(#a)"><path d="M55.34,37.846c3.446-2.752,9.078-1.426,12.581,2.962s3.55,10.173.1,12.925-9.077,1.424-12.581-2.962-3.55-10.173-.1-12.925" transform="translate(16.185 11.164)" fill="#3d74ba"/><path d="M75.841,44.157c3.446-2.752,9.078-1.426,12.581,2.962s3.55,10.173.1,12.925-9.077,1.424-12.581-2.962-3.55-10.173-.1-12.925" transform="translate(22.471 13.099)" fill="#3d74ba"/><path d="M96.342,50.467c3.446-2.752,9.078-1.426,12.581,2.962s3.55,10.173.1,12.925-9.077,1.424-12.581-2.962-3.55-10.173-.1-12.925" transform="translate(28.757 15.034)" fill="#3d74ba"/><path d="M218.348,218.024,99.237,177.271v-8.31l119.111,40.753Z" transform="translate(30.428 51.806)" fill="#b5cae0"/><path d="M67.437,76.431v8.31l235.125,78.266V154.7Z" transform="translate(20.677 23.435)" fill="#b5cae0"/><path d="M168.305,214.465,99.237,190.828v-8.3l69.068,23.624Z" transform="translate(30.428 55.967)" fill="#b5cae0"/><path d="M201.971,298.655l12.831.392-11.315-12.112a2.8,2.8,0,0,0-.732-.784l-.013-.013a3.055,3.055,0,0,0-.614-.327l-.2-.065c-.078-.026-.157-.052-.248-.078l-99.329-33.044-6.507-2.2a3.5,3.5,0,0,0-.862-.366L74.5,243.385a3.863,3.863,0,0,0-.928-.3,9.527,9.527,0,0,0-5.579,1.019c-4.4,2.025-7.905,6.115-7.814,9.133a2.8,2.8,0,0,0,2.287,2.744l21.664,6.755a5.936,5.936,0,0,0,.693.157l3.253.993L190.578,298a4.06,4.06,0,0,0,1.124.379h.013a6.715,6.715,0,0,0,1.633.039Z" transform="translate(18.451 74.502)" fill="#c2d9f1"/><path d="M69.508,251.865c-3.11,2.914-6.611,2.182-7.814-1.62s.327-9.251,3.436-12.165,6.611-2.182,7.814,1.62-.327,9.251-3.436,12.165" transform="translate(18.789 72.451)" fill="#ffc749"/><path d="M63.917,253.51l21.611,6.834c6.821,2.038,11.6-14.843,4.782-16.881L68.83,236.341Z" transform="translate(19.598 72.466)" fill="#ffc749"/><path d="M87.564,258.821l-2.13-8.624-23.558-8.336a11.618,11.618,0,0,0-.183,6.69,4.514,4.514,0,0,0,3.044,3.28l21.611,6.834a3.934,3.934,0,0,0,1.215.157" transform="translate(18.79 74.158)" fill="#f18532"/><path d="M73.591,256.269s-3.541-11.72,7.7-16.058l13.667,4.73-8.31,15.34Z" transform="translate(22.402 73.652)" fill="#fffcf9"/></g><g transform="translate(103.96 316.573)"><g clip-path="url(#d)"><rect width="12.976" height="18.026" transform="translate(-0.806)" fill="url(#e)"/></g></g><g transform="translate(107.78 316.607)"><g clip-path="url(#f)"><rect width="109.872" height="52.774" transform="translate(0)" fill="#1a9afc"/></g></g><g clip-path="url(#a)"><path d="M79.83,248.241a11.105,11.105,0,0,0,.366,6.206,4.385,4.385,0,0,0,3.2,2.966l105.444,35.853,1.725-6.507Z" transform="translate(24.394 76.114)" fill="#3d74ba"/><path d="M184.694,285.732l-14.53-14.412a4.581,4.581,0,0,0-.941-.941l-.026-.026c-1.672-1.176-3.946-.771-5.906,1.359-2.8,3.031-3.894,8.4-2.456,11.982.954,2.378,2.783,3.371,4.717,2.888Z" transform="translate(49.121 82.695)" fill="#fffcf9"/><path d="M81.819,248.916l-8.114-2.875a15.86,15.86,0,0,0-.1,8.441l10.4,3.2a9.444,9.444,0,0,1-2.182-8.767" transform="translate(22.405 75.44)" fill="#dedbd9"/><path d="M160.351,276.231a10.657,10.657,0,0,0,.483,5.462c.954,2.378,2.783,3.371,4.717,2.888l19.129-.862Z" transform="translate(49.122 84.696)" fill="#dedbd9"/><path d="M181.648,283.654l-7.226-7.173a7.042,7.042,0,0,0-4.207,7.683Z" transform="translate(52.166 84.773)" fill="#223b6c"/><path d="M16.1,67.812c10.069-8.01,26.8-3.725,37.378,9.568s10.985,30.564.915,38.574-26.8,3.725-37.378-9.568S6.029,75.822,16.1,67.812" transform="translate(2.7 19.555)" fill="#c2d9f1"/><path d="M7.292,74.778c10.069-8.01,26.8-3.725,37.378,9.568s10.985,30.564.915,38.574-26.8,3.725-37.378-9.568S-2.777,82.788,7.292,74.778" transform="translate(0 21.691)" fill="#ed5554"/><path d="M6.228,91.653q4.841,8.643,9.669,17.286c.457.823.915,1.633,1.372,2.456a5.535,5.535,0,0,0,4.782,2.744,5.7,5.7,0,0,0,4.782-2.744Q32.968,102.3,39.1,93.221c.575-.862,1.163-1.712,1.738-2.574a5.584,5.584,0,0,0-1.986-7.578,5.672,5.672,0,0,0-7.578,1.986q-6.135,9.094-12.269,18.175c-.575.862-1.163,1.712-1.738,2.574h9.564q-4.841-8.643-9.669-17.287c-.457-.823-.915-1.633-1.372-2.456a5.6,5.6,0,0,0-7.578-1.986,5.647,5.647,0,0,0-1.986,7.578" transform="translate(1.686 25.251)" fill="#fff"/></g></g></g></svg>