<svg xmlns="http://www.w3.org/2000/svg" width="653.001" height="457.44" viewBox="0 0 653.001 457.44"><g transform="translate(-873 -1601.56)"><g transform="translate(0 1149)"><circle cx="223" cy="223" r="223" transform="translate(873 464)" fill="blue" opacity="0.015"/><circle cx="223" cy="223" r="223" transform="translate(1080 464)" fill="blue" opacity="0.015"/><g transform="translate(1129.514 545.374)"><path d="M1584.6,155.791h50.59a4.213,4.213,0,0,0,4.2-4.2V101a4.213,4.213,0,0,0-4.2-4.2H1584.6a4.213,4.213,0,0,0-4.2,4.2v50.59A4.194,4.194,0,0,0,1584.6,155.791Z" transform="translate(-1580.4 -96.8)" fill="blue" opacity="0.02"/><path d="M1495.271,267.129h32.286a5.968,5.968,0,0,0,5.971-5.971V228.871a5.968,5.968,0,0,0-5.971-5.971h-32.286a5.967,5.967,0,0,0-5.971,5.971v32.286A5.967,5.967,0,0,0,1495.271,267.129Z" transform="translate(-1447.202 -185.063)" fill="blue" opacity="0.02"/></g><g transform="translate(1385.857 687.065)"><path d="M303.141,1131.066h81.985a4.14,4.14,0,0,0,4.14-4.14V1044.94a4.14,4.14,0,0,0-4.14-4.14H303.141a4.14,4.14,0,0,0-4.14,4.14v81.985A4.125,4.125,0,0,0,303.141,1131.066Z" transform="translate(-299 -1018.655)" fill="blue" opacity="0.03"/><path d="M211.681,992.609h37.647a3.072,3.072,0,0,0,3.081-3.081V951.881a3.072,3.072,0,0,0-3.081-3.081H211.681a3.072,3.072,0,0,0-3.081,3.081v37.647A3.072,3.072,0,0,0,211.681,992.609Z" transform="translate(-140.383 -948.8)" fill="blue" opacity="0.03"/></g><g transform="translate(895.506 674.636)"><path d="M372.841,1118.191H302.55a3.55,3.55,0,0,1-3.55-3.55V1044.35a3.55,3.55,0,0,1,3.55-3.55h70.292a3.55,3.55,0,0,1,3.55,3.55v70.291A3.536,3.536,0,0,1,372.841,1118.191Z" transform="translate(-280.344 -1021.813)" fill="blue" opacity="0.03"/><path d="M243.519,986.36H211.242a2.634,2.634,0,0,1-2.642-2.642V951.442a2.634,2.634,0,0,1,2.642-2.642h32.277a2.634,2.634,0,0,1,2.642,2.642v32.277A2.634,2.634,0,0,1,243.519,986.36Z" transform="translate(-208.6 -948.8)" fill="blue" opacity="0.03"/></g><g transform="translate(1393.621 554.384)"><path d="M306.032,142.957h31.861a7.164,7.164,0,0,0,7.163-7.163v-31.83a7.164,7.164,0,0,0-7.163-7.163h-31.83a7.164,7.164,0,0,0-7.163,7.163v31.83A7.158,7.158,0,0,0,306.032,142.957Z" transform="translate(-270.714 -96.8)" fill="blue" opacity="0.03"/><path d="M407.293,237.588h30.8a5.782,5.782,0,0,0,5.793-5.793v-30.8A5.782,5.782,0,0,0,438.1,195.2h-30.8a5.782,5.782,0,0,0-5.793,5.793v30.8A5.8,5.8,0,0,0,407.293,237.588Z" transform="translate(-401.5 -164.553)" fill="blue" opacity="0.03"/></g></g><g transform="translate(904.034 1546.56)"><g transform="translate(0 55)"><rect width="621.967" height="0.311" transform="translate(0 407.264)" fill="#ebebeb"/><rect width="41.199" height="0.311" transform="translate(518.447 427.279)" fill="#ebebeb"/><rect width="16.034" height="0.311" transform="translate(323.833 423.385)" fill="#ebebeb"/><rect width="33.76" height="0.311" transform="translate(401.206 424.704)" fill="#ebebeb"/><rect width="69.797" height="0.311" transform="translate(447.406 415.735)" fill="#ebebeb"/><rect width="33.002" height="0.311" transform="translate(65.257 430.127)" fill="#ebebeb"/><rect width="28.61" height="0.311" transform="translate(109.329 430.127)" fill="#ebebeb"/><rect width="75.644" height="0.311" transform="translate(162.955 423.236)" fill="#ebebeb"/><path d="M285.492,406.785H45.3a7.1,7.1,0,0,1-7.09-7.1V62.041A7.1,7.1,0,0,1,45.3,55H285.492a7.1,7.1,0,0,1,7.1,7.1V399.682A7.1,7.1,0,0,1,285.492,406.785ZM45.3,55.249a6.792,6.792,0,0,0-6.779,6.792V399.682a6.792,6.792,0,0,0,6.779,6.792H285.492a6.8,6.8,0,0,0,6.792-6.792V62.041a6.8,6.8,0,0,0-6.792-6.792Z" transform="translate(9.321 -55)" fill="#ebebeb"/><path d="M501.807,406.785H261.6a7.115,7.115,0,0,1-7.1-7.1V62.041A7.115,7.115,0,0,1,261.6,55h240.2a7.1,7.1,0,0,1,7.078,7.041V399.682A7.1,7.1,0,0,1,501.807,406.785ZM261.6,55.249a6.8,6.8,0,0,0-6.792,6.792V399.682a6.8,6.8,0,0,0,6.792,6.792h240.2a6.8,6.8,0,0,0,6.792-6.792V62.041a6.8,6.8,0,0,0-6.792-6.792Z" transform="translate(62.081 -55)" fill="#ebebeb"/><path d="M89.44,297.276H189.577v-156.6l-98.607-.6Z" transform="translate(21.817 -34.246)" fill="#e0e0e0"/><rect width="100.137" height="156.586" transform="translate(212.912 261.923) rotate(180)" fill="#fff"/><circle cx="29.133" cy="29.133" r="29.133" transform="translate(133.723 127.192)" fill="#f5f5f5"/><circle cx="17.614" cy="17.614" r="17.614" transform="translate(139.84 204.308) rotate(-22.5)" fill="#f5f5f5"/><path d="M.037,0H215.3V170.755a12.439,12.439,0,0,1-12.439,12.439H12.439A12.439,12.439,0,0,1,0,170.755V0Z" transform="translate(487.324 407.264) rotate(180)" fill="#e0e0e0"/><path d="M.037,0H215.313V170.755a12.439,12.439,0,0,1-12.439,12.439H12.439A12.439,12.439,0,0,1,0,170.755V0Z" transform="translate(462.358 407.264) rotate(180)" fill="#e0e0e0"/><path d="M8.272,0H179.027V207.016H8.272A8.272,8.272,0,0,1,0,198.743V8.272A8.272,8.272,0,0,1,8.272,0Z" transform="translate(458.191 228.237) rotate(90)" fill="#fff" opacity="0.3"/><path d="M8.272,0H179.064V204.8H8.272A8.272,8.272,0,0,1,0,196.529V8.26A8.272,8.272,0,0,1,8.272,0Z" transform="translate(458.178 228.237) rotate(90)" fill="#fff" opacity="0.9"/><path d="M340.655,239.948H324.92l-4.69-24.418h15.736Z" transform="translate(78.115 -15.841)" fill="#e0e0e0"/><path d="M350.554,191.161H329.407A3.632,3.632,0,0,0,326,193.8l-9.093,39.184a2.09,2.09,0,0,0,2.177,2.65h21.147a3.632,3.632,0,0,0,3.408-2.65l9.093-39.184a2.09,2.09,0,0,0-2.177-2.637Z" transform="translate(77.285 -21.787)" fill="#e6e6e6"/><path d="M340.375,230.723h-20.3a1.107,1.107,0,0,1-1.157-1.393L327.19,193.7a1.916,1.916,0,0,1,1.8-1.393h20.3a1.107,1.107,0,0,1,1.157,1.393l-8.272,35.626A1.916,1.916,0,0,1,340.375,230.723Z" transform="translate(77.785 -21.506)" fill="#fff"/><path d="M306.448,239.948H290.7l-4.69-24.418h15.736Z" transform="translate(69.768 -15.841)" fill="#e0e0e0"/><path d="M321.146,187.391H294.5a3.632,3.632,0,0,0-3.408,2.637L280.9,233.9a2.1,2.1,0,0,0,2.189,2.65h26.633a3.632,3.632,0,0,0,3.408-2.65l10.2-43.874a2.09,2.09,0,0,0-2.189-2.637Z" transform="translate(68.504 -22.707)" fill="#e6e6e6"/><path d="M309.87,231.643H284.083a1.095,1.095,0,0,1-1.144-1.393l9.354-40.316a1.916,1.916,0,0,1,1.8-1.393h25.774a1.095,1.095,0,0,1,1.157,1.393l-9.392,40.316A1.916,1.916,0,0,1,309.87,231.643Z" transform="translate(69.008 -22.426)" fill="#fff"/><path d="M267.525,239.948H251.79L247.1,215.53h15.736Z" transform="translate(60.276 -15.841)" fill="#e0e0e0"/><path d="M286.861,182.672H252.889a3.632,3.632,0,0,0-3.408,2.637l-11.556,49.757a2.1,2.1,0,0,0,2.189,2.65h34a3.632,3.632,0,0,0,3.408-2.65l11.544-49.757a2.077,2.077,0,0,0-2.2-2.637Z" transform="translate(58.02 -23.859)" fill="#e6e6e6"/><path d="M274.229,232.794H241.115a1.095,1.095,0,0,1-1.157-1.393l10.723-46.187a1.916,1.916,0,0,1,1.8-1.393H285.6a1.095,1.095,0,0,1,1.144,1.393L276.095,231.4A1.928,1.928,0,0,1,274.229,232.794Z" transform="translate(58.524 -23.577)" fill="#fff"/><rect width="153.439" height="12.439" transform="translate(265.331 262.881)" fill="#f0f0f0"/><rect width="100.659" height="12.439" transform="translate(265.331 289.327)" fill="#f0f0f0"/><rect width="131.335" height="12.439" transform="translate(265.331 315.773)" fill="#f0f0f0"/></g><g transform="translate(101.953 98.039)"><path d="M158.184,409.635l9.566-2.214-3.732-22.391-9.578,2.227Z" transform="translate(-64.28 -17.533)" fill="#ce7a63"/><path d="M167.572,402.013l-10.76,2.488a.709.709,0,0,0-.56.821l1.393,8.6a1.717,1.717,0,0,0,2.052,1.306c3.732-.933,5.473-1.567,10.2-2.662,2.911-.672,15.338-3.247,19.356-4.18s3.01-4.864,1.244-4.826c-8,.162-17.962.137-21.147-1.343A2.774,2.774,0,0,0,167.572,402.013Z" transform="translate(-63.84 -13.406)" fill="#263238"/><path d="M154.44,387.267l9.578-2.227,1.928,11.531-9.578,2.227Z" transform="translate(-64.28 -17.531)" opacity="0.2"/><path d="M149.759,208.16s12.576,79.786,16.308,107.613c4.055,30.489,12.613,119.629,12.613,119.629l-17.34,4.777S144.92,353.8,138.153,324.169C130.8,292.014,114.73,208.16,114.73,208.16Z" transform="translate(-73.966 -60.678)" fill="#407bff"/><path d="M149.759,208.16s12.576,79.786,16.308,107.613c4.055,30.489,12.613,119.629,12.613,119.629l-17.34,4.777S144.92,353.8,138.153,324.169C130.8,292.014,114.73,208.16,114.73,208.16Z" transform="translate(-73.966 -60.678)" fill="#fff" opacity="0.5"/><path d="M128.055,231.713c6.63,16.905,6.22,50.354,3.4,62.135-3.993-19.343-8.571-42.493-12.091-60.48C120.7,228.752,124.025,221.425,128.055,231.713Z" transform="translate(-72.837 -56.204)" opacity="0.3"/><path d="M152.38,397.443l18.572-5.113-.3-7.551-20.923,7.215Z" transform="translate(-65.429 -17.594)" fill="#407bff"/><path d="M168.931,403.281a12.672,12.672,0,0,1-2.625.249.2.2,0,0,1-.2-.137.224.224,0,0,1,0-.249c.261-.274,2.55-2.749,3.819-2.562a.821.821,0,0,1,.659.5,1.244,1.244,0,0,1,0,1.244A2.724,2.724,0,0,1,168.931,403.281Zm-2.077-.211c1.779-.062,3.035-.41,3.384-.958a.833.833,0,0,0,0-.833.386.386,0,0,0-.311-.249C169.217,400.93,167.8,402.1,166.854,403.07Z" transform="translate(-61.443 -13.742)" fill="#407bff"/><path d="M166.434,403.854h-.1a.224.224,0,0,1-.162-.149c0-.112-.871-2.811-.112-3.956a1.169,1.169,0,0,1,.871-.535.858.858,0,0,1,.958.485c.46,1-.522,3.309-1.343,4.1A.162.162,0,0,1,166.434,403.854Zm.435-4.167a.771.771,0,0,0-.435.311,5.05,5.05,0,0,0,0,3.172,4.64,4.64,0,0,0,.983-3.272c0-.124-.162-.261-.5-.224Z" transform="translate(-61.521 -14.078)" fill="#407bff"/><path d="M148.458,148.1c.945,2.612,1.953,5.461,3.01,8.16s2.115,5.448,3.247,8.123a119.594,119.594,0,0,0,7.464,15.251l1.057,1.654.41.634a2.264,2.264,0,0,0,.249.361,4.155,4.155,0,0,0,.56.659,2.326,2.326,0,0,0,1.53.1,10.413,10.413,0,0,0,2.9-.97c4.329-2.052,8.969-6.021,13.061-9.827l5.934,4.366a54.57,54.57,0,0,1-5.56,8.1,39.733,39.733,0,0,1-7.526,7.128,22.7,22.7,0,0,1-5.336,2.824,15.064,15.064,0,0,1-7.464.746,14.156,14.156,0,0,1-7.327-3.62,16.087,16.087,0,0,1-1.244-1.319l-.572-.659-.386-.51-1.58-2.052a103.246,103.246,0,0,1-9.69-16.88c-1.319-2.886-2.587-5.772-3.732-8.708s-2.214-5.809-3.172-8.956Z" transform="translate(-69.195 -75.328)" fill="#ce7a63"/><path d="M142.98,140.09c-9.728-2.264-15.636,3.943-12.713,16.171A183.486,183.486,0,0,0,136.91,176.8c.572,1.505,1.095,2.849,1.53,3.931l22.1-12.315C158.106,158.749,149.5,141.62,142.98,140.09Z" transform="translate(-70.359 -77.394)" fill="#263238"/><path d="M141.169,149.451c-5.871-5.237.137,16.009,2.6,24.879l6.493-3.62C149.616,164.552,145.685,153.469,141.169,149.451Z" transform="translate(-68.125 -75.199)" opacity="0.3"/><path d="M99.12,412.642h9.8l1.455-22.7h-9.815Z" transform="translate(-77.774 -16.335)" fill="#ce7a63"/><path d="M109.842,407.28H98.833a.7.7,0,0,0-.734.672l-.61,8.708a1.717,1.717,0,0,0,1.7,1.741c3.831-.062,5.672-.286,10.511-.286,2.985,0,15.649.311,19.754.311s4.03-4.068,2.289-4.441c-7.8-1.654-17.415-3.931-20.226-6.108a2.774,2.774,0,0,0-1.679-.6Z" transform="translate(-78.172 -12.106)" fill="#263238"/><path d="M100.426,389.95h9.815l-.759,11.705h-9.8Z" transform="translate(-77.637 -16.333)" opacity="0.2"/><path d="M135.055,208.16s.348,74.4-1.468,102.463c-1.978,30.738-19.057,132.541-19.057,132.541h-18s8.919-99.328,8.073-129.755c-.908-33.026-2.824-105.249-2.824-105.249Z" transform="translate(-78.406 -60.678)" fill="#407bff"/><path d="M135.055,208.16s.348,74.4-1.468,102.463c-1.978,30.738-19.057,132.541-19.057,132.541h-18s8.919-99.328,8.073-129.755c-.908-33.026-2.824-105.249-2.824-105.249Z" transform="translate(-78.406 -60.678)" fill="#fff" opacity="0.5"/><path d="M96.113,398.414h19.405l1.132-6.8L95.23,392.667Z" transform="translate(-78.723 -15.928)" fill="#1a9afc"/><path d="M110.751,409.145a12.433,12.433,0,0,1-2.612-.348.212.212,0,0,1-.162-.174.224.224,0,0,1,.037-.286c.323-.211,3.11-2.115,4.3-1.642a.846.846,0,0,1,.522.647,1.244,1.244,0,0,1-.3,1.244,2.65,2.65,0,0,1-1.791.56Zm-1.978-.684c1.754.361,3.048.3,3.508-.149a.858.858,0,0,0,.162-.821.4.4,0,0,0-.249-.323C111.547,406.919,109.917,407.74,108.773,408.461Z" transform="translate(-75.622 -12.267)" fill="#407bff"/><path d="M108.187,409.246h-.1a.249.249,0,0,1-.124-.187c0-.124-.2-2.948.8-3.894a1.157,1.157,0,0,1,.97-.323.871.871,0,0,1,.821.7c.211,1.07-1.244,3.11-2.239,3.732a.212.212,0,0,1-.124-.025Zm1.381-3.981a.672.672,0,0,0-.5.2,5.175,5.175,0,0,0-.672,3.122c.858-.721,1.853-2.276,1.7-2.985,0-.124-.1-.286-.435-.323Z" transform="translate(-75.621 -12.703)" fill="#407bff"/><path d="M154.221,225.372H101.8c-.336-4.69.871-19.9.211-39.308A248.3,248.3,0,0,0,97.137,143.3c-.224-1.057-.46-2.1-.7-3.16,0,0,2.662-.535,6.468-1.095,3.172-.46,7.14-.945,11.021-1.12a192.807,192.807,0,0,1,22.279,0c3.421.311,6.767.883,9.429,1.393,3.408.684,5.411,1.244,5.411,1.244S163.737,170.241,154.221,225.372Z" transform="translate(-78.428 -77.889)" fill="#263238"/><path d="M133.228,169.523a.647.647,0,0,1-.361-.112c-.211-.149-21.719-15.537-29.344-30.563a.622.622,0,0,1,.274-.833.61.61,0,0,1,.833.274c7.464,14.753,28.747,29.954,28.959,30.116a.622.622,0,0,1,.149.858.634.634,0,0,1-.51.261Z" transform="translate(-76.716 -77.806)" fill="#1a9afc"/><path d="M127.513,169.546a.647.647,0,0,1-.361-.112.61.61,0,0,1-.149-.858,46.61,46.61,0,0,0,6.083-30.029.634.634,0,0,1,.535-.7.622.622,0,0,1,.7.547,47.817,47.817,0,0,1-6.294,30.887.61.61,0,0,1-.51.261Z" transform="translate(-71.001 -77.83)" fill="#1a9afc"/><path d="M137.514,182.383H123L121.48,161.51H136Z" transform="translate(-72.32 -72.057)" fill="#1a9afc"/><path d="M136.633,181.08H123.771l-1.381-18.97h12.875Z" transform="translate(-72.098 -71.911)" fill="#fff"/><path d="M129.206,171.157H123.82l-.51-6.867h5.4Z" transform="translate(-71.873 -71.379)" fill="#1a9afc"/><path d="M134.356,172.32H123.895l-.075-1.07h10.461Z" transform="translate(-71.749 -69.681)" fill="#1a9afc"/><path d="M134.5,174.247H124.035l-.075-1.057h10.461Z" transform="translate(-71.715 -69.208)" fill="#1a9afc"/><path d="M133.666,176.187h-9.491l-.075-1.057h9.491Z" transform="translate(-71.681 -68.735)" fill="#1a9afc"/><path d="M101.876,184.96A248.031,248.031,0,0,0,97,142.206c3.508-.311,9.491,0,10.449,5.7C108.469,153.986,106.951,168.291,101.876,184.96Z" transform="translate(-78.291 -76.786)" opacity="0.3"/><path d="M109.368,150.491l-5.249,18.074-2.637,9.043-2.488,9.019-.162.56-.075.274v.149h0a1.144,1.144,0,0,0,0-.373c0-.2-.1-.174,0,0A6.133,6.133,0,0,0,100,189.4a37.1,37.1,0,0,0,5.971,5.5,163.492,163.492,0,0,0,15.251,10.088l-2.786,6.817A88.511,88.511,0,0,1,109,208.633a85.382,85.382,0,0,1-9.143-4.279,43.314,43.314,0,0,1-8.944-6.332,19.579,19.579,0,0,1-4.18-5.6,12.788,12.788,0,0,1-1.244-4.59,12.067,12.067,0,0,1,.137-2.749l.261-1.393c1.144-6.406,2.488-12.7,4.1-18.945s3.3-12.439,5.287-18.6Z" transform="translate(-81.106 -75.804)" fill="#ce7a63"/><path d="M99.972,139.726c-6.531,1.518-13.857,18.721-16.445,28.4-.423,1.642-.771,3.06-1.032,4.142-.348,1.431-.535,2.289-.535,2.289l21.918,6.22c.448-1.082,1-2.488,1.58-3.931a185.345,185.345,0,0,0,6.978-20.5C115.6,144.129,109.737,137.462,99.972,139.726Z" transform="translate(-81.96 -77.478)" fill="#263238"/><path d="M131.89,142.683c-6.456-1.53-7.563-5.535-7.09-9.951a26.125,26.125,0,0,1,.535-3.284l-8.061-6.742-5.921-4.976c1.592,7.177,3.346,20.251-1.542,25.04a20.189,20.189,0,0,0,17.726,8.832C133.109,145.569,131.89,142.683,131.89,142.683Z" transform="translate(-75.166 -82.737)" fill="#f6aaac"/><path d="M106.64,137.971a36.881,36.881,0,0,1,4.217-.722c2.351,4.005,12.439,9.665,15.86,9.665,0,0-3.421,1.493-4.279,6.891C117.189,150.859,107.088,143.308,106.64,137.971Z" transform="translate(-75.94 -77.975)" fill="#fff"/><path d="M130.715,137.929a8.284,8.284,0,0,0-3.035-.323c.075,3.918-1.157,5.735-3.06,8.421a7.464,7.464,0,0,1,4.976,6.406C133.489,148.315,132.183,140.877,130.715,137.929Z" transform="translate(-71.554 -77.895)" fill="#fff"/><path d="M123.963,128.482a26.122,26.122,0,0,0-.535,3.284c-3.023-.61-7.588-3.309-8-6.717a13.684,13.684,0,0,1,.473-3.309Z" transform="translate(-73.796 -81.758)" opacity="0.2"/><path d="M108.04,111.978c1.542,9.64,1.965,15.35,7.339,19.978,8.073,6.954,19.58,1.679,20.935-8.148,1.244-8.844-1.505-23.125-11.345-26.309a12.912,12.912,0,0,0-16.93,14.479Z" transform="translate(-75.648 -87.845)" fill="#f6aaac"/><path d="M113.979,124.393c3.383-6.07,5.386-13.323,1.853-16.532,4.764,0,10.4-1.8,12.439-3.595,3.732,1.729,7.924,1.493,9.64-2.488,1.443-3.3-.647-7.737-6.332-7.389-9.056-7.19-24.879-5.672-19.9.485-13.024-.97-14.479,6.22-9.516,8.708C94.337,108.346,96,120.363,113.979,124.393Z" transform="translate(-78.116 -89.599)" fill="#263238"/><path d="M106.056,117.853a10.35,10.35,0,0,0,5.822,3.894c2.973.659,3.732-2.1,2.488-4.864-1.244-2.488-4.279-5.834-6.991-5.249S104.24,115.415,106.056,117.853Z" transform="translate(-76.351 -84.24)" fill="#f6aaac"/><path d="M120,110.613c.075.8.56,1.406,1.07,1.368s.871-.709.8-1.493-.56-1.406-1.082-1.368S120,109.829,120,110.613Z" transform="translate(-72.681 -84.837)" fill="#263238"/><path d="M127.192,110.113c.087.784.56,1.393,1.07,1.356s.871-.7.8-1.493-.56-1.393-1.07-1.356S127.117,109.329,127.192,110.113Z" transform="translate(-70.929 -84.959)" fill="#263238"/><path d="M125,110.29a29.281,29.281,0,0,0,4.428,6.481,4.466,4.466,0,0,1-3.732.97Z" transform="translate(-71.461 -84.551)" fill="#ba4d3c"/><path d="M124.075,118.692a6.7,6.7,0,0,1-4.8-2.264.233.233,0,1,1,.323-.336,6.394,6.394,0,0,0,5.324,2.09.224.224,0,0,1,.249.224.211.211,0,0,1-.211.236,7.67,7.67,0,0,1-.883.05Z" transform="translate(-72.875 -83.152)" fill="#263238"/><path d="M117.687,108.738a.535.535,0,0,1-.224-.075.46.46,0,0,1-.149-.634,4.5,4.5,0,0,1,3.595-2.189.46.46,0,0,1,.46.46.473.473,0,0,1-.473.473,3.57,3.57,0,0,0-2.8,1.742A.473.473,0,0,1,117.687,108.738Z" transform="translate(-73.353 -85.637)" fill="#263238"/><path d="M130.713,107.743a.46.46,0,0,1-.373-.224,3.844,3.844,0,0,0-2.824-1.916.46.46,0,0,1-.435-.5.473.473,0,0,1,.485-.435h0a4.752,4.752,0,0,1,3.57,2.363.46.46,0,0,1-.162.634.522.522,0,0,1-.261.075Z" transform="translate(-70.954 -85.922)" fill="#263238"/><path d="M112.587,193.294l11.73-1.244-6.145,10.735s-8.882-.9-8.011-5.411Z" transform="translate(-75.095 -64.607)" fill="#ce7a63"/><path d="M131.226,194.931l-5.809,9.28h0l-8.807-1.455,6.145-10.735Z" transform="translate(-73.508 -64.615)" fill="#ce7a63"/><path d="M176.047,174.22l9.529-2.028L178.6,163.87s-8.708,3.558-6.22,7.464Z" transform="translate(-60.013 -71.481)" fill="#ce7a63"/><path d="M189.68,168.3l-6.245-8.645L177.29,164.9l6.978,8.322Z" transform="translate(-58.706 -72.511)" fill="#ce7a63"/></g><g transform="translate(143.948 219.51)"><path d="M131.195,232.5h141a15.475,15.475,0,0,1,15.475,15.475V461.06H115.72V247.975A15.475,15.475,0,0,1,131.195,232.5Z" transform="translate(-115.72 -176.212)" fill="#1a9afc"/><path d="M156.255,232.5H297.242a15.475,15.475,0,0,1,15.475,15.475V461.06H140.78V247.975A15.475,15.475,0,0,1,156.255,232.5Z" transform="translate(-109.607 -176.212)" fill="#1a9afc"/><path d="M10.312,0H223.4V161.624H10.312A10.312,10.312,0,0,1,0,151.312v-141A10.312,10.312,0,0,1,10.312,0Z" transform="translate(197.947 61.438) rotate(90)" fill="#fff" opacity="0.3"/><path d="M10.3,0H223.386V158.888H10.3A10.312,10.312,0,0,1,0,148.551V10.312A10.312,10.312,0,0,1,10.3,0Z" transform="translate(195.211 61.463) rotate(90)" fill="#fff" opacity="0.9"/><rect width="68.877" height="32.143" rx="7.36" transform="translate(40.664 24.145)" fill="#1a9afc"/><rect width="50.529" height="28.511" rx="6.45" transform="translate(56.537 25.961)" fill="#263238"/><path d="M153.78,214.86a1.53,1.53,0,1,1-1.53-1.53A1.53,1.53,0,0,1,153.78,214.86Z" transform="translate(-107.182 -180.888)" fill="#fff"/><path d="M153.78,218.78a1.53,1.53,0,1,1-1.53-1.53A1.53,1.53,0,0,1,153.78,218.78Z" transform="translate(-107.182 -179.932)" fill="#fff"/><path d="M243.422,191.55H219.65l3.993,50.939h23.772Z" transform="translate(-90.368 -186.201)" fill="#407bff" opacity="0.2"/><path d="M244.592,188.04H220.82l3.993,50.939h23.772Z" transform="translate(-90.083 -187.057)" fill="#407bff"/><path d="M244.776,220.163H224.911l-2.4-30.563h19.866Z" transform="translate(-89.67 -186.677)" fill="#fff" opacity="0.6"/><path d="M245.529,229.728H225.651l-.921-11.718h19.878Z" transform="translate(-89.129 -179.747)" fill="#fff" opacity="0.6"/><path d="M245.222,187.82l-23.772-.05,3.894,51.25,23.772.05Z" transform="translate(-89.929 -187.123)" fill="#407bff"/><path d="M245.332,220.137l-19.866-.05L223.14,189.35l19.866.037Z" transform="translate(-89.517 -186.738)" fill="#fff" opacity="0.6"/><path d="M246.074,229.76l-19.878-.037-.9-11.793,19.878.037Z" transform="translate(-88.99 -179.766)" fill="#fff" opacity="0.6"/><path d="M245.742,187.3l-23.772-.05,3.893,51.872,23.772.05Z" transform="translate(-89.802 -187.25)" fill="#1a9afc"/><path d="M245.864,220.013l-19.878-.05L223.66,188.84l19.878.05Z" transform="translate(-89.39 -186.862)" fill="#fff" opacity="0.6"/><path d="M246.606,229.749l-19.891-.05-.9-11.929,19.891.037Z" transform="translate(-88.863 -179.805)" fill="#fff" opacity="0.6"/><path d="M218.04,191.55h2l3.993,50.939h-1.99Z" transform="translate(-90.761 -186.201)" fill="#407bff" opacity="0.4"/></g><g transform="translate(356.847 119.075)"><path d="M386.136,163.55c.585,1.356,1.02,2.488,1.455,3.732s.846,2.388,1.244,3.583c.8,2.388,1.493,4.789,2.152,7.19,1.244,4.826,2.351,9.678,3.209,14.566l.323,1.829.075.46.087.56a10.919,10.919,0,0,1,.137,1.53,14.267,14.267,0,0,1-.92,5.312,25.539,25.539,0,0,1-4.491,7.464,51.662,51.662,0,0,1-11.768,10.151l-3.52-4.329a76.573,76.573,0,0,0,8.235-10.884,19.466,19.466,0,0,0,2.314-5.312,4.976,4.976,0,0,0,.1-1.853l-.709-2.749c-1.244-4.6-2.488-9.168-3.856-13.683-.672-2.252-1.418-4.491-2.14-6.7-.361-1.107-.746-2.214-1.132-3.3L375.774,168Z" transform="translate(-265.587 -92.596)" fill="#f6aaac"/><path d="M379.135,208.217l3.4,7.3-4.665,2.724s-9.143-13.347-2.252-13.783Z" transform="translate(-265.849 -82.616)" fill="#f6aaac"/><path d="M363.334,408.256a13.2,13.2,0,0,0,2.911-.386.262.262,0,0,0,.087-.473c-.373-.249-3.732-2.413-4.976-1.829a.871.871,0,0,0-.51.734,1.48,1.48,0,0,0,.423,1.381,3.135,3.135,0,0,0,2.065.572Zm2.177-.759c-1.916.373-3.359.311-3.918-.2a1,1,0,0,1-.274-.921.386.386,0,0,1,.224-.336C362.215,405.744,364.143,406.664,365.511,407.5Z" transform="translate(-268.833 -33.583)" fill="#407bff"/><path d="M365.717,408.371a.2.2,0,0,0,.261-.224c0-.137,0-3.309-1.244-4.366a1.356,1.356,0,0,0-1.107-.348.921.921,0,0,0-.883.734c-.249,1.244,1.754,3.62,2.811,4.217Zm-1.866-4.466a.808.808,0,0,1,.572.236c.709.622.958,2.413,1.02,3.471-1.045-.846-2.3-2.625-2.14-3.384,0-.124.087-.274.423-.311Z" transform="translate(-268.367 -34.083)" fill="#407bff"/><path d="M367.666,133c-1.244,6.543-3.981,19.791.585,24.145,0,0-1.779,6.643-13.932,6.643-13.36,0-6.381-6.643-6.381-6.643,7.289-1.742,7.1-7.153,5.834-12.228Z" transform="translate(-272.418 -100.048)" fill="#f6aaac"/><path d="M344.339,158.028c-1.841.236,2.488-5.623,3.222-6.22,1.717-1.381,24.12-2.55,24.008.871-.075,1.468-.61,4.329-1.58,5.262S360.435,155.615,344.339,158.028Z" transform="translate(-272.962 -95.793)" fill="#263238"/><path d="M346.908,120.983a.51.51,0,0,1-.4-.261,4.167,4.167,0,0,0-3.072-2.177.522.522,0,0,1-.5-.547.535.535,0,0,1,.56-.5,5.225,5.225,0,0,1,3.918,2.712.51.51,0,0,1-.2.709.473.473,0,0,1-.311.062Z" transform="translate(-273.193 -103.829)" fill="#263238"/><path d="M343.923,125.05a24.07,24.07,0,0,1-3.583,5.424,3.831,3.831,0,0,0,3.11.821Z" transform="translate(-273.827 -101.987)" fill="#a02724"/><path d="M344.413,124.2c-.062.883-.585,1.567-1.169,1.53s-1-.8-.933-1.679.6-1.58,1.169-1.53S344.413,123.317,344.413,124.2Z" transform="translate(-273.348 -102.605)" fill="#263238"/><path d="M343.82,122.721l-2.09-.771S342.7,123.692,343.82,122.721Z" transform="translate(-273.488 -102.743)" fill="#263238"/><path d="M377.6,412.193H366.58l.858-25.513H378.46Z" transform="translate(-267.426 -38.167)" fill="#b55b52"/><path d="M368.974,406.17h12.439a.858.858,0,0,1,.871.746l1.418,9.8a1.766,1.766,0,0,1-1.766,1.953c-4.316-.075-6.394-.323-11.842-.323-3.346,0-8.247.348-12.875.348s-4.864-4.578-2.936-4.976c8.633-1.853,9.951-4.416,12.9-6.866A2.923,2.923,0,0,1,368.974,406.17Z" transform="translate(-270.703 -33.412)" fill="#263238"/><g transform="translate(99.515 348.513)" opacity="0.2"><path d="M378.389,386.68H367.368l-.5,14.79h11.021Z" transform="translate(-366.87 -386.68)"/></g><path d="M347.092,167.207c-2.189,5.5-4.54,10.735-7.19,15.96a135.013,135.013,0,0,1-8.832,15.4c-.883,1.244-1.754,2.488-2.749,3.732-.522.634-.958,1.244-1.555,1.878a16.875,16.875,0,0,1-2.3,2.115,16.37,16.37,0,0,1-5.4,2.6,19.778,19.778,0,0,1-5.4.709,30.949,30.949,0,0,1-9.6-1.642,39.07,39.07,0,0,1-4.3-1.679,39.567,39.567,0,0,1-4.13-2.14l2.351-5.063c5.038,1.343,10.661,2.252,15.151,1.6a9.106,9.106,0,0,0,5.113-2.177,8.46,8.46,0,0,0,.759-.871l1.07-1.505c.734-1.032,1.431-2.177,2.115-3.3,1.381-2.289,2.7-4.677,3.956-7.128s2.488-4.976,3.732-7.464c2.351-4.976,4.665-10.2,6.8-15.251Z" transform="translate(-284.733 -92.732)" fill="#f6aaac"/><path d="M335.915,154.385c-5.473,1.331-12.215,16.37-12.215,16.37l13.036,16.694S350.2,168.4,348.4,162.57C346.526,156.487,342.558,152.756,335.915,154.385Z" transform="translate(-277.886 -94.925)" fill="#1a9afc"/><path d="M301.526,193.135l-8.173-2.575-1.8,8.583s8.036,1.567,11.2-1.941Z" transform="translate(-285.728 -86.007)" fill="#f6aaac"/><path d="M286.87,191.543l1.555,6.531,4.242,1.07,1.8-8.583Z" transform="translate(-286.87 -86.007)" fill="#f6aaac"/><path d="M374.338,126.573c-1.48,10.835-1.878,15.45-7.8,20.624-8.894,7.787-21.881,3.595-23.635-7.464-1.6-9.951,1.082-26,12.066-29.531a14.927,14.927,0,0,1,19.368,16.37Z" transform="translate(-273.306 -105.786)" fill="#f6aaac"/><path d="M349.495,133.454c8.6,15.027,12.949,17.067,19.592,19.555,0,0,3.06-9.242,9.69-15,8.931-7.737,3.732-22.49-1.717-24.257,2.712-8.708-29.158-11.2-32.554,1.8C342.068,124.883,349.495,133.454,349.495,133.454Z" transform="translate(-272.93 -106.51)" fill="#263238"/><path d="M354.126,126.673a10.8,10.8,0,0,1-3.732,6.133c-2.562,2.115-4.777.46-4.864-2.388-.062-2.563,1.182-6.755,4.13-7.787S354.648,123.837,354.126,126.673Z" transform="translate(-272.561 -102.64)" fill="#b55b52"/><path d="M347.25,207.77s6.394,75.631,13.036,118.261c5.361,34.432,9.578,114.9,9.578,114.9h15.027s7.165-77.721,4.441-111.767c-6.879-86.167,5.2-101.418-9.143-121.4Z" transform="translate(-272.141 -81.809)" fill="#263238"/><path d="M351,248.562c2.028,19.9,4.553,42.555,7.19,61.04,4.242-9.951,8.708-23.573,9.566-51.723C368.229,238.9,357.755,235.189,351,248.562Z" transform="translate(-271.227 -73.801)" opacity="0.2"/><path d="M320.273,404.765a.249.249,0,0,0,.224-.124.236.236,0,0,0,0-.3c-.373-.423-3.632-4.117-5.162-3.931a.871.871,0,0,0-.672.485,1.455,1.455,0,0,0,0,1.356c.721,1.431,3.831,2.189,5.61,2.488Zm-4.839-3.831c.858,0,2.786,1.742,4.117,3.172-2.413-.522-4.068-1.244-4.466-2.09a.9.9,0,0,1,0-.883.311.311,0,0,1,.261-.2Z" transform="translate(-280.131 -34.819)" fill="#407bff"/><path d="M319.595,405.038h.062a.261.261,0,0,0,.187-.187c0-.112.883-2.973,0-4.553a1.878,1.878,0,0,0-1.169-.945,1.054,1.054,0,0,0-1.244.323c-.647,1.095.9,4.254,1.9,5.287A.274.274,0,0,0,319.595,405.038Zm-1.368-5.225a.994.994,0,0,1,.311,0,1.393,1.393,0,0,1,.871.7,6.12,6.12,0,0,1,.062,3.732c-.958-1.244-1.916-3.632-1.518-4.279a.218.218,0,0,1,.224-.149Z" transform="translate(-279.453 -35.092)" fill="#407bff"/><path d="M330.06,416.329l-10.3-4.453,2.911-13.173,2.948-13.26.336-1.542,10.685,2.7-.373,1.742-2.849,12.837Z" transform="translate(-278.847 -38.845)" fill="#b55b52"/><path d="M332.887,400.876l-10.947-1.555,3.147-14.181,10.648,2.9Z" transform="translate(-278.315 -38.542)" opacity="0.2"/><path d="M341.743,207.77s-7.464,81.453-10.25,120.04c-2.488,34.83-10.113,107.961-10.113,107.961l14.865,2.214s19.9-82.336,23.013-106.157c8.919-68.416,26.384-89.563,22.117-124.058Z" transform="translate(-278.452 -81.809)" fill="#263238"/><path d="M324.023,403.038l11.531,4.528a.858.858,0,0,1,.535,1.02l-2.264,9.628a1.766,1.766,0,0,1-2.363,1.182c-3.993-1.642-5.834-2.637-10.9-4.627-3.122-1.244-9.69-3.446-13.994-5.137s-2.861-6.033-.921-5.71c8.708,1.431,12.813.286,16.42-.921A2.848,2.848,0,0,1,324.023,403.038Z" transform="translate(-282.749 -34.223)" fill="#263238"/><path d="M319.35,395.054l18.858,3.247,2.164-7.115-20.189-3.5Z" transform="translate(-278.947 -37.92)" fill="#1a9afc"/><path d="M363.8,396.9h19.144l1.008-6.717L363.69,389.5Z" transform="translate(-268.131 -37.479)" fill="#1a9afc"/><path d="M392.033,171.56l-11.059,8.807-6.643,5.3s-.7-1.853-1.542-4.5c-1.6-5.137-3.732-13.26-2.252-17,2.276-5.921,6.618-11.258,12.029-10.076C387.145,155.09,392.033,171.56,392.033,171.56Z" transform="translate(-266.582 -94.945)" fill="#1a9afc"/><path d="M378.868,180.112l-5.075,4.043s-.7-1.853-1.542-4.5l3.943-19.542Z" transform="translate(-266.043 -93.435)" opacity="0.2"/><path d="M333.777,154.934s-5.249,1.841,5.262,66.5H383.82c-.746-18.211-.771-29.444,7.936-66.824a131.855,131.855,0,0,0-19.007-2.488,140.162,140.162,0,0,0-20.326,0C343.679,152.906,333.777,154.934,333.777,154.934Z" transform="translate(-275.748 -95.473)" fill="#1a9afc"/><path d="M366.639,143.017l-4.267-.087c-7.4,10.213,1.12,10.648,1.107,19.43s-9.529,13.957,2.2,20.139C357.049,173.431,381.206,168.157,366.639,143.017Z" transform="translate(-269.19 -97.625)" fill="#263238"/><path d="M358,140.79a36.613,36.613,0,0,1,.6,4.727,1.244,1.244,0,0,0,1.244,1.244h8.508a1.343,1.343,0,0,0,1.244-1.244,51.163,51.163,0,0,0,.236-5.473,1.244,1.244,0,0,0-1.244-1.244c-3.272,0-7.327.211-9.466.361a1.406,1.406,0,0,0-1.12,1.63Z" transform="translate(-269.523 -98.633)" fill="#1a9afc"/><path d="M383.449,205.726l2.015,4.005c.162.311-.211.634-.721.634H337.8c-.4,0-.734-.2-.759-.46l-.4-4.005c0-.274.311-.51.759-.51h45.317a.821.821,0,0,1,.734.336Z" transform="translate(-274.729 -82.39)" fill="#407bff"/><path d="M383.449,205.726l2.015,4.005c.162.311-.211.634-.721.634H337.8c-.4,0-.734-.2-.759-.46l-.4-4.005c0-.274.311-.51.759-.51h45.317a.821.821,0,0,1,.734.336Z" transform="translate(-274.729 -82.39)" fill="#fff" opacity="0.5"/><path d="M369.583,210.859h1.244c.249,0,.423-.124.41-.274l-.572-5.2c0-.149-.224-.286-.46-.286h-1.244c-.236,0-.423.137-.41.286l.572,5.2C369.11,210.735,369.334,210.859,369.583,210.859Z" transform="translate(-266.946 -82.46)" fill="#263238"/><path d="M345.925,210.859h1.244c.236,0,.423-.124.41-.274l-.572-5.2c0-.149-.224-.286-.473-.286h-1.244c-.249,0-.423.137-.411.286l.572,5.2C345.477,210.735,345.689,210.859,345.925,210.859Z" transform="translate(-272.72 -82.46)" fill="#263238"/></g></g></g></svg>