<svg xmlns="http://www.w3.org/2000/svg" width="27.853" height="27.868" viewBox="0 0 27.853 27.868"><g transform="translate(-0.011)"><path d="M26.7,12.772a1.161,1.161,0,0,0-1.161,1.161,11.65,11.65,0,1,1-3.367-8.152,1,1,0,0,1-.116.024H18.575a1.161,1.161,0,0,0,0,2.322h3.483a3.483,3.483,0,0,0,3.483-3.483V1.161a1.161,1.161,0,1,0-2.322,0v2.4a13.926,13.926,0,1,0,4.644,10.374A1.161,1.161,0,0,0,26.7,12.772Z" transform="translate(0 0)"/><path d="M12.161,6A1.161,1.161,0,0,0,11,7.161v5.805a1.161,1.161,0,0,0,.34.821l3.483,3.483a1.161,1.161,0,1,0,1.642-1.642l-3.143-3.143V7.161A1.161,1.161,0,0,0,12.161,6Z" transform="translate(1.77 0.966)"/></g></svg>