<svg xmlns="http://www.w3.org/2000/svg" width="32.371" height="24.278" viewBox="0 0 32.371 24.278"><g transform="translate(0 -3)"><ellipse cx="1.5" cy="2" rx="1.5" ry="2" transform="translate(6.185 18.139)"/><path d="M25.627,3H6.744A6.752,6.752,0,0,0,0,9.744v10.79a6.752,6.752,0,0,0,6.744,6.744H25.627a6.752,6.752,0,0,0,6.744-6.744V9.744A6.752,6.752,0,0,0,25.627,3ZM6.744,5.7H25.627a4.046,4.046,0,0,1,4.046,4.046H2.7A4.046,4.046,0,0,1,6.744,5.7ZM25.627,24.58H6.744A4.046,4.046,0,0,1,2.7,20.534V12.441H29.673v8.093A4.046,4.046,0,0,1,25.627,24.58Z" transform="translate(0 0)"/></g></svg>