<svg xmlns="http://www.w3.org/2000/svg" xmlns:xlink="http://www.w3.org/1999/xlink" width="653" height="446" viewBox="0 0 653 446"><defs><clipPath id="a"><rect width="653" height="446" transform="translate(873 5276)" fill="#fff" stroke="#707070" stroke-width="1"/></clipPath><clipPath id="b"><rect width="835" height="470" transform="translate(-0.5 -0.156)"/></clipPath></defs><g transform="translate(-873 -5276)"><g clip-path="url(#a)"><g transform="translate(0 4812)"><circle cx="223" cy="223" r="223" transform="translate(873 464)" fill="blue" opacity="0.015"/><circle cx="223" cy="223" r="223" transform="translate(1080 464)" fill="blue" opacity="0.015"/><g transform="translate(1129.514 545.374)"><path d="M1584.6,155.791h50.59a4.213,4.213,0,0,0,4.2-4.2V101a4.213,4.213,0,0,0-4.2-4.2H1584.6a4.213,4.213,0,0,0-4.2,4.2v50.59A4.194,4.194,0,0,0,1584.6,155.791Z" transform="translate(-1580.4 -96.8)" fill="blue" opacity="0.02"/><path d="M1495.271,267.129h32.286a5.968,5.968,0,0,0,5.971-5.971V228.871a5.968,5.968,0,0,0-5.971-5.971h-32.286a5.967,5.967,0,0,0-5.971,5.971v32.286A5.967,5.967,0,0,0,1495.271,267.129Z" transform="translate(-1447.202 -185.063)" fill="blue" opacity="0.02"/></g><g transform="translate(1385.857 687.065)"><path d="M303.141,1131.066h81.985a4.14,4.14,0,0,0,4.14-4.14V1044.94a4.14,4.14,0,0,0-4.14-4.14H303.141a4.14,4.14,0,0,0-4.14,4.14v81.985A4.125,4.125,0,0,0,303.141,1131.066Z" transform="translate(-299 -1018.655)" fill="blue" opacity="0.03"/><path d="M211.681,992.609h37.647a3.072,3.072,0,0,0,3.081-3.081V951.881a3.072,3.072,0,0,0-3.081-3.081H211.681a3.072,3.072,0,0,0-3.081,3.081v37.647A3.072,3.072,0,0,0,211.681,992.609Z" transform="translate(-140.383 -948.8)" fill="blue" opacity="0.03"/></g><g transform="translate(895.506 674.636)"><path d="M372.841,1118.191H302.55a3.55,3.55,0,0,1-3.55-3.55V1044.35a3.55,3.55,0,0,1,3.55-3.55h70.292a3.55,3.55,0,0,1,3.55,3.55v70.291A3.536,3.536,0,0,1,372.841,1118.191Z" transform="translate(-280.344 -1021.813)" fill="blue" opacity="0.03"/><path d="M243.519,986.36H211.242a2.634,2.634,0,0,1-2.642-2.642V951.442a2.634,2.634,0,0,1,2.642-2.642h32.277a2.634,2.634,0,0,1,2.642,2.642v32.277A2.634,2.634,0,0,1,243.519,986.36Z" transform="translate(-208.6 -948.8)" fill="blue" opacity="0.03"/></g><g transform="translate(1393.621 554.384)"><path d="M306.032,142.957h31.861a7.164,7.164,0,0,0,7.163-7.163v-31.83a7.164,7.164,0,0,0-7.163-7.163h-31.83a7.164,7.164,0,0,0-7.163,7.163v31.83A7.158,7.158,0,0,0,306.032,142.957Z" transform="translate(-270.714 -96.8)" fill="blue" opacity="0.03"/><path d="M407.293,237.588h30.8a5.782,5.782,0,0,0,5.793-5.793v-30.8A5.782,5.782,0,0,0,438.1,195.2h-30.8a5.782,5.782,0,0,0-5.793,5.793v30.8A5.8,5.8,0,0,0,407.293,237.588Z" transform="translate(-401.5 -164.553)" fill="blue" opacity="0.03"/></g></g><g transform="translate(777.5 5276.156)" clip-path="url(#b)"><g transform="translate(168.74 23.534)"><path d="M190.25,766.719c7.008,13,21.883,18.577,21.883,18.577s3.511-15.494-3.5-28.491-21.881-18.577-21.881-18.577S183.242,753.722,190.25,766.719Z" transform="translate(-166.686 -364.8)" fill="#2f2e41"/><path d="M180.295,777.048c12.653,7.611,17.526,22.733,17.526,22.733s-15.642,2.778-28.295-4.834S152,772.214,152,772.214,167.642,769.436,180.295,777.048Z" transform="translate(-151.913 -379.406)" fill="#1a9afc"/><rect width="78.947" height="1.128" transform="translate(233.121 20.249)" fill="#f2f2f2"/><rect width="1.128" height="10.432" transform="translate(289.512 21.094)" fill="#f2f2f2"/><rect width="1.128" height="10.432" transform="translate(255.114 21.094)" fill="#f2f2f2"/><rect width="78.947" height="1.128" transform="translate(273.159 74.384)" fill="#f2f2f2"/><rect width="1.128" height="10.432" transform="translate(294.587 64.233)" fill="#f2f2f2"/><rect width="1.128" height="10.432" transform="translate(328.986 64.233)" fill="#f2f2f2"/><rect width="78.947" height="1.128" transform="translate(378.046 99.76)" fill="#f2f2f2"/><rect width="1.128" height="10.432" transform="translate(399.474 89.609)" fill="#f2f2f2"/><rect width="1.128" height="10.432" transform="translate(433.873 89.609)" fill="#f2f2f2"/><rect width="78.947" height="1.128" transform="translate(370.151 361.413)" fill="#f2f2f2"/><rect width="1.128" height="10.432" transform="translate(391.58 351.263)" fill="#f2f2f2"/><rect width="1.128" height="10.432" transform="translate(425.978 351.263)" fill="#f2f2f2"/><rect width="78.947" height="1.128" transform="translate(235.377 180.398)" fill="#f2f2f2"/><rect width="1.128" height="10.432" transform="translate(256.806 170.248)" fill="#f2f2f2"/><rect width="1.128" height="10.432" transform="translate(291.204 170.248)" fill="#f2f2f2"/><rect width="78.947" height="1.128" transform="translate(260.189 316.3)" fill="#f2f2f2"/><rect width="1.128" height="10.432" transform="translate(281.618 306.15)" fill="#f2f2f2"/><rect width="1.128" height="10.432" transform="translate(316.016 306.15)" fill="#f2f2f2"/><rect width="78.947" height="1.128" transform="translate(386.505 275.135)" fill="#f2f2f2"/><rect width="1.128" height="10.432" transform="translate(407.933 264.985)" fill="#f2f2f2"/><rect width="1.128" height="10.432" transform="translate(442.331 264.985)" fill="#f2f2f2"/><path d="M258.8,655.591H125.274v-.96H257.839v-46.59H136.5L130.6,595.76l.866-.416,5.633,11.735H258.8Z" transform="translate(-54.544 -259.624)" fill="#2f2e41"/><circle cx="10.087" cy="10.087" r="10.087" transform="translate(78.415 399.329)" fill="#3f3d56"/><circle cx="10.087" cy="10.087" r="10.087" transform="translate(177.839 399.329)" fill="#3f3d56"/><circle cx="6.244" cy="6.244" r="6.244" transform="translate(298.876 188.954)" fill="#3f3d56"/><path d="M398.206,583.679H248.123L215.648,477.531h216l-.2.625Zm-149.373-.96H397.5L430.34,478.492H216.947Z" transform="translate(-179.669 -251.113)" fill="#2f2e41"/><path d="M242.607,507.156H110.784L82.26,413.015H271.982l-.174.555Z" transform="translate(-35.786 -180.112)" fill="#1a9afc" opacity="0.29"/><path d="M450.747,366.034l-.929-.247,6.339-23.892H493.03v.959H456.9Z" transform="translate(-196.075 -149.098)" fill="#2f2e41"/><rect width="194.714" height="0.961" transform="translate(46.473 258.599)" fill="#2f2e41"/><rect width="172.735" height="0.961" transform="translate(57.301 293.99)" fill="#2f2e41"/><rect width="0.961" height="105.187" transform="translate(143.496 226.899)" fill="#2f2e41"/><rect width="105.411" height="0.961" transform="translate(180.571 332.054) rotate(-86.274)" fill="#2f2e41"/><rect width="0.961" height="105.411" transform="translate(99.549 226.929) rotate(-3.729)" fill="#2f2e41"/><rect width="506" height="1" transform="translate(-0.239 420.31)" fill="#2f2e41"/><path d="M747.411,136.65s8.243,23.462,3.17,27.072S767.7,196.809,767.7,196.809l26.633-7.219L779.75,164.925s-1.9-24.665-1.9-28.275S747.411,136.65,747.411,136.65Z" transform="translate(-411.567 -101.758)" fill="#a0616a"/><path d="M747.411,136.65s8.243,23.462,3.17,27.072S767.7,196.809,767.7,196.809l26.633-7.219L779.75,164.925s-1.9-24.665-1.9-28.275S747.411,136.65,747.411,136.65Z" transform="translate(-411.567 -101.758)" fill="#f6aaac" opacity="0.824"/><path d="M722.046,420.744s-2.406,30.08,0,45.721,6.016,58.958,6.016,58.958,0,81.817,13.235,83.022,22.861,2.406,24.064-2.406-6.016-7.219-2.406-9.626,4.813-10.829,0-20.454,0-107.084,0-107.084l22.861,61.364s2.406,50.535,4.813,57.754-2.406,20.454,6.016,21.658,18.048-6.016,22.861-8.422-7.219-2.406-4.813-3.61,9.626-4.813,7.219-6.016-4.812-58.961-4.812-58.961-6.617-123.326-15.04-128.139-13.837,3.477-13.837,3.477Z" transform="translate(-400.039 -218.611)" fill="#2f2e41"/><path d="M757.557,758.784v9.626s-10.829,26.165,0,26.165,19.251,2.712,19.251-.9V761.19Z" transform="translate(-413.892 -373.764)" fill="#2f2e41"/><path d="M872.277,758.754v9.626s10.829,26.165,0,26.165-19.251,2.712-19.251-.9V761.16Z" transform="translate(-457.624 -373.751)" fill="#2f2e41"/><circle cx="21.657" cy="21.657" r="21.657" transform="translate(331.031 9.024)" fill="#f6aaac"/><path d="M763.686,201.9s6.016,18.048,15.641,14.439l9.625-3.61L805.8,328.235s-13.235,19.251-32.487,7.219S763.686,201.9,763.686,201.9Z" transform="translate(-417.614 -130.912)" fill="#f5cb12"/><path d="M795.418,186.659l5.414-11.43s31.884,15.04,36.7,19.853,4.813,12.032,4.813,12.032l-8.422,30.08s2.406,66.175,2.406,68.583,8.422,15.641,2.406,10.829-7.219-9.626-12.032-2.406-15.641,15.641-15.641,15.641Z" transform="translate(-432.502 -119.281)" fill="#1a9afc"/><path d="M758.669,76.088c-4.8-.172-9.939-.257-13.987,2.331a20.477,20.477,0,0,0-4.834,4.732c-3.943,4.984-7.35,11.255-5.885,17.439l1.7-.662a11.137,11.137,0,0,1-1.074,4.771c.239-.7,1.041.43.826,1.135l-1.873,6.147a5.787,5.787,0,0,1,7.381,4.4c.214-7.14.957-15.327,6.746-19.507,2.921-2.108,6.617-2.752,10.174-3.323,3.281-.527,6.72-1.03,9.863.05s5.819,4.294,5.107,7.54a3.355,3.355,0,0,1,3.784,1.866,9.83,9.83,0,0,1,.775,4.486c1.545,1.092,3.3-1.076,3.932-2.859,1.479-4.187,2.791-8.643,1.995-13.011s-4.353-8.543-8.792-8.557a3.082,3.082,0,0,0,.8-2.17l-3.659-.309a4.045,4.045,0,0,0,2.417-1.274C772.6,80.929,761.044,76.173,758.669,76.088Z" transform="translate(-405.518 -76.014)" fill="#2f2e41"/><path d="M738.037,182.11s-9.795-9.6-13.32-9.01-8.338,9.01-8.338,9.01-28.877,9.626-27.673,19.251,14.439,56.55,14.439,56.55,10.829,56.55,1.2,62.566,45.721,21.658,46.925,14.439,3.61-79.412,0-90.241S738.037,182.11,738.037,182.11Z" transform="translate(-385.95 -118.341)" fill="#1a9afc"/><path d="M850.893,223.236h14.876s10.39,45.721,11.593,50.535,3.61,27.673,2.406,27.673-25.267-4.813-25.267-1.2Z" transform="translate(-456.694 -140.217)" fill="#1a9afc"/><path d="M693.972,210.435l-14.439,3.61L668.7,277.813s-3.61,16.845,2.406,18.048,22.86,10.829,22.86,10.829,2.406-18.048,7.219-18.048l-12.033-9.626,7.219-42.111Z" transform="translate(-376.775 -134.634)" fill="#1a9afc"/><rect width="78.947" height="1.128" transform="translate(34.061 199.008)" fill="#f2f2f2"/><rect width="1.128" height="10.432" transform="translate(55.49 188.857)" fill="#f2f2f2"/><rect width="1.128" height="10.432" transform="translate(89.889 188.857)" fill="#f2f2f2"/><rect width="78.947" height="1.128" transform="translate(61.693 32.091)" fill="#f2f2f2"/><rect width="1.128" height="10.432" transform="translate(118.084 32.937)" fill="#f2f2f2"/><rect width="1.128" height="10.432" transform="translate(83.686 32.937)" fill="#f2f2f2"/><rect width="78.947" height="1.128" transform="translate(141.204 143.181)" fill="#f2f2f2"/><rect width="1.128" height="10.432" transform="translate(197.595 144.026)" fill="#f2f2f2"/><rect width="1.128" height="10.432" transform="translate(163.197 144.026)" fill="#f2f2f2"/><rect width="78.947" height="1.128" transform="translate(6.994 142.617)" fill="#f2f2f2"/><rect width="1.128" height="10.432" transform="translate(63.385 143.462)" fill="#f2f2f2"/><rect width="1.128" height="10.432" transform="translate(28.986 143.462)" fill="#f2f2f2"/><rect width="78.947" height="1.128" transform="translate(101.731 86.226)" fill="#f2f2f2"/><rect width="1.128" height="10.432" transform="translate(123.159 76.075)" fill="#f2f2f2"/><rect width="1.128" height="10.432" transform="translate(157.558 76.075)" fill="#f2f2f2"/></g><g transform="translate(89.316 10.281)"><path d="M642.33,720.165l40-7.519a1.381,1.381,0,0,1,1.64,1.361h0a1.381,1.381,0,0,1-1.131,1.361l-39.066,7.315Z" transform="translate(-228.85 -528.667)" fill="#9c9ca1"/><path d="M693.506,636.894a71.677,71.677,0,0,1-10.353,3.41c-5.954,1.312-12.184,1.1-18.092,2.6-3.12.8-6.222,2.077-9.428,1.817a28.267,28.267,0,0,1-4.211-.884c-7.834-1.933-16.74-1.3-23.1,3.664a28.744,28.744,0,0,0-5.571,6.074,4.059,4.059,0,0,0,1.632,6.045,23.92,23.92,0,0,0,7.839,2.088,47.644,47.644,0,0,0,10.875-.707c5.352-.759,10.706-1.522,16.044-2.375,1.917-.3,3.833-.624,5.76-.867,13.871-1.754,27.993.378,41.9-1.087a12.8,12.8,0,0,0,4.115-.942c3.237-1.519,4.838-5.523,4.17-9.041a12.659,12.659,0,0,0-6.349-8.237,27.956,27.956,0,0,0-8.3-2.762C697.736,635.071,696.1,635.9,693.506,636.894Z" transform="translate(-213.571 -471.7)" fill="#f6aaac"/><path d="M329.683,492.635,344.7,548.124a3.466,3.466,0,0,0,3.013,2.543l67.578,6.492a3.463,3.463,0,0,0,3.7-4.275l-16.442-66.93a3.463,3.463,0,0,0-3.623-2.626l-66.163,4.947a3.463,3.463,0,0,0-3.073,4.36Z" transform="translate(-2.451 -362.684)" fill="#9c9ca1"/><path d="M831.444,479.123s3.2,9.508-6.237,13.506L824,494.737l5.91,5.831s7.286-13.291,6.5-18.011C836.406,482.557,835.278,477.764,831.444,479.123Z" transform="translate(-824 -478.88)" fill="#fff"/></g></g></g></g></svg>