<svg xmlns="http://www.w3.org/2000/svg" width="12.222" height="16.164" viewBox="0 0 12.222 16.164"><g transform="translate(-815.502 -609.75)"><g transform="translate(755.002 610)"><g transform="translate(60.75)"><path d="M71.625,6.826h-.23V4.786a4.786,4.786,0,0,0-9.571,0,.438.438,0,1,0,.876,0,3.91,3.91,0,0,1,7.819,0V6.826H61.6a.847.847,0,0,0-.847.847v5.454a2.541,2.541,0,0,0,2.537,2.537h6.648a2.541,2.541,0,0,0,2.537-2.537V7.673A.847.847,0,0,0,71.625,6.826Zm-.029,6.3a1.662,1.662,0,0,1-1.661,1.661H63.29a1.662,1.662,0,0,1-1.661-1.661V7.7H71.6v5.425Z" transform="translate(-60.75)" fill="#d0d0d0" stroke="#d0d0d0" stroke-width="0.5"/><path d="M192.588,301.377a1.638,1.638,0,1,0-1.638-1.638A1.64,1.64,0,0,0,192.588,301.377Zm0-2.4a.764.764,0,1,1-.762.766A.764.764,0,0,1,192.588,298.973Z" transform="translate(-186.726 -288.428)" fill="#d0d0d0" stroke="#d0d0d0" stroke-width="0.5"/></g></g></g></svg>