<svg xmlns="http://www.w3.org/2000/svg" width="102.047" height="28.477" viewBox="0 0 102.047 28.477"><g transform="translate(-24 -43)"><g transform="translate(24 43)"><path d="M233.19,304.679H192.85a3.1,3.1,0,0,1-3.039-3.716l4.511-22.276a3.1,3.1,0,0,1,3.039-2.485H237.89a3.1,3.1,0,0,1,3.034,3.741l-4.7,22.276A3.1,3.1,0,0,1,233.19,304.679Z" transform="translate(-189.749 -276.202)" fill="#0c9aff" style="isolation:isolate"/><g transform="translate(7.413 8.108)" style="isolation:isolate"><path d="M242.684,238.091h2.351V246.8h-2.352v-.889A3.643,3.643,0,0,1,240,247.019a4.036,4.036,0,0,1-3.082-1.319,4.709,4.709,0,0,1-1.208-3.3,4.537,4.537,0,0,1,1.224-3.241A4.053,4.053,0,0,1,240,237.868a3.613,3.613,0,0,1,2.684,1.144Zm-3.86,5.988a2.119,2.119,0,0,0,1.605.668,2.079,2.079,0,0,0,1.6-.683,2.321,2.321,0,0,0,.651-1.636,2.258,2.258,0,0,0-3.86-1.621,2.3,2.3,0,0,0-.619,1.621A2.37,2.37,0,0,0,238.824,244.079Z" transform="translate(-235.708 -234.707)" fill="#fff"/><path d="M255.608,245.976l-2.75-3.606-.491.461v3.143h-2.493V233.889h2.493v6.163l2.923-2.779h3.082l-3.813,3.542,4.07,5.161Z" transform="translate(-238.626 -233.889)" fill="#fff"/><path d="M264.307,246.855h-2.494V238.15h2.494Z" transform="translate(-241.084 -234.766)" fill="#fff"/><path d="M269.867,245.976h-2.494V233.889h2.494Z" transform="translate(-242.229 -233.889)" fill="#fff"/><path d="M275.407,245.976h-2.494V233.889h2.494Z" transform="translate(-243.369 -233.889)" fill="#fff"/><path d="M280.946,246.855h-2.493V238.15h2.493Z" transform="translate(-244.51 -234.766)" fill="#fff"/></g><path d="M2.742-25.66,1.689-28.291H1.5L.432-25.66H.82l.267-.684h1l.267.684Zm-.776-1.018H1.208l.381-.993ZM4.743-25.66l-.925-1.108.893-.8H4.247l-.854.774v-1.559H3.05v2.695h.344v-.726l.182-.164.721.89Zm.589-1.908H4.988v1.908h.344Zm.872-.786H5.86v2.695H6.2Zm.872,0H6.733v2.695h.344Zm.872.786H7.6v1.908h.344Zm3.4,1.908-1.052-2.631H10.1L9.036-25.66h.388l.267-.684h1l.267.684Zm-.776-1.018H9.812l.381-.993Zm2.776,1.018-.924-1.108.893-.8h-.463L12-26.8v-1.559h-.344v2.695H12v-.726l.182-.164.719.89Zm.737.043a.73.73,0,0,0,.5-.169.525.525,0,0,0,.192-.413.518.518,0,0,0-.324-.48,2.4,2.4,0,0,0-.256-.117l-.21-.092a.24.24,0,0,1-.16-.224.246.246,0,0,1,.087-.175.246.246,0,0,1,.187-.056.479.479,0,0,1,.41.221l.217-.206a.709.709,0,0,0-.605-.3.644.644,0,0,0-.452.153.485.485,0,0,0-.171.381.5.5,0,0,0,.292.463q.059.032.235.107c.117.049.2.085.239.107a.272.272,0,0,1,.174.242c0,.147-.135.263-.338.263a.548.548,0,0,1-.473-.3l-.246.189a.786.786,0,0,0,.709.415Zm2.855-1.031a.951.951,0,0,0-.26-.7.884.884,0,0,0-.662-.26.923.923,0,0,0-.7.281.993.993,0,0,0-.265.711.952.952,0,0,0,.282.732.952.952,0,0,0,.736.272,1.412,1.412,0,0,0,.819-.267l-.147-.26a1.2,1.2,0,0,1-.665.214.618.618,0,0,1-.668-.543h1.52c.007-.094.01-.151.01-.176Zm-1.529-.12a.619.619,0,0,1,.609-.54.547.547,0,0,1,.4.15.547.547,0,0,1,.171.391Zm2.467,1.153a.73.73,0,0,0,.495-.171.525.525,0,0,0,.192-.413.518.518,0,0,0-.324-.48,2.4,2.4,0,0,0-.256-.117l-.21-.092a.24.24,0,0,1-.16-.224.246.246,0,0,1,.087-.175.246.246,0,0,1,.187-.056.479.479,0,0,1,.41.221l.217-.206a.709.709,0,0,0-.605-.3.644.644,0,0,0-.452.153.485.485,0,0,0-.171.381.5.5,0,0,0,.292.463q.059.032.235.107c.117.049.2.085.239.107a.272.272,0,0,1,.174.242c0,.147-.135.263-.338.263a.548.548,0,0,1-.475-.3l-.246.189a.786.786,0,0,0,.711.413Zm1.876,0a.753.753,0,0,0,.6-.216.753.753,0,0,0,.219-.6v-1.139h-.338v1.13a.457.457,0,0,1-.122.366.457.457,0,0,1-.359.142.456.456,0,0,1-.357-.145.456.456,0,0,1-.118-.366v-1.13h-.344v1.139a.763.763,0,0,0,.222.6.763.763,0,0,0,.6.221Zm2.833-1.677a.835.835,0,0,0-.673-.324.908.908,0,0,0-.684.281.964.964,0,0,0-.271.7,1.018,1.018,0,0,0,.271.722.891.891,0,0,0,.684.292.827.827,0,0,0,.673-.317v.271h.326v-1.908h-.328Zm.021.673a.7.7,0,0,1-.182.491.613.613,0,0,1-.473.2.6.6,0,0,1-.47-.2.71.71,0,0,1-.178-.488.71.71,0,0,1,.178-.488.6.6,0,0,1,.47-.2.613.613,0,0,1,.473.2.693.693,0,0,1,.182.482Zm1.179.958v-1.012c0-.41.221-.619.523-.619a.665.665,0,0,1,.2.032l.032-.331a.968.968,0,0,0-.224-.028.57.57,0,0,0-.548.331v-.281h-.324v1.908Zm2.239,0v-1.778l.9,1.326h.092l.9-1.326v1.776h.356v-2.631h-.174l-1.13,1.67-1.135-1.67h-.171v2.63Zm4.343-1.631a.835.835,0,0,0-.673-.324.908.908,0,0,0-.684.281.964.964,0,0,0-.271.7,1.018,1.018,0,0,0,.271.722.891.891,0,0,0,.684.292.827.827,0,0,0,.673-.317v.271h.328v-1.908h-.328Zm.021.673a.7.7,0,0,1-.182.491.613.613,0,0,1-.473.2.6.6,0,0,1-.47-.2.71.71,0,0,1-.178-.488.71.71,0,0,1,.178-.488.6.6,0,0,1,.47-.2.613.613,0,0,1,.473.2.693.693,0,0,1,.182.482Zm1.069-1.86a.589.589,0,0,0,.173.445.589.589,0,0,0,.446.171.616.616,0,0,0,.445-.167.6.6,0,0,0,.178-.448H32.4a.316.316,0,0,1-.082.252.316.316,0,0,1-.245.1.316.316,0,0,1-.245-.1.316.316,0,0,1-.082-.252Zm1.277,1.157a.828.828,0,0,0-.651-.295.942.942,0,0,0-.694.281.933.933,0,0,0-.281.694.969.969,0,0,0,.274.7.908.908,0,0,0,.684.281.841.841,0,0,0,.669-.3v.157a.6.6,0,0,1-.185.459.688.688,0,0,1-.5.182,1.121,1.121,0,0,1-.68-.231l-.16.271a1.411,1.411,0,0,0,.844.271,1.02,1.02,0,0,0,.744-.274.977.977,0,0,0,.277-.733v-1.712h-.339Zm-1.1,1.164a.661.661,0,0,1-.185-.48.646.646,0,0,1,.185-.477A.62.62,0,0,1,32.1-27.3a.62.62,0,0,1,.466.192.646.646,0,0,1,.185.477.661.661,0,0,1-.185.48.62.62,0,0,1-.466.192.62.62,0,0,1-.467-.192Zm3.471-1.135a.835.835,0,0,0-.673-.324.908.908,0,0,0-.684.281.964.964,0,0,0-.271.7,1.018,1.018,0,0,0,.271.722.891.891,0,0,0,.684.292.827.827,0,0,0,.673-.317v.271h.327v-1.908h-.328Zm.021.673a.7.7,0,0,1-.182.491.613.613,0,0,1-.473.2.6.6,0,0,1-.47-.2.709.709,0,0,1-.178-.488A.709.709,0,0,1,34-27.1a.6.6,0,0,1,.47-.2.613.613,0,0,1,.473.2.694.694,0,0,1,.181.484Zm2.228-.747v-.2H35.872v.292H36.9l-1.089,1.4v.217h1.58v-.292H36.269Zm1.886.075a.835.835,0,0,0-.673-.324.908.908,0,0,0-.684.281.964.964,0,0,0-.271.7,1.018,1.018,0,0,0,.271.722.891.891,0,0,0,.684.292.827.827,0,0,0,.673-.317v.271h.328v-1.908h-.328Zm.021.673a.7.7,0,0,1-.182.491.613.613,0,0,1-.473.2.6.6,0,0,1-.47-.2.71.71,0,0,1-.178-.488.71.71,0,0,1,.178-.488.6.6,0,0,1,.47-.2.613.613,0,0,1,.473.2.693.693,0,0,1,.182.484Zm1.179.958v-1.06a.615.615,0,0,1,.147-.42.491.491,0,0,1,.381-.164c.288,0,.488.21.488.58v1.061H41.8v-1.156a.777.777,0,0,0-.217-.594.747.747,0,0,0-.537-.206.641.641,0,0,0-.605.32v-.271H40.1v1.908Zm2.2-1.908H42.3v1.908h.344Zm1.922.2v-.2H43.08v.292h1.025l-1.089,1.4v.217H44.6v-.292H43.479Z" transform="translate(57.451 49.499)" fill="#a8a8a8"/><path d="M6.566-21.32a3.674,3.674,0,0,0-2.389.849l.079-.629H1.519L-.32-8.857H2.462l.644-4.463A3.029,3.029,0,0,0,5.589-12.2a4.338,4.338,0,0,0,3.159-1.257,5.375,5.375,0,0,0,1.54-3.253,4.1,4.1,0,0,0-.835-3.3A3.578,3.578,0,0,0,6.566-21.32Zm.88,4.636a2.247,2.247,0,0,1-2.2,1.933,1.7,1.7,0,0,1-1.7-2.122,2.233,2.233,0,0,1,2.2-1.915,1.564,1.564,0,0,1,1.367.644,1.835,1.835,0,0,1,.328,1.46Zm6.332,4.259.613-4.212c.2-1.383,1.022-2.169,2.075-2.169.927,0,1.4.6,1.228,1.713L17-12.425h2.782l.77-5.123a3.325,3.325,0,0,0-.566-2.813,2.8,2.8,0,0,0-2.232-.974,3.645,3.645,0,0,0-2.955,1.43l.707-4.511H12.787L11.011-12.425Zm12.007.236a5.308,5.308,0,0,0,3.332-1.13,4.983,4.983,0,0,0,1.87-2.986,4.058,4.058,0,0,0-.676-3.568,3.941,3.941,0,0,0-3.348-1.477,5.233,5.233,0,0,0-3.473,1.242,5.166,5.166,0,0,0-1.823,3.159,4,4,0,0,0,.817,3.379A4.043,4.043,0,0,0,25.784-12.189Zm.251-2.609a1.58,1.58,0,0,1-1.336-.613,1.731,1.731,0,0,1-.267-1.509,2.312,2.312,0,0,1,2.232-1.841,1.6,1.6,0,0,1,1.32.6,1.66,1.66,0,0,1,.3,1.43,2.189,2.189,0,0,1-.786,1.367A2.136,2.136,0,0,1,26.036-14.8Zm8.518,2.373.613-4.212c.2-1.383,1.022-2.169,2.075-2.169.927,0,1.4.6,1.228,1.713l-.693,4.668h2.782l.77-5.123a3.325,3.325,0,0,0-.566-2.813,2.8,2.8,0,0,0-2.232-.974,3.54,3.54,0,0,0-2.923,1.43L35.8-21.1H33.077l-1.289,8.675Zm13.107-8.9a5.223,5.223,0,0,0-3.475,1.21,4.954,4.954,0,0,0-1.7,3.206c-.409,2.436,1.022,4.666,4.228,4.666a7.072,7.072,0,0,0,3.913-1.147l-.912-1.947a5.176,5.176,0,0,1-2.782.835c-1.084,0-1.7-.456-1.855-1.367h6.255a5.753,5.753,0,0,0,.236-.99,3.745,3.745,0,0,0-.817-3.253A4.013,4.013,0,0,0,47.661-21.32Zm-.11,2.216a1.393,1.393,0,0,1,1.049.34,1.393,1.393,0,0,1,.473,1h-3.66A2.183,2.183,0,0,1,47.551-19.1Z" transform="translate(50.257 32.737)" fill="#404040"/></g></g></svg>