<svg xmlns="http://www.w3.org/2000/svg" width="186" height="51.904" viewBox="0 0 186 51.904"><g transform="translate(-311 -7786.5)"><g transform="translate(311 7786.5)"><path d="M268.928,328.106H195.4a5.651,5.651,0,0,1-5.539-6.773l8.222-40.6a5.651,5.651,0,0,1,5.538-4.53h73.872a5.651,5.651,0,0,1,5.53,6.819l-8.57,40.6A5.651,5.651,0,0,1,268.928,328.106Z" transform="translate(-189.749 -276.202)" fill="#0c9aff" style="isolation:isolate"/><g transform="translate(13.511 14.778)" style="isolation:isolate"><path d="M248.424,238.275h4.285v15.867h-4.286v-1.621a6.64,6.64,0,0,1-4.892,2.028,7.356,7.356,0,0,1-5.617-2.4,8.583,8.583,0,0,1-2.2-6.023,8.27,8.27,0,0,1,2.231-5.908,7.388,7.388,0,0,1,5.589-2.344,6.586,6.586,0,0,1,4.892,2.086Zm-7.036,10.915a3.862,3.862,0,0,0,2.925,1.217,3.789,3.789,0,0,0,2.924-1.245,4.23,4.23,0,0,0,1.187-2.983,4.116,4.116,0,0,0-7.036-2.954,4.188,4.188,0,0,0-1.129,2.954A4.32,4.32,0,0,0,241.388,249.19Z" transform="translate(-235.708 -232.107)" fill="#fff"/><path d="M260.326,255.92l-5.013-6.572-.9.84v5.729h-4.545V233.889h4.545v11.234l5.328-5.066h5.617l-6.949,6.457,7.417,9.406Z" transform="translate(-229.373 -233.889)" fill="#fff"/><path d="M266.36,254.017h-4.547V238.15h4.547Z" transform="translate(-224.03 -231.982)" fill="#fff"/><path d="M271.92,255.92h-4.547V233.889h4.547Z" transform="translate(-221.543 -233.889)" fill="#fff"/><path d="M277.46,255.92h-4.547V233.889h4.547Z" transform="translate(-219.064 -233.889)" fill="#fff"/><path d="M283,254.017h-4.545V238.15H283Z" transform="translate(-216.586 -231.982)" fill="#fff"/></g><path d="M4.643-23.344l-1.92-4.8h-.35l-1.941,4.8h.707l.487-1.246H3.447l.487,1.246ZM3.229-25.2H1.846l.695-1.81Zm5.06,1.856L6.6-25.364l1.628-1.46H7.386L5.83-25.414v-2.842H5.2v4.912H5.83v-1.324l.331-.3,1.314,1.622Zm1.074-3.478H8.737v3.478h.627Zm1.59-1.432h-.627v4.912h.627Zm1.59,0h-.627v4.912h.627Zm1.59,1.432h-.627v3.478h.627Zm6.189,3.478-1.917-4.8h-.35l-1.941,4.8h.707l.487-1.246H19.13l.487,1.246ZM18.908-25.2H17.528l.695-1.81Zm5.06,1.856-1.684-2.02,1.628-1.46h-.843l-1.558,1.411v-2.842h-.627v4.912h.627v-1.324l.331-.3,1.311,1.622Zm1.343.078a1.331,1.331,0,0,0,.905-.308.956.956,0,0,0,.35-.753.944.944,0,0,0-.591-.875,4.375,4.375,0,0,0-.467-.214l-.383-.168a.437.437,0,0,1-.292-.409.448.448,0,0,1,.158-.319.448.448,0,0,1,.341-.1.873.873,0,0,1,.747.4l.4-.376a1.292,1.292,0,0,0-1.1-.551,1.174,1.174,0,0,0-.824.279.884.884,0,0,0-.312.695.912.912,0,0,0,.532.843q.107.058.428.194c.214.09.363.156.435.194a.5.5,0,0,1,.318.441c0,.269-.246.48-.617.48a1,1,0,0,1-.863-.551l-.448.344a1.432,1.432,0,0,0,1.293.756Zm5.2-1.88a1.734,1.734,0,0,0-.474-1.285,1.611,1.611,0,0,0-1.207-.474,1.682,1.682,0,0,0-1.272.513,1.809,1.809,0,0,0-.483,1.3,1.735,1.735,0,0,0,.514,1.335,1.735,1.735,0,0,0,1.342.5,2.575,2.575,0,0,0,1.492-.487l-.269-.474a2.193,2.193,0,0,1-1.213.389,1.126,1.126,0,0,1-1.218-.99H30.5c.013-.171.019-.275.019-.32Zm-2.787-.218a1.129,1.129,0,0,1,1.109-.985,1,1,0,0,1,.727.273,1,1,0,0,1,.311.712Zm4.5,2.1a1.331,1.331,0,0,0,.9-.312.956.956,0,0,0,.35-.753.944.944,0,0,0-.591-.875,4.373,4.373,0,0,0-.467-.214l-.383-.168a.437.437,0,0,1-.292-.409.448.448,0,0,1,.158-.319.448.448,0,0,1,.341-.1.873.873,0,0,1,.747.4l.4-.376a1.292,1.292,0,0,0-1.1-.551,1.174,1.174,0,0,0-.824.279.884.884,0,0,0-.312.695.912.912,0,0,0,.532.843q.107.058.428.194c.214.09.363.156.435.194a.5.5,0,0,1,.318.441c0,.269-.246.48-.617.48a1,1,0,0,1-.866-.549l-.448.344a1.432,1.432,0,0,0,1.3.753Zm3.42.006a1.372,1.372,0,0,0,1.093-.394,1.372,1.372,0,0,0,.4-1.092v-2.076h-.617v2.059a.833.833,0,0,1-.222.668.833.833,0,0,1-.654.26.832.832,0,0,1-.65-.265.832.832,0,0,1-.216-.668v-2.059h-.627v2.076a1.391,1.391,0,0,0,.4,1.085,1.391,1.391,0,0,0,1.086.4Zm5.164-3.056a1.522,1.522,0,0,0-1.226-.591,1.654,1.654,0,0,0-1.246.513,1.756,1.756,0,0,0-.493,1.285,1.855,1.855,0,0,0,.493,1.317,1.625,1.625,0,0,0,1.246.532,1.507,1.507,0,0,0,1.226-.577v.493H41.4v-3.478h-.6Zm.038,1.226a1.273,1.273,0,0,1-.331.9,1.117,1.117,0,0,1-.863.363,1.094,1.094,0,0,1-.857-.363,1.293,1.293,0,0,1-.324-.889,1.294,1.294,0,0,1,.324-.889,1.094,1.094,0,0,1,.857-.363,1.117,1.117,0,0,1,.863.363,1.263,1.263,0,0,1,.331.879Zm2.148,1.746v-1.845c0-.747.4-1.129.953-1.129a1.213,1.213,0,0,1,.363.058l.058-.6a1.764,1.764,0,0,0-.409-.052,1.038,1.038,0,0,0-1,.6v-.513h-.591v3.478Zm4.081,0v-3.241l1.648,2.417h.168l1.648-2.417v3.238h.649v-4.8h-.318L48.813-25.1l-2.07-3.044h-.312v4.795Zm7.915-2.972a1.522,1.522,0,0,0-1.226-.591,1.654,1.654,0,0,0-1.246.513,1.756,1.756,0,0,0-.493,1.285,1.855,1.855,0,0,0,.493,1.317,1.625,1.625,0,0,0,1.246.532,1.507,1.507,0,0,0,1.226-.577v.493h.6v-3.478h-.6Zm.038,1.226a1.273,1.273,0,0,1-.331.9,1.117,1.117,0,0,1-.863.363,1.094,1.094,0,0,1-.857-.363,1.294,1.294,0,0,1-.324-.889,1.294,1.294,0,0,1,.324-.889,1.094,1.094,0,0,1,.857-.363,1.117,1.117,0,0,1,.863.363,1.264,1.264,0,0,1,.331.879Zm1.949-3.39a1.074,1.074,0,0,0,.316.811,1.074,1.074,0,0,0,.813.311,1.123,1.123,0,0,0,.811-.305,1.094,1.094,0,0,0,.324-.817h-.537a.576.576,0,0,1-.15.459.576.576,0,0,1-.447.183.576.576,0,0,1-.447-.183.576.576,0,0,1-.15-.459Zm2.327,2.109a1.509,1.509,0,0,0-1.187-.537,1.717,1.717,0,0,0-1.265.513,1.7,1.7,0,0,0-.513,1.265,1.767,1.767,0,0,0,.5,1.278,1.654,1.654,0,0,0,1.246.513,1.533,1.533,0,0,0,1.22-.545v.286a1.1,1.1,0,0,1-.337.837,1.253,1.253,0,0,1-.915.331,2.043,2.043,0,0,1-1.239-.422l-.292.493a2.572,2.572,0,0,0,1.538.493,1.858,1.858,0,0,0,1.356-.5,1.78,1.78,0,0,0,.506-1.336v-3.121h-.618Zm-2,2.122a1.2,1.2,0,0,1-.337-.875,1.178,1.178,0,0,1,.337-.869,1.131,1.131,0,0,1,.85-.35,1.131,1.131,0,0,1,.85.35,1.178,1.178,0,0,1,.337.869,1.2,1.2,0,0,1-.337.875,1.131,1.131,0,0,1-.85.35,1.131,1.131,0,0,1-.85-.35Zm6.326-2.07a1.522,1.522,0,0,0-1.226-.591,1.654,1.654,0,0,0-1.246.513,1.756,1.756,0,0,0-.493,1.285,1.855,1.855,0,0,0,.493,1.317,1.625,1.625,0,0,0,1.246.532,1.508,1.508,0,0,0,1.226-.577v.493h.6v-3.478h-.6Zm.038,1.226a1.273,1.273,0,0,1-.331.9,1.117,1.117,0,0,1-.863.363,1.094,1.094,0,0,1-.857-.363,1.293,1.293,0,0,1-.324-.889,1.293,1.293,0,0,1,.324-.889,1.094,1.094,0,0,1,.857-.363,1.117,1.117,0,0,1,.863.363,1.264,1.264,0,0,1,.33.882Zm4.061-1.362v-.363H65.028v.532H66.9L64.911-23.74v.4h2.881v-.532h-2.04Zm3.438.136a1.522,1.522,0,0,0-1.226-.591,1.654,1.654,0,0,0-1.246.513,1.756,1.756,0,0,0-.493,1.285,1.855,1.855,0,0,0,.493,1.317,1.625,1.625,0,0,0,1.246.532,1.507,1.507,0,0,0,1.226-.577v.493h.6v-3.478h-.6Zm.038,1.226a1.273,1.273,0,0,1-.331.9,1.117,1.117,0,0,1-.863.363,1.094,1.094,0,0,1-.857-.363,1.294,1.294,0,0,1-.324-.889,1.294,1.294,0,0,1,.324-.889,1.094,1.094,0,0,1,.857-.363,1.117,1.117,0,0,1,.863.363,1.263,1.263,0,0,1,.332.882Zm2.148,1.746v-1.932a1.122,1.122,0,0,1,.269-.765.9.9,0,0,1,.695-.3c.525,0,.889.383.889,1.057v1.934h.617v-2.106a1.416,1.416,0,0,0-.4-1.083,1.362,1.362,0,0,0-.979-.376,1.168,1.168,0,0,0-1.1.584v-.493h-.617v3.478Zm4.009-3.478h-.627v3.478h.627Zm3.5.37v-.363H78.166v.532h1.868L78.049-23.74v.4H80.93v-.532H78.893Z" transform="translate(105.07 66.795)" fill="#a8a8a8"/><path d="M12.23-18.773a6.7,6.7,0,0,0-4.354,1.547l.143-1.146H3.032L-.32,3.943H4.75L5.925-4.192a5.521,5.521,0,0,0,4.526,2.034A7.907,7.907,0,0,0,16.209-4.45a9.8,9.8,0,0,0,2.807-5.93A7.473,7.473,0,0,0,17.494-16.4,6.522,6.522,0,0,0,12.23-18.773Zm1.6,8.45A4.1,4.1,0,0,1,9.824-6.8,3.092,3.092,0,0,1,6.73-10.666a4.07,4.07,0,0,1,4.01-3.491,2.851,2.851,0,0,1,2.492,1.174,3.345,3.345,0,0,1,.6,2.66ZM25.375-2.559l1.117-7.677c.372-2.521,1.862-3.953,3.781-3.953,1.69,0,2.549,1.089,2.238,3.122L31.247-2.559h5.07l1.4-9.338c.344-2.263,0-3.953-1.031-5.128A5.11,5.11,0,0,0,32.622-18.8a6.644,6.644,0,0,0-5.385,2.607l1.289-8.221H23.57L20.333-2.559Zm21.885.43a9.674,9.674,0,0,0,6.073-2.059,9.083,9.083,0,0,0,3.409-5.443,7.4,7.4,0,0,0-1.232-6.5,7.184,7.184,0,0,0-6.1-2.693,9.537,9.537,0,0,0-6.331,2.263,9.415,9.415,0,0,0-3.323,5.758,7.291,7.291,0,0,0,1.49,6.159A7.369,7.369,0,0,0,47.26-2.13Zm.458-4.755A2.88,2.88,0,0,1,45.284-8a3.155,3.155,0,0,1-.487-2.75,4.214,4.214,0,0,1,4.068-3.355,2.918,2.918,0,0,1,2.406,1.089,3.027,3.027,0,0,1,.544,2.607A3.99,3.99,0,0,1,50.383-7.92a3.893,3.893,0,0,1-2.664,1.035ZM63.245-2.559l1.117-7.677c.372-2.521,1.862-3.953,3.781-3.953,1.69,0,2.549,1.089,2.238,3.122L69.117-2.559h5.07l1.4-9.338c.344-2.263,0-3.953-1.031-5.128A5.11,5.11,0,0,0,70.492-18.8a6.452,6.452,0,0,0-5.328,2.607l.344-2.177H60.552L58.2-2.559Zm23.89-16.213A9.52,9.52,0,0,0,80.8-16.567a9.031,9.031,0,0,0-3.09,5.844c-.745,4.44,1.862,8.5,7.706,8.5A12.891,12.891,0,0,0,92.549-4.31L90.888-7.859a9.434,9.434,0,0,1-5.07,1.522c-1.977,0-3.094-.831-3.38-2.492h11.4a10.487,10.487,0,0,0,.43-1.8,6.826,6.826,0,0,0-1.49-5.93A7.314,7.314,0,0,0,87.135-18.773Zm-.2,4.039a2.54,2.54,0,0,1,1.912.62A2.54,2.54,0,0,1,89.71-12.3H83.039a3.979,3.979,0,0,1,3.9-2.435Z" transform="translate(91.34 39.582)" fill="#404040"/></g></g></svg>