<svg xmlns="http://www.w3.org/2000/svg" width="25" height="25" viewBox="0 0 25 25"><g transform="translate(-202 -282)"><g transform="translate(201.522 281.522)"><rect width="25" height="25" rx="12.5" transform="translate(0.478 0.478)" fill="#1a9afc"/><path d="M22.547.427a3.181,3.181,0,0,0-1.164,4.346A3.178,3.178,0,0,0,25.19,6.184l1.431,2.479,1.02-.589L26.211,5.595a3.182,3.182,0,0,0,.682-4A3.18,3.18,0,0,0,22.547.427ZM25.872,2.18A2,2,0,0,1,24.14,5.185a2.011,2.011,0,0,1-1.737-1,2,2,0,0,1,1.732-3.005A2.011,2.011,0,0,1,25.872,2.18Z" transform="translate(-11.321 8.646)" fill="#fff"/></g></g></svg>