<svg xmlns="http://www.w3.org/2000/svg" width="20.146" height="15.332" viewBox="0 0 20.146 15.332"><g transform="translate(-811.437 -533)"><g transform="translate(811.437 475.25)"><g transform="translate(0 57.75)"><path d="M17.687,57.75H2.464A2.466,2.466,0,0,0,0,60.214v10.4a2.466,2.466,0,0,0,2.464,2.464H17.683a2.466,2.466,0,0,0,2.464-2.464v-10.4A2.463,2.463,0,0,0,17.687,57.75Zm1.338,12.868a1.34,1.34,0,0,1-1.338,1.338H2.464a1.34,1.34,0,0,1-1.338-1.338v-10.4A1.34,1.34,0,0,1,2.464,58.88H17.683a1.34,1.34,0,0,1,1.338,1.338v10.4Z" transform="translate(0 -57.75)" fill="#d0d0d0"/><path d="M66.134,114.307l4.927-4.419a.564.564,0,0,0-.755-.838l-6.795,6.1-1.326-1.184s-.008-.008-.008-.013a.833.833,0,0,0-.092-.079l-5.394-4.827a.564.564,0,1,0-.75.842l4.986,4.456-4.965,4.648a.565.565,0,0,0-.025.8.576.576,0,0,0,.413.179.564.564,0,0,0,.384-.15l5.04-4.715,1.367,1.221a.561.561,0,0,0,.75,0l1.4-1.259,5.011,4.76a.564.564,0,0,0,.8-.021.565.565,0,0,0-.021-.8Z" transform="translate(-53.428 -106.77)" fill="#d0d0d0"/></g></g></g></svg>