<svg xmlns="http://www.w3.org/2000/svg" width="61.666" height="15.892" viewBox="0 0 61.666 15.892"><g transform="translate(-1168 -5124.999)"><path d="M919.635,550.636l.911-6.167a3.461,3.461,0,0,1,1.107-1.913,3.8,3.8,0,0,1,2.411-.853,3.75,3.75,0,0,1,1.876.419,2.374,2.374,0,0,1,.54.407,2.683,2.683,0,0,1,.8-.482,3.85,3.85,0,0,1,1.754-.35,3.111,3.111,0,0,1,2.008.62,1.861,1.861,0,0,1,.6,1.15,3.9,3.9,0,0,1-.021,1.06c-.09.625-.89,6.109-.89,6.109h-2.263s.79-5.4.832-5.717a2.06,2.06,0,0,0-.085-1.25,1.049,1.049,0,0,0-.906-.34c-.3.022-.911.112-1.076,1.092s-.937,6.215-.937,6.215h-2.252s.826-5.616.864-5.913.09-1-.308-1.25a1.134,1.134,0,0,0-1.4.206,2.259,2.259,0,0,0-.456,1.214c-.1.614-.842,5.743-.842,5.743Zm-6.375-8.657h2.246l-.895,6.1c-.064.424-.021,1.092.37,1.282a1.374,1.374,0,0,0,1.294-.074,1.769,1.769,0,0,0,.646-1.208c.138-.742.922-6.114.922-6.114h2.215s-.753,5.235-.838,5.87a3.677,3.677,0,0,1-1.07,2.247,4.482,4.482,0,0,1-3.179.816,2.322,2.322,0,0,1-2.564-1.748,7.164,7.164,0,0,1,.117-2.279C912.672,545.942,913.26,541.979,913.26,541.979Zm-13.209,8.657.911-6.167a3.464,3.464,0,0,1,1.108-1.913,3.8,3.8,0,0,1,2.41-.853,3.747,3.747,0,0,1,1.876.419,2.347,2.347,0,0,1,.54.407,2.683,2.683,0,0,1,.8-.482,3.851,3.851,0,0,1,1.754-.35,3.107,3.107,0,0,1,2.008.62,1.862,1.862,0,0,1,.6,1.15,3.931,3.931,0,0,1-.022,1.06c-.09.625-.89,6.109-.89,6.109h-2.263s.79-5.4.832-5.717a2.052,2.052,0,0,0-.084-1.25,1.05,1.05,0,0,0-.906-.34c-.3.022-.912.112-1.076,1.092s-.938,6.215-.938,6.215H904.46s.827-5.616.864-5.913.09-1-.307-1.25a1.133,1.133,0,0,0-1.4.206,2.251,2.251,0,0,0-.456,1.214c-.1.614-.842,5.743-.842,5.743h-2.264Zm-10.724-1.092s2.634-3.613,2.687-3.692a.472.472,0,0,0-.006-.414c-.074-.137-1.674-2.871-1.753-3.025a1.476,1.476,0,0,1-.038-1.06.959.959,0,0,1,.69-.81c.169-.027.333.037.53.339s1.8,2.707,1.87,2.813.18.138.27.01,3.353-4.625,3.513-4.841a1.822,1.822,0,0,1,.949-.71,1.178,1.178,0,0,1,.948.19,1.214,1.214,0,0,1,.456,1.055,2.6,2.6,0,0,1-.668,1.293c-.381.482-3.82,4.668-3.91,4.768a.485.485,0,0,0-.074.393,2.222,2.222,0,0,0,.318.535c.08.116,2.146,3.19,2.146,3.19l1.1-7.609h2.14l-1.266,8.673h-1.25l1.107,1.648-2.183,1.733-3.592-6.263c-.053-.09-.133-.217-.308.005s-2.924,3.619-2.924,3.619l-.753-1.839Zm3.286-9.59c.191-.912.875-1.653,1.527-1.653s1.025.74.833,1.654-.875,1.653-1.527,1.653-1.025-.74-.833-1.653Zm-9.007,2.576a5.873,5.873,0,0,1,2.342-.73,3.309,3.309,0,0,1,3.01.614,2.165,2.165,0,0,1,.656,2.109c-.084.6-.73,4.99-.73,4.99l-.573.446a5.683,5.683,0,0,1-2.861.911,3.1,3.1,0,0,1-3.264-1.494,2.807,2.807,0,0,1,1.357-3.74,10.141,10.141,0,0,1,3.984-.764s.18-.72-.212-1.07c-.437-.39-.89-.265-1.876-.106a10.686,10.686,0,0,0-2.087.63Zm3.72,3.815s-.5.032-.859.064a5.79,5.79,0,0,0-1.62.35,1.415,1.415,0,0,0-.987,1.388,1.165,1.165,0,0,0,1.251,1.187,3.331,3.331,0,0,0,1.844-.551l.37-2.438ZM870,550.636l.911-6.167a3.464,3.464,0,0,1,1.108-1.913,3.8,3.8,0,0,1,2.41-.853,3.747,3.747,0,0,1,1.876.419,2.347,2.347,0,0,1,.54.407,2.683,2.683,0,0,1,.8-.482,3.85,3.85,0,0,1,1.754-.35,3.107,3.107,0,0,1,2.008.62,1.862,1.862,0,0,1,.6,1.15,3.93,3.93,0,0,1-.022,1.06c-.09.625-.89,6.109-.89,6.109h-2.263s.79-5.4.832-5.717a2.053,2.053,0,0,0-.084-1.25,1.051,1.051,0,0,0-.907-.34c-.3.022-.91.112-1.075,1.092s-.938,6.215-.938,6.215h-2.252s.827-5.616.864-5.913.09-1-.307-1.25a1.133,1.133,0,0,0-1.4.206,2.251,2.251,0,0,0-.456,1.214c-.1.614-.842,5.743-.842,5.743Z" transform="translate(298 4586.868)" fill="#eb008b" fill-rule="evenodd"/></g></svg>