<svg xmlns="http://www.w3.org/2000/svg" width="69.421" height="57.851" viewBox="0 0 69.421 57.851"><g transform="translate(-732 -590.149)"><g transform="translate(729 585.149)"><g transform="translate(3 5)"><path d="M385.975,321.281a1.446,1.446,0,0,0,1.446-1.446V276.446A1.446,1.446,0,0,0,385.975,275H319.446A1.446,1.446,0,0,0,318,276.446v43.388a1.446,1.446,0,0,0,1.446,1.446h14.463a1.446,1.446,0,0,0,0-2.893H320.893v-40.5h63.636v40.5H371.512a1.446,1.446,0,0,0,0,2.893Zm-20.655,8.676H340.091l12.614-13.764Zm-11.543-16.884a1.446,1.446,0,0,0-2.132,0l-15.909,17.355a1.446,1.446,0,0,0,1.066,2.424h31.818a1.446,1.446,0,0,0,1.066-2.424l-3.945-4.3-11.964-13.051Z" transform="translate(-318 -275)" fill-rule="evenodd"/><path d="M365.32,329.956H340.091l12.614-13.764Zm-11.543-16.884a1.446,1.446,0,0,0-2.132,0l-15.909,17.355a1.446,1.446,0,0,0,1.066,2.424h31.818a1.446,1.446,0,0,0,1.066-2.424l-3.945-4.3-11.964-13.051Z" transform="translate(-318 -275)" fill="#1a9afc" fill-rule="evenodd"/></g></g></g></svg>