<svg xmlns="http://www.w3.org/2000/svg" width="87.123" height="89.714" viewBox="0 0 87.123 89.714"><g transform="translate(-6.252 -1578.47)"><g transform="translate(6.252 1578.47)"><path d="M2328.483,1656.655l9.891-6.709c2.537-1.721,3.422-3.492,1.844-6.411l-33.028-61.072c-1.3-2.395-2.358-3.222-5.2-2.911l-15.958,1.743c-1.488.163-3.4.422-4.142,1.844-.653,1.257-.077,2.885.548,4.035l36.526,67.221c.925,1.7,1.888,3.183,3.923,3.7A7.069,7.069,0,0,0,2328.483,1656.655Zm-49.867-8.6a.2.2,0,0,1-.013.408,11.851,11.851,0,0,1-7.635-3.619.2.2,0,0,1,.281-.3A11.46,11.46,0,0,0,2278.616,1648.06Zm-11.733-3.385c-2.021.947-5.21,1.968-7.308,1.739-2.233-.244-2.241-1.831-.81-3.082a23.873,23.873,0,0,1,5.147-3.064c.614-.291.5-.158.178-.8q-.111-.218-.218-.437c-.347-.709-.164-.6-.9-.245a24.648,24.648,0,0,1-3.173,1.271c-1.239.392-4.27,1.24-4.826-.517-.313-.99.415-2.121,1.554-3.2a27.559,27.559,0,0,1,4.617-3.31c.691-.406.54-.217.4-1.037a20.217,20.217,0,0,1-.243-2.107c-.338-5.5,1.658-9.777,6.385-12.642a12.028,12.028,0,0,1,6.954-1.825c.763.062.732.2.373-.476l-11.222-21.079c-1.555-2.921-2.166-6.948,1.244-8.764a9.91,9.91,0,0,1,3.8-.835l9.087-.993c.557-.044.607-.2.924-.648,1.044-1.46,2.648-1.863,4.4-2.054l2.612-.285,15.982-1.746c3.347-.366,4.748.672,6.274,3.493L2341.089,1643c1.849,3.419.879,5.739-2.153,7.8l-9.95,6.749a31.351,31.351,0,0,1-4.185,2.728,7.4,7.4,0,0,1-4.2.828c-.687-.084-.468-.12-1.07.288-2.671,1.812-5.945,4.436-8.787,5.846-4.355,2.16-7.635.491-9.819-3.611l-10.439-19.608c-.367-.86-.3-.467-.749.353a11.082,11.082,0,0,1-4.556,4.684c-5.469,2.974-11.52,1.581-15.939-2.569-.523-.491-1.028-1.018-1.512-1.573C2267.281,1644.394,2267.476,1644.4,2266.883,1644.675Zm-2.688-3.411a22.463,22.463,0,0,0-4.758,2.835c-.549.48-.723.857-.6,1.079.131.238.6.3,1.281.278a17.686,17.686,0,0,0,6.222-1.652c.443-.2.39-.117.1-.507-.431-.587-.84-1.2-1.226-1.821C2264.8,1640.8,2264.972,1640.893,2264.195,1641.263Zm-2.84-7.167a25.538,25.538,0,0,0-4.12,2.984c-.871.825-1.452,1.615-1.282,2.153.262.83,3.019.015,3.542-.15a23.685,23.685,0,0,0,3.041-1.215c.729-.353.705-.19.434-.873a26.293,26.293,0,0,1-.869-2.56C2261.883,1633.66,2262.056,1633.675,2261.354,1634.1Zm6.613-11.159c-.535,4,.628,8.448,2.335,12.072a25,25,0,0,0,7.609,9.59c2.815,2.024,5.729,2.815,8.075,1.893a5.812,5.812,0,0,0,3.118-3.122,1.644,1.644,0,0,0,.082-1.8l-1.848-3.471a4.826,4.826,0,0,1-1.486,2.35c-4.229,3.465-9.891-3.581-11.487-6.971-2.563-5.442-2.017-10.886,1.22-12.158a4.431,4.431,0,0,1,2.771-.092l-2.053-3.857c-.418-.786-.292-.727-1.218-.87C2271.185,1615.892,2268.558,1618.525,2267.967,1622.938Zm.253-4.821c-4.406,2.669-6.208,6.59-5.894,11.71a23.755,23.755,0,0,0,2.676,9.18,26.791,26.791,0,0,0,2.264,3.687,22.24,22.24,0,0,0,2.679,3.046c4.095,3.845,9.672,5.18,14.752,2.417.978-.531.727-.378-.08-.3a11.018,11.018,0,0,1-7.3-2.433,26.026,26.026,0,0,1-7.937-9.982c-1.792-3.8-2.985-8.44-2.423-12.64a10.54,10.54,0,0,1,1.552-4.448c.511-.77.749-.869-.287-.242Zm-1.533-26.856,38.017,69.964c3.91,7.2,8.676,3.109,13.634-.254.683-.464.6-.283-.049-.666a8.08,8.08,0,0,1-2.961-3.52l-9.2-17.273-2.839,1.889c-1.745,1.1-3.471.715-4.376-1.109l-16.837-31.625a1.979,1.979,0,0,1,1.689-3.1l4.051-.45-9.046-16.992a6.767,6.767,0,0,1-.566-1.416l-10.519,1.361a2.043,2.043,0,0,0-1.523.788C2265.764,1589.555,2266.347,1590.634,2266.687,1591.26Zm-1.871-2.347a4.432,4.432,0,0,1,.321-2.421c.208-.452.3-.509-.221-.1-2.136,1.687-1.385,4.816-.235,6.976l37.191,69.858c1.758,3.3,4.239,4.854,7.887,3.337,1.143-.475.978-.345-.031-.39-3.022-.136-4.607-2.046-5.963-4.542l-37.973-69.884A7.953,7.953,0,0,1,2264.817,1588.913Zm1.694-1.587a4.162,4.162,0,0,1,1.05-.267l9.977-1.291c.534-.043.5-.094.475-.458a3.506,3.506,0,0,1,.028-.6c.045-.4.172-.44-.457-.372l-8.511.93c-1.236.135-2.413.357-3.007,1.648C2265.539,1588.06,2265.965,1587.551,2266.51,1587.326Zm71.349,56.073a.2.2,0,0,1,.4.056l-.741,5.271a.2.2,0,0,1-.4-.056Zm1.092,1.734a.2.2,0,0,1,.4.056l-.327,2.323a.2.2,0,0,1-.4-.056ZM2292.64,1583a.306.306,0,0,1-.082-.607l4-.542a.306.306,0,0,1,.082.607Zm-12.035-.631a3.256,3.256,0,0,0-1.168,1.25,3.584,3.584,0,0,0-.389,2,5.235,5.235,0,0,0,.625,2.031l36.586,68.721c.9,1.681,1.877,3.1,3.863,3.607a5.807,5.807,0,0,0,3.6-.334c1.07-.426.982-.331.007-.388a5.885,5.885,0,0,1-1.095-.168c-2.391-.6-3.49-2.232-4.576-4.232l-36.515-67.2c-.81-1.49-1.4-3.376-.565-4.983C2281.392,1581.953,2281.651,1581.722,2280.6,1582.365Z" transform="translate(-2254.904 -1578.47)"/></g></g></svg>