<svg xmlns="http://www.w3.org/2000/svg" width="76.4" height="76.2" viewBox="0 0 76.4 76.2"><g transform="translate(-450.8 -411.8)"><g transform="translate(439 400)"><path d="M40.6,58.5H17a5.228,5.228,0,0,0-5.2,5.2V82.8A5.228,5.228,0,0,0,17,88H40.6a5.228,5.228,0,0,0,5.2-5.2V63.7A5.1,5.1,0,0,0,40.6,58.5Zm2.9,24.3a2.818,2.818,0,0,1-2.9,2.8H17a2.883,2.883,0,0,1-2.9-2.8V63.7A2.9,2.9,0,0,1,17,60.8H40.6a2.9,2.9,0,0,1,2.9,2.9Z"/><path d="M17,55H40.6a5.228,5.228,0,0,0,5.2-5.2V17.2a5.316,5.316,0,0,0-5.2-5.3H25.7a1.155,1.155,0,0,0-1.2,1.2v.8a39.66,39.66,0,0,1-1.7,12.4c-1.8,5.4-5.1,8.1-9.8,8.1a1.155,1.155,0,0,0-1.2,1.2V49.9A5.143,5.143,0,0,0,17,55ZM14.2,36.6c5.1-.4,8.9-3.7,10.9-9.6a41.249,41.249,0,0,0,1.8-12.7H40.7a2.818,2.818,0,0,1,2.8,2.9V49.8a2.8,2.8,0,0,1-2.8,2.8H17a2.883,2.883,0,0,1-2.9-2.8V36.6Z" fill="#1a9afc"/><path d="M29.3,38.7H39a2.476,2.476,0,0,0,2.5-2.5V29.9A2.562,2.562,0,0,0,39,27.3H29.2a2.582,2.582,0,0,0-2.6,2.6v6.3A2.8,2.8,0,0,0,29.3,38.7Zm-.2-8.9a.215.215,0,0,1,.2-.2H39c.1,0,.1.1.1.2v6.3a.349.349,0,0,1-.1.2H29.2a.215.215,0,0,1-.2-.2V29.8Z" fill="#1a9afc"/><path d="M83,58.5H59.4a5.228,5.228,0,0,0-5.2,5.2V82.8A5.228,5.228,0,0,0,59.4,88H83a5.228,5.228,0,0,0,5.2-5.2V63.7A5.164,5.164,0,0,0,83,58.5Zm2.8,24.3A2.8,2.8,0,0,1,83,85.6H59.4a2.8,2.8,0,0,1-2.8-2.8V63.7a2.883,2.883,0,0,1,2.8-2.9H83a2.818,2.818,0,0,1,2.8,2.9Z"/><path d="M87,34.3c-4.8,0-8-2.6-9.8-8.1-1.6-4.6-1.6-9.9-1.7-12.4V13a1.155,1.155,0,0,0-1.2-1.2H59.4a5.25,5.25,0,0,0-5.2,5.3V49.7a5.228,5.228,0,0,0,5.2,5.2H83a5.228,5.228,0,0,0,5.2-5.2V35.5A1.155,1.155,0,0,0,87,34.3ZM85.8,49.8A2.8,2.8,0,0,1,83,52.6H59.4a2.8,2.8,0,0,1-2.8-2.8V17.2a2.883,2.883,0,0,1,2.8-2.9H73.2A41.249,41.249,0,0,0,75,27c2,5.9,5.8,9.2,10.9,9.6V49.8Z"/></g></g></svg>