<svg xmlns="http://www.w3.org/2000/svg" width="47.703" height="82.562" viewBox="0 0 47.703 82.562"><g transform="translate(-954.148 -362.719)"><g transform="translate(930.148 357.719)"><g transform="translate(28.129 30.33)"><path d="M33.754,83.774a1.375,1.375,0,0,1-.816-.269A10.967,10.967,0,0,1,28.5,74.719c.04-27.156.172-40.591.172-40.743a1.376,1.376,0,0,1,1.376-1.364h.013A1.377,1.377,0,0,1,31.426,34c0,.151-.132,13.579-.172,40.721a8.2,8.2,0,0,0,3.32,6.57,1.376,1.376,0,0,1-.82,2.483Z" transform="translate(-28.501 -32.612)" fill="#1a9afc"/></g><g transform="translate(45.771 29.272)"><path d="M58.528,46.633a4.267,4.267,0,0,1-.572-.039,4.136,4.136,0,0,1-2.827-1.746,25.428,25.428,0,0,0-3.6-4.163,26.517,26.517,0,0,0-2.146-1.8,4.127,4.127,0,0,1-.827-5.778,4.151,4.151,0,0,1,3.306-1.652,4.1,4.1,0,0,1,2.472.824,34.615,34.615,0,0,1,2.825,2.364,33.672,33.672,0,0,1,4.764,5.514,4.129,4.129,0,0,1-3.4,6.472Zm-6.665-13.34a2.293,2.293,0,0,0-1.379,4.128,27.991,27.991,0,0,1,2.3,1.921,27.271,27.271,0,0,1,3.857,4.464,2.294,2.294,0,1,0,3.777-2.6,31.83,31.83,0,0,0-4.505-5.214,32.434,32.434,0,0,0-2.673-2.237A2.278,2.278,0,0,0,51.864,33.293Z" transform="translate(-47.733 -31.459)" fill="#1a9afc"/></g><path d="M71.487,62.743c-.014-15.752-6.447-25.816-11.844-31.488-5.016-5.27-11.47-9-17.3-10.162V10.5a5.51,5.51,0,0,0-5.5-5.5H33.812a5.51,5.51,0,0,0-5.5,5.5V21.29a5.484,5.484,0,0,0-1.662,1.167c-2.52,2.6-2.592,7.352-2.429,12.843C24.089,37.891,24.023,63.5,24,74.719A12.857,12.857,0,0,0,36.843,87.562H58.86A12.858,12.858,0,0,0,71.7,74.713C71.684,72.167,71.617,64.03,71.487,62.743ZM30.143,10.5a3.673,3.673,0,0,1,3.669-3.669h3.031A3.673,3.673,0,0,1,40.512,10.5V20.662H30.143ZM58.86,85.727H36.843A11.02,11.02,0,0,1,25.835,74.721c.031-15.246.112-38.3.2-39.278a.89.89,0,0,0,.016-.2c-.115-3.909-.272-9.262,1.912-11.511a4.263,4.263,0,0,1,3.234-1.2h.128c.288,0,1.094.006,2.079.006l5.276-.006c11.117,0,30.975,13.452,30.975,40.255a1.311,1.311,0,0,0,.014.158c.091.639.172,7.562.2,11.768A11.021,11.021,0,0,1,58.86,85.727Z"/><g transform="translate(31.437 8.542)"><path d="M33.254,19.913a1.147,1.147,0,0,1-1.147-1.147V12.121a3.893,3.893,0,0,1,1.4-2.993,1.147,1.147,0,1,1,1.471,1.759,1.6,1.6,0,0,0-.577,1.234v6.646A1.148,1.148,0,0,1,33.254,19.913Z" transform="translate(-32.107 -8.861)" fill="#1a9afc"/></g><g transform="translate(28.301 24.814)"><path d="M30.064,31.033a1.375,1.375,0,0,1-1.376-1.376V27.975a1.376,1.376,0,1,1,2.752,0v1.682A1.375,1.375,0,0,1,30.064,31.033Z" transform="translate(-28.688 -26.599)" fill="#1a9afc"/></g></g></g></svg>