<svg xmlns="http://www.w3.org/2000/svg" width="92.902" height="59.948" viewBox="0 0 92.902 59.948"><g transform="translate(-1159 -382.752)"><g transform="translate(1157 290.652)"><g transform="translate(2 92.1)"><path d="M2,122.074a30,30,0,0,0,29.974,29.974H55.949V92.1H31.974A30,30,0,0,0,2,122.074Zm3,0A27.013,27.013,0,0,1,31.974,95.1h8.979v53.949h-9A27.009,27.009,0,0,1,5,122.074ZM52.95,149.048h-9V95.1h9Z" transform="translate(-2 -92.1)"/><rect width="32.973" height="2.999" transform="translate(59.929 50.95)" fill="#1a9afc"/><rect width="32.973" height="2.999" transform="translate(59.929 35.972)" fill="#1a9afc"/><rect width="32.973" height="2.999" transform="translate(59.929 20.976)" fill="#1a9afc"/><rect width="32.973" height="2.999" transform="translate(59.929 5.998)" fill="#1a9afc"/></g></g></g></svg>