<svg xmlns="http://www.w3.org/2000/svg" xmlns:xlink="http://www.w3.org/1999/xlink" width="653" height="463.068" viewBox="0 0 653 463.068"><defs><clipPath id="a"><circle cx="89.189" cy="89.189" r="89.189"/></clipPath></defs><g transform="translate(-395 -3405.932)"><g transform="translate(-478 2959)"><circle cx="223" cy="223" r="223" transform="translate(873 464)" fill="blue" opacity="0.015"/><circle cx="223" cy="223" r="223" transform="translate(1080 464)" fill="blue" opacity="0.015"/><g transform="translate(1129.514 545.374)"><path d="M1584.6,155.791h50.59a4.213,4.213,0,0,0,4.2-4.2V101a4.213,4.213,0,0,0-4.2-4.2H1584.6a4.213,4.213,0,0,0-4.2,4.2v50.59A4.194,4.194,0,0,0,1584.6,155.791Z" transform="translate(-1580.4 -96.8)" fill="blue" opacity="0.02"/><path d="M1495.271,267.129h32.286a5.968,5.968,0,0,0,5.971-5.971V228.871a5.968,5.968,0,0,0-5.971-5.971h-32.286a5.967,5.967,0,0,0-5.971,5.971v32.286A5.967,5.967,0,0,0,1495.271,267.129Z" transform="translate(-1447.202 -185.063)" fill="blue" opacity="0.02"/></g><g transform="translate(1385.857 687.065)"><path d="M303.141,1131.066h81.985a4.14,4.14,0,0,0,4.14-4.14V1044.94a4.14,4.14,0,0,0-4.14-4.14H303.141a4.14,4.14,0,0,0-4.14,4.14v81.985A4.125,4.125,0,0,0,303.141,1131.066Z" transform="translate(-299 -1018.655)" fill="blue" opacity="0.03"/><path d="M211.681,992.609h37.647a3.072,3.072,0,0,0,3.081-3.081V951.881a3.072,3.072,0,0,0-3.081-3.081H211.681a3.072,3.072,0,0,0-3.081,3.081v37.647A3.072,3.072,0,0,0,211.681,992.609Z" transform="translate(-140.383 -948.8)" fill="blue" opacity="0.03"/></g><g transform="translate(895.506 674.636)"><path d="M372.841,1118.191H302.55a3.55,3.55,0,0,1-3.55-3.55V1044.35a3.55,3.55,0,0,1,3.55-3.55h70.292a3.55,3.55,0,0,1,3.55,3.55v70.291A3.536,3.536,0,0,1,372.841,1118.191Z" transform="translate(-280.344 -1021.813)" fill="blue" opacity="0.03"/><path d="M243.519,986.36H211.242a2.634,2.634,0,0,1-2.642-2.642V951.442a2.634,2.634,0,0,1,2.642-2.642h32.277a2.634,2.634,0,0,1,2.642,2.642v32.277A2.634,2.634,0,0,1,243.519,986.36Z" transform="translate(-208.6 -948.8)" fill="blue" opacity="0.03"/></g><g transform="translate(1393.621 554.384)"><path d="M306.032,142.957h31.861a7.164,7.164,0,0,0,7.163-7.163v-31.83a7.164,7.164,0,0,0-7.163-7.163h-31.83a7.164,7.164,0,0,0-7.163,7.163v31.83A7.158,7.158,0,0,0,306.032,142.957Z" transform="translate(-270.714 -96.8)" fill="blue" opacity="0.03"/><path d="M407.293,237.588h30.8a5.782,5.782,0,0,0,5.793-5.793v-30.8A5.782,5.782,0,0,0,438.1,195.2h-30.8a5.782,5.782,0,0,0-5.793,5.793v30.8A5.8,5.8,0,0,0,407.293,237.588Z" transform="translate(-401.5 -164.553)" fill="blue" opacity="0.03"/></g></g><g transform="translate(449.636 3359.832)"><circle cx="89.189" cy="89.189" r="89.189" transform="translate(349.351 114.963)" fill="#1a9afc"/><path d="M415.495,234.7c-5.051,8.87-19.341,5.42-19.341,5.42l-.616,7.145L394.43,260.2a90.067,90.067,0,0,1-28.457,4.681,88.751,88.751,0,0,1-37.573-8.254V189.246c.246-7.884,6.9-12.073,11.7-13.551,4.558-1.478,9.609-3.7,9.978-3.819,0,.123-.123.246-.37.493-2.094,3.326-12.442,20.449-3.7,28.7,9.732,9.239,18.109-4.8,21.189-8.623,3.08-3.7,10.471-20.08,10.717-20.7h0a33.412,33.412,0,0,0,11.21-1.725c5.544-1.848,24.515-.739,27.471,13.551,2.957,14.413,3.942,42.254-1.109,51.124Z" transform="translate(72.444 28.58)" fill="#3599aa"/><g transform="translate(413.102 220.783)"><path d="M387,188.9s10.594,13.428,12.689,20.449,1.109,11.949.862,9.239c-.123-2.71.986-7.022-6.529-12.2C386.509,201.342,387,188.9,387,188.9Z" transform="translate(-327.071 -187.668)" fill="#2d7288"/><path d="M393.354,242.966,392.245,255.9a92.409,92.409,0,0,1-21.189,4.312c2.587-1.109,4.8-2.464,5.913-4.065,4.928-6.9-.862-20.326-11.087-17.493s-21.558,4.681-25.747,1.725c-4.188-2.833-1.6-2.094,14.167-4.8,15.768-2.587,28.21-22.051,28.21-20.449a33.232,33.232,0,0,1,2.217-5.544c1.6-3.572,1.725-18.109,1.725-21.681v25.254s-4.928,9.239.986,21.928a22.175,22.175,0,0,0,5.913,7.884Z" transform="translate(-338.351 -187.9)" fill="#2d7288" opacity="0.52"/></g><path d="M376.572,183.158a1.228,1.228,0,0,0,.493.123h0c-.246.616-7.638,17-10.717,20.7-3.08,3.819-11.457,17.862-21.189,8.623-8.746-8.377,1.478-25.377,3.7-28.7a6.613,6.613,0,0,1,3.7-.862v-4.065a17.016,17.016,0,0,1-8.131,0h0a13.97,13.97,0,0,1-8.993-7.145c-5.051-9.239-.246-29.073.862-33.631a9.05,9.05,0,0,1,.246-.986s3.08-7.391,7.391-12.2,12.935-10.471,27.471,3.08c9.362,8.746,7.391,24.515,4.681,35.971-1.478,6.406-3.2,11.457-3.326,13.181a5.541,5.541,0,0,0,3.572,5.667c0,.123.123.123.246.246Z" transform="translate(73.547 17.052)" fill="#fdcea2"/><path d="M372.945,176.519h0L348.8,172.577v-1.971s5.42-.862,12.565-5.544a51.99,51.99,0,0,0,10.964-9.362c-1.478,6.406-3.2,11.457-3.326,13.181a5.541,5.541,0,0,0,3.572,5.667.43.43,0,0,1,.246.123Z" transform="translate(77.174 25.416)" fill="#ed8671"/><path d="M397.468,165.633c-.616,8.746-11.333,15.891-19.833,19.094-5.544,2.094-10.1,2.587-10.225.739-.246-4.558,6.9-23.529,4.681-30.551s-9.116-4.928-13.92-13.551a138.732,138.732,0,0,1-6.9-13.8,34.428,34.428,0,0,1-6.159,9.116c-3.819,3.819-7.515,3.326-7.515,3.326-1.232,4.558-5.913,24.392-.862,33.631A14.766,14.766,0,0,0,342.9,179.8a16.714,16.714,0,0,0,2.833,1.109c-.37.246-4.928,3.326-7.884,1.848-3.08-1.478-15.522-23.9-8.993-39.79,6.406-16.015,17.123-29.812,25.993-30.551s12.689,3.819,12.689,3.819,10.964-2.833,18.355,5.42c7.268,8.007,12.565,29.442,11.58,43.979Z" transform="translate(72.115 15.359)" fill="#fcb355"/><path d="M348.8,122.967s3.2,13.92,14.66,21.065S371.1,165.96,371.1,165.96s11.087-.123,11.58-12.565c.493-12.565-1.725-21.312-8.131-28.21s-9.486-9.239-13.181-7.145-5.913,0-4.188,4.8c1.848,4.8,4.065,4.312,6.283,10.225l2.217,5.913s-6.9-7.145-9.486-12.2-2.957-5.667-4.188-5.667-3.2,1.848-3.2,1.848Z" transform="translate(77.174 16.511)" fill="#ffca57" opacity="0.54"/><path d="M396.022,231.739l-1.725,20.08c-.246.123-.493.123-.739.246a70.734,70.734,0,0,0-8.5-19.094c-6.529-10.225,3.7-24.145,4.188-25.007-.37.616-6.036,10.348-3.326,15.029C388.877,227.674,396.022,231.739,396.022,231.739Zm-62.95-3.326a198.614,198.614,0,0,0,3.08,22.913c-2.217-.739-4.435-1.725-6.652-2.587a46,46,0,0,0,.986-8.377c.493-22.174,0-19.341,1.725-26.239,1.6-6.652,4.681-8.377,4.928-8.623C336.768,205.993,332.087,214,333.072,228.413Z" transform="translate(72.699 36.964)" fill="#2d7288"/><path d="M375.241,162.782a5.358,5.358,0,0,0,.739.862l-2.464,3.449a2.981,2.981,0,0,1-4.188.616L361.69,161.3a3.021,3.021,0,0,1-.493-3.942l2.957-3.942c1.355-.123,3.573-.246,4.435.493C370.19,155.144,373.763,160.688,375.241,162.782Zm12.073-15.4-.986,1.355c-2.341-3.572-9.239-9.239-11.7-9.362l.123-.123.739-.862a3.021,3.021,0,0,1,3.942-.493l7.268,5.42A3.049,3.049,0,0,1,387.314,147.383Z" transform="translate(79.929 21.167)" fill="#1e2433"/><path d="M400.02,234.8c-4.928,6.529-14.66,2.957-16.138.493s-3.2-16.138-3.572-32.029c-.246-12.935-.616-27.964-1.232-34h0a15.088,15.088,0,0,0-.37-2.587h0c-.616-1.355-1.848-1.848-3.2-3.2-.246-.246-.493-.616-.739-.862-1.6-2.094-5.174-7.638-6.529-8.87-.986-.739-3.08-.616-4.435-.493l-1.355.246s-1.109-3.08,1.355-4.681c2.464-1.478,3.326-1.478,3.326-1.478s-.493-2.587.986-3.7,2.341-.862,2.341-.862.739-3.7,3.7-3.573c2.587.123,9.486,5.79,11.7,9.362a3.592,3.592,0,0,1,.739,1.848c.246,3.08,1.355,14.66,1.848,18.725s8.746,31.66,11.457,43.609c.985,4.435,1.971,7.884,2.464,10.594C403.469,227.651,403.1,230.607,400.02,234.8Z" transform="translate(80.281 21.589)" fill="#fdcea2"/><path d="M396.842,229.137c-4.928,6.529-14.66,2.957-16.138.493s-3.2-16.138-3.572-32.029c-.246-12.935-.616-27.964-1.232-34,.616,4.681,1.971,14.536,2.587,23.652.986,12.565,4.928,33.508,12.442,36.464,5.3,2.094,7.515-3.08,8.377-6.283.986,4.558.616,7.515-2.464,11.7Z" transform="translate(83.459 27.248)" fill="#ed8671" opacity="0.36"/><path d="M386.826,162.6s3.08,34.37,8.5,46.689c5.42,12.442,6.652,3.326,5.667-7.884S386.826,162.6,386.826,162.6Zm-38.558,15.891s8.623,2.094,7.391,4.8-9.732,9.116-11.21,2.587C342.971,179.477,348.268,178.491,348.268,178.491Z" transform="translate(76.105 27.016)" fill="#fff" opacity="0.25"/><path d="M342.053,174.467c-.37.123-5.79,2.094-10.594-13.8-5.051-16.384,5.42-25.87,5.42-25.87-1.232,4.558-5.913,24.392-.862,33.631a14.92,14.92,0,0,0,6.036,6.036Z" transform="translate(72.834 20.569)" fill="#f68e59"/><path d="M337.311,201.061s-4.8,28.087,13.058,25.5,38.066-33.877,29.812-33.015-18.848,18.109-29.812,16.507c-10.964-1.478-13.058-8.993-13.058-8.993Zm68.37-24.761s-.862,5.667,1.971,19.71c2.833,13.92,9.116,13.428,7.391,0C413.2,182.583,405.681,176.3,405.681,176.3Z" transform="translate(74.374 30.193)" fill="#fff" opacity="0.14"/><circle cx="89.189" cy="89.189" r="89.189" transform="translate(149.537 50.042)" fill="#1a9afc"/><g transform="translate(149.537 50.042)" clip-path="url(#a)"><path d="M211.667,108.168,189,86.857,201.935,75.4l20.326,22.42Z" transform="translate(-109.42 -43.248)" fill="#524e58"/><path d="M210.587,105.534,191,87.178,202.087,77.2,219.7,96.541Z" transform="translate(-108.956 -42.83)" fill="#3e3c43"/><g transform="translate(-18.484 42.375)"><path d="M220.583,104.178s-3.449-.862-2.341-4.928c.986-4.065-.616-5.051-.616-5.051L205.8,105.657s5.79,5.544,7.515,5.79C215.039,111.816,222.307,106.4,220.583,104.178Z" transform="translate(-87.04 -81.263)" fill="#efaa87"/><path d="M227.736,108.215l-7.884-5.3-5.174-5.544c-1.355-1.848,3.942-1.355,5.42.493a8.463,8.463,0,0,0,3.942,2.833c1.109.37,7.515.739,8.746,2.71C234.142,105.259,227.736,108.215,227.736,108.215Zm9.732-13.92a.9.9,0,0,1-1.6-.123c-.739-1.355-.616-4.312,1.109-3.573,1.725.616.493,3.7.493,3.7Zm-2.217-4.065S235,92.447,233.9,91.461s-2.217-4.681-.246-4.681C235.374,86.9,235.251,90.229,235.251,90.229Zm-3.2-3.2s0,2.71-1.232,1.971c-.986-.616-2.341-5.42-.37-5.3,1.848,0,1.6,3.326,1.6,3.326ZM130.663,243.354s-4.188,2.957-6.775,2.464a21.889,21.889,0,0,0-7.145.123c-1.478.246-6.529-.493-6.036,1.232.616,1.848,8.377,1.725,9.978,1.971,1.725.246-3.449,4.681-3.7,6.283-.123,1.6,9.362,10.1,12.442,6.529,3.08-3.449,3.7-9.362,4.435-9.855a18.914,18.914,0,0,0,2.341-2.464l-5.544-6.283Z" transform="translate(-109.1 -83.698)" fill="#efaa87"/><path d="M117.9,222.2s-8.746,11.333-8.5,12.565c.123,1.232.862,1.725,1.725.739s8.746-10.594,8.746-10.594-7.638,15.275-7.761,16.261c-.123.616,1.355,1.6,1.848,1.109s9.116-15.152,9.116-15.152-7.145,14.29-6.9,15.152c.123.862,1.725,1.478,2.217.493.616-.986,8.13-13.8,8.13-13.8s-4.435,10.717-3.819,11.58c.37.493,1.6,1.355,2.587-1.478,1.109-2.833,4.312-9.116,4.312-9.116L117.9,222.2Z" transform="translate(-109.396 -51.58)" fill="#efaa87"/></g><path d="M121.8,240.859s8.746,6.9,12.2,6.036c2.833-.739,23.036-27.964,31.29-41.268a41.14,41.14,0,0,0,3.326-6.159c2.341-6.9,4.8-27.348,4.8-27.348s7.391,20.573,8.377,30.428c.493,4.435,1.478,10.471,2.464,15.768a74.613,74.613,0,0,0,31.413,6.9,73.523,73.523,0,0,0,30.8-6.652c-1.109-8.87-2.833-23.283-1.355-31.536,1.725-9.855.246-26.732.246-26.732l27.594,8.254c2.833.862,10.348-3.7,12.319-8.254S240.431,100.3,240.431,100.3l-10.841,9.239,13.3,22.79c-1.478-.986-31.044-11.7-31.044-11.7l-22.544-.123c-1.6.246-22.3,10.348-25.254,12.935-2.71,2.217-9.609,44.595-12.2,55.682a8.436,8.436,0,0,1-.739,2.464c-1.725,3.326-29.319,49.276-29.319,49.276Z" transform="translate(-125.003 -37.473)" fill="#5d64a2"/><path d="M176.5,120.727c.616,2.587,19.957,17.37,19.957,17.37s4.435-16.507,2.587-17.247c-.739-.246-1.109-1.6-1.232-3.08a23.254,23.254,0,0,1-.246-3.942v-.986s-2.587-2.341-5.913-5.051c-5.79-4.8-13.551-10.964-13.428-8.377a.741.741,0,0,0,.123.493c1.848,5.913-1.848,20.819-1.848,20.819Z" transform="translate(-112.318 -37.82)" fill="#efaa87"/><g transform="translate(58.022 81.675)"><path d="M194.794,116.2l5.544,2.464-2.464,22.174-5.174-6.775Z" transform="translate(-166.584 -115.461)" fill="#474c7b"/><path d="M178.029,115.6l19.587,18.6-2.587,7.515L171.5,119.3Zm29.319,56.421c-.739,8.623-.493,14.044,1.6,23.776,1.355,6.283,1.478,16.631,1.6,20.573,0,1.971.123,3.7.123,5.174a12.139,12.139,0,0,0,2.094-.246c0-1.355-.123-2.957-.123-4.8-.123-4.065-.493-15.029-1.848-21.558-2.094-9.732-2.217-14.29-1.478-22.667,1.232-14.044-9.609-31.413-9.732-31.66l-1.355.37c0,.123,10.348,17.123,9.116,31.044Z" transform="translate(-171.5 -115.6)" fill="#474c7b"/></g><path d="M191.7,136.725s1.478,26.855,18.848,30.8,40.529,18.971,47.3,27.348l8.254,10.964v-12.2s-3.449-20.08-54.819-28.334c0,0-14.783-.862-14.167-29.073C197,136.232,191.577,135.616,191.7,136.725Z" transform="translate(-108.794 -29.181)" fill="#4b3f47"/><path d="M180.9,104.3h0a29.57,29.57,0,0,0,2.217,2.464c2.833,3.08,8.131,8.007,13.674,9.732a23.254,23.254,0,0,1-.246-3.942,3.41,3.41,0,0,0,1.6-.37,61.27,61.27,0,0,0-4.065-5.051L180.9,104.3Z" transform="translate(-111.298 -36.546)" fill="#a87861"/><path d="M179.4,104.863l3.572,6.283a9.035,9.035,0,0,0,2.217,2.464c2.957,2.71,8.5,6.283,13.551,5.79a3.41,3.41,0,0,0,1.6-.37,7.918,7.918,0,0,0,5.42-4.435c8.87-21.312-.123-37.45-.123-37.45s-29.319-5.79-33.015,3.2c-2.587,6.159,2.833,17.37,6.775,24.515Z" transform="translate(-113.373 -43.268)" fill="#efaa87"/><path d="M206.7,80.016s4.065-6.036,4.435-11.21c.246-5.051-.37-6.406-.37-6.406s-8.377,2.587-12.689,2.217c-4.312-.246-20.942-.862-23.16,2.094,0,0-6.036-.862-6.9,9.116-1.355,15.891,11.333,29.935,11.333,29.935s-.986-10.1,1.109-11.58,4.312,1.478,4.312,1.478l4.681.493s-8.254-14.536.123-15.768c8.377-1.109,12.319.862,17.123-.37Z" transform="translate(-114.309 -46.262)" fill="#515254"/><path d="M182.846,87.032c-.739-4.435-9.116-5.544-8.131-.862.862,4.681,5.3,8.87,7.145,8.623C183.585,94.423,183.338,90.358,182.846,87.032Z" transform="translate(-112.751 -41.452)" fill="#efaa87"/><path d="M197.922,136.984a6.1,6.1,0,0,1-7.022.493s1.478-6.529,2.341-6.775C193.98,130.455,198.291,135.752,197.922,136.984Z" transform="translate(-108.979 -30.425)" fill="#4b3f47"/><path d="M214.3,123.9l18.6,21.312-11.58-18.478Z" transform="translate(-103.553 -32.001)" fill="#33385a"/></g><path d="M312.918,46.1H289.389A21.187,21.187,0,0,0,268.2,67.289v9.362A21.187,21.187,0,0,0,289.389,97.84h4.681a2.339,2.339,0,0,1,2.341,2.341v8.5l10.1-10.1a2.237,2.237,0,0,1,1.725-.739h4.681a21.187,21.187,0,0,0,21.189-21.189V67.289A21.187,21.187,0,0,0,312.918,46.1Zm-28.21,30.551a4.681,4.681,0,1,1,4.681-4.681,4.681,4.681,0,0,1-4.681,4.681Zm16.384,0a4.681,4.681,0,1,1,4.681-4.681,4.529,4.529,0,0,1-4.681,4.681Zm16.507,0a4.681,4.681,0,1,1,4.681-4.681,4.681,4.681,0,0,1-4.681,4.681Z" transform="translate(58.484 0)" fill="#ffd348"/><path d="M298.865,63.3a4.681,4.681,0,1,0,4.681,4.681A4.529,4.529,0,0,0,298.865,63.3Zm16.507,0a4.681,4.681,0,1,0,4.681,4.681A4.681,4.681,0,0,0,315.373,63.3Zm-32.892,0a4.681,4.681,0,1,0,4.681,4.681A4.681,4.681,0,0,0,282.481,63.3Z" transform="translate(60.71 3.989)" fill="#fff"/><path d="M272.721,228.009v8.007a18.138,18.138,0,0,1-18.109,18.109h-4.065a1.978,1.978,0,0,0-1.355.616l-8.623,8.623V256.1a1.946,1.946,0,0,0-1.971-1.971h-4.188A18.138,18.138,0,0,1,216.3,236.016v-8.007A18.138,18.138,0,0,1,234.409,209.9h20.2A18.138,18.138,0,0,1,272.721,228.009Z" transform="translate(46.448 37.984)" fill="#4cb58d"/><path d="M229.159,227.431a2.213,2.213,0,0,0-.37-1.355,1.428,1.428,0,0,0-1.232-.493c-1.232,0-1.848.862-1.848,2.464h-2.464A4.926,4.926,0,0,1,224.6,224.6a4.825,4.825,0,0,1,3.2-1.109,4.61,4.61,0,0,1,3.08.986,3.622,3.622,0,0,1,1.109,2.71,5.618,5.618,0,0,1-.739,2.71,12.367,12.367,0,0,1-1.971,2.464,20.453,20.453,0,0,1-2.587,1.971h5.544v2.094H223v-1.848C227.065,231.619,229.159,229.278,229.159,227.431Zm4.065,6.529v-2.094l6.159-8.254h2.71v8.131h1.725v2.217h-1.725v2.587h-2.587V233.96h-6.283Zm6.529-7.391-3.819,5.174h3.819ZM251.58,219.3l-4.928,20.449h-2.464l4.928-20.449Zm8.5,6.159L255.4,236.423h-2.587l4.681-10.717H251.58v-2.217h8.5v1.971Z" transform="translate(48.002 40.164)" fill="#fff"/><path d="M123.479,162.789v9.486c0,11.7-8.746,21.189-19.587,21.189H99.58a2.238,2.238,0,0,0-2.217,2.341v8.5L88,194.2a1.986,1.986,0,0,0-1.6-.739H82.087c-10.841,0-19.587-9.486-19.587-21.189v-9.486c0-11.7,8.746-21.189,19.587-21.189h21.8c10.841.123,19.587,9.609,19.587,21.189Z" transform="translate(10.783 22.146)" fill="#b2d56d"/><path d="M101.793,170.957a14.055,14.055,0,0,1-5.051-.862,2.089,2.089,0,0,0-2.217.493l-3.2,2.587a17.92,17.92,0,0,1-7.884-8.623l2.341-3.326a2.521,2.521,0,0,0,.493-2.464,19.939,19.939,0,0,1-.862-5.42A2.238,2.238,0,0,0,83.191,151H78.017a2.316,2.316,0,0,0-2.217,2.341c0,15.4,11.58,27.964,25.87,27.964a2.316,2.316,0,0,0,2.217-2.341v-5.544a2.121,2.121,0,0,0-2.094-2.464Z" transform="translate(13.867 24.326)" fill="#fff"/><path d="M432.124,281.564l-2.957-7.145a17.439,17.439,0,0,0-22.79-9.362l-3.572,1.478a1.571,1.571,0,0,1-1.478,0L390.486,262.1l2.71,6.406a1.99,1.99,0,0,1-1.109,2.587l-3.572,1.478a17.439,17.439,0,0,0-9.362,22.79l2.957,7.145a17.439,17.439,0,0,0,22.79,9.362l17.862-7.391a17.62,17.62,0,0,0,9.362-22.913Zm-35.355,10.594a3.866,3.866,0,1,1-5.051-2.094A3.846,3.846,0,0,1,396.769,292.158Zm12.442-5.3a3.866,3.866,0,1,1-5.051-2.094A3.952,3.952,0,0,1,409.211,286.861Zm12.442-5.174a3.866,3.866,0,1,1-5.051-2.094A3.907,3.907,0,0,1,421.653,281.687Z" transform="translate(83.901 50.089)" fill="#3599aa"/><path d="M407.046,283.627a3.866,3.866,0,1,0-2.094,5.051A3.805,3.805,0,0,0,407.046,283.627Zm12.442-5.174a3.866,3.866,0,1,0-2.094,5.051A3.712,3.712,0,0,0,419.488,278.453ZM394.6,288.924a3.866,3.866,0,1,0-2.094,5.051A3.952,3.952,0,0,0,394.6,288.924Z" transform="translate(86.066 53.323)" fill="#fff"/><circle cx="25.87" cy="25.87" r="25.87" transform="translate(402.199 353.334)" fill="#d86aa6"/><path d="M365.695,307.2H340.933a2.784,2.784,0,0,0-2.833,2.833v17.123a2.784,2.784,0,0,0,2.833,2.833h24.761a2.784,2.784,0,0,0,2.833-2.833V310.033a2.784,2.784,0,0,0-2.833-2.833Zm0,1.848a.453.453,0,0,1,.37.123l-12.812,11.087-12.812-11.087c.123,0,.246-.123.37-.123Zm0,19.094H340.933a.972.972,0,0,1-.986-.986V311.142l12.689,11.087a.893.893,0,0,0,1.232,0l12.688-11.087v16.015c.123.616-.246.986-.862.986Z" transform="translate(74.693 60.547)" fill="#fff"/><path d="M465.4,393.157a11.775,11.775,0,0,1-3.2,8.131,10.78,10.78,0,0,1-7.884,3.326H27.087A11.281,11.281,0,0,1,16,393.157a9.186,9.186,0,0,1,.493-3.2,11.03,11.03,0,0,1,2.833-4.928A10.779,10.779,0,0,1,27.21,381.7H454.431a10.627,10.627,0,0,1,4.435.986A11.457,11.457,0,0,1,465.4,393.157Z" transform="translate(0 77.824)" fill="#f89b57"/><path d="M465.4,392.994a11.775,11.775,0,0,1-3.2,8.13,10.779,10.779,0,0,1-7.884,3.326H27.087A11.281,11.281,0,0,1,16,392.994a9.186,9.186,0,0,1,.493-3.2c8.377,4.188,25.007,7.638,57.283,7.638,84.015,0,371.663,5.3,381.764-4.558a11.22,11.22,0,0,0,3.326-10.471A11.779,11.779,0,0,1,465.4,392.994Z" transform="translate(0 77.986)" fill="#f36f3b"/><path d="M93.3,385.924s100.892,6.652,204.987,6.9,134.646-5.544,119.74-6.9c-15.029-1.478-324.727,0-324.727,0Z" transform="translate(17.925 78.651)" fill="#fec865"/><path d="M239.759,375.488s9.362.739,11.7,0,6.036,4.312,7.022,4.312h3.2a22.232,22.232,0,0,0-3.819-3.326c-2.833-2.094-3.942-2.217-3.942-2.217s5.051-.37,7.761,1.478c2.71,1.971,1.848,3.449,4.435,3.449,2.464.123,6.652-.986,6.9-3.449s-5.667-5.913-11.826-6.9-13.058,2.217-20.7.616C232.614,367.851,239.759,375.488,239.759,375.488Z" transform="translate(51.2 74.796)" fill="#fbbfa1"/><path d="M263.182,388.865s-2.833,1.725-3.7,3.326a11.336,11.336,0,0,0-1.109,2.833H224.993s-26.978-1.6-41.145-3.7c-3.819-.616-6.652-1.109-7.884-1.725a9.547,9.547,0,0,1-2.587-2.464c-4.435-5.913-8.377-19.218-9.362-23.283l-3.7-13.674-2.587-44.841L156.5,284.4s13.8,4.188,15.645,10.225c1.725,6.036,17.493,55.928,19.957,65.29l3.7,13.551s28.95,5.667,40.283,8.746c11.21,3.08,27.1,6.652,27.1,6.652Z" transform="translate(32.581 55.26)" fill="#1a9afc"/><path d="M259.254,388.736a11.336,11.336,0,0,0-1.109,2.833H224.761s-26.978-1.6-41.145-3.7l-10.471-4.188c-4.435-5.913-8.377-19.218-9.362-23.283l-3.7-13.674L157.5,301.887a25.8,25.8,0,0,1,1.848-2.587s8.377,19.094,8.87,28.826c.37,9.732-2.094,19.341,2.217,31.536s-2.833,22.913,39.174,26.609S259.254,388.736,259.254,388.736Z" transform="translate(32.813 58.716)" fill="#0674c9" opacity="0.7"/><path d="M191.2,383.67s2.464-7.638,9.978-9.239,12.442-2.217,17,1.848,5.667,7.268,5.667,7.268H191.2v.123Z" transform="translate(40.628 75.854)" fill="#2c285b"/><path d="M226.27,379.048c-1.109.37-2.464,1.355-4.928-1.725a13.34,13.34,0,0,0-5.913-3.942,28.071,28.071,0,0,1,2.833,3.942,22.271,22.271,0,0,1,1.971,3.942c0,.37-2.71,2.464-4.435,0a45.285,45.285,0,0,0-4.8-5.667,21.041,21.041,0,0,1-4.558,4.435A9.886,9.886,0,0,1,199.292,382c-5.913-.493-10.1-4.065-15.275-1.478a14.494,14.494,0,0,1-2.464.862c-5.667,1.478-14.167.986-14.167.986s.616-.493,1.478-1.109c-1.478-.123-2.464-.246-2.464-.246L176.5,368.7s.493.123,1.355.246c3.2.616,10.964,2.094,13.551,1.971,3.326-.123,8.87-.739,15.152-1.109s13.3-1.6,16.384,1.109c3.326,2.957,4.435,7.761,3.326,8.13Z" transform="translate(34.877 74.809)" fill="#fbbfa1"/><path d="M181.652,381.589c-5.667,1.478-14.167.986-14.167.986s.616-.493,1.478-1.109c-1.478-.123-2.464-.246-2.464-.246L176.6,368.9s.493.123,1.355.246a9.034,9.034,0,0,0-.739,6.652A9.51,9.51,0,0,0,181.652,381.589Z" transform="translate(34.9 74.855)" fill="#ed8671"/><path d="M172.248,277.321c-1.971,2.833-4.312,5.544-8.131,5.42-2.833-.123-5.544-.862-8.377-1.109l-2.833,15.152-.246,3.572-.37,7.145-1.355,22.42-31.783-20.2-.616-14.044,3.449-8.13a130.64,130.64,0,0,0,4.558-12.812,12.005,12.005,0,0,0,.616-3.449,14.581,14.581,0,0,0-.246-4.681c-1.109-4.928-4.681-8.993-9.732-14.783-7.391-8.623-10.717-20.2-6.652-35.232,3.942-15.029,46.442-26.978,61.472-8.87,15.275,17.986,4.188,63.812.246,69.6Z" transform="translate(21.514 35.361)" fill="#fbbfa1"/><path d="M171.613,210.487s-6.159,26.363-23.9,35.479c-17.862,9.116-22.544,8.007-30.8,0s-6.9-26.363-6.9-26.363-7.145,6.775-3.2,27.718c3.819,20.819,8.254,26.855,3.819,37.819-4.435,11.087-25.254,15.645-23.652,9.239s4.681-4.188,1.109-17.123S76.511,228.35,89.2,218.494s20.08-5.79,20.08-5.79,2.957-17.247,32.4-19.834c29.442-2.464,39.051,7.391,46.442,22.3,7.391,14.783-2.217,27.471-2.217,27.471s-.37-12.812-4.188-21.065c-3.942-8.254-10.1-11.087-10.1-11.087Z" transform="translate(15.374 33.948)" fill="#39143f"/><path d="M159.808,203.773s-2.587,28.457-20.08,33.631-30.428-9.486-30.428-9.486,15.768,9.732,30.428-.986,11.333-20.573,11.333-20.573-4.558,16.877-16.754,18.6c-12.2,1.6-23.16-4.928-23.16-4.928s19.71,10.348,24.761-7.268c4.928-17.493,12.565-17.123,17.986-15.645a8.023,8.023,0,0,1,5.913,6.652Z" transform="translate(21.636 34.872)" fill="#491c51"/><path d="M152.3,268.852,149.47,284l-.246,3.572-.739.616s-11.457-8.131-16.631-17.247c-2.341-4.065-5.3-8.746-8.007-12.565a14.581,14.581,0,0,0-.246-4.681,89.947,89.947,0,0,0,16.261,10.594c9.855,4.928,12.442,4.558,12.442,4.558Z" transform="translate(24.952 48.141)" fill="#ed8671"/><path d="M202.96,388.962c-.493-.123-7.391-.986-17.616-2.217-.246-.739-.616-1.478-.862-2.217-2.094-5.79-3.942-12.812-2.71-17,1.6-5.913,5.544-11.7,7.884-18.109a26.648,26.648,0,0,0,1.725-7.022c.986-9.486-9.732-37.45-5.79-43.732,3.942-6.159,5.42-8.254-1.6-11.7a51.567,51.567,0,0,0-12.319-4.312,1.274,1.274,0,0,1-.493-.123l-5.79-.37c-1.232,5.79-3.326,15.522-2.71,16.384h0l-1.725.123c-.616-.862-1.478-1.971-2.71-3.572-2.094-2.587-11.7-9.609-19.094-14.783L124.242,279.2s-30.551,5.79-33.508,10.717-42.624,90.421-39.3,99.167c.616,1.725,3.2,3.449,6.775,4.928,14.783,6.406,47.921,11.21,47.921,11.21h90.051a80.9,80.9,0,0,1,2.217-8.377c0-.123.123-.246.123-.37,1.109-3.326,6.283-7.022,4.435-7.515ZM108.72,364.57a50.188,50.188,0,0,1-2.464,12.812l-15.645-1.6H86.546l14.29-29.935,3.819-7.884s4.435,16.138,4.065,26.609Z" transform="translate(8.172 54.055)" fill="#1a9afc"/><g transform="translate(163.211 332.023)"><path d="M154.656,304.07c-.616.986-4.435-5.174-7.022-7.145-1.971-1.478-3.942,1.109-5.051,1.848-.37.246-.739.37-.862.123h0c-.616-.862,1.478-10.594,2.71-16.384.616-2.464.986-4.312.986-4.312s4.558,1.355,5.051,3.7a3.808,3.808,0,0,0,.246.986c.986,4.681,4.558,20.326,3.942,21.189Z" transform="translate(-134.083 -278.2)" fill="#0474c9"/><path d="M148.189,331.611c-.986,11.333-4.928,20.2-7.145,27.225S138.58,379.9,138.58,379.9l-1.355-.123-1.725-.246s0-14.29,3.326-26.116,5.174-18.232,5.3-26.486c.246-7.515-5.667-27.225-6.775-30.8a2.156,2.156,0,0,1-.123-.616l4.188-.37,1.725-.123L144,294.9s5.174,25.377,4.188,36.71Z" transform="translate(-135.5 -274.327)" fill="#0674c9"/></g><path d="M171.47,378.9,96.2,370.031a51.228,51.228,0,0,0,2.464-12.812c.246-10.471-4.065-26.609-4.065-26.609s6.036-17.123,8.007-19.094-2.464,31.29,11.58,47.3c11.457,13.058,45.7,18.478,57.283,20.08Z" transform="translate(18.227 61.529)" fill="#0674c9" opacity="0.7"/><path d="M86.6,360.7s96.088,8.007,94.24,11.826c-1.971,3.819-14.783,10.964-51.616,3.326C92.267,368.215,86.6,360.7,86.6,360.7Z" transform="translate(16.372 72.954)" fill="#0674c9" opacity="0.28"/><path d="M96.789,333.4,82.5,363.335s-16.015,4.928-13.551,1.6c2.464-3.2,16.384-9.609,24.761-26.362a17.577,17.577,0,0,1,3.08-5.174Z" transform="translate(12.219 66.623)" fill="#0674c9" opacity="0.7"/><path d="M88.906,294.9s6.9,17.37-1.355,32.768-15.4,37.326-24.392,41.515c-9.116,4.065-3.819-5.3,9.116-34.739Z" transform="translate(9.877 57.695)" fill="#0674c9" opacity="0.28"/><path d="M196.99,375.433a80.9,80.9,0,0,0-2.217,8.377H104.721s-33.138-4.8-47.921-11.21a168.894,168.894,0,0,0,35.232,6.529c38.189,3.326,95.472,4.065,100.276,0a46.318,46.318,0,0,1,4.681-3.7Z" transform="translate(9.461 75.713)" fill="#0674c9" opacity="0.7"/><path d="M147.58,301.932c-.493,0-2.341-.739-4.435-1.355-3.08-.862-6.9-1.232-9.362,1.355-4.065,4.558-4.065,10.717-5.544,8.254s-17.616-27.225-17.739-29.812c-.123-2.71,6.036-5.174,6.036-5.174l8.87,6.159c7.391,5.174,17,12.2,19.094,14.783,1.232,1.478,2.094,2.71,2.71,3.572,1.109,1.6,1.109,2.217.37,2.217Z" transform="translate(21.914 53.127)" fill="#0474c9"/><path d="M115,278.2s4.065,9.978,8.007,14.906,16.877,6.652,15.275,2.464C136.558,291.628,115,278.2,115,278.2Z" transform="translate(22.958 53.823)" fill="#1a9afc" opacity="0.5"/><path d="M170.336,371.332c-7.391-1.109-15.768-3.942-19.957-7.145-5.544-4.188,12.565,3.7,14.413,2.217s2.833-12.073-17.616-12.935-30.921-8.254-34.123-12.2c-3.08-3.942,19.587,7.884,40.529,4.558,11.333-1.725,18.109-6.159,21.928-9.732-2.341,6.529-6.159,12.2-7.884,18.109C166.394,358.521,168.242,365.542,170.336,371.332Z" transform="translate(22.441 67.249)" fill="#0674c9" opacity="0.35"/><path d="M118.6,310.666a6.63,6.63,0,0,0-6.529,8.87,24.006,24.006,0,0,0,15.768,15.275c18.971,6.159,43.363.616,42.131-9.732s-13.181-23.9-33.754-17.247C128.213,310.3,122.546,310.912,118.6,310.666Z" transform="translate(22.187 60.285)" fill="#0674c9" opacity="0.28"/><circle cx="13.428" cy="13.428" r="13.428" transform="translate(129.088 269.196)" fill="#2c285b"/><circle cx="13.428" cy="13.428" r="13.428" transform="translate(125.146 268.087)" fill="#4e4293"/><path d="M122.626,239.313a5.914,5.914,0,0,1-5.913,5.913,5.837,5.837,0,0,1-5.913-5.913,5.914,5.914,0,0,1,5.913-5.913A5.837,5.837,0,0,1,122.626,239.313Z" transform="translate(21.984 43.434)" fill="#5c5da9"/><path d="M156.44,264.637h-.123l-19.71-1.725a11.444,11.444,0,0,1-8.377-4.681l-13.674-18.725a1.745,1.745,0,0,1,.37-2.341,1.632,1.632,0,0,1,2.341.37l13.8,18.848a7.72,7.72,0,0,0,5.913,3.326l19.71,1.725a1.629,1.629,0,0,1,1.478,1.725,1.727,1.727,0,0,1-1.725,1.478Z" transform="translate(22.786 44.226)" fill="#6a69b0"/><path d="M153.654,262.091H149.1a3.63,3.63,0,0,1-3.7-3.7h0a3.63,3.63,0,0,1,3.7-3.7h4.558a3.63,3.63,0,0,1,3.7,3.7h0A3.63,3.63,0,0,1,153.654,262.091Z" transform="translate(30.007 48.373)" fill="#2c285b"/><path d="M147.746,193.084s-11.087.739-17.739,10.225c-6.652,9.362-3.819,20.942-4.928,22.174s-3.2.616-3.326,2.341c-.123.862,0,2.957,0,4.8,0,1.6.123,3.08.123,3.08l-6.775-.986s.123-1.971.123-4.188-.246-4.558-.986-5.3c-1.478-1.355-3.08-.37-3.326-3.942-.37-3.572.37-22.544,14.906-28.21C140.231,187.295,147.746,193.084,147.746,193.084Z" transform="translate(21.995 33.488)" fill="#4e4293"/><path d="M92.691,283.332s10.717-13.058,3.7-32.892-6.406-25.007-1.6-33.015c4.681-8.007,13.428-6.775,12.935-5.79s-2.341,1.478-5.544,8.5c-3.08,7.022,2.833,31.413,4.312,44.841s-9.362,20.7-7.022,18.355l-2.341,2.217s5.913-7.761,6.283-13.3l.37-5.544s-6.159,17.247-10.471,20.2S92.691,283.332,92.691,283.332Z" transform="translate(17.425 38.22)" fill="#491c51"/><path d="M114.3,227.088l.123-4.188a8.285,8.285,0,0,0,1.355.862,14.489,14.489,0,0,0,5.174,1.232l.123,3.08Z" transform="translate(22.795 40.999)" fill="#2c285b"/><path d="M137.483,192.517s-8.007-1.848-14.167,11.333-6.9,21.8-8.746,17.123-2.957-9.362,3.449-18.725C124.3,192.886,137.483,192.517,137.483,192.517Z" transform="translate(22.525 33.933)" fill="#6a69b0" opacity="0.3"/><path d="M344.2,293.257v67.261a11.514,11.514,0,0,1-11.457,11.457H229.757A11.514,11.514,0,0,1,218.3,360.518V293.257A11.514,11.514,0,0,1,229.757,281.8H332.743A11.514,11.514,0,0,1,344.2,293.257Z" transform="translate(46.912 54.657)" fill="#b6dce5"/><g transform="translate(260.777 336.457)"><path d="M230.468,371.975h-4.312A11.514,11.514,0,0,1,214.7,360.518V293.257A11.514,11.514,0,0,1,226.157,281.8h4.312a11.514,11.514,0,0,0-11.457,11.457v67.261A11.6,11.6,0,0,0,230.468,371.975Z" transform="translate(-214.7 -281.8)" fill="#78b1ba"/><path d="M296.639,338.686a.8.8,0,0,1-.739-.739V295.939a.739.739,0,1,1,1.478,0v42.008a.8.8,0,0,1-.739.739Z" transform="translate(-195.87 -278.693)" fill="#78b1ba"/><path d="M300.739,338.686a.8.8,0,0,1-.739-.739V295.939a.739.739,0,1,1,1.478,0v42.008C301.355,338.316,301.109,338.686,300.739,338.686Z" transform="translate(-194.919 -278.693)" fill="#78b1ba"/><path d="M304.739,338.686a.8.8,0,0,1-.739-.739V295.939a.739.739,0,1,1,1.478,0v42.008A.71.71,0,0,1,304.739,338.686Z" transform="translate(-193.992 -278.693)" fill="#78b1ba"/><path d="M296.639,338.686a.8.8,0,0,1-.739-.739V295.939a.739.739,0,1,1,1.478,0v42.008a.8.8,0,0,1-.739.739Z" transform="translate(-180.841 -278.693)" fill="#78b1ba"/><path d="M300.739,338.686a.8.8,0,0,1-.739-.739V295.939a.739.739,0,1,1,1.478,0v42.008C301.355,338.316,301.109,338.686,300.739,338.686Z" transform="translate(-179.89 -278.693)" fill="#78b1ba"/><path d="M304.739,338.686a.8.8,0,0,1-.739-.739V295.939a.739.739,0,1,1,1.478,0v42.008A.71.71,0,0,1,304.739,338.686Z" transform="translate(-288.971 -278.693)" fill="#78b1ba"/><path d="M296.639,338.686a.8.8,0,0,1-.739-.739V295.939a.739.739,0,1,1,1.478,0v42.008a.8.8,0,0,1-.739.739Z" transform="translate(-275.82 -278.693)" fill="#78b1ba"/><path d="M296.639,338.686a.8.8,0,0,1-.739-.739V295.939a.739.739,0,1,1,1.478,0v42.008a.8.8,0,0,1-.739.739Z" transform="translate(-270.769 -278.693)" fill="#78b1ba"/><path d="M304.739,338.686a.8.8,0,0,1-.739-.739V295.939a.739.739,0,1,1,1.478,0v42.008A.71.71,0,0,1,304.739,338.686Z" transform="translate(-273.942 -278.693)" fill="#78b1ba"/><path d="M296.639,338.686a.8.8,0,0,1-.739-.739V295.939a.739.739,0,1,1,1.478,0v42.008a.8.8,0,0,1-.739.739Z" transform="translate(-260.791 -278.693)" fill="#78b1ba"/><path d="M344.2,335.925v12.442a11.514,11.514,0,0,1-11.457,11.457H229.757A11.514,11.514,0,0,1,218.3,348.367V334.2c12.319,6.9,33.015,12.442,67.631,12.442C311.554,346.642,330.4,342.207,344.2,335.925Z" transform="translate(-213.865 -269.649)" fill="#78b1ba" opacity="0.62"/></g><path d="M306.853,388.224a4.157,4.157,0,0,1-.493,1.478,14.534,14.534,0,0,1-8.623,7.145H268.418s5.051-1.478,3.572-8.623a36.388,36.388,0,0,0-.985-4.065l-3.942-14.044c-2.957-10.225-6.406-22.3-8.13-30.8a46.975,46.975,0,0,1-1.232-8.377c0-9.978,7.145-14.29,11.457-14.29a24.825,24.825,0,0,0,2.833-.123c5.544-.246,15.029-.616,18.6,2.957,4.065,4.065,2.957,15.768,6.529,31.536.246.986.37,1.848.616,2.833.123.246.123.616.246.862,4.065,15.4,10.1,27.225,8.87,33.508Z" transform="translate(56.049 62.677)" fill="#ccebf2"/><path d="M273.642,396.859H235.7v-4.312h25.747c8.623,0,11.457-1.478,9.978-9.978-1.478-8.623-14.29-48.66-12.935-58.638,1.355-9.732,17.616-7.391,18.6-7.268-1.109,0-2.094.123-2.833.123-4.312,0-11.457,4.312-11.457,14.29s12.935,50.015,14.29,57.283c1.478,7.022-3.449,8.5-3.449,8.5Z" transform="translate(50.947 62.665)" fill="#78b1ba"/><path d="M297.751,350.5c-5.79-.246-12.073.616-17.37,4.188-6.036,4.065-10.964,7.761-13.551,11.21-2.957-10.225-6.406-22.3-8.131-30.8,3.449,3.449,9.116,7.022,18.478,9.239a92.166,92.166,0,0,0,19.71,2.587c.246.986.37,1.848.616,2.833A1.041,1.041,0,0,1,297.751,350.5Zm8.87,33.384a4.156,4.156,0,0,1-.493,1.478,14.534,14.534,0,0,1-8.623,7.145H268.186s5.051-1.478,3.572-8.623a36.388,36.388,0,0,0-.986-4.065c9.486,6.775,22.544,9.239,35.848,4.065Z" transform="translate(56.281 67.017)" fill="#78b1ba" opacity="0.35"/><path d="M343.916,357.8h-3.942v-1.6H309.3v24.638a7.078,7.078,0,0,0,7.145,6.775h16.384a7.168,7.168,0,0,0,6.9-5.174h4.188a2.712,2.712,0,0,0,.986-.123,7.156,7.156,0,0,0,6.159-7.022V364.946a7.15,7.15,0,0,0-7.145-7.145Zm4.065,17.247a4.255,4.255,0,0,1-3.326,4.188c-.246,0-.616.123-.986.123h-3.819v-18.6h3.819a4.365,4.365,0,0,1,4.312,4.312Z" transform="translate(68.015 71.91)" fill="#2c285b"/><path d="M344.9,382.316c-.246,0-.616.123-.986.123h-4.188a7.168,7.168,0,0,1-6.9,5.174H316.445a7.165,7.165,0,0,1-7.145-6.775c3.08.739,8.007,1.232,15.4.493,16.261-1.725,16.261-18.355,12.2-14.906s-22.913,10.1-23.283,7.391c-.37-2.587,12.935-6.529,18.971-9.855,3.08-1.725,4.928-4.928,6.159-7.761H340.1v1.6h1.6c.123.986.37,1.971.616,3.08h-2.094V379.36h3.819a2.712,2.712,0,0,0,.986-.123A8.847,8.847,0,0,0,344.9,382.316Z" transform="translate(68.015 71.91)" fill="#36357b"/></g></g></svg>