<svg xmlns="http://www.w3.org/2000/svg" width="58.78" height="31.74" viewBox="0 0 58.78 31.74"><g transform="translate(-390 -5112)"><g transform="translate(-526.22 4531.681)"><path d="M960.51,588.78a2.68,2.68,0,1,0,2.68,2.68A2.68,2.68,0,0,0,960.51,588.78Zm0,4.05a1.37,1.37,0,1,1,1.37-1.37A1.372,1.372,0,0,1,960.51,592.83Zm-12.28-4.05a2.68,2.68,0,1,0,2.68,2.68A2.68,2.68,0,0,0,948.23,588.78Zm0,4.05a1.37,1.37,0,1,1,1.37-1.37A1.372,1.372,0,0,1,948.23,592.83Z" fill="#1d1d1b"/><path d="M957.13,593.01c-.46,0-.56-.16-.56-.6v-2.48h1.1V588.9h-1.1v-1.46h-1.23l-.26,1.46h-.93a1.762,1.762,0,0,0-1.57,1.1l-.43-1.1h-.88v5.14h1.51v-2.23c0-1.13.67-1.85,1.45-1.87h.83v2.56a1.436,1.436,0,0,0,1.62,1.65,3.468,3.468,0,0,0,1.15-.19l-.17-1.04A4.5,4.5,0,0,1,957.13,593.01Zm9.38-4.23a2.4,2.4,0,0,0-1.77.9l-.3-.78h-.89v5.14h1.48v-3.51l-.07-.2.07.2a1.241,1.241,0,0,1,.93-.5.693.693,0,0,1,.77.68v3.34h1.5v-3.38A1.714,1.714,0,0,0,966.51,588.78Zm-22.86,2.66-2.31-4.4h-1.68v7h1.39V589.2l2.47,4.84h1.52v-7h-1.39Z" fill="#1d1d1b"/><path d="M965.08,584.41h-38.1a9.92,9.92,0,0,0,0,19.84h38.1a9.92,9.92,0,0,0,0-19.84Zm0,19.06h-38.1a9.14,9.14,0,0,1,0-18.28h38.1a9.14,9.14,0,0,1,0,18.28Zm6.96-17.57h.29v-1.24h.36v-.25h-1.01v.25h.36Zm1.1-1.16.3,1.16h.21l.3-1.16h.01v1.16h.24v-1.49h-.39l-.27.97-.25-.97h-.39v1.49h.24Z" fill="#b1b1b1"/><path d="M941.06,598.07c-.6-.2-.91-.3-.91-.73,0-.36.27-.53.73-.53a2.049,2.049,0,0,1,.97.24l.28-.58a2.534,2.534,0,0,0-1.27-.3c-.82,0-1.43.42-1.43,1.19,0,.82.57,1.11,1.15,1.32.65.23,1.04.35,1.04.8,0,.4-.31.63-.82.63a2.1,2.1,0,0,1-1.23-.4l-.36.54a2.592,2.592,0,0,0,1.59.5c.99,0,1.54-.51,1.54-1.28C942.37,598.56,941.68,598.27,941.06,598.07Zm3.38.6h1.5v-.6h-1.5v-1.22h1.89v-.61h-2.64v4.45h2.76v-.62h-2.01Zm4.97,1.41c-.72,0-1.07-.52-1.07-1.56,0-1.1.34-1.7,1.06-1.7a1.1,1.1,0,0,1,.85.39l.44-.5a1.614,1.614,0,0,0-1.3-.54c-1.24,0-1.86,1-1.86,2.3s.6,2.28,1.87,2.28a1.668,1.668,0,0,0,1.37-.64l-.44-.49A1.233,1.233,0,0,1,949.41,600.08Zm4.94-.96c0,.61-.16,1.01-.8,1.01s-.8-.4-.8-1.01v-2.88H952v2.75c0,1.1.42,1.76,1.55,1.76s1.57-.66,1.57-1.76v-2.75h-.77Zm5.33-1.58c0-.98-.7-1.3-1.6-1.3h-1.45v4.45h.75V598.8h.7l.85,1.89h.82l-.92-2A1.156,1.156,0,0,0,959.68,597.54Zm-1.63.68h-.67v-1.37h.72c.51,0,.8.18.8.67S958.63,598.22,958.05,598.22Zm3.75.45h1.5v-.6h-1.5v-1.22h1.9v-.61h-2.65v4.45h2.76v-.62H961.8Zm4.39-2.43h-1.11v4.45h1.15c1.4,0,2.11-.8,2.11-2.24A1.934,1.934,0,0,0,966.19,596.24Zm-.04,3.84h-.31v-3.22h.4c1.02,0,1.3.59,1.3,1.6C967.54,599.59,967.19,600.07,966.15,600.08Z" fill="#b1b1b1"/><path d="M926.93,605.03a10.7,10.7,0,1,1,10.7-10.7v.01a10.71,10.71,0,0,1-10.7,10.69m0-18.02a7.31,7.31,0,0,0-7.31,7.31v.02a7.326,7.326,0,1,0,7.31-7.33m11.66-5.03h.83v.83h-.83Zm0-1.66h.83v.84h-.83Zm-2.34,2.49h.78v.81h-.78Z" fill="#fcc200"/><path d="M934.7,584.41h.79v.78h-.79Zm2.32-.79h.87v.79h-.87Zm-3.1.04h.78v.75h-.78Zm2.33.75h.78v.78h-.78Zm1.52-3.26h.83v.83h-.83Zm-1.52.83h1.52v.83h-1.52Zm-.76.83h.76v1.6h-.76Z" fill="#1d1d1b"/><path d="M935.49,585.19v.79h-.79v-.79h-1.3v.57h-.7v.7h.78v.77h-.78v-.78h-.83v1.22h-.78v.78h-.52v.78H930a43.88,43.88,0,0,0-2.74,5.15c-1.76-2.44-3.12-3.41-4.2-3.76-.58-.17-1.28.46-.31,1.45a17.793,17.793,0,0,1,3.58,6.05c.36.85,1.95.98,2.27.12a26.155,26.155,0,0,1,2.83-5.55v-.87h.62v-.79h.65v-.91h.78v-.88h-.8v-.8h.8v.8h.77v-.79h.62v-.95h.7v-.66h.67v-1.65Z" fill="#1d1d1b"/><path d="M921.83,608.65a1.032,1.032,0,0,0-.87.48v-.43h-.57v3.33h.59v-1.17a1.035,1.035,0,0,0,.86.45,1.336,1.336,0,0,0-.01-2.66Zm.6,1.34a.753.753,0,0,1-.73.82.77.77,0,0,1-.75-.789h0v-.03a.772.772,0,0,1,.72-.82h.02a.745.745,0,0,1,.73.78C922.43,609.96,922.43,609.97,922.43,609.99Zm2.44-1.34a1.34,1.34,0,0,0-1.37,1.309h0v.03a1.319,1.319,0,0,0,1.31,1.33h.04a1.34,1.34,0,0,0,1.37-1.31v-.02a1.327,1.327,0,0,0-1.31-1.34Zm.78,1.35a.77.77,0,0,1-.72.81h-.05a.8.8,0,0,1-.78-.82.763.763,0,0,1,.72-.81h.05a.79.79,0,0,1,.78.82Zm3.62.46-.57-1.77h-.5l-.57,1.77-.51-1.76h-.6l.83,2.58h.52l.58-1.75.57,1.75h.52l.84-2.58h-.59Zm2.66-1.81a1.272,1.272,0,0,0-1.25,1.29v.04a1.275,1.275,0,0,0,1.22,1.33h.1a1.338,1.338,0,0,0,1.05-.48l-.34-.3a.917.917,0,0,1-.69.3.722.722,0,0,1-.74-.65h1.88c0-.06.01-.11.01-.16A1.26,1.26,0,0,0,931.93,608.65Zm-.67,1.15a.655.655,0,1,1,1.31,0Zm3.09-.52v-.58h-.59v2.56h.59v-.97c0-.68.36-1.01.87-1.01h.03v-.62A.9.9,0,0,0,934.35,609.28Zm2.5-.63a1.272,1.272,0,0,0-1.25,1.29v.04a1.275,1.275,0,0,0,1.22,1.33h.1a1.307,1.307,0,0,0,1.05-.48l-.34-.3a.917.917,0,0,1-.69.3.722.722,0,0,1-.74-.65h1.88c0-.06.01-.11.01-.16A1.26,1.26,0,0,0,936.85,608.65Zm-.67,1.15a.655.655,0,1,1,1.31,0Zm4.43-.7a1.08,1.08,0,0,0-.87-.45,1.338,1.338,0,0,0,0,2.66,1.032,1.032,0,0,0,.87-.48v.43h.59v-3.53h-.59Zm0,.89a.778.778,0,0,1-.72.82h-.02a.76.76,0,0,1-.74-.779h0v-.04a.748.748,0,0,1,.74-.82.762.762,0,0,1,.74.79Zm4.22-1.34a1.032,1.032,0,0,0-.87.48v-1.4h-.59v3.54h.59v-.4a1.066,1.066,0,0,0,.87.45,1.343,1.343,0,0,0,0-2.67Zm.6,1.34a.753.753,0,0,1-.73.82.77.77,0,0,1-.75-.789h0v-.03a.778.778,0,0,1,.72-.82h.03a.745.745,0,0,1,.73.78Zm2.84-1.29-.66,1.9-.73-1.9h-.62l1.07,2.56c-.1.22-.2.3-.36.3a.674.674,0,0,1-.34-.1l-.2.44a1.252,1.252,0,0,0,.6.16c.41,0,.64-.2.84-.72l1.02-2.63Z" fill="#b1b1b1"/><path d="M952.29,610.48l-1.02-2.61h-.66l1.41,3.42h.52l1.41-3.42h-.64Zm3.03-1.83a1.263,1.263,0,0,0-1.25,1.28v.05a1.282,1.282,0,0,0,1.22,1.33h.09a1.338,1.338,0,0,0,1.05-.48l-.34-.3a.917.917,0,0,1-.69.3.722.722,0,0,1-.74-.65h1.88c0-.06.01-.11.01-.16A1.235,1.235,0,0,0,955.32,608.65Zm-.66,1.15a.655.655,0,1,1,1.31,0Zm3.09-.52v-.58h-.59v2.56h.59v-.97c0-.68.36-1.01.87-1.01h.03v-.62A.886.886,0,0,0,957.75,609.28Zm1.4-.58h.59v2.56h-.59Zm-.02-.95h.63v.56h-.63Zm2.75,1.55c-.65-.15-.8-.27-.8-.53v-.01c0-.22.2-.4.55-.4a1.54,1.54,0,0,1,.92.35l.32-.45a1.963,1.963,0,0,0-1.23-.43,1.039,1.039,0,0,0-1.16.98c0,.63.4.84,1.13,1.01.63.14.77.28.77.52v.01c0,.26-.23.42-.6.42a1.54,1.54,0,0,1-1.07-.44l-.36.43a2.106,2.106,0,0,0,1.41.54c.71,0,1.21-.38,1.21-1.01C962.97,609.72,962.6,609.47,961.88,609.3Zm1.74-1.55h.63v.56h-.63Zm.02.95h.59v2.56h-.59Zm3.26.39a1.113,1.113,0,0,0-.9-.44,1.138,1.138,0,0,0-1.16,1.14v.07a1.151,1.151,0,0,0,1.1,1.2H966a1.075,1.075,0,0,0,.9-.47v.2a.712.712,0,0,1-.8.78,1.643,1.643,0,0,1-.91-.27l-.22.44a2.3,2.3,0,0,0,1.14.31,1.435,1.435,0,0,0,1.05-.34,1.292,1.292,0,0,0,.32-.96v-2.04h-.59Zm0,.77a.715.715,0,0,1-.73.7h-.02a.694.694,0,0,1-.72-.667v-.033a.685.685,0,0,1,.68-.7h.05a.722.722,0,0,1,.75.68C966.9,609.84,966.9,609.85,966.9,609.86Zm2.73-1.21a.931.931,0,0,0-.8.45v-.4h-.59v2.56h.59v-1.44a.57.57,0,0,1,.5-.63h.08c.35,0,.55.23.55.62v1.45h.59v-1.63A.9.9,0,0,0,969.63,608.65Z" fill="#a40344"/></g></g></svg>