<svg xmlns="http://www.w3.org/2000/svg" width="15.337" height="16.097" viewBox="0 0 15.337 16.097"><g transform="translate(-276.934 -49)"><g transform="translate(276.935 49)"><path d="M15.757,10.86,14.014,4.577A6.249,6.249,0,0,0,1.89,4.893L.542,10.961A2.011,2.011,0,0,0,2.5,13.408H4.923a3.352,3.352,0,0,0,6.57,0H13.82a2.011,2.011,0,0,0,1.938-2.548ZM8.208,14.749A2.011,2.011,0,0,1,6.32,13.408H10.1a2.011,2.011,0,0,1-1.888,1.341ZM14.353,11.8a.666.666,0,0,1-.536.265H2.5a.67.67,0,0,1-.654-.816L3.2,5.183a4.908,4.908,0,0,1,9.521-.249l1.743,6.283a.666.666,0,0,1-.109.585Z" transform="translate(-0.494 0.004)" fill="#c3c3c3"/></g></g></svg>