<svg xmlns="http://www.w3.org/2000/svg" width="31.43" height="19.999" viewBox="0 0 31.43 19.999"><g transform="translate(-1406 -5123)"><path d="M849.21,652.327h1.22V651.1h-1.22Zm-7.077-5.175a2.445,2.445,0,0,1-.057.508,5.447,5.447,0,0,1-1.525,2.818,2.526,2.526,0,0,1-1.356.746c-.1,0-.177-.015-.262-.192a2.14,2.14,0,0,1,.144-1.513,6.043,6.043,0,0,1,1.355-2.058,2.3,2.3,0,0,1,1.4-.748c.136,0,.29,0,.3.438Zm-8.8-.873-.034.19a.833.833,0,0,1-.406-.45.347.347,0,0,1,.08-.413.369.369,0,0,1,.226-.1.054.054,0,0,1,.026.005C833.348,645.634,833.405,645.8,833.329,646.279Zm-3.7.825a3.233,3.233,0,0,1-.15.706,5.474,5.474,0,0,1-1.83,2.954,1.578,1.578,0,0,1-.937.466.434.434,0,0,1-.38-.2,1.538,1.538,0,0,1,0-1.37,5.766,5.766,0,0,1,2.065-2.494,3.738,3.738,0,0,1,.624-.306,1.471,1.471,0,0,1,.5-.122c.048,0,.074.008.074.006C829.6,646.754,829.647,646.823,829.626,647.1Zm20.056-2.208a6.421,6.421,0,0,0,.522-4.271,1.73,1.73,0,0,0-1.762-1.251c-1.574.048-2.182,2.02-2.475,2.967a31.834,31.834,0,0,0-1.308,7.745l-.144.106a3.966,3.966,0,0,1-1.144.688,1.259,1.259,0,0,1-.113-.506c-.03-.37.006-1.333.035-2.106.018-.475.033-.885.032-1.126v-.007a1.471,1.471,0,0,0-1.49-1.615,3.43,3.43,0,0,0-2.25,1.1,7.249,7.249,0,0,0-1.624,2.478,4.407,4.407,0,0,0-.3,1.376c-.1.078-.2.153-.3.225-.864.58-1.112.38-1.192.315-.393-.318-.016-1.286.317-2.14a4.136,4.136,0,0,0,.464-2.178.6.6,0,0,0-.71-.454.581.581,0,0,0-.172.067,5.009,5.009,0,0,1-1.6.36c.015-.071.026-.138.037-.2a1.965,1.965,0,0,0-.453-1.811,1.345,1.345,0,0,0-1.684-.09,1.543,1.543,0,0,0-.6,1.867,2.022,2.022,0,0,0,1.2,1.2,8.646,8.646,0,0,1-2.1,3.566,13.32,13.32,0,0,1-.071-3.644c.01-.18.017-.31.019-.38a1.6,1.6,0,0,0-.348-1.245,1.245,1.245,0,0,0-.952-.39,2.587,2.587,0,0,0-.93.2,4.919,4.919,0,0,0-.829.41,6.885,6.885,0,0,0-2.542,3.071,2.689,2.689,0,0,0,.128,2.476,1.636,1.636,0,0,0,1.365.724,2.69,2.69,0,0,0,1.722-.76,7.081,7.081,0,0,0,1.139-1.221c.076,1.093.3,1.674.7,1.93a.871.871,0,0,0,.477.142,1.007,1.007,0,0,0,.466-.12c1.282-.671,2.378-2.834,2.94-4.534.093,0,.191,0,.291,0a6.564,6.564,0,0,0,1.208-.167c-.08.244-.184.508-.276.747-.457,1.172-1.026,2.632.043,3.5.659.534,1.515.462,2.545-.21a1.406,1.406,0,0,0,1.236.685,3.737,3.737,0,0,0,2.192-1.086,6.628,6.628,0,0,0,.687-.794,1.664,1.664,0,0,0,.8,1.438,1.126,1.126,0,0,0,.472.1,2.426,2.426,0,0,0,1.261-.48q-.031,2.27.139,4.536l1.15-.721q-.151-2.339-.072-4.682a7.558,7.558,0,0,1,2.335-1.152l.507-1.281a6.257,6.257,0,0,0-2.757.964,29.925,29.925,0,0,1,1.2-6.564c.2-.63.65-2.1,1.377-2.128.257-.01.459.062.593.45a5.221,5.221,0,0,1-.305,3Zm-21.4-1.3a5.644,5.644,0,0,1-4.968,1.17c.666-3.105,1.818-6.11,3.668-7.136a2.111,2.111,0,0,1,1.882-.09,2.044,2.044,0,0,1,1.18,1.363,4.993,4.993,0,0,1-1.764,4.692Zm2.96-4.985a3.286,3.286,0,0,0-1.883-2.2,3.331,3.331,0,0,0-2.975.142c-2.274,1.261-3.533,4.569-4.224,7.685a5.021,5.021,0,0,1-2.068-3.087l-1.092.684a6.107,6.107,0,0,0,2.9,3.68,40.075,40.075,0,0,0-.57,4.994l0,.079q-.084,1.538-.031,3.078l1.213-.761c-.012-.984.029-1.837.05-2.258l0-.08a37.793,37.793,0,0,1,.515-4.587,6.894,6.894,0,0,0,5.955-1.407,6.152,6.152,0,0,0,2.208-5.963Z" transform="translate(587 4486.869)" fill="#00b1dd" fill-rule="evenodd"/></g></svg>