<svg xmlns="http://www.w3.org/2000/svg" width="9.97" height="12.685" viewBox="0 0 9.97 12.685"><g transform="translate(-1532 -4671.001)"><g transform="translate(1498.819 4671.001)"><path d="M41.858,1.3a4.865,4.865,0,0,0-3.4-1.3,5.348,5.348,0,0,0-3.945,1.521,4.494,4.494,0,0,0-1.33,3.115,2.923,2.923,0,0,0,1.58,2.9.523.523,0,0,0,.2.041.442.442,0,0,0,.431-.356c.033-.126.111-.436.144-.57a.535.535,0,0,0-.143-.579,1.844,1.844,0,0,1-.419-1.26A3.171,3.171,0,0,1,38.26,1.62a2.447,2.447,0,0,1,2.747,2.513,5.222,5.222,0,0,1-.593,2.551A1.755,1.755,0,0,1,38.962,7.7a.962.962,0,0,1-.765-.35.88.88,0,0,1-.154-.765c.076-.32.179-.653.278-.976a6.037,6.037,0,0,0,.354-1.589,1.153,1.153,0,0,0-1.161-1.269c-.882,0-1.574.9-1.574,2.04a3.034,3.034,0,0,0,.217,1.142c-.111.471-.772,3.271-.9,3.8-.072.308-.509,2.743.214,2.937.812.218,1.537-2.153,1.611-2.421.06-.218.269-1.042.4-1.548a2.454,2.454,0,0,0,1.637.633,3.651,3.651,0,0,0,2.931-1.466,5.887,5.887,0,0,0,1.1-3.6A4.151,4.151,0,0,0,41.858,1.3Z" fill="#848484"/></g></g></svg>