<svg xmlns="http://www.w3.org/2000/svg" xmlns:xlink="http://www.w3.org/1999/xlink" width="978" height="807" viewBox="0 0 978 807"><defs><clipPath id="a"><rect width="978" height="807" transform="translate(421 1385)" fill="#fff" stroke="#707070" stroke-width="1"/></clipPath></defs><g transform="translate(-421 -1385)"><g clip-path="url(#a)"><g transform="translate(-223.602 1124.455)"><circle cx="212" cy="212" r="212" transform="translate(873.602 464.545)" fill="blue" opacity="0.015"/><circle cx="212" cy="212" r="212" transform="translate(1070.602 464.545)" fill="blue" opacity="0.015"/><g transform="translate(1117.445 541.658)"><path d="M1584.4,152.985h48.183a4.013,4.013,0,0,0,4-4V100.8a4.013,4.013,0,0,0-4-4H1584.4a4.013,4.013,0,0,0-4,4v48.183A3.994,3.994,0,0,0,1584.4,152.985Z" transform="translate(-1580.4 -96.8)" fill="blue" opacity="0.02"/><path d="M1494.987,265.024h30.75a5.684,5.684,0,0,0,5.687-5.687v-30.75a5.684,5.684,0,0,0-5.687-5.687h-30.75a5.684,5.684,0,0,0-5.687,5.687v30.75A5.684,5.684,0,0,0,1494.987,265.024Z" transform="translate(-1449.205 -186.863)" fill="blue" opacity="0.02"/></g><g transform="translate(1361.592 676.607)"><path d="M302.944,1126.771h78.084a3.943,3.943,0,0,0,3.943-3.943v-78.084a3.943,3.943,0,0,0-3.943-3.943H302.944a3.943,3.943,0,0,0-3.943,3.943v78.084A3.928,3.928,0,0,0,302.944,1126.771Z" transform="translate(-299 -1019.708)" fill="blue" opacity="0.03"/><path d="M211.534,990.525H247.39a2.925,2.925,0,0,0,2.934-2.934V951.734a2.925,2.925,0,0,0-2.934-2.934H211.534a2.926,2.926,0,0,0-2.934,2.934V987.59A2.925,2.925,0,0,0,211.534,990.525Z" transform="translate(-143.629 -948.8)" fill="blue" opacity="0.03"/></g><g transform="translate(894.571 664.769)"><path d="M369.328,1114.509H302.381a3.381,3.381,0,0,1-3.381-3.381v-66.947a3.381,3.381,0,0,1,3.381-3.381h66.947a3.381,3.381,0,0,1,3.381,3.381v66.947A3.368,3.368,0,0,1,369.328,1114.509Z" transform="translate(-281.231 -1022.717)" fill="blue" opacity="0.03"/><path d="M241.857,984.573H211.116a2.508,2.508,0,0,1-2.516-2.516V951.316a2.508,2.508,0,0,1,2.516-2.516h30.741a2.508,2.508,0,0,1,2.516,2.516v30.741A2.508,2.508,0,0,1,241.857,984.573Z" transform="translate(-208.6 -948.8)" fill="blue" opacity="0.03"/></g><g transform="translate(1368.986 550.239)"><path d="M305.693,140.761h30.345a6.823,6.823,0,0,0,6.823-6.823V103.623a6.824,6.824,0,0,0-6.823-6.823H305.723a6.824,6.824,0,0,0-6.823,6.823v30.316A6.817,6.817,0,0,0,305.693,140.761Z" transform="translate(-272.055 -96.8)" fill="blue" opacity="0.03"/><path d="M407.017,235.572h29.337a5.507,5.507,0,0,0,5.517-5.517V200.717a5.507,5.507,0,0,0-5.517-5.517H407.017a5.507,5.507,0,0,0-5.517,5.517v29.337A5.526,5.526,0,0,0,407.017,235.572Z" transform="translate(-401.5 -166.011)" fill="blue" opacity="0.03"/></g></g><g transform="translate(-423.571 47.555)"><g transform="translate(1318 1867.382)"><rect width="127.967" height="86.644" transform="translate(1.788 36.001)" fill="#fff" stroke="#263238" stroke-linecap="round" stroke-linejoin="round" stroke-width="1"/><line x2="45.403" transform="translate(2.047 103.921)" fill="none" stroke="#263238" stroke-linecap="round" stroke-linejoin="round" stroke-width="1"/><line x2="45.403" transform="translate(2.047 113.419)" fill="none" stroke="#263238" stroke-linecap="round" stroke-linejoin="round" stroke-width="1"/><line y2="8.761" transform="translate(11.395 95.023)" fill="none" stroke="#263238" stroke-linecap="round" stroke-linejoin="round" stroke-width="1"/><line y2="8.761" transform="translate(11.395 113.569)" fill="none" stroke="#263238" stroke-linecap="round" stroke-linejoin="round" stroke-width="1"/><line y2="8.761" transform="translate(31.579 95.023)" fill="none" stroke="#263238" stroke-linecap="round" stroke-linejoin="round" stroke-width="1"/><line y2="8.748" transform="translate(20.893 104.522)" fill="none" stroke="#263238" stroke-linecap="round" stroke-linejoin="round" stroke-width="1"/><line y2="8.748" transform="translate(42.701 104.522)" fill="none" stroke="#263238" stroke-linecap="round" stroke-linejoin="round" stroke-width="1"/><line y2="8.748" transform="translate(3.384 104.522)" fill="none" stroke="#263238" stroke-linecap="round" stroke-linejoin="round" stroke-width="1"/><line y2="8.761" transform="translate(31.579 113.569)" fill="none" stroke="#263238" stroke-linecap="round" stroke-linejoin="round" stroke-width="1"/><line x1="45.403" transform="translate(83.655 103.921)" fill="none" stroke="#263238" stroke-linecap="round" stroke-linejoin="round" stroke-width="1"/><line x1="45.403" transform="translate(83.655 113.419)" fill="none" stroke="#263238" stroke-linecap="round" stroke-linejoin="round" stroke-width="1"/><line y2="8.761" transform="translate(119.711 95.023)" fill="none" stroke="#263238" stroke-linecap="round" stroke-linejoin="round" stroke-width="1"/><line y2="8.761" transform="translate(119.711 113.569)" fill="none" stroke="#263238" stroke-linecap="round" stroke-linejoin="round" stroke-width="1"/><line y2="8.761" transform="translate(99.54 95.023)" fill="none" stroke="#263238" stroke-linecap="round" stroke-linejoin="round" stroke-width="1"/><line y2="8.748" transform="translate(110.212 104.522)" fill="none" stroke="#263238" stroke-linecap="round" stroke-linejoin="round" stroke-width="1"/><line y2="8.748" transform="translate(88.405 104.522)" fill="none" stroke="#263238" stroke-linecap="round" stroke-linejoin="round" stroke-width="1"/><line y2="8.748" transform="translate(127.721 104.522)" fill="none" stroke="#263238" stroke-linecap="round" stroke-linejoin="round" stroke-width="1"/><line y2="8.761" transform="translate(99.54 113.569)" fill="none" stroke="#263238" stroke-linecap="round" stroke-linejoin="round" stroke-width="1"/><rect width="43.206" height="55.911" transform="translate(85.198 38.498)" fill="#fff" stroke="#263238" stroke-linecap="round" stroke-linejoin="round" stroke-width="1"/><rect width="43.206" height="55.911" transform="translate(3.166 38.498)" fill="#fff" stroke="#263238" stroke-linecap="round" stroke-linejoin="round" stroke-width="1"/><path d="M130.82,176.31,87.6,191.4V153.37h43.22Z" transform="translate(-2.402 -114.872)" fill="#263238" stroke="#263238" stroke-linecap="round" stroke-linejoin="round" stroke-width="1"/><path d="M70.71,176.31,27.49,194.256V153.37H70.71Z" transform="translate(-24.324 -114.872)" fill="#263238" stroke="#263238" stroke-linecap="round" stroke-linejoin="round" stroke-width="1"/><rect width="35.332" height="86.644" transform="translate(48.105 36.001)" fill="#1a9afc" stroke="#263238" stroke-linecap="round" stroke-linejoin="round" stroke-width="1"/><path d="M61.88,194.925l31.333-13.674V153.93H61.88Z" transform="translate(-11.782 -114.668)" fill="#263238"/><path d="M157.135,160.147H25.17l7.915-27.717H149.207Z" transform="translate(-25.17 -122.509)" fill="#1a9afc" stroke="#263238" stroke-linecap="round" stroke-linejoin="round" stroke-width="1"/><path d="M25.17,152.79v.491a7.315,7.315,0,0,0,14.629,0v-.491Z" transform="translate(-25.17 -115.084)" fill="#fff" stroke="#263238" stroke-linecap="round" stroke-linejoin="round" stroke-width="1"/><path d="M35.91,152.79v.491a7.315,7.315,0,0,0,14.629,0v-.491Z" transform="translate(-21.253 -115.084)" fill="#1a9afc" stroke="#263238" stroke-linecap="round" stroke-linejoin="round" stroke-width="1"/><path d="M46.65,152.79v.491a7.315,7.315,0,0,0,14.629,0v-.491Z" transform="translate(-17.336 -115.084)" fill="#fff" stroke="#263238" stroke-linecap="round" stroke-linejoin="round" stroke-width="1"/><path d="M57.39,152.79v.491a7.315,7.315,0,0,0,14.629,0v-.491Z" transform="translate(-13.42 -115.084)" fill="#1a9afc" stroke="#263238" stroke-linecap="round" stroke-linejoin="round" stroke-width="1"/><path d="M68.13,152.79v.491a7.315,7.315,0,0,0,14.629,0v-.491Z" transform="translate(-9.503 -115.084)" fill="#fff" stroke="#263238" stroke-linecap="round" stroke-linejoin="round" stroke-width="1"/><path d="M78.87,152.79v.491a7.315,7.315,0,0,0,14.629,0q0-.246,0-.491Z" transform="translate(-5.586 -115.084)" fill="#1a9afc" stroke="#263238" stroke-linecap="round" stroke-linejoin="round" stroke-width="1"/><path d="M89.61,152.79v.491a7.315,7.315,0,0,0,14.629,0v-.491Z" transform="translate(-1.669 -115.084)" fill="#fff" stroke="#263238" stroke-linecap="round" stroke-linejoin="round" stroke-width="1"/><path d="M100.35,152.79v.491a7.315,7.315,0,0,0,14.629,0q0-.246,0-.491Z" transform="translate(2.247 -115.084)" fill="#1a9afc" stroke="#263238" stroke-linecap="round" stroke-linejoin="round" stroke-width="1"/><path d="M111.09,152.79v.491a7.315,7.315,0,0,0,14.616,0v-.491Z" transform="translate(6.164 -115.084)" fill="#fff" stroke="#263238" stroke-linecap="round" stroke-linejoin="round" stroke-width="1"/><path d="M45.108,132.43l-5.2,27.717H25.17l7.915-27.717Z" transform="translate(-25.17 -122.509)" fill="#fff" stroke="#263238" stroke-linecap="round" stroke-linejoin="round" stroke-width="1"/><path d="M46.65,160.135l2.825-27.485H62.781l-1.474,27.485Z" transform="translate(-17.336 -122.428)" fill="#fff" stroke="#263238" stroke-linecap="round" stroke-linejoin="round" stroke-width="1"/><path d="M68.07,160.23l.56-27.84H82.017l.792,27.84Z" transform="translate(-9.525 -122.523)" fill="#fff" stroke="#263238" stroke-linecap="round" stroke-linejoin="round" stroke-width="1"/><path d="M87.76,132.47l2.525,27.73h14.657l-3.917-27.73Z" transform="translate(-2.344 -122.494)" fill="#fff" stroke="#263238" stroke-linecap="round" stroke-linejoin="round" stroke-width="1"/><path d="M112.571,160.215l-5.541-27.73,12.323-.055,7.792,27.785Z" transform="translate(4.683 -122.509)" fill="#fff" stroke="#263238" stroke-linecap="round" stroke-linejoin="round" stroke-width="1"/><path d="M86.615,184.213a2.143,2.143,0,1,0-2.143,2.143,2.143,2.143,0,0,0,2.143-2.143Z" transform="translate(-4.324 -104.406)" fill="#263238"/><path d="M84.592,183.786a.532.532,0,0,0-.546-.546.546.546,0,1,0,0,1.092.532.532,0,0,0,.546-.546Z" transform="translate(-3.898 -103.979)" fill="#263238"/><path d="M35.372,125.16h107.81a4.708,4.708,0,0,1,4.708,4.708v5.718H30.65v-5.718a4.708,4.708,0,0,1,4.722-4.708Z" transform="translate(-23.172 -125.16)" fill="#1a9afc" stroke="#263238" stroke-linecap="round" stroke-linejoin="round" stroke-width="1"/></g><g transform="translate(1123.075 1563)"><path d="M245.963,421.119s-11.422,9.2-13.565,12.692.218,3.671,3.889,3.453,9.553-2.238,12.91-3.111,6.373,0,6.823-3.425a44.518,44.518,0,0,0-.328-9.171A7.315,7.315,0,0,0,245.963,421.119Z" transform="translate(-211.804 -131.644)" fill="#fff" stroke="#263238" stroke-linecap="round" stroke-linejoin="round" stroke-width="1"/><path d="M268.229,422.47,257.079,438.2c-2.47,3.507,2.388,6.237,6.4,6s12.1-5.459,13.647-8.87.655-11.45.655-11.45S271.954,422.92,268.229,422.47Z" transform="translate(-202.751 -130.552)" fill="#fff" stroke="#263238" stroke-linecap="round" stroke-linejoin="round" stroke-width="1"/><path d="M239.389,318.179s-.737,22.572-1.365,34.035,2.211,70.964,2.866,82.072,2.811,29.436,2.811,29.436,3.207,3.166,9.758.437c0,0,2.388-26.721,2.879-35.482s4.012-62.366,4.2-64.727-.5-16.076-.5-16.076,5.322,38.552,5.936,48.924,8.12,70.746,8.12,70.746,1.72.573,4.094,1.105,6.319-1.051,6.319-1.051,1.9-18.915,2.347-28.345.805-48.392.109-60.046a235.157,235.157,0,0,1-.491-24.182c.246-1.692,3.166-42.824,1.5-48.092s-28.14-3.48-36.587-4.326S239.157,309.172,239.389,318.179Z" transform="translate(-209.488 -174.289)" fill="#263238" stroke="#263238" stroke-linecap="round" stroke-linejoin="round" stroke-width="1"/><path d="M220.394,294.593s12.951,14.343,16.827,17.468,10.153,1.365,12-1.365,1.72-27.608,1.72-27.608l-4.831-30.269-6.823,43.042L224.6,291.7S219.78,289.912,220.394,294.593Z" transform="translate(-215.905 -192.422)" fill="#1a9afc" stroke="#263238" stroke-linecap="round" stroke-linejoin="round" stroke-width="1"/><path d="M262.442,245.9s-19.379,7.206-21.685,8.011-3.521,12.282-3.139,20.661c.164,3.548,2.238,37.406,1.037,62.38-.177,3.616,6.946,7.1,15.639,6.578s24.169.423,29.054-2.211,3.93-4.913,3.93-4.913,6.742-56.13,8.12-66.952-2.006-16.663-6.237-20.1S262.442,245.9,262.442,245.9Z" transform="translate(-209.629 -194.945)" fill="#1a9afc" stroke="#263238" stroke-linecap="round" stroke-linejoin="round" stroke-width="1"/><line y2="18.464" transform="translate(46.072 69.746)" fill="none" stroke="#263238" stroke-linecap="round" stroke-linejoin="round" stroke-width="1"/><line y2="26.816" transform="translate(53.455 70.729)" fill="none" stroke="#263238" stroke-linecap="round" stroke-linejoin="round" stroke-width="1"/><path d="M255.777,268.14s8.734-1.215,12.282-4.162,7.015-10.918,9.771-11.8a42.1,42.1,0,0,1,7.861-1.256s.437-5.008-5.65-7.779-20.825-1.283-23.964.56-9.212,5.9-8.843,8.3S249.991,268.973,255.777,268.14Z" transform="translate(-206.103 -196.51)" fill="#fff" stroke="#263238" stroke-linecap="round" stroke-linejoin="round" stroke-width="1"/><path d="M252,248.616s2.184,8.6,1.474,13.647-1.842,8.5.5,8.366,10.426-11.04,11.163-15.448.464-20.47.464-20.47Z" transform="translate(-204.359 -199.026)" fill="#fff" stroke="#263238" stroke-linecap="round" stroke-linejoin="round" stroke-width="1"/><path d="M261.6,241.26l-7.478,14.056-1.952-6.578A61.072,61.072,0,0,0,261.6,241.26Z" transform="translate(-204.297 -196.637)" fill="#263238" stroke="#263238" stroke-linecap="round" stroke-linejoin="round" stroke-width="1"/><path d="M241.52,222.631s2.279,15.639,3.6,20.934,4.9,14.821,7.6,15.012,13.019-6.823,15.189-9.962,1.938-12.541,2.279-17.932-1.692-11.641-5.145-13.115S243.308,218.837,241.52,222.631Z" transform="translate(-208.181 -205.425)" fill="#fff" stroke="#263238" stroke-linecap="round" stroke-linejoin="round" stroke-width="1"/><path d="M243,228.94l3.616.628-.628,12.282a18.382,18.382,0,0,0,4.886,0" transform="translate(-207.641 -201.13)" fill="#fff" stroke="#263238" stroke-linecap="round" stroke-linejoin="round" stroke-width="1"/><path d="M263.086,225.236s-1.679,1.679-12.05,2.306-14.684-4.995-13.21-7.629c2.852-5.131,9.253-12.637,23.773-11.163s17.632,11.5,16.895,15.912-2.729,11.573-2.729,11.573-.6-2.211-2.2-.778-3.521,6.155-3.521,6.155l-1.447-.355a21.32,21.32,0,0,0-1.706-4.094c-.723-.969-5.227-3.644-5.322-5.322A33.214,33.214,0,0,1,263.086,225.236Z" transform="translate(-209.631 -208.562)" fill="#263238" stroke="#263238" stroke-linecap="round" stroke-linejoin="round" stroke-width="1"/><path d="M260.72,235.842s.355-8.638,4.449-7.547,3.344,3.057,1.228,6.823a11.654,11.654,0,0,1-4.749,5.09" transform="translate(-201.179 -201.4)" fill="#fff" stroke="#263238" stroke-linecap="round" stroke-linejoin="round" stroke-width="1"/><path d="M273.606,257.048s-2.5,8.87-2.252,12.883,16.84,43,17.318,45.321,6.905,3.275,10.112.737,4.681-5.977,2.47-14.916c-1.365-5.527-14.9-38.416-15.9-44.066s-4.927-9.43-8.57-8.543" transform="translate(-197.307 -194.057)" fill="#1a9afc" stroke="#263238" stroke-linecap="round" stroke-linejoin="round" stroke-width="1"/><path d="M289.78,289.45l-20.47,35.236,7.861,5.036s19.624-25.438,22.395-27.826,6.564-7.315,2.47-14.916" transform="translate(-198.046 -179.964)" fill="#1a9afc" stroke="#263238" stroke-linecap="round" stroke-linejoin="round" stroke-width="1"/><path d="M272.211,314.61l-5.35,1.256s-2.825,5.036-3.466,5.977-3.767,2.511-.628,2.839,4.408-3.152,4.408-3.152l8.188,5.35,4.708-7.233Z" transform="translate(-200.934 -169.888)" fill="#fff" stroke="#263238" stroke-linecap="round" stroke-linejoin="round" stroke-width="1"/><path d="M217.09,269.455l10.494,24.223,11.109.341-9.88-24.919Z" transform="translate(-217.09 -186.485)" fill="#263238" stroke="#263238" stroke-linecap="round" stroke-linejoin="round" stroke-width="1"/><path d="M225.6,276.549s-7.151-1.6-8.052.136,3.275,9.88,5.063,11.791,6.1.969,8.379-.164.3-6.4-1.078-6.987a69.814,69.814,0,0,0-8.188-1.528s6.1.983,7.014-.423S228.311,277.054,225.6,276.549Z" transform="translate(-216.97 -184.013)" fill="#fff" stroke="#263238" stroke-linecap="round" stroke-linejoin="round" stroke-width="1"/></g><g transform="translate(1529.737 1684)"><rect width="26.052" height="72.915" transform="translate(116.599 72.929) rotate(180)" fill="#1a9afc" stroke="#263238" stroke-linecap="round" stroke-linejoin="round" stroke-width="1"/><path d="M416.231,237.05h26.052l-12.555-24.96H403.69Z" transform="translate(-313.129 -212.09)" fill="#1a9afc" stroke="#263238" stroke-linecap="round" stroke-linejoin="round" stroke-width="1"/><path d="M363.382,237.05H337.33l17.018-24.96h26.038Z" transform="translate(-337.33 -212.09)" fill="#1a9afc" stroke="#263238" stroke-linecap="round" stroke-linejoin="round" stroke-width="1"/><rect width="72.915" height="72.915" transform="translate(17.645)" fill="#1a9afc" stroke="#263238" stroke-linecap="round" stroke-linejoin="round" stroke-width="1"/><path d="M415.475,238.265H342.56l10.494-26.175h72.929Z" transform="translate(-335.423 -212.09)" fill="#1a9afc" stroke="#263238" stroke-linecap="round" stroke-linejoin="round" stroke-width="1"/><rect width="17.495" height="11.177" transform="translate(65.137 45.744)" fill="#fff" stroke="#263238" stroke-linecap="round" stroke-linejoin="round" stroke-width="1"/></g><g transform="translate(314.24 56.605)"><g transform="translate(165.272 -67.16)"><circle cx="24.715" cy="24.715" r="24.715" transform="translate(881.507 1348)" fill="#1a9afc"/><path d="M37.219,116.343v-4.026l6.619-10.167c.491-.751.969-1.488,1.365-2.184a12.814,12.814,0,0,0,1.092-2.156,6.155,6.155,0,0,0,.437-2.279,2.729,2.729,0,0,0-.478-1.774,1.583,1.583,0,0,0-1.365-.587,1.938,1.938,0,0,0-1.365.519,2.729,2.729,0,0,0-.71,1.365,9.007,9.007,0,0,0-.177,1.911v1.365H37.15V96.855a11.614,11.614,0,0,1,.778-4.381,6.373,6.373,0,0,1,2.5-3.043,8.065,8.065,0,0,1,4.463-1.105A7.519,7.519,0,0,1,50.5,90.25a7.328,7.328,0,0,1,1.9,5.377,8.87,8.87,0,0,1-.532,3.18,14.233,14.233,0,0,1-1.365,2.729c-.587.9-1.2,1.842-1.856,2.825l-5.049,7.533h8.079v4.476Z" transform="translate(861.358 1269.695)" fill="#fff"/></g><text transform="translate(939.852 1342.395)" font-size="16" font-family="OpenSans, Open Sans"><tspan x="11.848" y="17">Sizin Yerinize Siparişlerinizi Aras </tspan><tspan x="51.301" y="44">Kargo Ile Gönderelim</tspan></text></g><g transform="translate(1298.038 1480.072)"><path d="M304.671,2.308l31.911,31.911a7.761,7.761,0,0,1,0,10.888L304.671,77.017a7.761,7.761,0,0,1-10.888,0L261.908,45.071a7.631,7.631,0,0,1,0-10.888L293.783,2.308A7.631,7.631,0,0,1,304.671,2.308Z" transform="translate(-166.666)" fill="#e40520" fill-rule="evenodd"/><path d="M375.576,43.1s.107,20.056,0,24.39a3.274,3.274,0,0,1-3.259,3.152H356.2Z" transform="translate(-228.653 -27.648)" fill="#fff" fill-rule="evenodd"/><path d="M335.824,43.3,310.646,70.77H296.213a.951.951,0,0,1-1-1.254,2.059,2.059,0,0,1,.824-1C300.582,65.612,335.824,43.3,335.824,43.3Z" transform="translate(-189.475 -27.776)" fill="#fff" fill-rule="evenodd"/><path d="M187.437,70.623a32.659,32.659,0,0,1-8.237-1.11L181.528,64a15.061,15.061,0,0,0,6.2,1.54c1.719,0,4.369-.537,5.193-2.865,1.4-3.868-7.951-6.912-5.695-13.251,1.612-4.477,5.8-7.521,13.108-7.521a42.009,42.009,0,0,1,8.022.9L206.2,48.2a11.642,11.642,0,0,0-5.157-1.289c-2.256,0-4.692.287-5.515,2.65-1.289,3.474,8.022,6.733,5.587,13.609C199.041,68.868,192.093,70.623,187.437,70.623Z" transform="translate(-115.045 -26.878)" fill="#103578" fill-rule="evenodd"/><path d="M113.236,70.391c-8.918.322-7.951-5.3-7.091-7.808,3.975-11.174,22.169-7.557,24.282-13.538.931-2.65-1.934-3.223-3.94-3.044a43.133,43.133,0,0,0-6.3,1.146l1.755-4.548a79.279,79.279,0,0,1,8.058-1c4.871-.394,10.35,1.146,8.166,7.127-1.433,3.94-5.48,12.678-8.416,20.951l-7.342.072c.322-.788.716-1.934.716-1.934A29.758,29.758,0,0,1,113.236,70.391Zm11.5-6.554c.824-2.006,1.862-4.584,3.367-8.309-3.761,2.543-12.893,2.256-14.648,7.2-.9,2.614,1.289,3.438,3.474,3.259A26.875,26.875,0,0,0,124.733,63.837Z" transform="translate(-67.812 -26.646)" fill="#103578" fill-rule="evenodd"/><path d="M265.168,49.457c-1.4,0-1.862-1.039-1.612-2.256a3.085,3.085,0,0,1,2.937-2.435c1.4,0,1.934,1.039,1.612,2.256A3.085,3.085,0,0,1,265.168,49.457Zm-.107.43a3.748,3.748,0,0,0,3.653-2.865A1.974,1.974,0,0,0,266.6,44.3a3.779,3.779,0,0,0-3.653,2.865C262.626,48.634,263.2,49.887,265.061,49.887Zm-.251-1.218c.215-1,.5-1.862.788-2.865h.824c.215,0,.5.107.394.5-.107.5-.5.609-.931.609a2.28,2.28,0,0,1-.322-.072c.179.609.394,1.218.537,1.827h.824a14.31,14.31,0,0,1-.716-1.5,1.167,1.167,0,0,0,1.218-.931c.179-.609-.179-.824-.788-.824h-1.576c-.286,1.039-.609,2.149-.9,3.259Z" transform="translate(-168.745 -28.418)" fill="#103578" fill-rule="evenodd"/><path d="M7.532,70.391c-8.846.322-7.915-5.3-7.02-7.808,3.94-11.174,22.1-7.557,24.282-13.538.931-2.65-1.934-3.223-3.975-3.044a41.244,41.244,0,0,0-6.232,1.146L16.307,42.6a78.4,78.4,0,0,1,8.13-1c4.8-.394,10.279,1.146,8.13,7.127-1.4,3.94-5.408,12.678-8.416,20.951l-7.342.072a19.391,19.391,0,0,0,.788-1.934A30.836,30.836,0,0,1,7.532,70.391Zm11.5-6.554c.824-2.006,1.934-4.584,3.438-8.309-3.761,2.543-12.929,2.256-14.648,7.2-.931,2.614,1.289,3.438,3.474,3.259A26.481,26.481,0,0,0,19.029,63.837Z" transform="translate(0 -26.646)" fill="#103578" fill-rule="evenodd"/><path d="M88.963,50.358c-1.755,4.763-7.306,19.232-7.306,19.232l-7.557.072c.215-.5,4.477-11.6,7.521-19.7,3.331-7.7,7.235-8.918,13.144-8.631a37.57,37.57,0,0,1,5.014.68l-2.041,4.763C94.657,46.025,90.682,45.631,88.963,50.358Z" transform="translate(-47.586 -26.49)" fill="#103578" fill-rule="evenodd"/><path d="M68.954,145.242a11.052,11.052,0,0,1-3.223.537c-2.328,0-2.973-1.4-2.22-3.653.824-2.364,2.65-4.083,5.157-4.083a8.786,8.786,0,0,1,2.973.609l.716-2.65a11.377,11.377,0,0,0-3.438-.5c-6.518,0-8.524,5.766-8.846,6.733-1.4,3.868.072,6.088,3.94,6.088a17.428,17.428,0,0,0,3.546-.43Z" transform="translate(-38.25 -86.955)" fill="#103578" fill-rule="evenodd"/><path d="M148.46,138.179c-.609,1.54-1.146,2.973-1.827,4.405-.931,1.647-2.614,3.259-4.405,3.259-2.006,0-2.543-1.325-1.862-3.259A6.481,6.481,0,0,1,146.6,138,16.373,16.373,0,0,1,148.46,138.179ZM134.6,153.221a20.2,20.2,0,0,0,5.193.716c3.546,0,6.3-1.146,7.736-5.014,2.113-5.623,3.975-10.1,5.086-12.714a25.273,25.273,0,0,0-5.014-.609,11.005,11.005,0,0,0-10.78,7.306c-1.11,3.259.107,5.372,3.438,5.372a7.245,7.245,0,0,0,5.014-2.113h.072c-1.039,2.722-1.862,5.372-5.587,5.372a11.47,11.47,0,0,1-4.369-.931Z" transform="translate(-86.418 -87.02)" fill="#103578" fill-rule="evenodd"/><path d="M187.743,138.035c2.22,0,2.543,1.647,1.827,3.689-.788,2.22-2.471,4.262-4.978,4.262-2.113,0-2.614-1.612-1.862-3.581C183.481,140.113,185.2,138.035,187.743,138.035Zm.824-2.435a9.809,9.809,0,0,0-9.276,6.733c-.931,2.65-.5,6.088,4.405,6.088a9.733,9.733,0,0,0,9.24-6.626C194.369,137.785,192.435,135.6,188.567,135.6Z" transform="translate(-114.849 -87.02)" fill="#103578" fill-rule="evenodd"/><path d="M88.985,147.918c-3.975.179-3.581-2.364-3.152-3.474,1.755-5.014,9.956-3.438,10.888-6.088.43-1.218-.824-1.433-1.755-1.4a21.049,21.049,0,0,0-2.829.5l.788-2.006c1.325-.215,1.827-.322,3.653-.5,2.149-.179,4.656.537,3.653,3.259-.609,1.755-2.435,5.694-3.76,9.383H93.14a4.793,4.793,0,0,0,.322-.824A12.76,12.76,0,0,1,88.985,147.918Zm5.193-2.937c.322-.9.824-2.113,1.5-3.761-1.647,1.146-5.8,1.039-6.59,3.259-.394,1.146.537,1.54,1.54,1.433A11.879,11.879,0,0,0,94.178,144.982Z" transform="translate(-54.95 -86.588)" fill="#103578" fill-rule="evenodd"/><path d="M126.426,139.226c-.788,2.113-3.259,8.56-3.259,8.56H119.8c.107-.215,2.006-5.157,3.367-8.775,1.5-3.367,3.223-3.94,5.874-3.832a15.057,15.057,0,0,1,2.221.286l-.9,2.149C128.968,137.292,127.214,137.149,126.426,139.226Z" transform="translate(-76.919 -86.742)" fill="#103578" fill-rule="evenodd"/></g><path d="M69,93.1V62.311A7.436,7.436,0,0,1,71.513,56.8a8.99,8.99,0,0,1,6.06-2.265h89.053" transform="translate(1103.743 1457.903)" fill="none" stroke="#263238" stroke-linecap="round" stroke-linejoin="round" stroke-width="1" stroke-dasharray="4 4"/><g transform="translate(0 0.445)"><path d="M69,157.149V75.221a26.261,26.261,0,0,1,4.162-14.653c2.664-3.881,6.275-6.05,10.035-6.027H220.662" transform="translate(1648.854 1443) rotate(90)" fill="none" stroke="#263238" stroke-linecap="round" stroke-linejoin="round" stroke-width="1" stroke-dasharray="4 4"/><path d="M0,0V99.319c0,6.667,1.43,13.059,3.973,17.764s5.99,7.334,9.58,7.306H154.321" transform="translate(1470.182 1928.026) rotate(-90)" fill="none" stroke="#263238" stroke-linecap="round" stroke-linejoin="round" stroke-width="1" stroke-dasharray="4 4"/></g><path d="M0,0V31.792a7.22,7.22,0,0,0,3.089,5.686,12.337,12.337,0,0,0,7.448,2.339H119.99" transform="translate(1173 1888.372)" fill="none" stroke="#263238" stroke-linecap="round" stroke-linejoin="round" stroke-width="1" stroke-dasharray="4 4"/><path d="M77.286,236.451l-6.81-11.791-6.8,11.791Z" transform="translate(1501.398 1442.422) rotate(90)" fill="#263238"/><path d="M77.286,236.451l-6.81-11.791-6.8,11.791Z" transform="translate(1665.055 1901.218) rotate(180)" fill="#263238"/><path d="M77.286,236.451l-6.81-11.791-6.8,11.791Z" transform="translate(1102.517 1657.817)" fill="#263238"/><g transform="translate(0 -46)"><g transform="translate(668 287)"><text transform="translate(320 1492)" font-size="16" font-family="OpenSans, Open Sans"><tspan x="-143.391" y="0">Tüm siparişlerinizi akilliphone.com’dan</tspan><tspan x="-66.684" y="27">bayi girişi yaparak</tspan><tspan x="-118.102" y="54">Dropshipiing seçeneğini seçiniz.</tspan></text></g><g transform="translate(-57.422 56.052)"><g transform="translate(710.664 229.753)"><circle cx="24.715" cy="24.715" r="24.715" transform="translate(309.759 1409.194)" fill="#1a9afc"/><path d="M189.3,300.985v-22c-.246.136-.532.273-.846.409l-1.01.423-1.024.423-.9.409v-4.231l1.051-.56,1.474-.805c.519-.3,1.01-.6,1.46-.9a7.886,7.886,0,0,0,1.024-.805H195v27.635Z" transform="translate(143.072 1148.631)" fill="#fff"/></g></g></g><g transform="translate(675.304 240)"><g transform="translate(372 1295)"><path d="M248.021,187.63H175.433c-6.974,0-12.623,5.3-12.623,11.832V257.9c0,6.537,5.65,11.845,12.623,11.845H231.1L241.184,289.5l3.767-19.761h3.043c6.974,0,12.623-5.309,12.623-11.845V199.462C260.645,192.925,254.995,187.63,248.021,187.63Z" transform="translate(-162.81 -187.63)" fill="#fff" stroke="#263238" stroke-linecap="round" stroke-linejoin="round" stroke-width="1"/><rect width="64.018" height="35.946" rx="5.26" transform="translate(14.493 13.183)" fill="#1a9afc" stroke="#263238" stroke-linecap="round" stroke-linejoin="round" stroke-width="1"/><path d="M209.595,239.945l-6.373-3.63a2.729,2.729,0,0,0-3.767,1.133h0a2.729,2.729,0,0,0,1.119,3.589l12.541,6.823,3.425,2.5,15.148-6.073-2.061-8.925-5.459-11.19a1.815,1.815,0,0,0-2.033-.942h0a1.8,1.8,0,0,0-1.215,2.388l1.255,3.671-2.224-5.459a2.375,2.375,0,0,0-2.866-1.105h0a2.361,2.361,0,0,0-1.365,3.166l1.706,3.712-3.152-6.046a2.306,2.306,0,0,0-2.729-1.051h0a2.293,2.293,0,0,0-1.365,3.03l2.866,5.459-5.172-10.631a2.893,2.893,0,0,0-3.889-1.447h0a2.893,2.893,0,0,0-1.447,3.726Z" transform="translate(-149.548 -176.323)" fill="#fff" stroke="#263238" stroke-linecap="round" stroke-linejoin="round" stroke-width="1"/></g><text transform="translate(391 1330)" fill="#fff" font-size="10" font-family="OpenSans-Bold, Open Sans" font-weight="700"><tspan x="0" y="0">BAYİ GİRİŞİ</tspan></text></g><g transform="translate(355.571 73.445)"><g transform="translate(493 -586)"><circle cx="24.715" cy="24.715" r="24.715" transform="matrix(0.473, -0.881, 0.881, 0.473, 870, 2217.55)" fill="#1a9afc"/><path d="M416.036,170.583a8.188,8.188,0,0,1-4.558-1.092,5.882,5.882,0,0,1-2.347-3.057,13.075,13.075,0,0,1-.71-4.517v-.983h5.7v.983a12.286,12.286,0,0,0,.164,2.224,2.32,2.32,0,0,0,.614,1.242,1.815,1.815,0,0,0,1.228.4,1.583,1.583,0,0,0,1.187-.409,2.224,2.224,0,0,0,.519-1.228,12.28,12.28,0,0,0,.136-2.047,6.823,6.823,0,0,0-.56-3.125,2.4,2.4,0,0,0-2.334-1.105h-1.064v-3.93h.928a2.634,2.634,0,0,0,2.456-1,6.018,6.018,0,0,0,.614-3.071,5.554,5.554,0,0,0-.423-2.456,1.61,1.61,0,0,0-1.583-.86,1.433,1.433,0,0,0-1.488.955,7.313,7.313,0,0,0-.355,2.456v1.365h-5.7v-1.665a8.843,8.843,0,0,1,.914-4.217,5.978,5.978,0,0,1,2.593-2.607,8.448,8.448,0,0,1,4.094-.887,8.98,8.98,0,0,1,4.094.846,6.045,6.045,0,0,1,2.62,2.511,8.35,8.35,0,0,1,.928,4.094,7.683,7.683,0,0,1-1,4.094,4.094,4.094,0,0,1-2.388,2.006,4.776,4.776,0,0,1,1.733,1.092,5.091,5.091,0,0,1,1.2,2.033,9.934,9.934,0,0,1,.45,3.262,12.541,12.541,0,0,1-.737,4.463,6.237,6.237,0,0,1-2.4,3.057A7.942,7.942,0,0,1,416.036,170.583Z" transform="translate(487.582 2051.054)" fill="#fff"/></g><g transform="translate(1076 144.555)"><text transform="translate(320 1528)" font-size="16" font-family="OpenSans, Open Sans"><tspan x="-70.664" y="0">Müşterinize Sipariş</tspan><tspan x="-68.504" y="27">Daha Hızlı Ulaşsın.</tspan></text></g></g></g><g transform="translate(57 -99)"><circle cx="24.715" cy="24.715" r="24.715" transform="matrix(0.473, -0.881, 0.881, 0.473, 870, 2217.55)" fill="#1a9afc"/></g><g transform="translate(640 631.556)"><text transform="translate(320 1528)" font-size="16" font-family="OpenSans, Open Sans"><tspan x="-118.754" y="0">Müşterileriniz Pazar Yerlerinden</tspan><tspan x="-52.184" y="27">Sipariş Versin.</tspan></text></g><text transform="translate(960 2121)" fill="#fff" font-size="32" font-family="OpenSans-Bold, Open Sans" font-weight="700"><tspan x="-9.133" y="0">4</tspan></text><g transform="translate(882.725 1677.72)" opacity="0.311"><path d="M77.262,148.849a71.575,71.575,0,1,1,71.587-71.562,71.654,71.654,0,0,1-71.587,71.562" fill="none" stroke="#2f54eb" stroke-miterlimit="10" stroke-width="5"/><path d="M233.66,404.45H184.925L182.4,371.8h53.785Z" transform="translate(-132.081 -273.655)" fill="none" stroke="#2f54eb" stroke-miterlimit="10" stroke-width="5"/><path d="M312,308.7h14.267l7.045,15.05" transform="translate(-228.955 -226.489)" fill="none" stroke="#2f54eb" stroke-miterlimit="10" stroke-width="5"/><path d="M181.4,323.75l7.07-15.05h14.8" transform="translate(-131.334 -226.489)" fill="none" stroke="#2f54eb" stroke-miterlimit="10" stroke-width="5"/><path d="M289.1,298" transform="translate(-211.838 -218.491)" fill="none" stroke="#2f54eb" stroke-miterlimit="10" stroke-width="5"/><g transform="translate(39.385 17.518)"><path d="M140.5,90.023a37.536,37.536,0,0,1,75.072,0Z" transform="translate(-140.146 -52.5)" fill="none" stroke="#2f54eb" stroke-miterlimit="10" stroke-width="5"/><path d="M139.1,202.6l37.877,31.589L214.854,202.6" transform="translate(-139.1 -164.698)" fill="none" stroke="#2f54eb" stroke-linejoin="bevel" stroke-miterlimit="10" stroke-width="5"/><path d="M213.9,90.023c0-20.731,8.484-37.523,18.938-37.523s18.938,16.792,18.938,37.523Z" transform="translate(-195.012 -52.5)" fill="none" stroke="#2f54eb" stroke-miterlimit="10" stroke-width="5"/><path d="M213.2,202.6l19.115,31.589,19.14-31.589" transform="translate(-194.489 -164.698)" fill="none" stroke="#2f54eb" stroke-linejoin="bevel" stroke-miterlimit="10" stroke-width="5"/></g><line y2="10.252" transform="translate(77.212 87.009)" fill="none" stroke="#2f54eb" stroke-linejoin="bevel" stroke-miterlimit="10" stroke-width="5"/></g></g></g></svg>