<svg xmlns="http://www.w3.org/2000/svg" width="25.249" height="25.251" viewBox="0 0 25.249 25.251"><g opacity="0.536"><g transform="translate(0 0)"><path d="M35.487,20.663a2.693,2.693,0,0,0-2.118-1.072h-1.86C31.333,14.819,27.876,11,23.65,11s-7.684,3.819-7.859,8.591h-1.86a2.693,2.693,0,0,0-2.118,1.072,3.828,3.828,0,0,0-.685,3.231l2.231,9.833a3.023,3.023,0,0,0,2.8,2.525H31.132a3.018,3.018,0,0,0,2.8-2.525l2.237-9.833A3.828,3.828,0,0,0,35.487,20.663ZM23.65,13.1c3.071,0,5.586,2.876,5.751,6.488H17.9c.165-3.607,2.68-6.488,5.751-6.488ZM34.121,23.425,31.89,33.263c-.113.505-.438.886-.752.886H16.162c-.314,0-.639-.381-.752-.886l-2.231-9.838c-.119-.52-.191-1.732.752-1.732H33.369C34.384,21.693,34.24,22.9,34.121,23.425Z" transform="translate(-11.025 -11)" fill="#6f787d"/><path d="M135.351,259.1a1.049,1.049,0,0,0-1.051,1.051v6.571a1.051,1.051,0,0,0,2.1,0v-6.571A1.049,1.049,0,0,0,135.351,259.1Z" transform="translate(-127.947 -246.314)" fill="#6f787d"/><path d="M234.251,259.1a1.049,1.049,0,0,0-1.051,1.051v6.571a1.051,1.051,0,1,0,2.1,0v-6.571A1.056,1.056,0,0,0,234.251,259.1Z" transform="translate(-221.751 -246.314)" fill="#6f787d"/><path d="M333.051,259.1A1.049,1.049,0,0,0,332,260.151v6.571a1.051,1.051,0,1,0,2.1,0v-6.571A1.052,1.052,0,0,0,333.051,259.1Z" transform="translate(-315.459 -246.314)" fill="#6f787d"/></g></g></svg>