<svg xmlns="http://www.w3.org/2000/svg" xmlns:xlink="http://www.w3.org/1999/xlink" width="653" height="475.869" viewBox="0 0 653 475.869"><defs><clipPath id="a"><rect width="91.414" height="82.781" transform="translate(0)" fill="none"/></clipPath><clipPath id="b"><rect width="91.414" height="83.016" fill="#50afc8" stroke="#000" stroke-miterlimit="10" stroke-width="0.5"/></clipPath><clipPath id="c"><rect width="94.01" height="83.016" fill="none"/></clipPath><clipPath id="d"><rect width="91.414" height="83.016" transform="translate(0)" fill="none"/></clipPath><clipPath id="e"><rect width="80.294" height="72.912" fill="#1a9afc" stroke="#000" stroke-miterlimit="10" stroke-width="0.5"/></clipPath><linearGradient id="f" x1="18.82" y1="0.5" x2="19.819" y2="0.5" gradientUnits="objectBoundingBox"><stop offset="0" stop-color="#266593"/><stop offset="0.07" stop-color="#235885"/><stop offset="0.23" stop-color="#1c4069"/><stop offset="0.4" stop-color="#182f56"/><stop offset="0.57" stop-color="#15244a"/><stop offset="0.74" stop-color="#142146"/></linearGradient><clipPath id="g"><rect width="70.848" height="64.342" fill="#1a9afc" stroke="#000" stroke-miterlimit="10" stroke-width="0.5"/></clipPath></defs><g transform="translate(-873 -3988.131)"><g transform="translate(0 3554)"><circle cx="223" cy="223" r="223" transform="translate(873 464)" fill="blue" opacity="0.015"/><circle cx="223" cy="223" r="223" transform="translate(1080 464)" fill="blue" opacity="0.015"/><g transform="translate(1129.514 545.374)"><path d="M1584.6,155.791h50.59a4.213,4.213,0,0,0,4.2-4.2V101a4.213,4.213,0,0,0-4.2-4.2H1584.6a4.213,4.213,0,0,0-4.2,4.2v50.59A4.194,4.194,0,0,0,1584.6,155.791Z" transform="translate(-1580.4 -96.8)" fill="blue" opacity="0.02"/><path d="M1495.271,267.129h32.286a5.968,5.968,0,0,0,5.971-5.971V228.871a5.968,5.968,0,0,0-5.971-5.971h-32.286a5.967,5.967,0,0,0-5.971,5.971v32.286A5.967,5.967,0,0,0,1495.271,267.129Z" transform="translate(-1447.202 -185.063)" fill="blue" opacity="0.02"/></g><g transform="translate(1385.857 687.065)"><path d="M303.141,1131.066h81.985a4.14,4.14,0,0,0,4.14-4.14V1044.94a4.14,4.14,0,0,0-4.14-4.14H303.141a4.14,4.14,0,0,0-4.14,4.14v81.985A4.125,4.125,0,0,0,303.141,1131.066Z" transform="translate(-299 -1018.655)" fill="blue" opacity="0.03"/><path d="M211.681,992.609h37.647a3.072,3.072,0,0,0,3.081-3.081V951.881a3.072,3.072,0,0,0-3.081-3.081H211.681a3.072,3.072,0,0,0-3.081,3.081v37.647A3.072,3.072,0,0,0,211.681,992.609Z" transform="translate(-140.383 -948.8)" fill="blue" opacity="0.03"/></g><g transform="translate(895.506 674.636)"><path d="M372.841,1118.191H302.55a3.55,3.55,0,0,1-3.55-3.55V1044.35a3.55,3.55,0,0,1,3.55-3.55h70.292a3.55,3.55,0,0,1,3.55,3.55v70.291A3.536,3.536,0,0,1,372.841,1118.191Z" transform="translate(-280.344 -1021.813)" fill="blue" opacity="0.03"/><path d="M243.519,986.36H211.242a2.634,2.634,0,0,1-2.642-2.642V951.442a2.634,2.634,0,0,1,2.642-2.642h32.277a2.634,2.634,0,0,1,2.642,2.642v32.277A2.634,2.634,0,0,1,243.519,986.36Z" transform="translate(-208.6 -948.8)" fill="blue" opacity="0.03"/></g><g transform="translate(1393.621 554.384)"><path d="M306.032,142.957h31.861a7.164,7.164,0,0,0,7.163-7.163v-31.83a7.164,7.164,0,0,0-7.163-7.163h-31.83a7.164,7.164,0,0,0-7.163,7.163v31.83A7.158,7.158,0,0,0,306.032,142.957Z" transform="translate(-270.714 -96.8)" fill="blue" opacity="0.03"/><path d="M407.293,237.588h30.8a5.782,5.782,0,0,0,5.793-5.793v-30.8A5.782,5.782,0,0,0,438.1,195.2h-30.8a5.782,5.782,0,0,0-5.793,5.793v30.8A5.8,5.8,0,0,0,407.293,237.588Z" transform="translate(-401.5 -164.553)" fill="blue" opacity="0.03"/></g></g><g transform="translate(851.224 3947.15)"><line y1="40.882" x2="184.924" transform="translate(152.493 427.768)" fill="none" stroke="#000" stroke-miterlimit="10" stroke-width="0.5"/><line x2="288.569" y2="50.986" transform="translate(367.931 427.189)" fill="none" stroke="#000" stroke-miterlimit="10" stroke-width="0.5"/><line y1="40.898" x2="184.94" transform="translate(91.248 455.028)" fill="none" stroke="#231f20" stroke-miterlimit="10" stroke-width="0.5"/><line y2="364.875" transform="translate(352.51 40.982)" fill="none" stroke="#000" stroke-miterlimit="10" stroke-width="0.5"/><rect width="91.414" height="83.016" transform="translate(77.454 418.697)" fill="#50afc8" stroke="#000" stroke-miterlimit="10" stroke-width="0.5"/><g transform="translate(77.454 418.916)" clip-path="url(#a)"><path d="M0,0H91.414V82.781H0Z" transform="translate(0)" fill="#1a9afc" opacity="0.37"/></g><rect width="65.155" height="83.016" transform="translate(77.454 418.697)" fill="#1a9afc" stroke="#000" stroke-miterlimit="10" stroke-width="0.5"/><path d="M75.72,279.68H89.8v14.342L75.72,296.665Z" transform="translate(26.914 139.017)" fill="#fff" opacity="0.66"/><rect width="16.234" height="8.273" transform="translate(83.803 486.73)" fill="#fff"/><g transform="translate(144.689 418.697)"><rect width="91.414" height="83.016" fill="#50afc8"/><g clip-path="url(#b)"><rect width="91.414" height="83.016" fill="#50afc8" stroke="#000" stroke-miterlimit="10" stroke-width="0.5" opacity="0.37" style="isolation:isolate"/></g><rect width="91.414" height="83.016" fill="none" stroke="#000" stroke-miterlimit="10" stroke-width="0.5"/></g><rect width="65.155" height="83.016" transform="translate(144.689 418.697)" fill="#1a9afc" stroke="#000" stroke-miterlimit="10" stroke-width="0.5"/><path d="M118.7,279.68h14.076v19.612L118.7,295.679Z" transform="translate(51.153 139.017)" fill="#fff" opacity="0.66"/><rect width="16.234" height="8.273" transform="translate(150.21 489.31)" fill="#fff"/><rect width="88.224" height="83.016" transform="translate(215.959 418.697)" fill="#50afc8" stroke="#000" stroke-miterlimit="10" stroke-width="0.5"/><g transform="translate(210.173 418.806)" clip-path="url(#c)"><rect width="94.01" height="83.016" fill="#1a9afc" opacity="0.37" style="isolation:isolate"/></g><rect width="65.155" height="83.016" transform="translate(215.631 418.806)" fill="#1a9afc" stroke="#000" stroke-miterlimit="10" stroke-width="0.5"/><path d="M162.25,279.68h14v17.97l-14,.985Z" transform="translate(75.714 139.017)" fill="#fff" opacity="0.66"/><rect width="16.234" height="8.273" transform="translate(221.715 489.31)" fill="#fff"/><rect width="91.414" height="83.016" transform="translate(108.983 335.916)" fill="#50afc8" stroke="#000" stroke-miterlimit="10" stroke-width="0.5"/><g transform="translate(108.983 335.916)" clip-path="url(#d)"><rect width="91.414" height="83.016" transform="translate(0)" fill="#1a9afc" opacity="0.37" style="isolation:isolate"/></g><rect width="65.155" height="83.016" transform="translate(108.983 335.916)" fill="#1a9afc" stroke="#000" stroke-miterlimit="10" stroke-width="0.5"/><path d="M99.07,226.75h11.057v14.858l-11.057-3.3Z" transform="translate(40.082 109.166)" fill="#fff" opacity="0.66"/><rect width="16.234" height="8.273" transform="translate(115.052 405.513)" fill="#fff"/><g transform="translate(181.567 346.003)"><rect width="80.294" height="72.912" fill="#50afc8"/><g clip-path="url(#e)"><rect width="80.294" height="72.912" fill="#1a9afc" stroke="#000" stroke-miterlimit="10" stroke-width="0.5" opacity="0.37" style="isolation:isolate"/></g><rect width="80.294" height="72.912" fill="none" stroke="#000" stroke-miterlimit="10" stroke-width="0.5"/></g><rect width="57.226" height="72.912" transform="translate(181.567 346.003)" fill="#1a9afc" stroke="#000" stroke-miterlimit="10" stroke-width="0.5"/><path d="M140.32,233.2h12.293v17.391l-12.293-1.736Z" transform="translate(63.346 112.803)" fill="#fff" opacity="0.66"/><rect width="14.248" height="7.272" transform="translate(186.729 407.155)" fill="#fff"/><rect width="10.963" height="14.482" transform="translate(431.162 469.995)" fill="#f7f7f7" stroke="#231f20" stroke-miterlimit="10" stroke-width="0.5"/><rect width="17.047" height="14.482" transform="translate(468.557 469.745)" fill="#f7f7f7" stroke="#231f20" stroke-miterlimit="10" stroke-width="0.5"/><g transform="translate(420.762 106.391)"><path d="M313.466,141.11c-7.319,5.1-23.178,1.3-23.178,1.3s-9.618-3.832-7.241-6.694c5.974-.266,9.2-2.706,10.713-5.99a20,20,0,0,0,1.408-6.616,31.162,31.162,0,0,0-.125-3.8L316.578,107C312.9,116.384,307.788,133.588,313.466,141.11Z" transform="translate(-277.134 -64.761)" fill="#f6aaac" stroke="#231f20" stroke-miterlimit="10" stroke-width="0.5"/><path d="M306.924,112.59c-2,11.652-12.2,13.888-17.2,13.982a20,20,0,0,0,1.408-6.616Z" transform="translate(-273.157 -61.608)" opacity="0.2" style="isolation:isolate"/><path d="M282.539,86.9c-5.318,3.91-4.8,18,4.3,26.087s12.809-25.821,12.809-25.821S285.949,84.369,282.539,86.9Z" transform="translate(-279.13 -76.694)" fill="#142146"/><path d="M313.106,131.093a17.2,17.2,0,0,1-20.05,4.395,18.768,18.768,0,0,1-9.728-9.759,14.074,14.074,0,0,1-.735-1.861c-3.581-11.62-2.971-31.4,9.665-37.3a18.611,18.611,0,0,1,24.6,8.336,16.985,16.985,0,0,1,1.892,8.133C318.705,116.282,319.394,124.04,313.106,131.093Z" transform="translate(-278.245 -77.312)" fill="#f6aaac" stroke="#231f20" stroke-miterlimit="10" stroke-width="0.5"/><path d="M288.689,111.572h0a9.728,9.728,0,0,0,8.461-3.378.532.532,0,0,0,0-.485h0a.579.579,0,0,0-.485,0h0a9.384,9.384,0,0,1-7.82,3.128.328.328,0,0,0-.391.2h0a.407.407,0,0,0,.3.579Z" transform="translate(-273.894 -64.391)" fill="#263238"/><path d="M298.242,86.39l-.672,5.849a4.285,4.285,0,0,1,2.315,2.487,4.692,4.692,0,0,1-.078,2.956c-.563,1.767-.391,5.192,2.581,12.387a3.675,3.675,0,0,1,6.115,1.267,4.879,4.879,0,0,1-1.236,4.848,5.161,5.161,0,0,1-2.252,1.329l-.328,10.7a45.761,45.761,0,0,0,8.1-16.484c2.706-10.776,2.831-19.6.532-23.757Z" transform="translate(-268.73 -76.384)" fill="#142146"/><path d="M324.578,101.79s5.177-9.2-4.833-17.563-36.5-2.659-38.88,2.768S296.646,105.2,324.578,101.79Z" transform="translate(-278.269 -79.992)" fill="#142146"/><path d="M282.692,101.374a1.564,1.564,0,0,0,1.564,1.455,1.251,1.251,0,0,0,1.408-1.361h0a1.564,1.564,0,0,0-1.564-1.455,1.251,1.251,0,0,0-1.408,1.361Z" transform="translate(-277.124 -68.707)" fill="#263238"/><path d="M281.332,99.466c.25.235,1.22-.766,2.862-.751s2.737.688,2.972.438-.2-.391-.61-.688a4.693,4.693,0,0,0-2.424-.594,3.66,3.66,0,0,0-2.268.938C281.332,98.965,281.238,99.263,281.332,99.466Z" transform="translate(-277.906 -69.911)" fill="#263238"/><path d="M292.112,101.079a1.564,1.564,0,0,0,1.564,1.454,1.267,1.267,0,0,0,1.408-1.361h0a1.564,1.564,0,0,0-1.564-1.47,1.267,1.267,0,0,0-1.408,1.376Z" transform="translate(-271.812 -68.881)" fill="#263238"/><path d="M291.191,99.071c.25.235,1.22-.766,2.862-.751s2.737.688,2.972.438-.2-.391-.61-.688a3.988,3.988,0,0,0-2.283-.547,3.581,3.581,0,0,0-2.252.938C291.191,98.571,291.1,98.868,291.191,99.071Z" transform="translate(-272.345 -70.11)" fill="#263238"/><path d="M291.083,109.775l-2.534.2c-.344,0-.829,0-.938-.125a1.251,1.251,0,0,1,.094-.8c.172-.594.563-1.3.751-1.892a24.522,24.522,0,0,0,1.564-5.083,26.007,26.007,0,0,0-2.221,5.036,8.223,8.223,0,0,1-.766,1.908,1.1,1.1,0,0,0,0,.985.7.7,0,0,0,.735.235,1.236,1.236,0,0,0,.688-.109,8.492,8.492,0,0,0,2.627-.36Z" transform="translate(-274.739 -67.536)" fill="#263238"/><path d="M291.3,96.779c.2.391,1.689.36,3.535.766s3.284,1.032,3.566.626a1.894,1.894,0,0,0-.657-1.017,6.131,6.131,0,0,0-5.349-1.079A1.3,1.3,0,0,0,291.3,96.779Z" transform="translate(-272.266 -71.04)" fill="#263238"/><path d="M282,97.179c.2.391,1.282,0,2.721.188s2.33.407,2.627,0a1.253,1.253,0,0,0-.516-.985,3.566,3.566,0,0,0-2.049-.8,3.128,3.128,0,0,0-2.158.641C282,96.678,282,96.975,282,97.179Z" transform="translate(-277.511 -71.205)" fill="#263238"/><path d="M291.134,95.515a3.988,3.988,0,0,1-1.8-.563,10.447,10.447,0,0,1-5.474-6.616,7.822,7.822,0,0,1-.281-1.736c.172.547.469,1.126.626,1.673a13.262,13.262,0,0,0,2.158,3.644,17.344,17.344,0,0,0,3.222,2.815A8.319,8.319,0,0,1,291.134,95.515Z" transform="translate(-276.62 -76.266)" fill="#142146"/></g><path d="M277.764,173.36s-7.726,13.607-7.523,27.041c.156,10.791,17.485,196.154,17.485,196.154l23.084-1.767-2.846-167.58q10.729,84.017,21.426,168.033l17.532,1.314a401.55,401.55,0,0,0,2.534-93.635c-2.44-26.259-7.617-54.739-16.609-100.892-.235-1.251-5.052-25.931-5.052-25.931Z" transform="translate(136.616 79.055)" fill="url(#f)"/><path d="M280.209,133.429l-2.19,19.159q-2.581,21.129-5.177,42.227l-.422,16.359a37.238,37.238,0,0,0,17.72.672c8.43-1.83,11.667-5.974,20.426-7.57a36.911,36.911,0,0,1,15.186.532h0a.766.766,0,0,0,.579-.907,123.542,123.542,0,0,1-2.44-14.295c-.25-4.582,3.988-14.232,3.988-14.232s6.162,9.759,12.918,1.861c3.535-4.145,5.364-11.292,6.256-17.2a24.335,24.335,0,0,0-11.167-24.664,48.108,48.108,0,0,0-14.248-5.536l-.657-.078V125.64l-23.256-2.94-5.458,2.033C280.13,124.28,280.209,133.429,280.209,133.429Z" transform="translate(137.847 50.484)" fill="#1a9afc" stroke="#000" stroke-miterlimit="10" stroke-width="0.5"/><g transform="translate(403.893 478.159)"><path d="M289.67,318.013l.313,13.294S268.556,338.97,268.4,342.88l41.133.469,1.251-25.649Z" transform="translate(-268.313 -317.7)" fill="#50afc8" stroke="#000" stroke-miterlimit="10" stroke-width="0.5"/><g transform="translate(0 22.365)" opacity="0.6"><path d="M309.486,335.284V332l-39.412.782s-1.877.782-1.72,2.033Z" transform="translate(-268.344 -332)" fill="#fff"/></g><path d="M281.75,326.25c0,.156.938.313,2.033.938s1.564,1.564,1.72,1.408-.156-1.251-1.251-2.033a3.034,3.034,0,0,0-2.5-.313Z" transform="translate(-260.783 -312.956)" fill="#263238"/><path d="M279,327.451c0,.156.782.469,1.564,1.408s.938,1.72,1.095,1.72.313-1.095-.469-2.19C280.017,327.295,279,327.139,279,327.451Z" transform="translate(-262.334 -312.281)" fill="#263238"/><path d="M277.923,331.851c.156,0,.469-.938,0-2.033s-1.408-1.564-1.564-1.408.469.782.938,1.72S277.766,331.851,277.923,331.851Z" transform="translate(-263.838 -311.676)" fill="#263238"/><path d="M282,323.333c.156.156.938-.156,2.19,0s2.033.469,2.19.313-.782-.938-2.033-.938A3.316,3.316,0,0,0,282,323.333Z" transform="translate(-260.642 -314.888)" fill="#263238"/><path d="M283.359,322.984V322.2a7.821,7.821,0,0,1,.782-2.033c.156-.156.313-.469.469-.626a.735.735,0,0,1,.938-.156q.235,0,.469.469v.626a3.427,3.427,0,0,1-.469.782,17.063,17.063,0,0,0-.938,1.72c-.313.313-.626.626-1.095.469a1.689,1.689,0,0,1-1.095-.469,14.078,14.078,0,0,1-1.564-1.408c-.156-.313-.469-.469-.626-.782l-.469-.938a.766.766,0,0,1,.469-.938,1.032,1.032,0,0,1,.938.156,4.224,4.224,0,0,1,1.095,1.251,8.433,8.433,0,0,1,1.095,2.033,1.408,1.408,0,0,1,.156.782,13.508,13.508,0,0,0-1.564-2.5,6.8,6.8,0,0,0-.938-1.095c-.156-.156-.313-.156-.626-.156s-.313.313-.156.469a2.079,2.079,0,0,0,.469.782,2.754,2.754,0,0,0,.626.782,14.071,14.071,0,0,0,1.564,1.408c.313.156.469.313.782.313a.814.814,0,0,0,.626-.313c.313-.469.626-1.095.938-1.564a5,5,0,0,0,.469-.782c.156-.313,0-.313-.156-.469s-.782.313-.938.626a3.128,3.128,0,0,0-1.251,2.346Z" transform="translate(-261.923 -317.041)" fill="#263238"/></g><g transform="translate(466.664 476.955)"><path d="M308.48,316.93l.219,25.68,41.117,1.173c0-3.91-21.1-12.512-21.1-12.512l.845-13.263Z" transform="translate(-308.48 -316.93)" fill="#50afc8" stroke="#000" stroke-miterlimit="10" stroke-width="0.5"/><g transform="translate(0.219 22.396)" opacity="0.6"><path d="M349.737,335.707c.2-1.251-1.642-2.1-1.642-2.1l-39.35-2.362-.125,3.284Z" transform="translate(-308.62 -331.25)" fill="#fff"/></g><path d="M320.721,326.249c-1.126.735-1.564,1.971-1.329,1.971s.813-.751,1.767-1.329,2.064-.7,2.08-.86A3.128,3.128,0,0,0,320.721,326.249Z" transform="translate(-302.36 -311.892)" fill="#263238"/><path d="M323.387,328.171c-.813,1.048-.7,2.158-.547,2.158s.5-.923,1.157-1.673,1.564-1.189,1.564-1.345S324.529,327.107,323.387,328.171Z" transform="translate(-300.444 -311.123)" fill="#263238"/><path d="M326.793,330.077c.5-.923,1.157-1.564,1-1.689s-1.095.282-1.564,1.345-.235,2.033-.078,2.033S326.292,331,326.793,330.077Z" transform="translate(-298.626 -310.48)" fill="#263238"/><path d="M321.025,322.414c-1.251,0-2.221.688-2.08.845s1.11-.109,2.205-.219,2.033.235,2.19.094a3.268,3.268,0,0,0-2.315-.719Z" transform="translate(-302.586 -313.843)" fill="#263238"/><path d="M321.5,320.32c-.141-.313-.579-.8-.907-.657s-.313.141-.172.454.3.485.438.813a14.141,14.141,0,0,0,.876,1.564.766.766,0,0,0,.61.328,1.7,1.7,0,0,0,.8-.281,14.59,14.59,0,0,0,1.564-1.329,2.863,2.863,0,0,0,.657-.766,2.016,2.016,0,0,0,.5-.766c.172-.141,0-.313-.141-.469s-.469,0-.626.125a8.3,8.3,0,0,0-.985,1.063,12.875,12.875,0,0,0-1.658,2.44,1.439,1.439,0,0,1,.188-.782,8.868,8.868,0,0,1,1.173-1.986,4.41,4.41,0,0,1,1.142-1.2,1.11,1.11,0,0,1,.954-.125.782.782,0,0,1,.422.97l-.5.907c-.172.313-.485.454-.657.766a13.528,13.528,0,0,1-1.564,1.345,1.658,1.658,0,0,1-1.11.422c-.469.141-.766-.188-1.079-.516a15.293,15.293,0,0,0-.86-1.752,3.38,3.38,0,0,1-.438-.8v-.626c.156-.313.328-.469.485-.454a.719.719,0,0,1,.923.188c.156.172.3.485.454.641a8.21,8.21,0,0,1,.688,2.064v.782A3.128,3.128,0,0,0,321.5,320.32Z" transform="translate(-301.915 -315.94)" fill="#263238"/></g><path d="M289.094,126l-2.315,1.423a44.526,44.526,0,0,0-12.23,13.982c-4.348,8.4-13.763,43.791-13.263,52.862s2.8,11.511,9.384,9.947c6.334-1.486,7.6-12.105,8.664-18.033a250.9,250.9,0,0,1,10.526-38.927" transform="translate(131.558 52.345)" fill="#1a9afc" stroke="#000" stroke-miterlimit="10" stroke-width="0.5"/><path d="M257.747,181.421c-.266-4.6,2.049-16.046,4.973-27.291l16.125,2.721c-1.361,7.648-2.518,14.076-3,16.453-1.564,7.46-2.033,16.484-8.664,18.033S258.248,190.43,257.747,181.421Z" transform="translate(129.561 68.21)" fill="#1a9afc" stroke="#000" stroke-miterlimit="10" stroke-width="0.5"/><path d="M279.62,167.339l1.564,1.126,8.852-17.642a1.251,1.251,0,0,0-.3-1.486h0a.8.8,0,0,0-1.22.344h0Z" transform="translate(141.908 65.417)" fill="#f7f7f7" stroke="#231f20" stroke-miterlimit="10" stroke-width="0.5"/><path d="M343.925,143.47c-.328,20.081-.469,34.924-.109,42.712.109,2.158.485,8.352-2.706,10.088a4.8,4.8,0,0,1-2.643.485c-.766,0-41.289-16.469-41.289-16.469l-13.763-1.877s1.564,1.564.25,1.564-3.832-3.128-4.848-4.973,3.128-12.121,4.6-13.356,15.3,11.2,15.3,11.2L325.471,175q-1.564-12.606-3.253-25.227" transform="translate(141.366 62.198)" fill="#1a9afc" stroke="#000" stroke-miterlimit="10" stroke-width="0.5"/><path d="M283.416,155.112c1.564-1.251,15.3,11.2,15.3,11.2l3.894.313a21.083,21.083,0,0,1-1.767,8.617l-3.66-1.486-13.763-1.877s1.564,1.564.25,1.564-3.832-3.128-4.848-4.973S281.883,156.347,283.416,155.112Z" transform="translate(141.365 68.714)" fill="#f6aaac" stroke="#231f20" stroke-miterlimit="10" stroke-width="0.5"/><path d="M284.92,145.73l25.993,44.464-34.157-1.548L252.03,147.591Z" transform="translate(126.348 63.473)" fill="#142146"/><path d="M260,161.966a13.044,13.044,0,0,0,3.644,1.017c1.564.094,2.925,1.032,2.925,1.971s-2.721,1.11-4.692,1.11-3.5-.516-3.832-2.049S258.171,161.105,260,161.966Z" transform="translate(129.685 72.479)" fill="#f6aaac" stroke="#231f20" stroke-miterlimit="10" stroke-width="0.5"/><path d="M259.079,159.32a16.7,16.7,0,0,0,4.6,1.3c1.939.109,3.722,1.3,3.722,2.487s-3.456,1.408-5.943,1.408-4.442-.641-4.88-2.6S256.78,158.241,259.079,159.32Z" transform="translate(128.839 70.949)" fill="#f6aaac" stroke="#231f20" stroke-miterlimit="10" stroke-width="0.5"/><path d="M258.179,157.04a17.2,17.2,0,0,0,4.582,1.314c1.955.094,3.738,1.282,3.738,2.471s-3.472,1.408-5.959,1.408-4.426-.641-4.864-2.6S255.865,155.961,258.179,157.04Z" transform="translate(128.331 69.663)" fill="#f6aaac" stroke="#231f20" stroke-miterlimit="10" stroke-width="0.5"/><path d="M257.577,154.46a16.454,16.454,0,0,0,4.582,1.3c1.955.109,3.722,1.3,3.722,2.5s-3.456,1.408-5.943,1.408-4.426-.657-4.88-2.612S255.262,153.381,257.577,154.46Z" transform="translate(127.98 68.208)" fill="#f6aaac" stroke="#231f20" stroke-miterlimit="10" stroke-width="0.5"/><path d="M335.88,358.7l6.725.281L348,224.1c.391-10.088.7-11.354,7.538-11.089l29.888,1.2.266-6.725-29.872-1.2c-13.826-.547-14.185,8.242-14.545,17.532Z" transform="translate(173.637 97.612)" fill="#142146"/><path d="M361.76,205.48l33.813,1.345c3.6.141,6.428,2.706,6.256,5.693s-3.128,5.3-6.756,5.161l-33.813-1.345Z" transform="translate(187.951 97.17)" fill="#266593"/><path d="M386.46,391.053l6.725.281,6.631-165.187c.407-10.072.719-11.354,7.554-11.089l29.888,1.2.266-6.725-29.888-1.189c-13.826-.563-14.17,8.227-14.545,17.532Z" transform="translate(202.163 98.774)" fill="#142146"/><path d="M413.11,207.53l33.813,1.361c3.6.141,6.444,2.69,6.256,5.677s-3.128,5.318-6.741,5.161l-33.829-1.345Z" transform="translate(216.911 98.326)" fill="#266593"/><ellipse cx="28.355" cy="24.789" rx="28.355" ry="24.789" transform="matrix(0.04, -1, 1, 0.04, 527.702, 507.59)" fill="#142146"/><ellipse cx="5.13" cy="4.489" rx="5.13" ry="4.489" transform="translate(548.513 485.608) rotate(-87.71)" fill="#fff"/><rect width="132.594" height="7.1" transform="translate(605.873 495.109) rotate(-177.71)" fill="#266593"/><rect width="7.382" height="60.823" transform="translate(589.659 440.325) rotate(-25.77)" fill="#142146"/><ellipse cx="22.193" cy="21.989" rx="22.193" ry="21.989" transform="translate(593.932 515.093) rotate(-87.71)" fill="#142146"/><circle cx="5.536" cy="5.536" r="5.536" transform="translate(611.254 488.262)" fill="#fff"/><rect width="98.343" height="58.227" transform="translate(592.252 399.131) rotate(-177.71)" fill="#1a9afc" stroke="#000" stroke-miterlimit="10" stroke-width="0.5"/><rect width="40.523" height="58.227" transform="translate(592.25 399.137) rotate(-177.71)" opacity="0.37" style="isolation:isolate"/><rect width="12.715" height="9.071" transform="translate(584.077 350.801) rotate(-177.71)" fill="#fff" opacity="0.66"/><rect width="12.715" height="9.071" transform="translate(531.135 348.676) rotate(-177.71)" fill="#fff" opacity="0.66"/><rect width="11.902" height="6.287" transform="matrix(-1, -0.04, 0.04, -1, 512.749, 389.252)" fill="#fff"/><rect width="112.512" height="88.255" transform="translate(588.733 487.318) rotate(-177.71)" fill="#1a9afc" stroke="#000" stroke-miterlimit="10" stroke-width="0.5"/><rect width="46.012" height="88.255" transform="translate(588.73 487.321) rotate(-177.71)" opacity="0.37" style="isolation:isolate"/><rect width="12.715" height="21.583" transform="translate(575.672 420.081) rotate(-177.71)" fill="#fff" opacity="0.66"/><rect width="12.715" height="18.298" transform="translate(515.801 414.373) rotate(-177.71)" fill="#fff" opacity="0.66"/><rect width="21.864" height="11.042" transform="translate(501.593 478.459) rotate(-177.71)" fill="#fff"/><path d="M90.5,226.75h11.073v14.858l-11.073-3.3Z" transform="translate(35.249 109.166)" fill="#fff" opacity="0.66"/><rect width="157.477" height="40.335" transform="translate(210.454 102.79)" fill="#fff" stroke="#266593" stroke-miterlimit="10" stroke-width="0.4"/><rect width="15.108" height="15.108" rx="1.34" transform="translate(222.293 115.395)" fill="#1a9afc"/><path d="M157.8,95.472a.938.938,0,0,1-.563-.188L154.157,93a.954.954,0,0,1-.3-1.3.938.938,0,0,1,1.282-.3l.141.109,2.377,1.783,4.8-5.208a.938.938,0,0,1,1.376,1.267h0l-5.349,5.8a.938.938,0,0,1-.688.313Z" transform="translate(70.904 30.825)" fill="#fff"/><rect width="157.477" height="38.646" transform="translate(210.532 183.413)" fill="#fff" stroke="#266593" stroke-miterlimit="10" stroke-width="0.4"/><rect width="15.108" height="15.108" rx="1.34" transform="translate(222.387 196.034)" fill="#1a9afc"/><path d="M157.859,147.049a.938.938,0,0,1-.563-.188l-3.05-2.3a.938.938,0,1,1,1.126-1.486l2.377,1.783,4.77-5.177a.938.938,0,0,1,1.454,1.173H163.9l-5.38,5.818a.891.891,0,0,1-.657.375Z" transform="translate(70.94 59.902)" fill="#fff"/><rect width="157.477" height="40.335" transform="translate(210.454 62.236)" fill="#fff" stroke="#266593" stroke-miterlimit="10" stroke-width="0.4"/><rect width="15.108" height="15.108" rx="1.34" transform="translate(222.293 74.842)" fill="#1a9afc"/><path d="M157.8,69.576a1.048,1.048,0,0,1-.563-.188l-3.081-2.3a.938.938,0,0,1-.3-1.282.923.923,0,0,1,1.282-.3l.141.094,2.377,1.783,4.77-5.177a.93.93,0,0,1,1.376,1.251h0l-5.349,5.787a.891.891,0,0,1-.657.328Z" transform="translate(70.905 16.198)" fill="#fff"/><path d="M165.306,126.812a1.923,1.923,0,0,0,.563-.125,2.143,2.143,0,0,0,1.189-1,5.974,5.974,0,0,0,.2-2.534q0-1.548,0-3.472v-5.364a3.316,3.316,0,0,0-.094-1.11,1.845,1.845,0,0,0-1.673-1.267h-11.12a1.846,1.846,0,0,0-1.814,1.564c0,.876,0,1.861,0,2.8v7.82a4.692,4.692,0,0,0,0,1.142,1.861,1.861,0,0,0,.516.923,1.814,1.814,0,0,0,.876.485,3.722,3.722,0,0,0,1.017.078h10.353a1.814,1.814,0,0,1-.579,0h-9.7a4.41,4.41,0,0,1-1.11,0,2.252,2.252,0,0,1-1.689-1.658,4.693,4.693,0,0,1-.078-1.236v-9.227a11.3,11.3,0,0,1,0-1.454,2.362,2.362,0,0,1,2.3-1.924H165.54a2.346,2.346,0,0,1,2.033,1.564,3.754,3.754,0,0,1,.125,1.251v10.244a2.456,2.456,0,0,1-.3,1.2,2.143,2.143,0,0,1-1.329,1,1.47,1.47,0,0,1-.766.3Z" transform="translate(70.015 44.027)" fill="#263238"/><path d="M233.559,62.24c0,.125-13.982.235-31.279.235S171,62.365,171,62.24s13.982-.25,31.279-.25S233.559,62.1,233.559,62.24Z" transform="translate(80.649 16.245)" fill="#263238"/><path d="M272.658,66.645c0,.141-22.771.25-50.845.25S171,66.785,171,66.645s22.771-.235,50.845-.235S272.658,66.535,272.658,66.645Z" transform="translate(80.649 18.738)" fill="#263238"/><path d="M233.559,114.165c0,.141-13.982.25-31.279.25S171,114.305,171,114.165s13.982-.235,31.279-.235S233.559,114.039,233.559,114.165Z" transform="translate(80.649 45.538)" fill="#263238"/><path d="M272.67,118.575c0,.141-22.771.25-50.845.25s-50.845-.109-50.845-.25,22.771-.235,50.845-.235S272.67,118.449,272.67,118.575Z" transform="translate(80.638 48.025)" fill="#263238"/><path d="M233.559,87.675c0,.141-13.982.25-31.279.25S171,87.815,171,87.675s13.982-.235,31.279-.235S233.559,87.549,233.559,87.675Z" transform="translate(80.649 30.599)" fill="#263238"/><path d="M272.658,92.09c0,.141-22.771.235-50.845.235S171,92.247,171,92.09s22.771-.25,50.845-.25S272.658,91.965,272.658,92.09Z" transform="translate(80.649 33.08)" fill="#263238"/><path d="M233.559,138.8c0,.141-13.982.25-31.279.25S171,138.945,171,138.8s13.982-.235,31.279-.235S233.559,138.664,233.559,138.8Z" transform="translate(80.649 59.435)" fill="#263238"/><path d="M272.67,143.215c0,.141-22.771.25-50.845.25s-50.845-.109-50.845-.25,22.771-.235,50.845-.235S272.67,143.089,272.67,143.215Z" transform="translate(80.638 61.922)" fill="#263238"/><g transform="translate(177.36 281.364)"><rect width="70.848" height="64.342" fill="#50afc8"/><g clip-path="url(#g)"><rect width="70.848" height="64.342" fill="#1a9afc" stroke="#000" stroke-miterlimit="10" stroke-width="0.5" opacity="0.37" style="isolation:isolate"/></g><rect width="70.848" height="64.342" fill="none" stroke="#000" stroke-miterlimit="10" stroke-width="0.5"/></g><rect width="50.501" height="64.342" transform="translate(177.36 281.364)" fill="#1a9afc" stroke="#000" stroke-miterlimit="10" stroke-width="0.5"/><path d="M138.05,192.41h14.529v24.038L138.05,213.32Z" transform="translate(62.066 89.799)" fill="#fff" opacity="0.66"/><rect width="16.234" height="8.273" transform="translate(183.382 331.771)" fill="#fff"/></g></g></svg>