<svg xmlns="http://www.w3.org/2000/svg" width="12.608" height="10.242" viewBox="0 0 12.608 10.242"><g transform="translate(-1441 -4672)"><g transform="translate(1440.661 4614.473)"><g transform="translate(0.001 57.441)"><path d="M12.609,58.653a5.165,5.165,0,0,1-1.485.407,2.6,2.6,0,0,0,1.137-1.43,5.214,5.214,0,0,1-1.644.628A2.588,2.588,0,0,0,6.21,60.616a7.343,7.343,0,0,1-5.331-2.7,2.589,2.589,0,0,0,.8,3.452,2.587,2.587,0,0,1-1.172-.325v.032A2.589,2.589,0,0,0,2.583,63.61,2.62,2.62,0,0,1,1.9,63.7a2.482,2.482,0,0,1-.487-.048,2.588,2.588,0,0,0,2.416,1.8A5.189,5.189,0,0,1,.618,66.554,5.5,5.5,0,0,1,0,66.519a7.311,7.311,0,0,0,3.965,1.164,7.308,7.308,0,0,0,7.359-7.359l-.009-.335A5.165,5.165,0,0,0,12.609,58.653Z" transform="translate(0.337 -57.355)" fill="#848484"/></g></g></g></svg>