<svg xmlns="http://www.w3.org/2000/svg" width="35.477" height="22.278" viewBox="0 0 35.477 22.278"><path d="M49.386,33.143,42.97,27.867a1,1,0,0,0-.24-.15h0a1,1,0,0,0-.33-.07H38.145V21.841a1,1,0,0,0-1-1H15.281a1,1,0,0,0-1,1V39.2a1,1,0,0,0,1,1H18.6a4,4,0,0,0,7.708,0H38.625a4,4,0,0,0,7.708,0h2.423a1,1,0,0,0,1-1V33.914A1,1,0,0,0,49.386,33.143Zm-8.008-3.5v2.793H38.145V29.639Zm-25.026-6.8H36.143V38.2h-9.8a3.934,3.934,0,0,0-.15-.43.211.211,0,0,0-.06-.17,4,4,0,0,0-.34-.631l-.11-.14a4,4,0,0,0-.34-.41l-.19-.17a4.006,4.006,0,0,0-.36-.29l-.23-.15a4,4,0,0,0-.4-.22l-.25-.11a4,4,0,0,0-.48-.15l-.23-.06a3.754,3.754,0,0,0-1.5,0l-.23.06a4,4,0,0,0-.48.15l-.25.11a4.006,4.006,0,0,0-.41.22l-.22.15a4,4,0,0,0-.37.3l-.18.16a4,4,0,0,0-.37.45l-.08.1a4,4,0,0,0-.35.641.247.247,0,0,1-.05.15,4.005,4.005,0,0,0-.15.44H16.282Zm6.176,18.339a2.092,2.092,0,1,0-.07,0Zm20.021,0a2.092,2.092,0,1,0-.07,0Zm5.275-3H46.363a3.934,3.934,0,0,0-.15-.43.211.211,0,0,0-.06-.17,4,4,0,0,0-.34-.631l-.11-.14a4,4,0,0,0-.34-.41l-.19-.17a4,4,0,0,0-.36-.29l-.23-.15a4,4,0,0,0-.4-.22l-.25-.11a4,4,0,0,0-.48-.15l-.23-.06a3.754,3.754,0,0,0-1.5,0l-.23.06a4,4,0,0,0-.48.15l-.25.11a4,4,0,0,0-.41.22l-.22.15a4,4,0,0,0-.37.3l-.18.16a4.006,4.006,0,0,0-.37.45l-.08.1a4.005,4.005,0,0,0-.35.641.247.247,0,0,1-.05.15,4,4,0,0,0-.15.44h-.45V34.434h4.194a1,1,0,0,0,1-1V30.76l4.415,3.634Z" transform="translate(-14.28 -20.84)"/></svg>