<svg xmlns="http://www.w3.org/2000/svg" width="12.707" height="8.942" viewBox="0 0 12.707 8.942"><g transform="translate(-1621 -4672.999)"><g transform="translate(1621 4627.082)"><path d="M12.211,46.685c-.459-.545-1.305-.768-2.923-.768H3.418c-1.654,0-2.515.237-2.972.817A4.167,4.167,0,0,0,0,49.288v2.2c0,2.236.529,3.371,3.418,3.371H9.289a3.7,3.7,0,0,0,2.682-.677,3.548,3.548,0,0,0,.736-2.694v-2.2A4.06,4.06,0,0,0,12.211,46.685ZM8.158,50.692,5.492,52.085a.41.41,0,0,1-.6-.363V48.944a.41.41,0,0,1,.6-.364l2.666,1.384a.41.41,0,0,1,0,.727Z" fill="#848484"/></g></g></svg>