<svg xmlns="http://www.w3.org/2000/svg" width="57.559" height="15.784" viewBox="0 0 57.559 15.784"><g transform="translate(-986 -5124.999)"><g transform="translate(38.2 4661.259)"><path d="M954.35,475.48a11.326,11.326,0,0,1-.107,1.813,2.72,2.72,0,0,1-.69,1.512,2.57,2.57,0,0,1-1.907.71,2.511,2.511,0,0,1-1.954-.83v.74H947.8v-9.682h1.953v2.5a2.423,2.423,0,0,1,1.893-.782,2.6,2.6,0,0,1,1.908.71,2.8,2.8,0,0,1,.69,1.512,11.279,11.279,0,0,1,.106,1.8Zm-1.954,0a4.1,4.1,0,0,0-.225-1.6,1.249,1.249,0,0,0-2.193,0,4.119,4.119,0,0,0-.225,1.6,4.213,4.213,0,0,0,.225,1.616,1.248,1.248,0,0,0,2.193,0A4.143,4.143,0,0,0,952.4,475.484Zm17.863,3.945h-1.953v-4.766a1.424,1.424,0,0,0-.422-1.118,1.235,1.235,0,0,0-.871-.318,1.264,1.264,0,0,0-.886.318,1.421,1.421,0,0,0-.42,1.118v4.762h-1.954v-7.87h1.91v.725a2.558,2.558,0,0,1,1.953-.815,2.492,2.492,0,0,1,1.847.694,3.04,3.04,0,0,1,.8,2.237Zm-9.753-7.874h1.932v7.875h-1.932v-.924a2.736,2.736,0,0,1-4.355-.125,4.624,4.624,0,0,1-.906-2.914,4.486,4.486,0,0,1,.906-2.865,2.879,2.879,0,0,1,2.263-1.142,1.929,1.929,0,0,1,2.1,1.1Zm-.1,3.925a3.435,3.435,0,0,0-.275-1.6,1.7,1.7,0,0,0-2.677,0,3.474,3.474,0,0,0-.275,1.6,3.511,3.511,0,0,0,.275,1.616,1.7,1.7,0,0,0,2.677,0A3.466,3.466,0,0,0,960.407,475.48Zm44.949,3.936h-1.067a2.162,2.162,0,0,1-1.728-.711,2.259,2.259,0,0,1-.54-1.542v-3.9h-1.151l.32-1.721h.825v-1.81h1.961v1.81h1.383v1.721h-1.383v3.777q0,.713.676.712h.707Zm-5.074-7.92a3.691,3.691,0,0,0-.585-.046,2.426,2.426,0,0,0-1.969.847v-.757h-1.906v7.876h1.952V474.67a1.5,1.5,0,0,1,.406-1.1,1.118,1.118,0,0,1,.856-.348l.864.009a17,17,0,0,1,.382-1.731Zm-7.725.059h1.933v7.875h-1.933v-.924a2.735,2.735,0,0,1-4.354-.125,4.624,4.624,0,0,1-.906-2.914,4.486,4.486,0,0,1,.906-2.865,2.879,2.879,0,0,1,2.256-1.144,1.93,1.93,0,0,1,2.1,1.1Zm-.1,3.925a3.417,3.417,0,0,0-.277-1.6,1.7,1.7,0,0,0-2.676,0,4.85,4.85,0,0,0,0,3.22,1.7,1.7,0,0,0,2.676,0,3.45,3.45,0,0,0,.276-1.616Zm-14.06-5.749L973.17,475v-3.41h-1.794v7.857l9.65-9.714H978.4Zm8.63,0L981.8,475v-3.41h-1.79v7.857l9.652-9.714h-2.631Zm-3.642,7.385,1.434,2.31h2.317l-2.36-3.7-1.39,1.394Zm-8.644,0,1.436,2.31h2.315l-2.36-3.7-1.39,1.394Z" fill="#e11931"/><path d="M953.3,464.98l-.388.322-.26.212v.974l.135-.108v.452l-.134.108v.974l.134-.11v.452l-.134.11v.974l.259-.212.388-.321.516-.423V466.75a.238.238,0,0,0-.1-.174.269.269,0,0,0,.1-.226v-1.792l-.517.423Zm.333,2.482a.207.207,0,0,1-.1.183l-.229.188-.33.274v-.452l.33-.274.2-.16c.066-.057.133-.043.133.033Zm0-1.426a.208.208,0,0,1-.1.183l-.229.188-.33.273v-.452l.33-.273.2-.16c.066-.057.133-.044.133.033Zm-.464-1.234v-.348l-.257.215-.076.063v-.364l.076-.063.257-.217v-.348l-.257.217-.259.217v1.062l.259-.217Zm-1.228-1.062v.348l.166.14v.382l-.065-.054v.348l.155.133.158.134v-.349l-.067-.056v-.384l.166.14v-.348l-.257-.217Zm-.648.818v.974l.9.746.108.088-.108.113-.133.138-.771-.633v.974l.246.2-.246.251v.974l.9.744.257.212v-.974l-.257-.212-.753-.622.244-.25.509.42.257.212v-.974l-.241-.2.241-.251v-.974l-.257-.212Z" fill="#ec1c24" fill-rule="evenodd"/><path d="M957.008,467.612H955.7l1.3-2.184v-.381a.009.009,0,0,0-.01-.01h-1.72s-.007,0-.01.008l-.1.39,0,.009c0,.005.005.005.008.005h1.257l-1.328,2.2v.367a.009.009,0,0,0,.01.01h1.787c.005,0,.008,0,.01-.008l.12-.393,0-.01Zm.513-2.6a.328.328,0,1,0,.315.33A.321.321,0,0,0,957.521,465.016Zm.229.763h0l-.468.087a.01.01,0,0,0-.01.01v2.144a.01.01,0,0,0,.01.01h.471a.011.011,0,0,0,.01-.01v-2.23l0-.007-.008,0Zm6.244,1.91-.005,0h0a.506.506,0,0,1-.2.042c-.2,0-.253-.071-.253-.335v-1.265h.383a.009.009,0,0,0,.01-.008l.123-.325c0-.005,0-.008,0-.01s-.005-.006-.01-.006h-.5v-.586l-.006-.008-.005,0h0l-.461.082a.018.018,0,0,0-.01.013v.5h-.227a.011.011,0,0,0-.01.01v.328a.011.011,0,0,0,.01.01h.226v1.39a.51.51,0,0,0,.57.568.991.991,0,0,0,.425-.1.011.011,0,0,0,.005-.01l-.06-.286Zm-3.68-.18a.47.47,0,0,1-.374.22c-.177,0-.284-.122-.284-.323,0-.243.1-.4.594-.4a.608.608,0,0,1,.065,0v.5Zm.46-1.363a.645.645,0,0,0-.665-.367,1.441,1.441,0,0,0-.62.135l-.005.008-.083.457a.011.011,0,0,0,.005.01l.005,0,.008,0a1.24,1.24,0,0,1,.628-.245c.242,0,.286.121.286.372v.148H960.2c-.7,0-1.07.264-1.07.766a.633.633,0,0,0,.721.665.725.725,0,0,0,.466-.148v.135a.012.012,0,0,0,.01.013h.47c.005,0,.01-.005.01-.013v-1.4a1.532,1.532,0,0,0-.034-.536Zm1.405,1.363a.473.473,0,0,1-.375.22c-.18,0-.286-.122-.286-.323,0-.243.1-.4.593-.4.024,0,.053,0,.068,0Zm.456-1.363a.638.638,0,0,0-.662-.367,1.429,1.429,0,0,0-.62.135l-.007.008-.086.5c0,.006,0,.008.005.011l.005,0,.008,0a1.253,1.253,0,0,1,.63-.246c.245,0,.287.12.287.37v.106h-.133c-.7,0-1.07.264-1.07.766a.634.634,0,0,0,.724.665.722.722,0,0,0,.463-.148v.135c0,.008.005.013.01.013h.47c.005,0,.01-.005.01-.013v-1.4A1.481,1.481,0,0,0,962.635,466.146Zm-3.453.194h0l.005,0c.005,0,.005,0,.008-.008l.08-.446a.01.01,0,0,0-.007-.01.329.329,0,0,0-.16-.032.662.662,0,0,0-.536.325v-.376l0-.008-.008,0h0l-.43.077s-.01.005-.01.01v2.154a.012.012,0,0,0,.01.01h.468a.011.011,0,0,0,.01-.01V466.6a.414.414,0,0,1,.393-.314.59.59,0,0,1,.162.045l.018.008Zm7.054,1.247a.628.628,0,0,1-.427.121H965.2v-1.086h.505a.815.815,0,0,1,.5.1.556.556,0,0,1,.187.462.512.512,0,0,1-.15.4Zm-1.039-2.248h.482a.589.589,0,0,1,.4.11.524.524,0,0,1,.02.746.559.559,0,0,1-.382.113H965.2v-.97Zm1.31,1.241a.893.893,0,0,0-.346-.15.79.79,0,0,0,.286-.172.636.636,0,0,0,.206-.475.725.725,0,0,0-.313-.59,1.378,1.378,0,0,0-.8-.166h-.688a.009.009,0,0,0-.01.01v2.972c0,.008,0,.01.01.01h.755a1.245,1.245,0,0,0,.938-.234.8.8,0,0,0,.234-.59A.759.759,0,0,0,966.507,466.58Zm3.252-.787a.753.753,0,0,0-.362.1,1.1,1.1,0,0,0-.3.222V465.8l0-.008-.008,0h0l-.328.058s-.01.006-.01.01v2.156c0,.008.005.01.013.01h.333a.009.009,0,0,0,.01-.01v-1.6a1,1,0,0,1,.271-.2.659.659,0,0,1,.308-.1.307.307,0,0,1,.226.087.471.471,0,0,1,.073.333v1.48c0,.007.005.01.013.01h.333a.009.009,0,0,0,.01-.01V466.37a.588.588,0,0,0-.051-.257.576.576,0,0,0-.529-.322Zm1.617,1,.878-.985a.012.012,0,0,0,0-.013.012.012,0,0,0-.01-.006h-.42l-.007,0-.852.985v-1.736l-.005-.008-.005,0h0l-.333.061a.009.009,0,0,0-.008.01v2.911a.009.009,0,0,0,.01.01h.334a.009.009,0,0,0,.01-.01V466.8l.972,1.215.007,0h.446l.01-.005,0-.011-1.023-1.215Zm-3.24.684a.584.584,0,0,1-.51.328.362.362,0,0,1-.263-.1.387.387,0,0,1-.088-.283.453.453,0,0,1,.128-.346.919.919,0,0,1,.585-.158.8.8,0,0,1,.115.005l.034,0v.549Zm-.288-1.688a1.386,1.386,0,0,0-.464.08,1.767,1.767,0,0,0-.19.079l0,.008-.065.375c0,.005,0,.01.005.01l0,0,.008,0a1.236,1.236,0,0,1,.294-.171,1.119,1.119,0,0,1,.378-.082.33.33,0,0,1,.268.1.354.354,0,0,1,.076.254v.224c-.042,0-.084,0-.136,0a1.561,1.561,0,0,0-.833.2.673.673,0,0,0-.307.587c0,.388.258.62.692.62a.785.785,0,0,0,.568-.232v.222a.009.009,0,0,0,.01.01h.326a.011.011,0,0,0,.01-.01v-1.614a.917.917,0,0,0-.028-.317C968.413,466,968.272,465.785,967.848,465.785Z" fill="#231f20"/><path d="M973.587,467.472a.582.582,0,0,1-.51.328.355.355,0,0,1-.26-.1.376.376,0,0,1-.092-.283.453.453,0,0,1,.128-.346.919.919,0,0,1,.585-.158.8.8,0,0,1,.115.005l.034,0Zm-.29-1.688a1.379,1.379,0,0,0-.463.08,1.509,1.509,0,0,0-.187.079s-.008.005-.008.008l-.065.375c0,.005,0,.01.005.01l.005,0,.008,0a1.2,1.2,0,0,1,.3-.171,1.109,1.109,0,0,1,.375-.082.337.337,0,0,1,.27.1.362.362,0,0,1,.074.254v.224c-.04,0-.084,0-.133,0a1.564,1.564,0,0,0-.836.2.678.678,0,0,0-.307.587c0,.388.258.62.692.62a.785.785,0,0,0,.568-.232v.222a.011.011,0,0,0,.01.01h.326c.008,0,.013-.005.013-.01v-1.614a.978.978,0,0,0-.031-.317c-.045-.13-.185-.346-.612-.346Zm1.91.983-.277-.066c-.218-.05-.31-.138-.31-.3a.341.341,0,0,1,.38-.336,1.106,1.106,0,0,1,.508.145l.006,0h.005l.005-.008.115-.24s0-.01-.006-.013a1.312,1.312,0,0,0-.648-.167.677.677,0,0,0-.758.66.567.567,0,0,0,.508.59l.26.052c.25.048.365.159.365.352a.363.363,0,0,1-.4.359,1.4,1.4,0,0,1-.671-.206h-.008l-.005.005-.123.246a.01.01,0,0,0,.005.013,1.607,1.607,0,0,0,.771.217.733.733,0,0,0,.826-.714.6.6,0,0,0-.545-.591Zm1.064-.98-.005,0h0l-.334.058c-.005,0-.01.006-.01.01v2.156c0,.008.005.01.013.01h.333a.009.009,0,0,0,.01-.01V465.8Z" fill="#231f20"/></g></g></svg>