<svg xmlns="http://www.w3.org/2000/svg" width="116.826" height="97" viewBox="0 0 116.826 97"><g transform="translate(-1042 -666)"><g transform="translate(-4)"><g transform="translate(1045.715 665.843)"><g transform="translate(0.285 0.157)" fill="none" stroke="#1a9afc" stroke-width="5" opacity="0.075"><circle cx="48.5" cy="48.5" r="48.5" stroke="none"/><circle cx="48.5" cy="48.5" r="46" fill="none"/></g><g transform="translate(26.73 13.005)"><g transform="translate(0 0)"><path d="M85.711,90.113H75.318V63a7.541,7.541,0,0,0-7.532-7.532H22.6A7.541,7.541,0,0,0,15.063,63v9.038H6.8a6.807,6.807,0,0,0-6.8,6.8v40.629a6.807,6.807,0,0,0,6.8,6.8H30.859a6.789,6.789,0,0,0,6.378-4.519h26.03a1.506,1.506,0,0,0,1.506-1.506v-3.013a4.519,4.519,0,0,0-4.519-4.519H55.735v-6.025H67.786V121.6a4.67,4.67,0,0,0,4.67,4.67H85.711a4.67,4.67,0,0,0,4.67-4.67V94.783A4.67,4.67,0,0,0,85.711,90.113ZM34.646,119.466a3.79,3.79,0,0,1-3.787,3.787H6.8a3.79,3.79,0,0,1-3.787-3.787v-.732H34.646v.732Zm0-3.745H3.013V82.581H34.646Zm0-36.152H3.013v-.732A3.79,3.79,0,0,1,6.8,75.049H30.859a3.79,3.79,0,0,1,3.787,3.787v.732Zm25.608,36.152a1.506,1.506,0,0,1,1.506,1.506v1.506h-24.1v-3.013Zm-22.6-3.013v-6.025H52.722v6.025Zm30.127-9.038H37.659V99.151H67.786Zm0-8.887v1.356H37.659v-17.3a6.807,6.807,0,0,0-6.8-6.8H18.076V63A4.519,4.519,0,0,1,22.6,58.48H67.786A4.519,4.519,0,0,1,72.3,63V90.128A4.67,4.67,0,0,0,67.786,94.783ZM87.368,121.6a1.657,1.657,0,0,1-1.657,1.657H72.455A1.657,1.657,0,0,1,70.8,121.6V120.24h16.57Zm0-4.368H70.8V99.151h16.57Zm0-21.089H70.8V94.783a1.657,1.657,0,0,1,1.657-1.657H85.711a1.657,1.657,0,0,1,1.657,1.657Z" transform="translate(0 -55.467)" fill="#1a9afc"/></g></g></g></g></g></svg>