<svg xmlns="http://www.w3.org/2000/svg" width="99.016" height="50" viewBox="0 0 99.016 50"><g transform="translate(-599 -374)"><g transform="translate(37)"><g transform="translate(562 374)" fill="#385c8e" stroke="#385c8e" stroke-width="1"><rect width="99.016" height="50" rx="25" stroke="none"/><rect x="0.5" y="0.5" width="98.016" height="49" rx="24.5" fill="none"/></g><path d="M127.06,12.493h2.571V23.078a.378.378,0,0,0,.378.378h4.36a.378.378,0,0,0,.378-.378V12.543H137.7a.378.378,0,0,0,.376-.335l.449-3.9a.378.378,0,0,0-.376-.422h-3.4V5.446c0-.736.4-1.11,1.179-1.11h2.226a.378.378,0,0,0,.378-.378V.381A.378.378,0,0,0,138.153,0h-3.068c-.022,0-.07,0-.141,0A5.879,5.879,0,0,0,131.1,1.449a4.031,4.031,0,0,0-1.341,3.583V7.889h-2.7a.378.378,0,0,0-.378.378v3.847A.378.378,0,0,0,127.06,12.493Z" transform="translate(478.318 387)" fill="#fff"/></g></g></svg>