<svg xmlns="http://www.w3.org/2000/svg" width="99.016" height="50" viewBox="0 0 99.016 50"><g transform="translate(-443 -374)"><rect width="99.016" height="50" rx="25" transform="translate(443 374)" fill="#ececec"/><g transform="translate(483 389)"><path d="M4.27,144.708l-.671,2.5-2.451.052a9.651,9.651,0,0,1-.071-9h0l2.182.4.956,2.169a5.749,5.749,0,0,0,.054,3.871Z" transform="translate(0 -133.065)" fill="#fbbb00"/><path d="M270.882,208.176a9.63,9.63,0,0,1-3.434,9.312h0l-2.749-.14-.389-2.429a5.742,5.742,0,0,0,2.47-2.932h-5.151v-3.811h9.254Z" transform="translate(-251.782 -200.342)" fill="#518ef8"/><path d="M45.025,314.911h0a9.637,9.637,0,0,1-14.517-2.947l3.122-2.556a5.73,5.73,0,0,0,8.256,2.934Z" transform="translate(-29.361 -297.765)" fill="#28b446"/><path d="M43.33,2.218,40.209,4.773a5.729,5.729,0,0,0-8.446,3L28.625,5.2h0A9.636,9.636,0,0,1,43.33,2.218Z" transform="translate(-27.547)" fill="#f14336"/></g></g></svg>