<svg xmlns="http://www.w3.org/2000/svg" width="117.019" height="97" viewBox="0 0 117.019 97"><g transform="translate(-1300 -666)"><g transform="translate(-4)"><g transform="translate(1303.951 665.843)"><g transform="translate(0.049 0.157)" fill="none" stroke="#1a9afc" stroke-width="5" opacity="0.075"><circle cx="48.5" cy="48.5" r="48.5" stroke="none"/><circle cx="48.5" cy="48.5" r="46" fill="none"/></g><g transform="translate(22.542 10.04)"><path d="M417.871,753.322c5.252-.963,10.311-1.611,13.533-1.388,3.011.21,13.165,4.479,28.429,11.781a5.122,5.122,0,0,1-3.37,9.609l-11.611-2.7,14.32,7.123,25.134.177.254.046a5.884,5.884,0,0,1-.848,11.67l-32.732,3.869-33.109-9.639v4.615H401V747.8h16.871Zm-2.977.556v-3.1H403.977V785.51h10.917v-2.5l-.013,0V753.88Zm68.612,32.791a2.907,2.907,0,0,0,.52-5.767l-25.564-.18-21.494-10.691a2.119,2.119,0,0,1,1.424-3.962l18.743,4.355a2.145,2.145,0,0,0,1.413-4.023c-14.693-7.029-24.917-11.327-27.352-11.5-3.777-.261-11.119,1.033-13.339,1.448v24.416l33.373,9.716Zm.8-29,.652-2.7,10.545,2.545-2.381,10.582-2.71-.61,1.3-5.79a22.14,22.14,0,0,1-29.127-3.1,22.161,22.161,0,0,1,32.666-29.955l.268.293-2.049,1.878-.268-.293a19.4,19.4,0,1,0-2.741,28.643l-6.157-1.487Z" transform="translate(-401 -721.463)" fill="#1a9afc" fill-rule="evenodd"/><path d="M478.623,741.365v9.847a7.243,7.243,0,0,0,2.9-.545,5.768,5.768,0,0,0,2.111-1.533,6.687,6.687,0,0,0,1.29-2.367,9.952,9.952,0,0,0,.44-3.044h2.517a13.2,13.2,0,0,1-.645,4.289,7.8,7.8,0,0,1-2,3.166,8.841,8.841,0,0,1-3.436,1.964,16.2,16.2,0,0,1-4.967.676h-.894v-11.3L472,744.169v-2.144l3.94-1.65v-2.408L472,739.616v-2.128l3.94-1.666V730h2.684v4.684l6.077-2.573v2.128l-6.077,2.573v2.424l6.077-2.589v2.144Z" transform="translate(-401.539 -721.527)" fill="#1a9afc" fill-rule="evenodd"/></g></g></g></g></svg>