<svg xmlns="http://www.w3.org/2000/svg" xmlns:xlink="http://www.w3.org/1999/xlink" width="256" height="71" viewBox="0 0 256 71"><defs><clipPath id="a"><rect width="256" height="71" transform="translate(415 256)" fill="#fff" stroke="#707070" stroke-width="1"/></clipPath><clipPath id="b"><path d="M.292,14.144A.291.291,0,0,1,0,13.853V.292A.292.292,0,0,1,.292,0H2.541a.292.292,0,0,1,.292.292V13.853a.291.291,0,0,1-.292.292Z" transform="translate(0)"/></clipPath><linearGradient id="c" x1="-25.328" y1="1.657" x2="-25.328" y2="0.657" gradientUnits="objectBoundingBox"><stop offset="0" stop-color="#5e6c62" stop-opacity="0.275"/><stop offset="0.05" stop-color="#5e6c62"/><stop offset="0.95" stop-color="#5e6c62"/><stop offset="1" stop-color="#5e6c62" stop-opacity="0.275"/></linearGradient><clipPath id="d"><rect width="2.834" height="4.802" rx="0.451" transform="translate(0 0)"/></clipPath><linearGradient id="e" x1="1" y1="0" x2="1" y2="1" xlink:href="#c"/><clipPath id="f"><path d="M.292,39.688A.291.291,0,0,0,0,39.98v8.36a.292.292,0,0,0,.292.292H2.541a.292.292,0,0,0,.292-.292V39.98a.291.291,0,0,0-.292-.292Z" transform="translate(0 -39.688)"/></clipPath><linearGradient id="g" x1="-25.328" y1="-1.063" x2="-25.328" y2="-0.063" xlink:href="#c"/><clipPath id="j"><path d="M10.014.533A9.157,9.157,0,0,0,.837,9.71V114.28a9.157,9.157,0,0,0,9.177,9.177H52.245a9.157,9.157,0,0,0,9.177-9.177V9.71A9.157,9.157,0,0,0,52.245.533Zm-.244.682H52.489a8.2,8.2,0,0,1,8.219,8.219v105.22a8.2,8.2,0,0,1-8.219,8.219H9.77a8.2,8.2,0,0,1-8.219-8.219V9.433A8.2,8.2,0,0,1,9.77,1.214Z" transform="translate(-0.837 -0.533)" fill="#ebebeb"/></clipPath><linearGradient id="k" x1="37.816" y1="1.77" x2="39.188" y2="1.77" gradientUnits="objectBoundingBox"><stop offset="0" stop-color="#404040"/><stop offset="0.6" stop-color="#838383"/><stop offset="1" stop-color="#a7a7a7"/></linearGradient><linearGradient id="l" x1="51.922" y1="1.77" x2="53.294" y2="1.77" xlink:href="#k"/><linearGradient id="m" x1="-0.001" y1="7.13" x2="1.002" y2="7.13" gradientUnits="objectBoundingBox"><stop offset="0" stop-color="#4f4f4f" stop-opacity="0.129"/><stop offset="0.07" stop-color="#4f4f4f"/><stop offset="0.937" stop-color="#4f4f4f" stop-opacity="0.953"/><stop offset="1" stop-color="#4f4f4f" stop-opacity="0"/></linearGradient><linearGradient id="n" x1="-0.001" y1="-53.647" x2="0.999" y2="-53.647" xlink:href="#m"/><clipPath id="o"><path d="M9.177,122.924A9.157,9.157,0,0,1,0,113.747V9.177A9.157,9.157,0,0,1,9.177,0H51.408a9.157,9.157,0,0,1,9.177,9.177v104.57a9.157,9.157,0,0,1-9.177,9.177Zm-.244-.682H51.652a8.2,8.2,0,0,0,8.219-8.219V8.8A8.2,8.2,0,0,0,51.652.584H8.933A8.2,8.2,0,0,0,.714,8.8v105.22a8.2,8.2,0,0,0,8.219,8.219Z" transform="translate(0 0)" fill="#ebebeb"/></clipPath><clipPath id="p"><path d="M9.177,0A9.157,9.157,0,0,0,0,9.177v104.57a9.157,9.157,0,0,0,9.177,9.177H51.408a9.157,9.157,0,0,0,9.177-9.177V9.177A9.157,9.157,0,0,0,51.408,0ZM8.933.682H51.652A8.2,8.2,0,0,1,59.872,8.9V114.12a8.2,8.2,0,0,1-8.219,8.219H8.933A8.2,8.2,0,0,1,.714,114.12V8.9A8.2,8.2,0,0,1,8.933.682Z" transform="translate(0 0)" fill="#ebebeb"/></clipPath><clipPath id="q"><path d="M10.014-67.468A9.157,9.157,0,0,1,.837-76.645v-104.57a9.157,9.157,0,0,1,9.177-9.177H52.245a9.157,9.157,0,0,1,9.177,9.177v104.57a9.157,9.157,0,0,1-9.177,9.177ZM9.77-68.15H52.489a8.2,8.2,0,0,0,8.219-8.219v-105.22a8.2,8.2,0,0,0-8.219-8.219H9.77a8.2,8.2,0,0,0-8.219,8.219v105.22A8.2,8.2,0,0,0,9.77-68.15Z" transform="translate(-0.837 190.392)" fill="#ebebeb"/></clipPath></defs><g transform="translate(-415 -256)"><g clip-path="url(#a)"><g transform="translate(418.678 274.256)"><g transform="translate(64.489 10.236)"><path d="M215.637,34.945a.291.291,0,0,1,.292.292V48.8a.291.291,0,0,1-.292.292h-2.249a.291.291,0,0,1-.292-.292V35.237a.291.291,0,0,1,.292-.292Z" transform="translate(-213.096 -34.945)" fill="#4e5c52"/><g transform="translate(2.834 14.144) rotate(180)" clip-path="url(#b)"><path d="M.26,13.623a.26.26,0,0,1-.26-.26V.26A.26.26,0,0,1,.26,0H.341V13.623Z" transform="translate(0.094 0.261)" fill="url(#c)"/></g></g><g transform="translate(0 -1.644)"><rect width="2.834" height="4.802" rx="0.451" transform="translate(0 0)" fill="#4e5c52"/><g transform="translate(0 0)" clip-path="url(#d)"><path d="M-13.472,26.259a.26.26,0,0,0-.26.26v3.76a.26.26,0,0,0,.26.26h.081V26.259Z" transform="translate(13.827 -25.998)" fill="url(#e)"/></g><path d="M116.1,30.293a.291.291,0,0,0-.292.292v8.36a.292.292,0,0,0,.292.292h2.249a.292.292,0,0,0,.292-.292v-8.36a.291.291,0,0,0-.292-.292Z" transform="translate(-115.808 -21.338)" fill="#4e5c52"/><g transform="translate(0 8.955)" clip-path="url(#f)"><path d="M.405,40.09a.26.26,0,0,0-.26.26v7.9a.26.26,0,0,0,.26.26H.486V40.09Z" transform="translate(-0.051 -39.83)" fill="url(#g)"/></g><path d="M116.1,47.666a.291.291,0,0,0-.292.292v8.36a.292.292,0,0,0,.292.292h2.249a.292.292,0,0,0,.292-.292v-8.36a.291.291,0,0,0-.292-.292Z" transform="translate(-115.808 -27.463)" fill="#4e5c52"/><g transform="translate(0 20.203)" clip-path="url(#f)"><path d="M.405,40.09a.26.26,0,0,0-.26.26v7.9a.26.26,0,0,0,.26.26H.486V40.09Z" transform="translate(-0.051 -39.83)" fill="url(#g)"/></g></g><g transform="translate(0.336 -18.256)"><path d="M9.56,0A9.021,9.021,0,0,0,.519,9.041V126.458A9.022,9.022,0,0,0,9.56,135.5H30.709l.374-.531H36.6l.375.531H58.127a9.022,9.022,0,0,0,9.041-9.042V9.041A9.021,9.021,0,0,0,58.127,0H9.56Z" transform="translate(-0.519 0)" fill="#3c4940"/><rect width="65.67" height="134.58" rx="14.032" transform="translate(0.573 0.508)"/><g transform="translate(0.206 0.259)"><path d="M.837.912H1.55V.068H.837Z" transform="translate(-0.837 11.537)" fill="#424f46"/><path d="M.837,111.5H1.55V1.371H.837Z" transform="translate(-0.837 11.077)" fill="#57645b"/><path d="M.837,172.312H1.55v-.844H.837Z" transform="translate(-0.837 -48.891)" fill="#424f46"/><path d="M67.1,172.779h-.714V175.6a8.215,8.215,0,0,1-8.243,8.212H9.77a8.2,8.2,0,0,1-8.22-8.22v-2.823H.837v2.449a9.157,9.157,0,0,0,9.177,9.177H57.9a9.171,9.171,0,0,0,9.2-9.17Z" transform="translate(-0.837 -49.35)" fill="#57645b"/><path d="M10.014-17.856A9.157,9.157,0,0,0,.837-8.679v2.428H1.55v-2.7a8.2,8.2,0,0,1,8.22-8.219l48.4.008a8.2,8.2,0,0,1,8.22,8.219v2.7H67.1V-8.671a9.158,9.158,0,0,0-9.177-9.177Z" transform="translate(-0.837 17.856)" fill="#57645b"/></g><g transform="translate(0.206 0.216)" clip-path="url(#j)"><path d="M6.218,3.063C5.09,3.034,2.939,3.376.731,5.857-2.481,9.467.395,7.3.395,7.3S2.368,4.236,5.121,3.839s1.912-.673,1.912-.673A3.459,3.459,0,0,0,6.218,3.063Z" transform="translate(-0.263 -1.424)" fill="#3d4a41" fill-rule="evenodd"/></g></g><g transform="translate(1.859 -15.755)"><path d="M94.82,4.064c-.2-.02-.106.181.345.6a7.6,7.6,0,0,1,2.415,5.6V128.447a7.6,7.6,0,0,1-2.415,5.6c-.452.418-.546.619-.345.6a2.3,2.3,0,0,0,.669-.274,7.068,7.068,0,0,0,3.441-6.329V10.667a7.068,7.068,0,0,0-3.441-6.329,2.3,2.3,0,0,0-.669-.274Z" transform="translate(-35.326 -4.063)" fill="url(#k)"/><path d="M7.1,4.064c.2-.02.106.181-.345.6a7.6,7.6,0,0,0-2.415,5.6V128.447a7.6,7.6,0,0,0,2.415,5.6c.452.418.546.619.345.6a2.3,2.3,0,0,1-.669-.274,7.068,7.068,0,0,1-3.441-6.329V10.667A7.068,7.068,0,0,1,6.426,4.338,2.3,2.3,0,0,1,7.1,4.064Z" transform="translate(-2.985 -4.063)" fill="url(#l)"/></g><g transform="translate(29.951 -14.148)"><rect width="7.357" height="0.933" rx="0.466" transform="translate(0 0.464)"/><circle cx="0.871" cy="0.871" r="0.871" transform="translate(9.416)" fill="#161616"/><circle cx="0.698" cy="0.698" r="0.698" transform="translate(9.589 0.173)" fill="#0a0d13"/><circle cx="0.532" cy="0.532" r="0.532" transform="translate(9.756 0.339)" fill="#091427"/></g><path d="M61.5-11.115c-.063.007-.153.1-.159.292s.076.292.123.292a.431.431,0,0,0,.036-.584Z" transform="translate(-21.624 -2.518)" fill="rgba(35,90,145,0.56)" fill-rule="evenodd"/><path d="M62.219-11.225c-.1.031-.119.191-.115.283s.134.333.291.279a.275.275,0,0,0,.119-.386C62.449-11.183,62.33-11.279,62.219-11.225Z" transform="translate(-21.895 -2.473)" fill="rgba(35,90,145,0.56)" fill-rule="evenodd"/><path d="M12.423-15.878a7.565,7.565,0,0,0-4.041,1.16v.974A7.055,7.055,0,0,1,12.267-14.9H38.3l22.793.077a7.1,7.1,0,0,1,3.885,1.156v-.974a7.61,7.61,0,0,0-4.041-1.16L38.3-15.878H12.423Z" transform="translate(-2.955 -0.838)" fill="url(#m)"/><path d="M12.423,187.489a7.566,7.566,0,0,1-4.041-1.16v-.974a7.055,7.055,0,0,0,3.885,1.156H61.052a7.055,7.055,0,0,0,3.885-1.156v.974a7.566,7.566,0,0,1-4.041,1.16H12.423Z" transform="translate(-2.955 -71.783)" fill="url(#n)"/><g transform="translate(20.995 -14.317)"><circle cx="0.581" cy="0.581" r="0.581" transform="translate(0 0.459)" fill="rgba(255,255,255,0.07)"/><circle cx="1.04" cy="1.04" r="1.04" transform="translate(22.798 0)" fill="rgba(255,255,255,0.07)"/><circle cx="0.857" cy="0.857" r="0.857" transform="translate(4.612 0.184)" fill="rgba(255,255,255,0.07)"/></g><path d="M46.726-11.193a.465.465,0,0,0-.466.466.465.465,0,0,0,.466.466H53.15a.465.465,0,0,0,.466-.466.465.465,0,0,0-.466-.466Z" transform="translate(-16.309 -2.49)" fill="none" stroke="#292929" stroke-linecap="round" stroke-width="0.053"/><g transform="translate(29.802 -13.366)"><path d="M42.094,7.9a.149.149,0,1,1-.149-.149.149.149,0,0,1,.149.149Z" transform="translate(-41.797 -7.753)" fill="#fff"/><path d="M53.457,7.9a.149.149,0,1,1-.149-.149.149.149,0,0,1,.149.149Z" transform="translate(-45.803 -7.753)" fill="#fff"/></g><g transform="translate(4.061 -17.997)"><path d="M84.841-17.174v-.682H84v.682Z" transform="translate(-33.674 17.856)" fill="#424f46"/><path d="M18.681,189.826v.584h.843v-.584Z" transform="translate(-10.647 -55.363)" fill="#424f46"/><path d="M11.766,5.675a5.482,5.482,0,0,0-5.494,5.494V128.332a5.482,5.482,0,0,0,5.494,5.494H59.978a5.482,5.482,0,0,0,5.494-5.494V11.169a5.482,5.482,0,0,0-5.494-5.494h-8.2a.918.918,0,0,0-.918.918v.423A2.978,2.978,0,0,1,47.875,10H23.87a2.978,2.978,0,0,1-2.985-2.985V6.593a.918.918,0,0,0-.918-.918Z" transform="translate(-6.272 -2.26)" fill="#1a9afc"/><path d="M102.078,111.512h.714V1.383h-.714Z" transform="translate(-40.049 11.073)" fill="#57645b"/><path d="M102.078.923h.714V.08h-.714Z" transform="translate(-40.049 11.532)" fill="#424f46"/><path d="M102.078,172.324h.714v-.843h-.714Z" transform="translate(-40.049 -48.895)" fill="#424f46"/><g transform="translate(2.945 -33.967)"><path d="M25.658,92.614A15.642,15.642,0,0,1,11.937,69.434h1.355a14.5,14.5,0,1,0,24.734,0H39.38A15.642,15.642,0,0,1,25.658,92.614Zm1.975-13.469a.373.373,0,0,1,.3-.249l2.109-.377.943-1.866a.375.375,0,0,1,.665,0l.943,1.866,2.109.364a.359.359,0,0,1,.3.249.35.35,0,0,1-.093.371l-1.527,1.4.387,2.013a.352.352,0,0,1-.147.355.372.372,0,0,1-.39.029L31.26,82.293,29.388,83.3a.4.4,0,0,1-.39-.029.352.352,0,0,1-.147-.355l.4-2.013-1.527-1.387A.36.36,0,0,1,27.633,79.145Zm1.224.623,1.026.914-.268,1.329a.232.232,0,0,0,.1.233.278.278,0,0,0,.262.019l1.291-.61,1.281.61a.254.254,0,0,0,.262-.019.235.235,0,0,0,.1-.233l-.259-1.329,1.026-.924a.23.23,0,0,0,.061-.246.244.244,0,0,0-.2-.163l-1.563-.2-.486-1.269a.254.254,0,0,0-.447,0l-.486,1.269-1.559.214a.248.248,0,0,0-.2.163A.237.237,0,0,0,28.857,79.768Zm-9,2.416h5.8a.578.578,0,1,1,0,1.157h-5.8c-2.173-.109-2.32-1.323-2.32-2.9V76.39c0-.393.157-.578.582-.578a.521.521,0,0,1,.578.578v4.055C18.593,81.625,19.056,82.184,19.858,82.184Zm12.824-7.238A3.252,3.252,0,0,1,30.3,74.07a3.41,3.41,0,0,1-2.448.876,2.821,2.821,0,0,1-2.192-.876,3.274,3.274,0,0,1-2.4.9,3.02,3.02,0,0,1-2.237-.9,2.6,2.6,0,0,1-1.806.876,2.653,2.653,0,0,1-2.834-2.7.588.588,0,0,1,.013-.131.678.678,0,0,1,.013-.329l1.77-6.062a1.525,1.525,0,0,1,1.684-.927H32.021c.6,0,1.4.006,1.69.9l1.777,6.318a.651.651,0,0,1,.026.22v.006A2.673,2.673,0,0,1,32.682,74.946Zm-.064-8.989c-.824-.013-5.081.026-13.338,0l-1.738,6.366c0,.01,0,.042,0,.01a1.63,1.63,0,0,0,1.738,1.738c1.291-.128,1.16-1.738,1.16-1.738h.582s.435.01.578,0c.173,1.681,1.058,1.726,1.738,1.738,1.665.032,1.738-1.738,1.738-1.738h1.16c.144,1.122.355,1.774,1.738,1.738a1.638,1.638,0,0,0,1.738-1.738h1.16a1.738,1.738,0,0,0,3.477,0Z" fill="#fff"/></g></g><g transform="translate(0.542 -18.04)"><g transform="translate(66.262 122.924) rotate(180)" clip-path="url(#o)"><path d="M7.007,4.88c-1.128.029-3.279-.313-5.487-2.794C-1.692-1.524,1.184.648,1.184.648S3.157,3.707,5.91,4.1s1.912.673,1.912.673A3.459,3.459,0,0,1,7.007,4.88Z" transform="translate(-1.053 116.405)" fill="#3d4a41" fill-rule="evenodd"/></g><g transform="translate(66.262 135.12) rotate(180)" clip-path="url(#p)"><path d="M7.007,0C5.879-.027,3.729.314,1.52,2.8c-3.212,3.61-.337,1.438-.337,1.438S3.157,1.175,5.91.777,7.822.1,7.822.1A3.459,3.459,0,0,0,7.007,0Z" transform="translate(-1.053 1.637)" fill="#3d4a41" fill-rule="evenodd"/></g><g transform="translate(0 12.196)" clip-path="url(#q)"><path d="M6.218-5.721C5.09-5.692,2.939-6.034.731-8.515-2.481-12.125.395-9.953.395-9.953S2.368-6.894,5.121-6.5s1.912.673,1.912.673A3.459,3.459,0,0,1,6.218-5.721Z" transform="translate(-0.263 127.006)" fill="#3d4a41" fill-rule="evenodd"/></g></g></g><text transform="translate(509 284)" fill="#202a31" font-size="16" font-family="OpenSans-Bold, Open Sans" font-weight="700"><tspan x="0" y="0">Mobil Uygulama</tspan><tspan font-family="OpenSans, Open Sans" font-weight="400"><tspan x="0" y="22">Avantajlarını Kaçırma!</tspan></tspan></text></g></g></svg>