<svg xmlns="http://www.w3.org/2000/svg" width="107.232" height="97" viewBox="0 0 107.232 97"><g transform="translate(-1062 -441)"><g transform="translate(17.38)"><path d="M84.809,0a2.864,2.864,0,0,0-2.567,1.8L79.41,8.511a3.166,3.166,0,0,0-.056,2.311A2.961,2.961,0,0,0,80.866,12.5l3.116,1.459-2.7,6.408A31.639,31.639,0,0,0,55.04,25.878a3.122,3.122,0,0,0-.692,4.207,2.773,2.773,0,0,0,4,.73,26.315,26.315,0,0,1,35.14,3.216,30.022,30.022,0,0,1,0,40.844,26.466,26.466,0,0,1-38.766,0,29.485,29.485,0,0,1-8.029-20.422,3.1,3.1,0,0,0-.041-.424H59.627a2.269,2.269,0,0,0,0-4.532H2.151a2.269,2.269,0,0,0,0,4.532H41a3.1,3.1,0,0,0-.041.424,35.654,35.654,0,0,0,9.71,24.694,32,32,0,0,0,46.877,0,35.775,35.775,0,0,0,9.692-24.477v-.435A35.778,35.778,0,0,0,97.54,29.759a33.573,33.573,0,0,0-7.218-5.768l2.489-5.9,3.117,1.458a2.734,2.734,0,0,0,1.162.261,2.869,2.869,0,0,0,2.623-1.794l2.831-6.716a3.177,3.177,0,0,0,.056-2.313,2.961,2.961,0,0,0-1.512-1.677L86.026.261A2.748,2.748,0,0,0,84.914,0Zm1,8.2.5-1.194,9.822,4.6-.5,1.194Zm-.36,13.425,2.459-5.83.968.452-2.446,5.8C86.106,21.912,85.786,21.755,85.454,21.628ZM80.387,32.255l-.6,1.023c-4.724,8.027-9.659,16.488-10.463,18.4-.063.149-.1.3-.158.449A3.722,3.722,0,0,0,68.69,55c.009.171.006.347.025.511a3.525,3.525,0,0,0,1.775,2.85c.038.04.069.087.108.127,1.742,1.817,13.631,11.277,17.027,13.862a1.025,1.025,0,0,0,.63.216,1.053,1.053,0,0,0,.772-.343,1.174,1.174,0,0,0,.081-1.478l-.742-1.023c-4.79-6.59-9.816-13.454-11.9-15.986C77.9,49.483,81.4,36.825,82.339,33.146a1.152,1.152,0,0,0-.611-1.337,1.027,1.027,0,0,0-.425-.092A1.066,1.066,0,0,0,80.387,32.255ZM23.295,38.831a2.269,2.269,0,0,0,0,4.532H62.341a2.269,2.269,0,0,0,0-4.532Z" transform="translate(1044.62 444.456)" fill="#1a9afc"/><g transform="translate(1050 441)" fill="none" stroke="#1a9afc" stroke-width="5" opacity="0.075"><ellipse cx="48" cy="48.5" rx="48" ry="48.5" stroke="none"/><ellipse cx="48" cy="48.5" rx="45.5" ry="46" fill="none"/></g></g></g></svg>