<svg xmlns="http://www.w3.org/2000/svg" width="35.392" height="39.101" viewBox="0 0 35.392 39.101"><g transform="translate(-1094.837 -5000.887)"><g transform="translate(1094.837 5000.887)"><path d="M159.4,70.771a17.689,17.689,0,0,0-10.177-8.953,18.028,18.028,0,0,0-5.739-.918h0a17.725,17.725,0,0,0-15.839,25.481l.077.077a17.781,17.781,0,0,0,10.1,8.8,18.027,18.027,0,0,0,5.739.918,17.753,17.753,0,0,0,6.81-1.377l9.871,5.2-2.678-10.713a17.708,17.708,0,0,0,3.52-8.494A17.078,17.078,0,0,0,159.4,70.771Zm-1.454,9.565a13.756,13.756,0,0,1-2.908,6.963l-.918,1.224.383,1.53L155.5,93.8l-3.52-1.836-1.3-.689-1.377.612a14.037,14.037,0,0,1-5.586,1.148,13.887,13.887,0,0,1-4.668-.765,14.469,14.469,0,0,1-8.264-7.193L130.71,85a14.478,14.478,0,0,1-.689-11.019,14.416,14.416,0,0,1,13.7-9.794h0a13.887,13.887,0,0,1,4.668.765,14.124,14.124,0,0,1,8.34,7.346A15.9,15.9,0,0,1,157.95,80.336Z" transform="translate(-125.854 -60.9)" fill="#0967af"/><g transform="translate(8.045 13.085)"><path d="M145.651,79.989,136.392,78a28.948,28.948,0,0,0,.306,5.509,30.316,30.316,0,0,0,1.148,5.05,46.8,46.8,0,0,0,4.591,2.066,25.069,25.069,0,0,0,5.05,1.454Z" transform="translate(-136.368 -78)" fill="#046ab9"/></g><path d="M158.088,79.88a18.163,18.163,0,0,0-1.377-5.28L148.6,79.191,150.436,91.2A37.012,37.012,0,0,0,155.1,88.3a20.775,20.775,0,0,0,3.367-2.755,37.609,37.609,0,0,0-.383-5.662" transform="translate(-131.195 -64.117)" fill="#6ec0ff"/><g transform="translate(8.07 8.797)"><path d="M153.846,74.082a34.143,34.143,0,0,0-4.438-1.148,21.2,21.2,0,0,0-4.744-.536,17.548,17.548,0,0,0-4.438,1.913,38.754,38.754,0,0,0-3.826,2.449l9.259,1.989Z" transform="translate(-136.4 -72.396)" fill="#46afff"/></g></g></g></svg>