<svg xmlns="http://www.w3.org/2000/svg" width="87" height="88" viewBox="0 0 87 88"><g transform="translate(-1011 -459)"><g transform="translate(1011 459)"><rect width="87" height="88" rx="20" fill="#f8f8f8"/><g transform="translate(-1011 -459)"><ellipse cx="7" cy="8" rx="7" ry="8" transform="translate(1029 483)" fill="#1a9afc"/><path d="M7,0a8.2,8.2,0,0,1,6.273,3.5C14.051,4.6,14,6.118,14,8c0,1.635.168,3.713-.727,5.24C12.178,15.136,9.436,16,7,16c-3.866,0-7-3.582-7-8S3.134,0,7,0Z" transform="translate(1065 483)" fill="#1a9afc"/><g transform="translate(1029 451.677)"><path d="M11.217,29.323a16.619,16.619,0,0,0-9.665,3.593A4.135,4.135,0,0,0,0,36.171V43A4.135,4.135,0,0,0,1.552,46.25a16.619,16.619,0,0,0,9.665,3.594,10.175,10.175,0,0,0,3.493-.61v8.777a.744.744,0,1,0,1.487,0V45.52a.744.744,0,1,0-1.487,0v2.113a8.681,8.681,0,0,1-3.493.724,15.044,15.044,0,0,1-8.738-3.269A2.655,2.655,0,0,1,1.487,43V36.171a2.656,2.656,0,0,1,.992-2.092,15.044,15.044,0,0,1,8.738-3.269,8.783,8.783,0,0,1,8.773,8.773V71.811a.894.894,0,0,1-.893.893H17.09a.894.894,0,0,1-.893-.893V60.986a.744.744,0,0,0-1.487,0V71.811a2.383,2.383,0,0,0,2.38,2.38H19.1a2.383,2.383,0,0,0,2.38-2.38V39.583a10.272,10.272,0,0,0-10.26-10.26Z" transform="translate(0 0)"/><path d="M46.9,116.116v1.639a.744.744,0,1,0,1.487,0v-1.639a.744.744,0,1,0-1.487,0Z" transform="translate(-42.257 -77.533)"/><path d="M125.67,74.015a.744.744,0,1,0-.5,1.4,5.619,5.619,0,0,1,2.242,1.791.744.744,0,0,0,1.186-.9,7.012,7.012,0,0,0-2.927-2.293Z" transform="translate(-112.337 -40.229)"/><path d="M314.915,32.916a16.618,16.618,0,0,0-9.665-3.593,10.272,10.272,0,0,0-10.26,10.26v4.449a.744.744,0,1,0,1.487,0V39.583a8.783,8.783,0,0,1,8.773-8.773,15.043,15.043,0,0,1,8.738,3.269,2.655,2.655,0,0,1,.992,2.092V43a2.655,2.655,0,0,1-.992,2.092,15.044,15.044,0,0,1-8.738,3.269,8.682,8.682,0,0,1-3.493-.724V45.52a.744.744,0,0,0-1.488,0V63.043a.744.744,0,0,0,1.488,0V49.234a10.174,10.174,0,0,0,3.493.61,16.618,16.618,0,0,0,9.665-3.593A4.135,4.135,0,0,0,316.466,43V36.171A4.135,4.135,0,0,0,314.915,32.916Z" transform="translate(-265.794 0)"/><path d="M301.01,219.5a.744.744,0,0,0-.744.744v5.793a.894.894,0,0,1-.893.893h-2.008a.894.894,0,0,1-.893-.893v-24.8a.744.744,0,1,0-1.487,0v24.8a2.383,2.383,0,0,0,2.38,2.38h2.008a2.383,2.383,0,0,0,2.38-2.38v-5.793A.743.743,0,0,0,301.01,219.5Z" transform="translate(-265.792 -154.23)"/><path d="M451.559,117.755v-1.639a.744.744,0,1,0-1.487,0v1.639a.744.744,0,1,0,1.487,0Z" transform="translate(-405.529 -77.533)"/><path d="M346.474,77.351a.744.744,0,0,0,1.042-.144,5.624,5.624,0,0,1,2.245-1.792.744.744,0,0,0-.5-1.4,7.011,7.011,0,0,0-2.927,2.294A.743.743,0,0,0,346.474,77.351Z" transform="translate(-311.919 -40.23)"/></g></g></g></g></svg>