<svg xmlns="http://www.w3.org/2000/svg" width="88" height="88" viewBox="0 0 88 88"><g transform="translate(-1427 -624)"><g transform="translate(1427 624)"><rect width="88" height="88" rx="20" fill="#f8f8f8"/><g transform="translate(-1427 -624)"><circle cx="2.5" cy="2.5" r="2.5" transform="translate(1453 660)" fill="#1a9afc"/><circle cx="2" cy="2" r="2" transform="translate(1460 648)" fill="#1a9afc"/><circle cx="1.5" cy="1.5" r="1.5" transform="translate(1469 656)" fill="#1a9afc"/><line y1="21" x2="15" transform="translate(1477.5 645.5)" fill="none" stroke="#1a9afc" stroke-linecap="round" stroke-width="4"/><g transform="translate(1445.881 642.935)"><g transform="translate(2.275 24.407)"><path d="M29.044,54.828h-.058c-.981,0-1.954-.108-2.893-.2a1.305,1.305,0,0,1-1.039-.549,1.521,1.521,0,0,1-.1-1.28,9.336,9.336,0,0,1,.466-1.131,14.323,14.323,0,0,0,1.131-2.752c-.349.615-1.222,2.494-1.621,3.175l-.3.54c-.6,1.089-1.022,1.255-2.161.831L22.1,53.34A22.362,22.362,0,0,1,16.351,50.4c-.166-.108-.324-.233-.49-.366l-1.388-1.022,1.347-.557a8.662,8.662,0,0,0,3.026-1.937,16.227,16.227,0,0,1-3.084,1.355,8.986,8.986,0,0,1-1.164.283,2.544,2.544,0,0,1-2.336-.615c-1.006-.956-1.787-1.663-2.643-2.494-.482-.432-.989-.9-1.563-1.43l-.15-.1a5.868,5.868,0,0,1-.648-.64l-.964-1.131,1.471-.216a9.211,9.211,0,0,0,2.336-.682c-1.372,0-2.818,0-3.525-.058a2.111,2.111,0,0,1-1.372-.64A10.416,10.416,0,0,1,2.552,35.16a2.652,2.652,0,0,1-.042-.449V34.5l.374-.831.623.133,1.222.183c.914.15,1.779.283,2.652.341,2.369.158,4.688.3,7.024.274a28.313,28.313,0,0,0,7.282-.9,19.712,19.712,0,0,0,2.369-.831l.432-.158a3.267,3.267,0,0,1,1.1-2.577,1.9,1.9,0,0,1,2.668-.407c1.488,1.047,2.951,2.161,4.364,3.234a1.737,1.737,0,0,1,.449,2.328l-.175.341a3.392,3.392,0,0,1-1.247,1.546V37.5c.083.7.158,1.4.224,2.111a44.257,44.257,0,0,1-.083,11.58,10.432,10.432,0,0,1-.723,2.228,2.2,2.2,0,0,1-2.02,1.413ZM26.659,53c.831.075,1.588.141,2.369.158a.582.582,0,0,0,.532-.4,9.352,9.352,0,0,0,.615-1.879,42.744,42.744,0,0,0,.058-11.147c-.058-.69-.141-1.38-.216-2.062l-.183-1.663.715-.175c.391-.1.54-.341.831-.948.067-.133.133-.274.208-.407a.366.366,0,0,0,.05-.133c-1.455-1.114-2.9-2.22-4.356-3.242-.141-.1-.208-.141-.466.15-.665.732-.831,1.064-.582,1.663l.333.831-.831.291-1.114.407c-.831.3-1.663.615-2.494.831a30.533,30.533,0,0,1-7.706.948c-2.411,0-4.755-.116-7.149-.274a27.724,27.724,0,0,1-2.8-.357H4.389A9.344,9.344,0,0,0,6.45,39.034a.632.632,0,0,0,.224.083c1.463.083,6.118.067,6.509,0l3.076-.233L13.724,40.7a14.963,14.963,0,0,1-4.156,2.136l1.155,1.056c.831.831,1.663,1.513,2.668,2.494.2.183.374.258.906.166a7,7,0,0,0,.956-.224,21.347,21.347,0,0,0,5.819-3.192l2.9-2.294-1.663,3.325c-.989,2.02-1.87,3.8-4.547,5.245a21.09,21.09,0,0,0,4.888,2.411l.391.141h.067a.341.341,0,0,1,.05-.091l.308-.557c1.18-2.095,2.12-3.749,2.81-5.287l1.18-2.627.4,2.81a8.138,8.138,0,0,1-.224,4.464,12.76,12.76,0,0,1-.69,1.721C26.833,52.6,26.733,52.817,26.659,53Z" transform="translate(-2.51 -29.347)"/></g><g transform="translate(28.361 0.065)"><path d="M38.287,27.2l-4.4-3.192,3.325-4.564L50.233,1.432A4.921,4.921,0,0,1,51,.6,2.128,2.128,0,0,1,53.492.36a2.087,2.087,0,0,1,1.089,2.386,3.674,3.674,0,0,1-.49,1.23Q46.966,14.525,39.8,25.1l-.831,1.214-.116.166Zm-2.062-3.566,1.663,1.239.474-.715Q45.619,13.586,52.735,3a2.045,2.045,0,0,0,.241-.665.441.441,0,0,0-.266-.565.482.482,0,0,0-.623.058,3.582,3.582,0,0,0-.5.59L38.537,20.427Z" transform="translate(-33.89 -0.065)"/></g><g transform="translate(1.12 11.807)"><path d="M9.433,29.294,8.6,25.811A3.774,3.774,0,0,0,5.276,22.7L1.12,21.929l4.156-.873a3.824,3.824,0,0,0,3.367-3.25l.69-3.616.906,3.583a4.156,4.156,0,0,0,3.325,3.242l3.192.831-3.184.831a4.007,4.007,0,0,0-3.325,3.175ZM7.77,21.854a4.9,4.9,0,0,1,1.663,1.588,5.171,5.171,0,0,1,1.712-1.621,5.328,5.328,0,0,1-1.663-1.663,5.121,5.121,0,0,1-1.688,1.7Z" transform="translate(-1.12 -14.19)"/></g><g transform="translate(9.99 0.36)"><path d="M18.291,14.2l-.831-3.475A3.142,3.142,0,0,0,14.9,8.151L11.79,7.378l3.092-.831a3.242,3.242,0,0,0,2.585-2.668L18.191.42,19.122,3.8a3.4,3.4,0,0,0,2.934,2.652l3.832.748-3.807.881c-1.737.407-2.627,1.2-2.968,2.643ZM17.16,7.32a4.364,4.364,0,0,1,1.155,1.155,4.622,4.622,0,0,1,1.305-1.2,4.738,4.738,0,0,1-1.255-1.189A4.58,4.58,0,0,1,17.16,7.32Z" transform="translate(-11.79 -0.42)"/></g><g transform="translate(19.059 8.964)"><path d="M28.178,22.05,27.4,19.033a2.1,2.1,0,0,0-1.762-1.663L22.7,16.606l2.909-.831a2.17,2.17,0,0,0,1.771-1.837l.657-3.167L29,13.854a2.419,2.419,0,0,0,1.771,1.862l2.677.715-2.619.848a2.436,2.436,0,0,0-1.821,1.762Zm-.449-5.536a3.034,3.034,0,0,1,.5.482,3.425,3.425,0,0,1,.532-.507,3.658,3.658,0,0,1-.5-.515A3.633,3.633,0,0,1,27.729,16.514Z" transform="translate(-22.7 -10.77)"/></g></g></g></g></g></svg>