<svg xmlns="http://www.w3.org/2000/svg" width="88" height="88" viewBox="0 0 88 88"><g transform="translate(-734 -624)"><g transform="translate(734 624)"><rect width="88" height="88" rx="20" fill="#f8f8f8"/><g transform="translate(-734 -624)"><rect width="21" height="38" rx="3" transform="translate(768 644)" fill="#1a9afc"/><rect width="17" height="28" transform="translate(770 649)" fill="#fff"/><g transform="translate(751.15 643)"><g transform="translate(11.85)"><g transform="translate(3.928)"><path d="M35.527,39.934H20.374A3.9,3.9,0,0,1,16.48,36.04V3.894A3.9,3.9,0,0,1,20.374,0H35.527a3.9,3.9,0,0,1,3.894,3.894V36.04A3.9,3.9,0,0,1,35.527,39.934ZM20.374,1.468a2.426,2.426,0,0,0-2.426,2.426V36.04a2.426,2.426,0,0,0,2.426,2.418H35.527a2.426,2.426,0,0,0,2.426-2.418V3.894a2.426,2.426,0,0,0-2.426-2.426ZM36.273,34.7H19.628a.73.73,0,0,1-.73-.73V5.778a.73.73,0,0,1,.73-.738H36.273a.73.73,0,0,1,.73.738V33.936a.73.73,0,0,1-.73.764ZM20.366,33.232H35.535V6.507H20.366Z" transform="translate(-16.48)"/></g><g transform="translate(6.346 5.039)"><path d="M36.705,35.6H20.06a.73.73,0,0,1-.73-.73V6.678a.73.73,0,0,1,.73-.738H36.705a.73.73,0,0,1,.73.738V34.836a.73.73,0,0,1-.73.764ZM20.8,34.132H35.967V7.408H20.8Z" transform="translate(-19.33 -5.94)"/></g><g transform="translate(25.401 12.454)"><path d="M44.437,27.8H42.52a.738.738,0,0,1-.73-.73V15.41a.73.73,0,0,1,.73-.73h1.917a2.749,2.749,0,0,1,2.749,2.74v7.636a2.757,2.757,0,0,1-2.749,2.74Zm-1.179-1.468h1.179a1.281,1.281,0,0,0,1.273-1.281V17.412a1.273,1.273,0,0,0-1.273-1.273H43.258Z" transform="translate(-41.79 -14.68)"/></g><g transform="translate(0 12.446)"><path d="M16.516,27.795H14.6a2.757,2.757,0,0,1-2.749-2.749V17.41A2.749,2.749,0,0,1,14.6,14.67h1.917a.721.721,0,0,1,.73.73V27.065a.73.73,0,0,1-.73.73ZM14.6,16.146a1.273,1.273,0,0,0-1.273,1.273v7.636A1.281,1.281,0,0,0,14.6,26.335h1.179V16.155Z" transform="translate(-11.85 -14.67)"/></g><g transform="translate(6.176 41.469)"><path d="M36.836,58.314H19.868a.738.738,0,0,1-.534-.229.781.781,0,0,1-.2-.551,9.214,9.214,0,0,1,18.393,0,.747.747,0,0,1-.2.551A.738.738,0,0,1,36.836,58.314Zm-16.12-1.468H35.988a7.746,7.746,0,0,0-15.271,0Z" transform="translate(-19.13 -48.879)"/></g><g transform="translate(10.809 38.458)"><path d="M25.328,50.717a.738.738,0,0,1-.738-.73v-3.92a.738.738,0,0,1,1.476,0v3.92a.738.738,0,0,1-.738.73Z" transform="translate(-24.59 -45.33)"/></g><g transform="translate(18.512 38.458)"><path d="M34.408,50.717a.738.738,0,0,1-.738-.73v-3.92a.738.738,0,0,1,1.476,0v3.92a.738.738,0,0,1-.738.73Z" transform="translate(-33.67 -45.33)"/></g><g transform="translate(12.272 2.545)"><path d="M32.114,4.442H26.9A.738.738,0,0,1,26.9,3h5.235a.738.738,0,0,1,0,1.476Z" transform="translate(-26.315 -3)"/></g><g transform="translate(6.745 35.853)"><g transform="translate(5.464)"><path d="M31.882,43.736h-4.9a.738.738,0,1,1,0-1.476h4.9a.738.738,0,1,1,0,1.476Z" transform="translate(-26.24 -42.26)"/></g><path d="M23.669,43.736H20.538a.738.738,0,1,1,0-1.476h3.131a.738.738,0,1,1,0,1.476Z" transform="translate(-19.8 -42.26)"/><g transform="translate(12.701)"><path d="M38.647,43.736H35.508a.738.738,0,1,1,0-1.476h3.139a.738.738,0,0,1,0,1.476Z" transform="translate(-34.77 -42.26)"/></g></g></g></g></g></g></g></svg>