<svg xmlns="http://www.w3.org/2000/svg" width="88" height="88" viewBox="0 0 88 88"><g transform="translate(-1288 -459)"><g transform="translate(1288 459)"><rect width="88" height="88" rx="20" fill="#f8f8f8"/><g transform="translate(-1288 -459)"><path d="M1.729-3.981l1.32,5.146,3.322,2.4L-2.789,4Z" transform="translate(1323 510)" fill="#1a9afc"/><path d="M1.729-3.981l1.32,5.146,3.322,2.4L-2.789,4Z" transform="translate(1326.582 517.019) rotate(180)" fill="#1a9afc"/><g transform="translate(1297.5 470.1)"><path d="M53.958,8.636H38.2A5.006,5.006,0,0,0,33.409,4.9H30.918a1.249,1.249,0,0,0-1.245,1.245H27.182a1.245,1.245,0,1,0,0,2.491h2.491v2.491H27.182a1.245,1.245,0,0,0,0,2.491h2.491a1.249,1.249,0,0,0,1.245,1.245h2.491A4.937,4.937,0,0,0,38.2,11.127H53.958a3.736,3.736,0,0,1,0,7.473H18.152A9.7,9.7,0,0,0,8.5,28.252,9.508,9.508,0,0,0,10.929,34.6,17.544,17.544,0,0,0,8.811,43.01,18.087,18.087,0,1,0,12.3,32.362a6.875,6.875,0,0,1-1.308-4.11,7.2,7.2,0,0,1,7.161-7.161H53.958a6.227,6.227,0,0,0,0-12.454Zm-20.55,3.736H32.163V7.391h1.245a2.491,2.491,0,1,1,0,4.982ZM26.87,27.442A15.568,15.568,0,1,1,11.3,43.01,15.574,15.574,0,0,1,26.87,27.442Z"/><path d="M21.487,68.955a1.312,1.312,0,0,0,.81.311,1.12,1.12,0,0,0,.934-.436,1.264,1.264,0,0,0-.125-1.744,7.531,7.531,0,0,1-2.615-5.729,7.4,7.4,0,0,1,2.615-5.667,1.236,1.236,0,0,0-1.619-1.868A9.828,9.828,0,0,0,18,61.358,10.052,10.052,0,0,0,21.487,68.955Z" transform="translate(-3.584 -18.348)"/><path d="M49.548,67.087a1.264,1.264,0,0,0-.125,1.744,1.2,1.2,0,0,0,.934.436,1.312,1.312,0,0,0,.81-.311,10.01,10.01,0,0,0,.062-15.132,1.264,1.264,0,0,0-1.744.125,1.2,1.2,0,0,0,.062,1.744,7.4,7.4,0,0,1,2.615,5.667A7.531,7.531,0,0,1,49.548,67.087Z" transform="translate(-15.33 -18.348)"/><path d="M28.428,61.462l2.989.5-.125,7.473a1.327,1.327,0,0,0,.934,1.245,2.7,2.7,0,0,1,.311.062,1.205,1.205,0,0,0,1.059-.623l6.725-11.832a1.324,1.324,0,0,0,.062-1.183,1.2,1.2,0,0,0-.934-.685l-2.989-.5.125-7.6a1.327,1.327,0,0,0-.934-1.245,1.3,1.3,0,0,0-1.432.56L27.494,59.469a1.324,1.324,0,0,0-.062,1.183A1.77,1.77,0,0,0,28.428,61.462Zm5.667-8.282-.062,3.8a1.267,1.267,0,0,0,1.059,1.245l2.242.374-3.425,6.04.062-3.8a1.267,1.267,0,0,0-1.059-1.245L30.67,59.22Z" transform="translate(-7.1 -15.899)"/></g></g></g></g></svg>