<svg xmlns="http://www.w3.org/2000/svg" width="88" height="88" viewBox="0 0 88 88"><g transform="translate(-1149 -624)"><g transform="translate(1149 624)"><rect width="88" height="88" rx="20" fill="#f8f8f8"/><g transform="translate(-1149 -624)"><rect width="27" height="22" transform="translate(1179 646)" fill="#1a9afc"/><g transform="translate(1165.021 641.024)"><g transform="translate(8.978 -0.024)"><path d="M11.19,53.036a2.758,2.758,0,0,1-2.1-2A4.084,4.084,0,0,1,9,50.11V2.95A2.652,2.652,0,0,1,11.968,0H43.137A2.846,2.846,0,0,1,46.125,3q0,23.381,0,46.745c0,1.954-.407,2.564-2.183,3.288ZM44.357,26.578V3.126c0-1.1-.265-1.361-1.352-1.361H12.065c-1.052,0-1.3.256-1.3,1.352V49.969c0,1.1.248,1.352,1.335,1.352H43.04c1.052-.053,1.317-.292,1.317-1.4Z" transform="translate(-8.978 0.024)"/><path d="M28.028,28.751H14.255c-.99,0-1.255-.265-1.255-1.255V5.282C13,4.274,13.274,4,14.3,4H41.7c1.043,0,1.3.265,1.3,1.326v22.1c.053,1.078-.212,1.326-1.264,1.326ZM41.287,5.812H14.768V26.983H41.287Z" transform="translate(-9.444 -0.442)"/><path d="M23.724,44.724v4.42h-5.3v-4.42H14v-5.3h4.42V35h5.3v4.42h4.42v5.3Zm-4.358-.884H22.84V40.3H19.348Zm2.59-7.019H20.188v1.715h1.768Zm2.652,6.135h1.768V41.188H24.608Zm-4.42,4.42h1.688V45.608H20.188Zm-4.42-4.42h1.485a.46.46,0,0,0,.274-.318c.141-1.388,0-1.565-1.432-1.423a.424.424,0,0,0-.309.274v1.485" transform="translate(-9.56 -4.039)"/><path d="M41.536,35A3.536,3.536,0,1,1,38,38.536,3.536,3.536,0,0,1,41.536,35M43.3,38.536A1.768,1.768,0,1,0,41.536,40.3,1.768,1.768,0,0,0,43.3,38.536" transform="translate(-12.345 -4.039)"/><path d="M41.072,48.536A3.536,3.536,0,1,1,37.536,45a3.536,3.536,0,0,1,3.536,3.536M37.536,50.3a1.768,1.768,0,1,0-1.768-1.768A1.768,1.768,0,0,0,37.536,50.3" transform="translate(-11.881 -5.199)"/></g></g></g></g></g></svg>