<svg xmlns="http://www.w3.org/2000/svg" width="88" height="88" viewBox="0 0 88 88"><g transform="translate(-1288 -624)"><g transform="translate(1288 624)"><rect width="88" height="88" rx="20" fill="#f8f8f8"/><g transform="translate(-1288 -624)"><rect width="18" height="7" rx="3.5" transform="translate(1324 671)" fill="#1a9afc"/><rect width="22" height="5" rx="2.5" transform="translate(1311.16 690.389) rotate(-45)" fill="#1a9afc"/><rect width="22" height="5" rx="2.5" transform="translate(1350.012 693.925) rotate(-135)" fill="#1a9afc"/><path d="M2.5,0H23.985c1.381,0,1.255.852,1.255,2.232S25.366,5,23.985,5H2.5a2.5,2.5,0,0,1,0-5Z" transform="translate(1330.5 692.379) rotate(-90)" fill="#1a9afc"/><rect width="8" height="3" rx="1.5" transform="translate(1310 673)" fill="#1a9afc"/><g transform="translate(1306.348 643.014)"><g transform="translate(2.653 -0.014)"><path d="M23.1,36.958a2.947,2.947,0,0,1-.322.457L10.917,49.459a3.066,3.066,0,0,1-5.031-.847,3.117,3.117,0,0,1,.737-3.523L16.684,34.833c.644-.661.635-.652.246-1.482a11.722,11.722,0,0,1-.432-1.118H12.814a.474.474,0,0,0-.322.254,2.49,2.49,0,0,1-2.363,1.389H5.157A2.456,2.456,0,0,1,2.667,31.6a2.388,2.388,0,0,1,2.261-2.651c1.855-.076,3.718-.051,5.581,0a2.2,2.2,0,0,1,1.948,1.3.567.567,0,0,0,.593.356h3.176a.466.466,0,0,0,.508-.364,4.065,4.065,0,0,1,4.082-2.812h1.33c.3,0,.432-.076.423-.4V25.118H6.623a3.134,3.134,0,0,1-3.337-3.345q0-9.211,0-18.429A3.117,3.117,0,0,1,6.665,0h39.18a3.074,3.074,0,0,1,3.117,3.117q0,9.376,0,18.743a3.049,3.049,0,0,1-3.252,3.235H30.227v2.329H32.2a3.964,3.964,0,0,1,3.777,2.609,3.76,3.76,0,0,1-.33,3.667.491.491,0,0,0,.076.762c3.515,3.557,7.038,7.106,10.528,10.7a3.089,3.089,0,1,1-4.5,4.235q-4.167-4.235-8.368-8.469l-3.481-3.54L29.49,37V47.74A2.964,2.964,0,0,1,27.847,50.5a2.93,2.93,0,0,1-3.151-.169,3.041,3.041,0,0,1-1.423-2.778V37.069ZM11.586,19.1h3.125a1.448,1.448,0,0,0,.847-.33c1.694-1.533,3.388-3.108,5.082-4.667a.847.847,0,0,1,1.381,0l1.059,1.042L24.451,16.5,30.3,11.11c.728-.669.991-.669,1.694,0l7.775,7.622c.119.11.263.279.4.288h1.812V1.98h-30.4ZM9.892,23.45V1.632H6.284a1.3,1.3,0,0,0-1.211.906,2.71,2.71,0,0,0-.144.932V21.79c0,.915.483,1.609,1.27,1.652,1.211.051,2.439.008,3.7.008Zm1.694,0h30.4V20.782h-30.4Zm32.108,0h1.965a1.491,1.491,0,0,0,1.694-1.694V3.284a1.431,1.431,0,0,0-1.211-1.592c-.788-.076-1.584,0-2.405,0ZM26.416,29.04H20.631a2.371,2.371,0,0,0-1.592.6,2.49,2.49,0,0,0-.779,2.727A2.541,2.541,0,0,0,20.7,34.062H32a2.541,2.541,0,1,0-.059-5Zm4.286,6.7.136.195q6.115,6.2,12.23,12.391a1.694,1.694,0,0,0,.957.4,1.321,1.321,0,0,0,1.355-.847,1.457,1.457,0,0,0-.4-1.694q-5.26-5.344-10.519-10.705a.542.542,0,0,0-.745-.136,2.981,2.981,0,0,1-.974.271c-.652.093-1.313.1-2.041.144Zm-8.6,0h-.4a21.47,21.47,0,0,1-2.541-.33.847.847,0,0,0-.949.229q-2.829,2.922-5.7,5.81L7.791,46.2a1.474,1.474,0,0,0-.474,1.524,1.44,1.44,0,0,0,2.541.491q5.929-6.047,11.925-12.1c.076-.093.161-.195.322-.373ZM37.392,19.071,31.2,12.55l-7.08,6.521ZM27.83,35.756H24.967a1.347,1.347,0,0,0,0,.195q0,5.929,0,11.815a1.575,1.575,0,0,0,.237.762,1.381,1.381,0,0,0,1.558.576,1.448,1.448,0,0,0,1.067-1.55ZM7.715,30.573H5.259c-.635,0-.991.347-.966.847a.847.847,0,0,0,.982.847h4.861a.9.9,0,0,0,1-.847c0-.5-.39-.847-1.016-.847Zm16.532-3.151h4.031a.373.373,0,0,0,.271-.212V25.135h-4.3ZM21.334,15.683l-1.821,1.694-1.889,1.736h3.887a.339.339,0,0,0,.237-.085l1.465-1.33Z" transform="translate(-2.653 0.014)"/><path d="M24.641,11.457a3.125,3.125,0,1,1,2.223-.936A3.134,3.134,0,0,1,24.641,11.457Zm0-1.635a1.508,1.508,0,0,0,1.516-1.482,1.533,1.533,0,0,0-1.482-1.516,1.5,1.5,0,1,0,0,3Z" transform="translate(-5.536 -0.782)"/><path d="M9.329,14.761A1.3,1.3,0,0,1,8,16.074a1.321,1.321,0,0,1-1.33-1.313A1.364,1.364,0,0,1,8.017,13.44a1.321,1.321,0,0,1,1.313,1.321Z" transform="translate(-3.267 -2.045)"/></g></g></g></g></g></svg>