<svg xmlns="http://www.w3.org/2000/svg" width="87" height="88" viewBox="0 0 87 88"><g transform="translate(-873 -624)"><g transform="translate(873 624)"><rect width="87" height="88" rx="20" fill="#f8f8f8"/><g transform="translate(-873 -624)"><rect width="45" height="18" rx="3" transform="translate(890 662)" fill="#1a9afc"/><g transform="translate(889.012 639.411)"><g transform="translate(-0.011 7.589)"><path d="M55.988,30.144c-.093.355-.177.7-.28,1.045a6.131,6.131,0,0,1-5.72,4.311H47.245v9.36a4.376,4.376,0,0,1-4.666,4.666H4.665A4.386,4.386,0,0,1,0,44.86V26.2a4.376,4.376,0,0,1,4.666-4.666H42.607A4.376,4.376,0,0,1,47.273,26.2q0,3.471,0,6.943v.551a26.688,26.688,0,0,0,3.462,0,4.181,4.181,0,0,0,3.518-4.041q.056-6.345,0-12.682a4.292,4.292,0,0,0-4.209-4.143H21.816c.373,1.176-.495,1.7-1.082,2.408a2.986,2.986,0,0,1-2.715,1.12c-1.521-.1-3.061,0-4.591,0-.775,0-.933-.121-1.232-.877H9.816c-.756,0-1.064-.308-1.064-1.054V9.55c0-.756.308-1.064,1.054-1.073h2.408c.121-.775.672-.933,1.362-.877h5.412a2.249,2.249,0,0,1,1.054.373,7.465,7.465,0,0,1,.784.756c.644.607,1.334,1.185.989,2.3H49.279c3.658,0,5.814,1.708,6.644,5.263a.107.107,0,0,0,.065.093ZM23.617,23.258H4.814a2.874,2.874,0,0,0-3.089,3.107c.084,3.537,0,7.073,0,10.61a2.65,2.65,0,0,0,2.939,2.9H42.588a2.65,2.65,0,0,0,2.9-2.93V26.29c0-2.016-1.008-3.033-3.014-3.033H23.617M1.8,40.763a1.549,1.549,0,0,0-.047.2c0,1.306,0,2.622,0,3.929a2.641,2.641,0,0,0,2.855,2.865H42.924a2.547,2.547,0,0,0,2.529-2.277c.084-1.54,0-3.089,0-4.75-1.288,1.036-2.743.933-4.181.933H5.141a5.31,5.31,0,0,1-3.359-.877M14,14.5h4.666a.457.457,0,0,0,.289-.1c.635-.607,1.409-1.138,1.148-2.221a.84.84,0,0,1,0-.373,2.072,2.072,0,0,0-.933-2.24,1.316,1.316,0,0,0-.709-.289H14Zm-3.49-.933h1.717V10.165H10.516Z" transform="translate(0.011 -7.589)"/><path d="M24.622,31.879h8.4a2.109,2.109,0,0,1,.541,0,.868.868,0,0,1,0,1.7,2.631,2.631,0,0,1-.541,0H16.261a2.7,2.7,0,0,1-.551,0,.868.868,0,0,1,0-1.7,2.062,2.062,0,0,1,.541,0h8.4" transform="translate(-0.994 -9.212)"/><path d="M25.016,34.69H28.3c.681,0,1.082.355,1.073.933s-.411.849-1.064.858H21.694c-.672,0-1.073-.345-1.064-.933s.4-.849,1.054-.858h3.331" transform="translate(-1.369 -9.401)"/><path d="M10.51,45H13.4c.719,0,1.026.317,1.036,1.036s0,1.568,0,2.352a.877.877,0,0,1-.989.933H7.543a.877.877,0,0,1-.933-.989q0-1.2,0-2.408a.877.877,0,0,1,.989-.933h2.949M12.7,46.772H8.345v.812h4.32Z" transform="translate(-0.431 -10.089)"/><path d="M20.724,49.376h-2.8c-.719,0-1.036-.317-1.045-1.036s0-1.568,0-2.352a.877.877,0,0,1,.98-.989h5.9a.877.877,0,0,1,.989.933v2.352c0,.719-.317,1.036-1.026,1.045H20.761m-2.109-1.782h4.32v-.812h-4.32Z" transform="translate(-1.118 -10.089)"/><path d="M35.066,47.82h7a.877.877,0,0,1,.868.877.933.933,0,0,1-.877.868h-14a.877.877,0,0,1-.868-.877.868.868,0,0,1,.877-.868h7Z" transform="translate(-1.807 -10.278)"/><path d="M31.548,45h3.331c.644,0,1.036.336,1.045.858a.934.934,0,0,1-1.026.933H28.226c-.653,0-1.036-.336-1.036-.868s.373-.877,1.017-.877h3.341" transform="translate(-1.807 -10.09)"/></g></g></g></g></g></svg>