<svg xmlns="http://www.w3.org/2000/svg" width="88" height="88" viewBox="0 0 88 88"><g transform="translate(-595 -459)"><g transform="translate(595 459)"><rect width="88" height="88" rx="20" fill="#f8f8f8"/><g transform="translate(-595 -462)"><rect width="10" height="28" transform="translate(654 497)" fill="#1a9afc"/><g transform="translate(614.002 477.503)"><g transform="translate(-0.003 2.497)"><path d="M35.392,23.027V39.822a3.767,3.767,0,0,1-3.961,3.969H3.893A3.758,3.758,0,0,1,0,39.923V6.115A3.489,3.489,0,0,1,3.615,2.5h28.23a3.489,3.489,0,0,1,3.548,3.573ZM1.685,20.2V33.94c0,1.576.691,2.267,2.284,2.267H31.4c1.626,0,2.309-.674,2.309-2.292V6.477c0-1.61-.683-2.292-2.309-2.292H3.969c-1.593,0-2.284.691-2.284,2.267Zm.067,17.275a24.867,24.867,0,0,0,0,2.975A2.014,2.014,0,0,0,4.2,42.131V39.62H5.9v2.452H7.584V39.611H9.269v2.469h1.685V39.62H12.64v2.452h1.685V39.611h1.685v2.528H31.347a2.09,2.09,0,0,0,2.36-1.93c.084-.893,0-1.812,0-2.646a12.143,12.143,0,0,1-1.947.312H4.794a5.435,5.435,0,0,1-3.042-.4Z" transform="translate(0.003 -2.497)"/><path d="M57.8,36.693V49.384a2.3,2.3,0,0,1-2.427,2.452H48.418A2.292,2.292,0,0,1,46,49.434V23.952A2.3,2.3,0,0,1,48.426,21.5h6.952A2.292,2.292,0,0,1,57.8,23.952ZM48.527,23.21c-.657,0-.843.236-.843.9v25.07c0,.75.219.969.961.969h6.43c.843,0,1.037-.194,1.037-1.053V24.027c0-.6-.236-.843-.843-.792v1.626a1.685,1.685,0,0,1-1.685,1.685H50.271a1.685,1.685,0,0,1-1.685-1.728Zm5.056,0H50.212v1.61h3.371Z" transform="translate(-7.233 -5.486)"/><path d="M53.238,17.687H51.6A7.584,7.584,0,0,0,44.12,10.2v-1.6C48.376,8.19,53.449,12.3,53.238,17.687Z" transform="translate(-6.938 -3.452)"/><path d="M44.14,13.973V12.33a5.9,5.9,0,0,1,5.9,5.9,2.141,2.141,0,0,1-.244,0H48.4A4.39,4.39,0,0,0,44.14,13.973Z" transform="translate(-6.941 -4.044)"/><path d="M44.12,17.733v-1.4a2.443,2.443,0,0,1,2.6,2.528H45.283Z" transform="translate(-6.938 -4.669)"/><path d="M18.315,30.723H11.153A7.2,7.2,0,0,1,4.3,25.76a7.289,7.289,0,0,1,2.528-8.1,1.744,1.744,0,0,0,.531-.725,5.579,5.579,0,0,1,4.508-3.725,1.77,1.77,0,0,0,.893-.447,7.989,7.989,0,0,1,13.062,2.916.843.843,0,0,0,.775.615,7.256,7.256,0,0,1,.472,14.25,7.424,7.424,0,0,1-1.559.169C23.077,30.732,20.692,30.723,18.315,30.723Zm0-1.685h7a5.572,5.572,0,0,0,.253-11.14c-.843-.067-.935-.152-1.171-.978A6.1,6.1,0,0,0,19.849,12.4a6.008,6.008,0,0,0-6.16,1.888,1.8,1.8,0,0,1-1.315.64,3.784,3.784,0,0,0-3.5,2.815,1.728,1.728,0,0,1-.784,1.112A5.562,5.562,0,0,0,11.3,29.038Z" transform="translate(-0.617 -3.755)"/><path d="M27,48.15V46.54h1.685v1.61Z" transform="translate(-4.245 -9.426)"/><path d="M32.685,46.53v1.626H31V46.53Z" transform="translate(-4.874 -9.424)"/><path d="M36.693,46.54v1.626H35.05V46.54Z" transform="translate(-5.511 -9.426)"/><path d="M52.4,29.84a3.227,3.227,0,1,1-3.236,3.244A3.278,3.278,0,0,1,52.4,29.84Zm1.517,3.244A1.508,1.508,0,1,0,52.4,34.593a1.508,1.508,0,0,0,1.508-1.508Z" transform="translate(-7.731 -6.799)"/><path d="M50,43.156V41.53h1.685v1.626Z" transform="translate(-7.863 -8.638)"/><path d="M55.685,43.175H54V41.54h1.685Z" transform="translate(-8.493 -8.639)"/><path d="M50,45.53h1.685v1.618H50Z" transform="translate(-7.863 -9.267)"/><path d="M54,45.53h1.685v1.626H54Z" transform="translate(-8.493 -9.267)"/><path d="M50,51.156V49.53h1.685v1.626Z" transform="translate(-7.863 -9.896)"/><path d="M55.685,49.53v1.626H54V49.53Z" transform="translate(-8.493 -9.896)"/><path d="M19.9,28.3a5.9,5.9,0,1,1,5.9-5.9,5.9,5.9,0,0,1-5.9,5.9Zm4.213-5.9A4.213,4.213,0,1,0,19.9,26.612a4.272,4.272,0,0,0,4.213-4.205Z" transform="translate(-2.2 -4.7)"/><path d="M23.213,23.028,19,25.556V20.5Z" transform="translate(-2.987 -5.329)"/></g></g></g></g></g></svg>