<svg xmlns="http://www.w3.org/2000/svg" width="88" height="88" viewBox="0 0 88 88"><g transform="translate(-595 -624)"><g transform="translate(595 624)"><rect width="88" height="88" rx="20" fill="#f8f8f8"/><g transform="translate(-595 -624)"><rect width="38" height="11" rx="5.5" transform="translate(620 675)" fill="#1a9afc"/><g transform="translate(604.686 629.221)"><path d="M108.728,56.908l2.738.3-.343,6.772a.872.872,0,0,0,1.624.482l5.863-10.092a.872.872,0,0,0-.732-1.31l-2.987-.072.658-5.685a.872.872,0,0,0-1.592-.582L108.1,55.559a.872.872,0,0,0,.633,1.349Zm4.672-6.195-.35,3.017a.871.871,0,0,0,.844.971l2.469.059-3.318,5.712.2-4a.871.871,0,0,0-.777-.91l-2.131-.231Z" transform="translate(-79.058 -22.414)" fill="#17233d"/><path d="M54.137,49.653,49.1,22.713c-.416-1.663-.981-2.934-4.086-2.934h-21.4c-3.1,0-3.67,1.272-4.1,2.985l-5.031,26.9c-.045.191-.081.385-.109.583l0,.012a.009.009,0,0,1,0,0,6.114,6.114,0,0,0,6.1,6.989H48.155a6.134,6.134,0,0,0,5.982-7.594ZM21.221,23.137c.311-1.241.4-1.615,2.395-1.615h21.4c1.991,0,2.084.374,2.384,1.564l4.3,22.969a6.116,6.116,0,0,0-3.536-1.124H20.472a6.115,6.115,0,0,0-3.537,1.125ZM48.155,55.5H20.472a4.344,4.344,0,0,1-4.342-5.141l.052-.276a4.416,4.416,0,0,1,4.291-3.414H48.155a4.415,4.415,0,0,1,4.29,3.414l.052.276a4.274,4.274,0,0,1,.074.725A4.421,4.421,0,0,1,48.155,55.5Z" transform="translate(0)" fill="#17233d"/><path d="M54.545,211.858H47.164a1.4,1.4,0,1,0,0,2.807h7.381a1.4,1.4,0,1,0,0-2.807Z" transform="translate(-26.55 -162.174)" fill="#17233d"/><path d="M183.117,211.858h-7.38a1.4,1.4,0,1,0,0,2.807h7.38a1.4,1.4,0,1,0,0-2.807Z" transform="translate(-135.104 -162.174)" fill="#17233d"/></g></g></g></g></svg>