<svg xmlns="http://www.w3.org/2000/svg" width="87" height="88" viewBox="0 0 87 88"><g transform="translate(-873 -459)"><g transform="translate(873 459)"><rect width="87" height="88" rx="20" fill="#f8f8f8"/><g transform="translate(-873 -459)"><g transform="translate(898.77 472.979)"><rect width="27.341" height="50.534" rx="6.27" transform="translate(1.234 7.486)" fill="#fff"/><path d="M7.843,16.25A1.963,1.963,0,0,0,5.88,18.213V59.73a1.963,1.963,0,0,0,1.963,1.963H26.469a1.963,1.963,0,0,0,1.963-1.963v-.5H13.656a5.172,5.172,0,0,1-5.166-5.166V16.25Z" transform="translate(-2.251 -6.221)" fill="#1a9afc"/><path d="M30.9,0h-19.5A5.16,5.16,0,0,0,6.252,5.153v1.1h-1.1A5.16,5.16,0,0,0,0,11.405V54.1a5.16,5.16,0,0,0,5.153,5.153h19.5a5.16,5.16,0,0,0,5.16-5.153V53H30.9a5.166,5.166,0,0,0,5.16-5.16V5.153A5.166,5.166,0,0,0,30.9,0ZM28.575,54.1a3.925,3.925,0,0,1-3.925,3.919H5.153A3.925,3.925,0,0,1,1.234,54.1V11.405A3.925,3.925,0,0,1,5.153,7.486h1.1V8.77h-.66A3.222,3.222,0,0,0,2.37,11.992V53.509A3.222,3.222,0,0,0,5.592,56.73H24.218a3.222,3.222,0,0,0,3.222-3.222V53h1.136Zm0-2.327H27.439V11.992A3.222,3.222,0,0,0,24.218,8.77h-2.1a1.432,1.432,0,0,0-1.382,1,1.308,1.308,0,0,1-.179.346h0a1.234,1.234,0,0,1-.987.5H10.239a1.234,1.234,0,0,1-.981-.494h0a1.234,1.234,0,0,1-.179-.346,1.438,1.438,0,0,0-1.382-1h-.2V7.486H24.65a3.925,3.925,0,0,1,3.925,3.919ZM11.405,53H26.18v.5a1.963,1.963,0,0,1-1.963,1.963H5.592a1.963,1.963,0,0,1-1.963-1.956V11.992a1.963,1.963,0,0,1,1.963-1.963h.617V47.843a5.172,5.172,0,0,0,5.2,5.166Zm23.453-5.166a3.925,3.925,0,0,1-3.925,3.925H29.809V11.405a5.16,5.16,0,0,0-5.16-5.153H7.486v-1.1a3.925,3.925,0,0,1,3.919-3.919H30.9a3.925,3.925,0,0,1,3.925,3.919Z" fill="#231f20"/></g></g></g></g></svg>