<svg xmlns="http://www.w3.org/2000/svg" width="88" height="88" viewBox="0 0 88 88"><g transform="translate(-1427 -459)"><g transform="translate(1427 459)"><rect width="88" height="88" rx="20" fill="#f8f8f8"/><g transform="translate(-1427 -459)"><rect width="17" height="3" transform="translate(1462 484)" fill="#1a9afc"/><rect width="6" height="7" rx="2" transform="translate(1468 477)" fill="#1a9afc"/><path d="M0,0H3V5H0L-.271,2.311Z" transform="translate(1462 493)" fill="#1a9afc"/><path d="M0,0H3V5H0L-.271,2.311Z" transform="translate(1479.729 498) rotate(180)" fill="#1a9afc"/><g transform="translate(1443.002 476.016)"><g transform="translate(10.998 -0.016)"><path d="M13.175,53.062a2.759,2.759,0,0,1-2.1-2.114A3.723,3.723,0,0,1,11,50.178V39.707a9.658,9.658,0,0,1,3.723-7.8c1.176-.955,2.361-1.91,3.538-2.892a6.978,6.978,0,0,0,2.467-4.855c0-.23,0-.354-.274-.451a4.422,4.422,0,0,1,.1-8.543c.062,0,.115-.053.221-.1a11.215,11.215,0,0,1,0-1.335,10.18,10.18,0,0,1,.354-1.353H20.64a2.654,2.654,0,1,1,.088-5.306h3.538V5.57a19.456,19.456,0,0,1,.088-2.653A3.476,3.476,0,0,1,28.1,0a3.538,3.538,0,0,1,3.246,3.458V7.073h3.538a2.648,2.648,0,0,1,.69,5.209,6.3,6.3,0,0,1-.991.124c.133.884.265,1.769.407,2.724.177.053.425.124.663.221a4.422,4.422,0,0,1,2.768,4.183,4.342,4.342,0,0,1-3.06,4.112c-.389.124-.469.292-.425.654a6.8,6.8,0,0,0,2.352,4.634c1.256,1.079,2.574,2.1,3.829,3.166a9.313,9.313,0,0,1,3.493,7.234V50.408a2.653,2.653,0,0,1-1.769,2.565,1.875,1.875,0,0,0-.274.124ZM27.8,51.293H41.715c.8,0,1.114-.3,1.114-1.079V39.433a7.615,7.615,0,0,0-2.8-5.934c-1.105-.946-2.229-1.857-3.361-2.759a8.977,8.977,0,0,1-3.538-7.473V14.361a1.769,1.769,0,0,0-2.016-1.981h-6.58A1.769,1.769,0,0,0,22.5,14.423v9.171a8.694,8.694,0,0,1-3.272,6.916c-1.114.884-2.246,1.848-3.37,2.759A7.96,7.96,0,0,0,12.769,39.8V50.063c0,.955.274,1.229,1.238,1.229H27.8m0-40.682h6.934c.663,0,1.052-.345,1.052-.884s-.407-.884-1.061-.884h-13.6a2.8,2.8,0,0,0-.61.053.822.822,0,0,0-.672.831.831.831,0,0,0,.769.822,3.432,3.432,0,0,0,.522,0H27.8m1.769-3.538a3.043,3.043,0,0,0,0-.4q0-1.526,0-3.051a1.77,1.77,0,1,0-3.538.044v3.1a2.653,2.653,0,0,0,.044.345ZM34.878,21.9a2.574,2.574,0,0,0,1.769-2.777,2.344,2.344,0,0,0-1.769-2.069Zm-14.15-4.891a2.547,2.547,0,0,0-1.769,2.653,2.423,2.423,0,0,0,1.769,2.184Z" transform="translate(-10.998 0.016)"/><path d="M16.769,45.972v2.892c0,.708-.318,1.088-.884,1.088S15,49.545,15,48.837V43.1c0-.69.345-1.1.884-1.088s.884.4.884,1.061v2.9" transform="translate(-11.461 -4.843)"/><path d="M16.767,54.329v.46a.884.884,0,0,1-1.769,0,5.908,5.908,0,0,1,0-.884.884.884,0,1,1,1.769,0v.363Z" transform="translate(-11.459 -6.116)"/></g></g></g></g></g></svg>