<svg xmlns="http://www.w3.org/2000/svg" width="88" height="88" viewBox="0 0 88 88"><g transform="translate(-734 -459)"><g transform="translate(734 459)"><rect width="88" height="88" rx="20" fill="#f8f8f8"/><g transform="translate(-734 -459)"><g transform="translate(0 53)"><rect width="9" height="9" transform="translate(774 444)" fill="#1a9afc"/><g transform="translate(778 446)" fill="none" stroke="#1a9afc" stroke-width="1.5"><circle cx="5.5" cy="5.5" r="5.5" stroke="none"/><circle cx="5.5" cy="5.5" r="4.75" fill="none"/></g></g><g transform="translate(750.35 476)"><g transform="translate(13.65)"><path d="M38.244,53.061H17.974a4.324,4.324,0,0,1-4.324-4.324V4.324A4.324,4.324,0,0,1,17.974,0H38.244a4.324,4.324,0,0,1,4.324,4.324V48.736a4.324,4.324,0,0,1-4.324,4.324ZM17.974,1.53A2.8,2.8,0,0,0,15.18,4.324V48.736a2.8,2.8,0,0,0,2.795,2.795H38.244a2.8,2.8,0,0,0,2.795-2.795V4.324A2.8,2.8,0,0,0,38.244,1.53Z" transform="translate(-13.65)"/><g transform="translate(2.388 2.078)"><path d="M23.345,7.01H17.862A1.521,1.521,0,0,1,16.35,5.5V3.862A1.521,1.521,0,0,1,17.862,2.35h5.483a1.521,1.521,0,0,1,1.539,1.512V5.5A1.521,1.521,0,0,1,23.345,7.01ZM17.88,3.88V5.5h5.465V3.88Z" transform="translate(-16.35 -2.35)"/></g><g transform="translate(16.228 24.638)"><path d="M33.344,34.174H32V32.635h1.362a.884.884,0,0,0,.84-.84V27.86h1.512V31.8a2.379,2.379,0,0,1-2.37,2.379Z" transform="translate(-32 -27.86)"/></g><g transform="translate(8.967 20.004)"><path d="M29.087,33.568H26.16a2.379,2.379,0,0,1-2.37-2.379V25a2.37,2.37,0,0,1,2.37-2.379h6.235A2.37,2.37,0,0,1,34.765,25v.442h-1.53V25a.884.884,0,0,0-.84-.884H26.16a.884.884,0,0,0-.84.884v6.19a.884.884,0,0,0,.84.84h2.927Z" transform="translate(-23.79 -22.62)"/></g><g transform="translate(12.16 23.161)"><path d="M29.7,30.771a2.29,2.29,0,1,1,2.282-2.282A2.29,2.29,0,0,1,29.7,30.771Zm0-3.033a.752.752,0,1,0,.752.752A.752.752,0,0,0,29.7,27.738Z" transform="translate(-27.4 -26.19)"/></g><g transform="translate(13.266 21.949)"><path d="M35.23,38a6.571,6.571,0,0,1-6.323-8.384l1.468.424a5.173,5.173,0,0,0-.195,1.4A5.058,5.058,0,1,0,31.6,27.9l-1.1-1.07A6.571,6.571,0,1,1,35.23,37.961Z" transform="translate(-28.652 -24.82)"/></g><g transform="translate(15.343 24.063)"><path d="M35.5,36.195A4.492,4.492,0,1,1,39.985,31.7,4.492,4.492,0,0,1,35.5,36.195Zm0-7.959A3.467,3.467,0,1,0,38.959,31.7,3.467,3.467,0,0,0,35.5,28.236Z" transform="translate(-31 -27.21)"/></g></g></g></g></g></g></svg>