<svg xmlns="http://www.w3.org/2000/svg" width="87" height="88" viewBox="0 0 87 88"><g transform="translate(-1011 -624)"><g transform="translate(1011 624)"><rect width="87" height="88" rx="20" fill="#f8f8f8"/><g transform="translate(-1011 -624)"><rect width="9" height="14" rx="3" transform="translate(1074 662)" fill="#1a9afc"/><g transform="translate(1024.02 637.599)"><path d="M23.23,17.42H42.71a3.42,3.42,0,0,1,3.74,3.76V38.84a3.42,3.42,0,0,1-3.76,3.74H3.74A3.42,3.42,0,0,1,0,38.82V21.16a3.42,3.42,0,0,1,3.76-3.74H23.23m-.07,23.22H42.69c1.31,0,1.82-.51,1.82-1.83V21.22c0-1.36-.5-1.86-1.85-1.86H3.79c-1.36,0-1.85.5-1.85,1.86V38.75c0,1.4.48,1.89,1.88,1.89H23.16"/><path d="M59.89,31a28.461,28.461,0,0,1,0,3.92,5.69,5.69,0,0,1-6.1,4.77A5.79,5.79,0,0,1,48.4,34.1c0-2.09,0-4.19,0-6.28A5.8,5.8,0,0,1,60,27.77c0,1.07,0,2.14,0,3.2h-.1m-9.57-1.91v4.81a3.87,3.87,0,0,0,3.53,3.86A3.73,3.73,0,0,0,58,34.49c.18-1.79,0-3.61,0-5.43Zm2.9-2V24.39a3.43,3.43,0,0,0-2.69,2.69Zm4.63,0a3.44,3.44,0,0,0-2.66-2.67v2.67Z"/><path d="M23.29,33.87H35.44c1,0,1.33.3,1.33,1.33v3.33c0,.79-.36,1.14-1.15,1.14H10.83c-.79,0-1.15-.35-1.15-1.14V35.08c0-.87.34-1.21,1.21-1.21h12.4m11.52,2H11.66v1.86H34.81Z"/><path d="M4.84,23.17V21.36a1,1,0,0,1,1-1H9.59a.94.94,0,0,1,1,1q0,1.88,0,3.75a1,1,0,0,1-1,1H5.84a1,1,0,0,1-1-1V23.18m3.85-.88H6.81v1.86H8.69Z"/><path d="M12.58,23.23V21.35a.94.94,0,0,1,1-1h3.75a1,1,0,0,1,1,1V25.1a1,1,0,0,1-1,1H13.58a.94.94,0,0,1-1-1c0-.62,0-1.25,0-1.87m3.85-.92H14.55v1.85h1.88Z"/><path d="M20.32,23.22V21.35a1,1,0,0,1,1-1h3.74a1,1,0,0,1,1,1v3.74a.94.94,0,0,1-1,1H21.31a.94.94,0,0,1-1-1V23.21m2,.93h1.85V22.27H22.29Z"/><path d="M33.87,23.26v1.76a1.03,1.03,0,0,1-1.07,1.1H29.11a1,1,0,0,1-1-1.06V21.37a1,1,0,0,1,1.06-1h3.69a1,1,0,0,1,1,1.06V23.3m-3.85.9H31.9V22.3H30Z"/><path d="M38.71,26.13H36.83a1,1,0,0,1-1-1V21.38a1,1,0,0,1,1-1h3.75a1,1,0,0,1,1,1v3.75a1,1,0,0,1-1,1H38.71m.95-3.83H37.78v1.84h1.88Z"/><path d="M11.65,27.1h1.81a1,1,0,0,1,1,1.06v3.69a1,1,0,0,1-1.06,1H9.76a1,1,0,0,1-1-1.06V28.1a1,1,0,0,1,1.06-1H11.7m.9,2H10.69v1.87h1.86Z"/><path d="M19.29,32.9H17.48a1,1,0,0,1-1-1V28.15a.94.94,0,0,1,1-1h3.75a1,1,0,0,1,1,1V31.9a1,1,0,0,1-1,1H19.29m-.87-2h1.86V29.06H18.42Z"/><path d="M27.15,27.1h1.82a1,1,0,0,1,1,1v3.75a1,1,0,0,1-1,1H25.22a1,1,0,0,1-1-1V28.1a1,1,0,0,1,1-1h1.93m-1,3.84H28V29.08H26.15Z"/><path d="M34.88,27.1h1.76a1,1,0,0,1,1.1,1.07V31.8a1,1,0,0,1-1.08,1.1H33a1,1,0,0,1-1.09-1.07q0-1.815,0-3.63c0-.75.37-1.09,1.13-1.1h1.81m.88,2H33.91V31h1.85Z"/><path d="M5.8,39.68H3.93a1,1,0,0,1-1-1V34.94a.94.94,0,0,1,1-1H7.68a1,1,0,0,1,1,1v3.75a1,1,0,0,1-1,1H5.8m-1-2H6.73V35.85H4.85Z"/><path d="M37.74,36.78V34.9a1,1,0,0,1,1-1h3.75a.94.94,0,0,1,1,1q0,1.88,0,3.75a1,1,0,0,1-1,1H38.74a1,1,0,0,1-1-1.08V36.76m3.84-.94H39.72v1.87h1.86Z"/></g></g></g></g></svg>