<svg xmlns="http://www.w3.org/2000/svg" width="88" height="88" viewBox="0 0 88 88"><g transform="translate(-1149 -459)"><g transform="translate(1149 459)"><rect width="88" height="88" rx="20" fill="#f8f8f8"/><g transform="translate(-1149 -459)"><rect width="4" height="3" transform="translate(1205 482)" fill="#1a9afc"/><rect width="4" height="3" transform="translate(1182 523) rotate(180)" fill="#1a9afc"/><path d="M0,0H5L4.3,8H0Z" transform="translate(1205 485)" fill="#1a9afc"/><path d="M0,0H5L4.7,7.615.223,7.963Z" transform="translate(1182 520) rotate(180)" fill="#1a9afc"/><g transform="translate(1170.17 481)"><path d="M12.074,40.353v1.919c0,.589-.259.834-.855.841H7.389c-.589,0-.834-.259-.841-.855s0-1.25,0-1.9c-.575-.1-.719-.481-.719-1.013V32.952c0-.647.086-.776.51-.941.295-.568.546-1.006.762-1.437a1.222,1.222,0,0,0,.115-.532V2.881A2.759,2.759,0,0,1,10.091.007h12.23a2.788,2.788,0,0,1,2.96,2.96V38.895h9.736V13.063a1.7,1.7,0,0,0-.23-.661c-.079-.18-.223-.338-.295-.525-.137-.381-.151-.819-.639-1.006-.122-.043-.2-.345-.2-.532V3.514c0-.453.266-.675.719-.783V.819c0-.64.2-.819.8-.819h3.866c.589,0,.834.251.841.855s0,1.243,0,1.9c.6.115.719.525.719,1.056v6.345c0,.654-.086.783-.51.948-.295.56-.546,1.006-.762,1.437a1.214,1.214,0,0,0-.115.525V40.181a2.781,2.781,0,0,1-2.874,2.874H24.124a2.788,2.788,0,0,1-2.96-2.968V4.16H11.377V29.992a1.832,1.832,0,0,0,.237.661c.079.18.223.338.287.525.144.381.158.819.647,1.006.122.043.2.345.2.532v6.826a.762.762,0,0,1-.719.776M36.4,13.228V38.607c0,1.222-.5,1.725-1.7,1.725H25.619c-1.236,0-1.725-.5-1.725-1.739V3a1.437,1.437,0,0,0-1.6-1.61H10.213A1.437,1.437,0,0,0,8.6,3.025V29.87H9.99V4.548c0-1.279.481-1.768,1.739-1.768h9.039c1.243,0,1.732.5,1.732,1.739V40.066a1.437,1.437,0,0,0,1.645,1.653H36.131c1.142,0,1.66-.517,1.66-1.674V13.228ZM39.17,4.2H35.039v5.5H39.17ZM7.238,38.9h4.117V33.4H7.238ZM38.473,1.437H35.736V2.759h2.738ZM7.921,41.675h2.738V40.361H7.921Zm27.8-30.531a.675.675,0,0,0,.719.675h1.336a.719.719,0,0,0,.719-.675ZM7.892,31.961h2.781a.719.719,0,0,0-.719-.668h-1.3a.719.719,0,0,0-.762.668"/></g></g></g></g></svg>